<svg width="496" height="402" viewBox="0 0 496 402" fill="none" xmlns="http://www.w3.org/2000/svg">
<path d="M406.261 51.3574L322.179 63.1381C307.631 65.1765 297.741 78.1341 300.088 92.0798L313.653 172.681C316 186.627 329.696 196.279 344.244 194.241L428.326 182.46C442.874 180.422 452.765 167.464 450.418 153.519L436.852 72.9176C434.505 58.9719 420.809 49.319 406.261 51.3574Z" fill="#46001E"/>
<path d="M414.39 159.641C408.777 160.427 404.405 157.964 402.839 148.656L402.502 146.656L408.738 145.782L409.075 147.784C409.907 152.731 411.507 153.895 413.379 153.633C415.25 153.371 416.33 151.832 415.944 149.536C415.458 146.649 414.754 145.119 409.884 142.733C404.186 139.973 401.193 136.595 400.39 131.824C399.369 125.757 402.121 121.633 407.859 120.829C411.85 120.27 417.348 120.705 419.013 130.601L419.398 132.89L413.162 133.764L412.776 131.466C412.122 127.579 410.594 126.466 408.849 126.711C406.977 126.973 406.198 128.409 406.584 130.705C406.981 133.062 407.869 134.927 412.77 137.496C418.858 140.683 421.317 143.534 422.179 148.659C423.042 153.784 421.31 158.672 414.39 159.641ZM393.124 162.62C387.512 163.406 383.221 161.419 381.574 151.635L381.237 149.634L387.478 148.76L387.815 150.762C388.647 155.709 390.248 156.873 392.118 156.611C393.988 156.349 395.071 154.81 394.684 152.514C394.198 149.627 393.494 148.097 388.624 145.711C382.927 142.95 379.926 139.568 379.123 134.797C378.102 128.73 380.856 124.606 386.592 123.803C390.583 123.244 396.083 123.678 397.748 133.574L398.134 135.869L391.898 136.742L391.511 134.445C390.857 130.557 389.329 129.445 387.583 129.69C385.713 129.952 384.932 131.388 385.319 133.684C385.715 136.041 386.605 137.906 391.504 140.475C397.594 143.661 400.052 146.513 400.915 151.638C401.777 156.763 400.047 161.65 393.124 162.62ZM407.362 117.877C401.749 118.664 397.377 116.202 395.811 106.893L395.474 104.892L401.71 104.019L402.047 106.021C402.88 110.968 404.48 112.132 406.351 111.87C408.223 111.607 409.303 110.07 408.916 107.772C408.431 104.886 407.727 103.357 402.856 100.964C397.158 98.2052 394.164 94.8258 393.361 90.0547C392.34 83.9875 395.093 79.8638 400.831 79.0601C404.821 78.501 410.32 78.937 411.985 88.8321L412.371 91.1297L406.136 92.0033L405.749 89.7057C405.095 85.8184 403.567 84.7057 401.822 84.9503C399.95 85.2124 399.171 86.6483 399.558 88.9459C399.954 91.3017 400.842 93.1668 405.743 95.7367C411.832 98.9234 414.29 101.774 415.152 106.899C416.015 112.024 414.282 116.908 407.362 117.877ZM386.097 120.856C380.485 121.643 376.193 119.656 374.547 109.872L374.21 107.871L380.45 106.997L380.787 109C381.62 113.947 383.22 115.11 385.09 114.848C386.961 114.586 388.043 113.048 387.657 110.75C387.171 107.865 386.467 106.335 381.596 103.942C375.897 101.183 372.903 97.8041 372.1 93.033C371.079 86.9658 373.833 82.842 379.57 82.0384C383.56 81.4793 389.06 81.9152 390.725 91.8103L391.112 94.1079L384.871 94.9821L384.485 92.6845C383.83 88.7972 382.302 87.6847 380.556 87.9293C378.686 88.1913 377.905 89.6272 378.292 91.9248C378.688 94.2807 379.578 96.1456 384.477 98.7157C390.567 101.902 393.025 104.752 393.888 109.877C394.75 115.003 393.019 119.887 386.097 120.856ZM345.131 154.692L346.377 154.518C349.122 154.133 350.276 152.645 349.264 146.636L348.69 143.22C347.679 137.212 346.089 136.109 343.344 136.493L342.098 136.668L345.131 154.692ZM347.44 168.416L341.204 169.29L334.871 131.65L342.353 130.602C350.46 129.466 353.439 133.511 354.826 141.758L355.599 146.352C356.987 154.597 355.476 159.272 347.368 160.408L346.122 160.583L347.44 168.416ZM338.359 106.864L337.112 107.039L335.07 94.9043L336.317 94.7296C339.124 94.3364 340.581 95.0325 341.276 99.1593L341.632 101.28C342.326 105.404 341.169 106.47 338.359 106.864ZM353.199 124.863L345.758 109.867C347.758 107.718 348.562 104.53 347.938 100.819L347.442 97.8735C346.282 90.9818 342.435 87.8434 335.326 88.8394L327.843 89.8876L334.177 127.528L340.413 126.654L338.103 112.929L338.918 112.815C339.398 112.751 339.873 112.664 340.343 112.554L346.404 125.815L353.199 124.863ZM365.024 151.9L365.171 133.425L365.671 133.355L371.883 150.945L365.024 151.9ZM376.564 164.331L382.803 163.457L369.542 126.793L359.316 128.226L358.666 166.844L364.902 165.97L365.018 157.936L373.873 156.695L376.564 164.331ZM364.458 123.888C356.788 124.962 354.431 119.685 353.311 113.03L348.92 86.935L355.406 86.0264L359.886 112.651C360.669 117.305 361.721 118.245 363.467 118.001C365.213 117.756 365.908 116.574 365.125 111.917L360.645 85.2926L367.13 84.3842L371.521 110.479C372.64 117.134 372.128 122.813 364.458 123.888Z" fill="#46001E"/>
<path d="M326.72 57.5046L407.107 46.2353C420.85 44.3087 433.835 53.7354 436.116 67.2823L449.468 146.572C451.749 160.119 442.464 172.668 428.722 174.594L348.334 185.864C334.592 187.79 321.607 178.363 319.326 164.817L305.974 85.5266C303.693 71.9798 312.977 59.4312 326.72 57.5046Z" fill="#FF3000" stroke="#46001E" stroke-width="0.619607"/>
<path d="M415.271 152.074C409.904 152.826 405.704 150.345 404.14 141.052L403.804 139.055L409.765 138.22L410.102 140.218C410.933 145.157 412.472 146.327 414.261 146.077C416.05 145.826 417.073 144.298 416.688 142.005C416.203 139.123 415.518 137.594 410.841 135.186C405.37 132.4 402.481 129.014 401.68 124.251C400.661 118.194 403.266 114.098 408.751 113.329C412.566 112.795 417.831 113.26 419.493 123.139L419.878 125.424L413.916 126.259L413.53 123.966C412.877 120.085 411.408 118.967 409.739 119.201C407.95 119.451 407.214 120.879 407.6 123.171C407.996 125.524 408.859 127.389 413.566 129.979C419.415 133.193 421.788 136.051 422.648 141.167C423.509 146.283 421.886 151.148 415.271 152.074ZM394.941 154.922C389.576 155.674 385.455 153.667 383.812 143.9L383.476 141.903L389.441 141.067L389.778 143.066C390.609 148.004 392.148 149.175 393.936 148.924C395.724 148.674 396.749 147.145 396.364 144.852C395.879 141.971 395.194 140.441 390.517 138.033C385.045 135.246 382.151 131.856 381.349 127.093C380.33 121.037 382.937 116.94 388.421 116.172C392.236 115.637 397.501 116.103 399.164 125.982L399.549 128.272L393.588 129.107L393.202 126.814C392.549 122.933 391.078 121.815 389.409 122.048C387.621 122.299 386.885 123.727 387.27 126.019C387.666 128.372 388.53 130.237 393.237 132.827C399.087 136.041 401.459 138.898 402.32 144.015C403.181 149.131 401.559 153.995 394.941 154.922ZM408.255 110.383C402.889 111.134 398.689 108.654 397.125 99.3608L396.789 97.3635L402.75 96.5284L403.087 98.5279C403.918 103.466 405.457 104.636 407.246 104.385C409.035 104.134 410.058 102.607 409.672 100.314C409.188 97.4328 408.503 95.9033 403.825 93.4886C398.354 90.7043 395.465 87.3167 394.664 82.5539C393.644 76.4971 396.25 72.4005 401.735 71.6321C405.55 71.0976 410.815 71.5643 412.477 81.4423L412.863 83.7359L406.902 84.5711L406.516 82.2774C405.863 78.3969 404.393 77.2783 402.724 77.5121C400.935 77.7628 400.2 79.1902 400.585 81.4839C400.981 83.8357 401.844 85.7008 406.552 88.2922C412.401 91.5055 414.773 94.3622 415.634 99.4785C416.495 104.595 414.871 109.456 408.255 110.383ZM387.926 113.231C382.561 113.982 378.44 111.976 376.796 102.209L376.46 100.211L382.426 99.3755L382.763 101.375C383.594 106.314 385.133 107.483 386.921 107.232C388.709 106.982 389.734 105.454 389.348 103.161C388.864 100.28 388.179 98.7505 383.501 96.3358C378.029 93.5517 375.14 90.1641 374.338 85.4012C373.319 79.3444 375.926 75.2477 381.41 74.4794C385.225 73.9449 390.491 74.4114 392.153 84.2895L392.539 86.5831L386.573 87.4189L386.187 85.1252C385.534 81.2447 384.064 80.1263 382.395 80.3601C380.607 80.6106 379.87 82.0382 380.256 84.3318C380.652 86.6836 381.515 88.5486 386.222 91.1401C392.072 94.3533 394.444 97.21 395.305 102.326C396.166 107.443 394.543 112.303 387.926 113.231ZM348.958 146.738L350.15 146.572C352.773 146.204 353.867 144.726 352.858 138.728L352.284 135.318C351.275 129.319 349.745 128.21 347.122 128.578L345.93 128.745L348.958 146.738ZM351.263 160.439L345.302 161.274L338.979 123.699L346.132 122.697C353.883 121.611 356.761 125.662 358.146 133.895L358.918 138.481C360.303 146.712 358.889 151.366 351.139 152.452L349.947 152.619L351.263 160.439ZM342.145 98.9998L340.953 99.1667L338.915 87.0532L340.107 86.8863C342.79 86.5103 344.19 87.213 344.883 91.3327L345.239 93.4497C345.932 97.5662 344.832 98.6234 342.145 98.9998ZM356.471 117.036L349.246 102.038C351.146 99.9057 351.893 96.7311 351.27 93.0261L350.775 90.0861C349.617 83.2062 345.914 80.054 339.117 81.0062L331.964 82.0083L338.287 119.583L344.248 118.748L341.943 105.047L342.722 104.938C343.18 104.877 343.635 104.793 344.083 104.686L349.976 117.946L356.471 117.036ZM367.976 144.069L367.988 125.645L368.466 125.578L374.532 143.156L367.976 144.069ZM379.105 156.533L385.07 155.697L372.125 119.055L362.349 120.425L361.995 158.935L367.957 158.1L368.012 150.088L376.478 148.902L379.105 156.533ZM367.239 116.129C359.907 117.156 357.615 111.879 356.497 105.235L352.114 79.1856L358.314 78.3169L362.786 104.896C363.568 109.541 364.581 110.486 366.25 110.252C367.919 110.018 368.577 108.843 367.794 104.194L363.322 77.6154L369.521 76.7469L373.905 102.797C375.023 109.441 374.572 115.101 367.239 116.129Z" fill="white"/>
<path d="M370.742 180.383L370.066 177.306L369.596 177.481C366.557 178.124 363.388 177.537 360.781 175.847C358.175 174.158 356.344 171.504 355.691 168.468C355.619 168.188 355.568 167.904 355.539 167.617L353.88 167.976L324.814 174.357L131.18 216.865L100.435 223.612C100.563 223.866 100.663 224.133 100.73 224.41C101.063 225.914 101.095 227.47 100.825 228.987C100.555 230.504 99.989 231.953 99.1583 233.251C98.3277 234.548 97.2492 235.67 95.9846 236.55C94.72 237.43 93.2941 238.053 91.7886 238.381L91.3182 238.555L91.9936 241.632C92.4892 241.54 93.0011 241.644 93.4213 241.922C93.8415 242.201 94.137 242.632 94.2452 243.124C94.303 243.372 94.3104 243.628 94.267 243.879C94.2236 244.13 94.1303 244.369 93.9926 244.583C93.8548 244.797 93.6755 244.981 93.4653 245.124C93.255 245.267 93.0181 245.366 92.7687 245.416L93.3288 247.931C93.8257 247.838 94.3393 247.941 94.7625 248.217C95.1857 248.494 95.486 248.923 95.6008 249.415C95.6555 249.662 95.6607 249.918 95.6159 250.168C95.5712 250.417 95.4776 250.656 95.3403 250.869C95.203 251.082 95.0248 251.266 94.8161 251.41C94.6074 251.554 94.3722 251.655 94.1242 251.707L94.6639 254.229C94.9109 254.174 95.1663 254.169 95.4155 254.213C95.6647 254.256 95.9028 254.349 96.1162 254.485C96.3297 254.62 96.5144 254.797 96.6596 255.004C96.8049 255.211 96.9078 255.445 96.9628 255.692C97.0177 255.939 97.0234 256.194 96.9796 256.443C96.9359 256.693 96.8434 256.931 96.7076 257.144C96.5718 257.358 96.3953 257.542 96.1881 257.688C95.981 257.833 95.7472 257.936 95.5002 257.991L96.0399 260.513C96.5387 260.402 97.0611 260.494 97.4922 260.768C97.9234 261.042 98.2279 261.477 98.3388 261.975C98.4497 262.474 98.3579 262.997 98.0837 263.428C97.8094 263.859 97.375 264.163 96.8762 264.274L97.4363 266.789C97.6838 266.735 97.9395 266.731 98.1886 266.776C98.4377 266.821 98.6756 266.915 98.8884 267.052C99.1013 267.189 99.2851 267.367 99.4293 267.575C99.5735 267.783 99.6752 268.018 99.7288 268.265C99.7824 268.513 99.7867 268.768 99.7415 269.018C99.6963 269.267 99.6024 269.505 99.4653 269.717C99.3282 269.93 99.1506 270.114 98.9424 270.258C98.7343 270.402 98.4997 270.504 98.2523 270.558L98.8124 273.072C99.3122 272.964 99.8345 273.059 100.264 273.336C100.694 273.613 100.997 274.049 101.105 274.549C101.213 275.049 101.118 275.571 100.841 276.001C100.564 276.431 100.128 276.733 99.6283 276.841L100.188 279.356C100.688 279.248 101.211 279.342 101.64 279.619C102.07 279.896 102.373 280.333 102.481 280.832C102.589 281.332 102.494 281.854 102.217 282.284C101.941 282.714 101.504 283.017 101.004 283.125L101.564 285.639C101.811 285.584 102.067 285.579 102.316 285.622C102.565 285.666 102.803 285.759 103.017 285.894C103.23 286.03 103.415 286.207 103.56 286.414C103.705 286.621 103.808 286.855 103.863 287.102C103.918 287.349 103.924 287.604 103.88 287.853C103.836 288.103 103.744 288.341 103.608 288.554C103.472 288.768 103.296 288.952 103.089 289.097C102.882 289.243 102.648 289.346 102.401 289.401L102.933 291.902C103.42 291.826 103.918 291.938 104.326 292.216C104.733 292.494 105.02 292.916 105.127 293.398C105.235 293.879 105.155 294.383 104.904 294.808C104.653 295.233 104.25 295.546 103.777 295.684L104.309 298.186C104.796 298.11 105.294 298.222 105.702 298.5C106.109 298.777 106.396 299.2 106.503 299.681C106.611 300.163 106.531 300.667 106.28 301.091C106.029 301.516 105.626 301.829 105.153 301.968L105.705 304.462C106.197 304.381 106.7 304.492 107.112 304.772C107.523 305.052 107.812 305.479 107.917 305.965C108.023 306.452 107.938 306.96 107.679 307.385C107.421 307.811 107.009 308.121 106.529 308.251L107.081 310.745C107.573 310.664 108.076 310.775 108.488 311.055C108.899 311.335 109.188 311.762 109.293 312.249C109.399 312.735 109.314 313.243 109.055 313.669C108.797 314.094 108.385 314.404 107.905 314.535L108.457 317.029C108.953 316.936 109.465 317.04 109.885 317.319C110.305 317.597 110.601 318.028 110.709 318.52C110.767 318.768 110.774 319.025 110.731 319.276C110.687 319.526 110.594 319.765 110.456 319.979C110.319 320.193 110.139 320.377 109.929 320.52C109.719 320.664 109.482 320.763 109.232 320.813L109.793 323.327C110.29 323.235 110.803 323.337 111.226 323.614C111.65 323.89 111.95 324.319 112.065 324.811C112.119 325.059 112.124 325.315 112.08 325.564C112.035 325.814 111.941 326.052 111.804 326.265C111.667 326.479 111.489 326.662 111.28 326.806C111.071 326.95 110.836 327.051 110.588 327.104L111.128 329.626C111.351 329.579 111.582 329.581 111.804 329.631C112.186 329.692 112.54 329.866 112.821 330.131C113.102 330.396 113.297 330.74 113.379 331.118C113.484 331.617 113.387 332.138 113.111 332.567C112.835 332.996 112.401 333.299 111.903 333.41L112.442 335.932C112.941 335.821 113.464 335.913 113.895 336.187C114.326 336.462 114.63 336.896 114.741 337.395C114.852 337.893 114.76 338.416 114.486 338.847C114.212 339.278 113.777 339.583 113.279 339.694L114.004 343.031L114.475 342.856C115.979 342.524 117.535 342.492 119.052 342.762C120.569 343.031 122.018 343.598 123.316 344.428C124.614 345.259 125.735 346.338 126.615 347.602C127.496 348.867 128.118 350.293 128.446 351.798C128.529 352.075 128.58 352.361 128.599 352.649L159.324 345.909L352.957 303.401L383.703 296.654C383.584 296.396 383.485 296.13 383.407 295.857C383.077 294.35 383.047 292.793 383.319 291.275C383.59 289.757 384.159 288.308 384.991 287.01C385.823 285.711 386.903 284.59 388.169 283.709C389.435 282.829 390.863 282.206 392.369 281.877L392.819 281.711L392.094 278.373C391.847 278.428 391.591 278.434 391.342 278.39C391.093 278.346 390.855 278.254 390.641 278.118C390.21 277.844 389.906 277.41 389.795 276.911C389.684 276.412 389.776 275.89 390.05 275.458C390.324 275.027 390.758 274.723 391.257 274.612L390.718 272.09C390.219 272.201 389.696 272.109 389.265 271.835C388.834 271.56 388.53 271.126 388.419 270.627C388.308 270.128 388.4 269.606 388.674 269.175C388.948 268.744 389.382 268.439 389.881 268.328L389.342 265.806C388.844 265.911 388.324 265.813 387.898 265.535C387.472 265.256 387.174 264.82 387.07 264.322C386.959 263.821 387.051 263.296 387.326 262.862C387.602 262.429 388.038 262.122 388.539 262.009L387.978 259.495C387.482 259.593 386.968 259.491 386.546 259.212C386.124 258.933 385.83 258.498 385.727 258.003C385.616 257.502 385.708 256.977 385.984 256.543C386.259 256.11 386.695 255.803 387.196 255.69L386.636 253.176C386.136 253.284 385.614 253.189 385.184 252.912C384.754 252.635 384.451 252.199 384.343 251.699C384.235 251.199 384.33 250.677 384.607 250.247C384.884 249.817 385.32 249.515 385.82 249.407L385.267 246.913C384.776 246.993 384.273 246.882 383.861 246.603C383.45 246.323 383.161 245.895 383.055 245.409C382.95 244.923 383.035 244.414 383.293 243.989C383.552 243.564 383.963 243.254 384.444 243.123L383.891 240.629C383.404 240.705 382.906 240.593 382.498 240.315C382.091 240.038 381.804 239.615 381.697 239.134C381.589 238.652 381.669 238.148 381.92 237.724C382.171 237.299 382.574 236.986 383.047 236.847L382.515 234.346C382.028 234.422 381.53 234.31 381.122 234.032C380.715 233.754 380.428 233.332 380.321 232.85C380.213 232.369 380.293 231.865 380.544 231.44C380.795 231.015 381.198 230.702 381.671 230.564L381.139 228.062C380.652 228.138 380.154 228.026 379.746 227.748C379.339 227.471 379.052 227.048 378.945 226.567C378.837 226.085 378.917 225.581 379.168 225.157C379.419 224.732 379.822 224.419 380.295 224.28L379.743 221.786C379.247 221.879 378.735 221.774 378.315 221.496C377.895 221.218 377.599 220.787 377.491 220.295C377.436 220.047 377.431 219.791 377.476 219.542C377.521 219.292 377.614 219.054 377.752 218.841C377.889 218.627 378.067 218.444 378.276 218.3C378.485 218.156 378.72 218.055 378.968 218.002L378.408 215.488C377.912 215.58 377.4 215.476 376.98 215.197C376.56 214.919 376.264 214.488 376.156 213.996C376.098 213.748 376.091 213.491 376.134 213.241C376.178 212.99 376.271 212.751 376.409 212.537C376.546 212.323 376.726 212.139 376.936 211.996C377.146 211.853 377.383 211.753 377.633 211.703L377.073 209.189C376.577 209.281 376.065 209.177 375.645 208.899C375.225 208.62 374.929 208.19 374.821 207.697C374.766 207.45 374.761 207.194 374.806 206.944C374.851 206.695 374.944 206.456 375.081 206.243C375.219 206.03 375.397 205.846 375.606 205.702C375.814 205.559 376.05 205.457 376.298 205.405L375.737 202.89C375.49 202.945 375.235 202.951 374.986 202.907C374.737 202.863 374.498 202.771 374.285 202.635C373.854 202.361 373.549 201.927 373.439 201.428C373.328 200.929 373.419 200.407 373.694 199.975C373.968 199.544 374.402 199.24 374.901 199.129L374.361 196.607C374.114 196.662 373.859 196.668 373.61 196.624C373.361 196.58 373.122 196.488 372.909 196.352C372.696 196.216 372.511 196.039 372.366 195.832C372.22 195.625 372.117 195.391 372.062 195.144C372.008 194.897 372.002 194.642 372.046 194.393C372.089 194.144 372.182 193.905 372.318 193.692C372.453 193.479 372.63 193.294 372.837 193.149C373.044 193.003 373.278 192.9 373.525 192.845L372.985 190.323C372.487 190.428 371.968 190.33 371.542 190.052C371.116 189.773 370.818 189.337 370.713 188.839C370.603 188.338 370.695 187.813 370.97 187.379C371.246 186.946 371.681 186.639 372.182 186.526L371.622 184.012C371.126 184.11 370.611 184.008 370.19 183.729C369.768 183.45 369.474 183.015 369.371 182.52C369.305 182.059 369.407 181.589 369.658 181.196C369.91 180.804 370.295 180.515 370.742 180.383ZM169.608 210.758C169.814 210.708 170.027 210.699 170.235 210.732C170.444 210.765 170.644 210.839 170.823 210.95C171.003 211.061 171.159 211.206 171.282 211.378C171.405 211.55 171.492 211.744 171.539 211.95C171.591 212.354 171.49 212.763 171.256 213.097C171.022 213.431 170.672 213.665 170.275 213.754C169.877 213.843 169.461 213.781 169.107 213.579C168.752 213.378 168.486 213.051 168.361 212.664C168.302 212.25 168.398 211.83 168.629 211.482C168.861 211.134 169.212 210.884 169.616 210.779L169.608 210.758ZM169.797 219.297C169.704 218.872 169.783 218.427 170.018 218.061C170.254 217.694 170.624 217.436 171.05 217.343C171.475 217.25 171.92 217.33 172.286 217.565C172.652 217.8 172.911 218.171 173.003 218.597L173.079 218.801C173.172 219.226 173.092 219.671 172.857 220.037C172.622 220.404 172.251 220.662 171.826 220.755C171.401 220.848 170.956 220.768 170.59 220.533C170.223 220.298 169.965 219.927 169.872 219.502L169.797 219.297ZM171.291 226.025C171.198 225.604 171.276 225.163 171.507 224.798C171.738 224.434 172.103 224.175 172.524 224.079C172.734 224.032 172.952 224.028 173.164 224.066C173.377 224.103 173.58 224.183 173.761 224.299C173.943 224.416 174.1 224.567 174.222 224.744C174.345 224.922 174.432 225.121 174.477 225.332L174.553 225.537C174.599 225.747 174.603 225.965 174.565 226.177C174.527 226.389 174.448 226.592 174.331 226.773C174.215 226.955 174.064 227.111 173.887 227.234C173.71 227.357 173.511 227.445 173.3 227.491C173.089 227.537 172.872 227.541 172.66 227.503C172.448 227.464 172.245 227.385 172.064 227.269C171.882 227.152 171.726 227.001 171.602 226.824C171.479 226.647 171.392 226.448 171.346 226.237L171.291 226.025ZM172.772 232.781C172.724 232.573 172.717 232.356 172.753 232.145C172.788 231.933 172.866 231.731 172.981 231.55C173.095 231.369 173.245 231.212 173.421 231.089C173.597 230.967 173.795 230.88 174.005 230.835C174.216 230.789 174.434 230.784 174.646 230.822C174.858 230.86 175.061 230.939 175.243 231.055C175.424 231.172 175.581 231.323 175.704 231.5C175.827 231.678 175.913 231.878 175.959 232.089L176.035 232.293C176.128 232.718 176.048 233.163 175.813 233.529C175.578 233.896 175.207 234.154 174.782 234.247C174.356 234.34 173.912 234.26 173.545 234.025C173.179 233.79 172.921 233.419 172.828 232.994L172.772 232.781ZM174.246 239.517C174.158 239.092 174.24 238.65 174.474 238.284C174.708 237.919 175.077 237.66 175.5 237.563C175.923 237.475 176.364 237.559 176.726 237.795C177.089 238.031 177.343 238.401 177.433 238.824L177.509 239.029C177.555 239.239 177.559 239.457 177.521 239.669C177.483 239.881 177.403 240.084 177.287 240.265C177.17 240.447 177.019 240.603 176.842 240.726C176.666 240.849 176.466 240.937 176.255 240.983C176.045 241.028 175.827 241.033 175.615 240.994C175.403 240.956 175.2 240.877 175.019 240.761C174.838 240.644 174.681 240.493 174.558 240.316C174.435 240.139 174.348 239.94 174.302 239.729L174.246 239.517ZM175.728 246.273C175.632 245.849 175.709 245.404 175.941 245.037C176.174 244.669 176.543 244.409 176.967 244.313C177.391 244.218 177.836 244.295 178.204 244.527C178.571 244.759 178.832 245.128 178.927 245.552L179.011 245.777C179.099 246.201 179.015 246.642 178.779 247.004C178.543 247.367 178.173 247.621 177.75 247.711C177.542 247.76 177.326 247.766 177.115 247.73C176.905 247.693 176.704 247.615 176.524 247.499C176.344 247.383 176.19 247.233 176.069 247.056C175.949 246.879 175.866 246.68 175.824 246.47L175.728 246.273ZM177.202 253.009C177.156 252.799 177.152 252.581 177.19 252.369C177.228 252.157 177.307 251.954 177.424 251.773C177.54 251.591 177.691 251.435 177.868 251.312C178.045 251.189 178.244 251.101 178.455 251.055C178.666 251.009 178.883 251.005 179.095 251.044C179.307 251.082 179.51 251.161 179.691 251.277C179.873 251.394 180.03 251.545 180.153 251.722C180.276 251.899 180.363 252.098 180.409 252.309L180.485 252.513C180.533 252.722 180.54 252.939 180.504 253.15C180.469 253.361 180.391 253.564 180.276 253.745C180.162 253.926 180.012 254.083 179.836 254.205C179.66 254.328 179.462 254.414 179.252 254.459C179.041 254.506 178.823 254.511 178.611 254.473C178.399 254.435 178.196 254.356 178.014 254.239C177.833 254.123 177.676 253.971 177.553 253.794C177.43 253.617 177.344 253.417 177.298 253.206L177.202 253.009ZM178.683 259.765C178.637 259.555 178.632 259.337 178.67 259.125C178.708 258.912 178.787 258.709 178.904 258.528C179.02 258.346 179.171 258.19 179.348 258.067C179.526 257.944 179.726 257.857 179.937 257.812C180.145 257.763 180.362 257.756 180.573 257.792C180.785 257.828 180.987 257.905 181.168 258.02C181.349 258.135 181.506 258.284 181.629 258.46C181.751 258.636 181.838 258.835 181.883 259.044L181.958 259.249C182.01 259.653 181.909 260.062 181.675 260.396C181.441 260.729 181.091 260.964 180.694 261.053C180.296 261.142 179.88 261.08 179.526 260.878C179.172 260.676 178.906 260.35 178.78 259.962L178.683 259.765ZM180.157 266.501C180.064 266.076 180.144 265.631 180.379 265.265C180.496 265.083 180.647 264.927 180.823 264.804C181 264.68 181.2 264.593 181.41 264.547C181.621 264.501 181.839 264.497 182.051 264.536C182.263 264.574 182.465 264.653 182.647 264.769C182.828 264.886 182.985 265.037 183.108 265.214C183.231 265.391 183.318 265.59 183.364 265.801L183.44 266.005C183.533 266.43 183.453 266.875 183.218 267.242C182.983 267.608 182.612 267.866 182.187 267.959C181.762 268.052 181.317 267.972 180.95 267.737C180.584 267.502 180.326 267.131 180.233 266.706L180.157 266.501ZM181.652 273.229C181.598 272.822 181.699 272.41 181.935 272.075C182.171 271.739 182.525 271.504 182.926 271.417C183.327 271.33 183.746 271.396 184.1 271.604C184.455 271.811 184.718 272.144 184.838 272.536L184.914 272.741C184.961 272.952 184.965 273.169 184.927 273.382C184.89 273.594 184.81 273.797 184.694 273.979C184.577 274.16 184.426 274.317 184.249 274.44C184.072 274.563 183.872 274.649 183.661 274.695C183.452 274.744 183.235 274.75 183.024 274.715C182.812 274.679 182.61 274.601 182.429 274.487C182.248 274.372 182.091 274.222 181.969 274.046C181.846 273.87 181.76 273.672 181.715 273.462L181.652 273.229ZM183.133 279.986C183.084 279.777 183.078 279.56 183.113 279.349C183.149 279.137 183.226 278.935 183.341 278.754C183.456 278.573 183.606 278.416 183.782 278.294C183.958 278.171 184.156 278.085 184.366 278.039C184.577 277.993 184.794 277.988 185.007 278.026C185.219 278.064 185.422 278.143 185.603 278.26C185.785 278.376 185.942 278.527 186.065 278.705C186.188 278.882 186.274 279.082 186.32 279.293L186.395 279.497C186.488 279.922 186.409 280.367 186.174 280.734C185.939 281.1 185.568 281.358 185.142 281.451C184.717 281.544 184.272 281.464 183.906 281.229C183.54 280.994 183.281 280.623 183.189 280.198L183.133 279.986ZM184.607 286.721C184.519 286.296 184.601 285.854 184.835 285.489C185.069 285.123 185.437 284.865 185.86 284.768C186.284 284.68 186.725 284.763 187.087 284.999C187.449 285.235 187.703 285.605 187.794 286.028L187.869 286.233C187.936 286.449 187.956 286.677 187.93 286.902C187.904 287.127 187.831 287.344 187.717 287.539C187.603 287.734 187.449 287.904 187.266 288.036C187.083 288.169 186.874 288.263 186.653 288.311C186.432 288.359 186.203 288.361 185.981 288.316C185.759 288.271 185.549 288.181 185.364 288.051C185.179 287.92 185.023 287.753 184.906 287.56C184.788 287.366 184.713 287.15 184.683 286.926L184.607 286.721ZM198.138 333.378C198.231 333.803 198.152 334.248 197.916 334.614C197.681 334.981 197.311 335.239 196.885 335.332C196.46 335.425 196.015 335.345 195.649 335.11C195.282 334.875 195.024 334.504 194.932 334.079C194.837 333.65 194.913 333.202 195.144 332.829C195.376 332.456 195.744 332.189 196.17 332.084C196.585 331.982 197.025 332.05 197.39 332.272C197.756 332.494 198.019 332.852 198.121 333.268L198.138 333.378ZM196.682 326.752C196.775 327.177 196.695 327.622 196.46 327.989C196.225 328.355 195.854 328.613 195.429 328.706C195.004 328.799 194.559 328.719 194.192 328.484C193.826 328.249 193.568 327.878 193.475 327.453L193.399 327.248C193.35 327.039 193.344 326.823 193.379 326.611C193.415 326.4 193.493 326.198 193.607 326.016C193.722 325.835 193.872 325.679 194.048 325.556C194.224 325.433 194.422 325.347 194.632 325.302C194.843 325.255 195.06 325.251 195.273 325.289C195.485 325.326 195.688 325.406 195.87 325.522C196.051 325.639 196.208 325.79 196.331 325.967C196.454 326.144 196.54 326.344 196.586 326.555L196.682 326.752ZM195.2 319.996C195.247 320.207 195.252 320.424 195.214 320.637C195.176 320.849 195.097 321.052 194.98 321.233C194.864 321.415 194.713 321.572 194.535 321.695C194.358 321.818 194.158 321.904 193.947 321.95C193.526 322.042 193.085 321.965 192.72 321.734C192.356 321.503 192.097 321.137 192.001 320.717L191.925 320.512C191.874 320.108 191.975 319.699 192.208 319.366C192.442 319.032 192.792 318.798 193.19 318.708C193.588 318.619 194.004 318.681 194.358 318.883C194.712 319.085 194.978 319.411 195.104 319.799L195.2 319.996ZM193.727 313.26C193.819 313.685 193.74 314.13 193.505 314.497C193.27 314.863 192.899 315.121 192.473 315.214C192.048 315.307 191.603 315.227 191.237 314.992C190.871 314.757 190.613 314.386 190.52 313.961L190.444 313.756C190.351 313.335 190.429 312.894 190.66 312.529C190.89 312.165 191.256 311.906 191.677 311.81C191.887 311.763 192.105 311.759 192.317 311.796C192.53 311.834 192.733 311.914 192.914 312.03C193.096 312.147 193.252 312.298 193.375 312.475C193.498 312.652 193.585 312.852 193.63 313.063L193.727 313.26ZM192.253 306.524C192.341 306.948 192.257 307.389 192.021 307.751C191.785 308.113 191.415 308.367 190.992 308.458C190.783 308.507 190.567 308.513 190.355 308.478C190.144 308.442 189.941 308.364 189.76 308.25C189.579 308.135 189.422 307.985 189.3 307.809C189.177 307.633 189.091 307.435 189.046 307.225L188.97 307.02C188.923 306.81 188.919 306.592 188.956 306.38C188.994 306.167 189.074 305.964 189.19 305.783C189.306 305.601 189.458 305.445 189.635 305.322C189.812 305.199 190.012 305.112 190.223 305.067C190.432 305.018 190.648 305.011 190.86 305.047C191.071 305.082 191.274 305.16 191.455 305.275C191.636 305.39 191.792 305.539 191.915 305.715C192.038 305.891 192.124 306.09 192.169 306.299L192.253 306.524ZM190.751 299.776C190.799 299.985 190.806 300.201 190.771 300.413C190.735 300.624 190.657 300.826 190.543 301.007C190.428 301.189 190.278 301.345 190.102 301.468C189.926 301.59 189.728 301.677 189.518 301.722C189.307 301.769 189.09 301.773 188.877 301.735C188.665 301.698 188.462 301.618 188.28 301.502C188.099 301.385 187.942 301.234 187.819 301.057C187.696 300.879 187.61 300.68 187.564 300.469L187.488 300.264C187.395 299.839 187.475 299.394 187.71 299.028C187.945 298.661 188.316 298.403 188.741 298.31C189.167 298.218 189.612 298.297 189.978 298.532C190.344 298.767 190.602 299.138 190.695 299.564L190.751 299.776ZM189.277 293.04C189.343 293.256 189.364 293.484 189.337 293.709C189.311 293.934 189.239 294.151 189.124 294.346C189.01 294.541 188.856 294.711 188.673 294.843C188.49 294.976 188.281 295.07 188.06 295.118C187.839 295.166 187.61 295.168 187.388 295.123C187.167 295.078 186.956 294.988 186.771 294.858C186.586 294.727 186.43 294.56 186.313 294.367C186.196 294.173 186.12 293.957 186.09 293.733L186.007 293.508C185.921 293.156 185.965 292.784 186.131 292.462C186.237 292.234 186.394 292.033 186.589 291.876C186.785 291.719 187.015 291.609 187.26 291.554C187.484 291.513 187.713 291.515 187.937 291.559C188.246 291.624 188.531 291.776 188.758 291.997C188.984 292.218 189.142 292.499 189.214 292.807L189.277 293.04Z" fill="#007470"/>
<path d="M162.969 218.828L109.187 230.65C108.35 235.123 106.068 239.197 102.692 242.249C102.801 243.011 102.822 243.784 102.755 244.552C103.282 245.506 103.663 246.533 103.885 247.599C104.118 248.664 104.193 249.757 104.111 250.843C104.638 251.797 105.019 252.824 105.241 253.891C105.484 254.953 105.56 256.048 105.467 257.134C106.005 258.082 106.386 259.112 106.597 260.182C106.839 261.245 106.915 262.339 106.822 263.425C107.349 264.379 107.73 265.406 107.952 266.473C108.172 267.535 108.239 268.622 108.15 269.703C108.681 270.663 109.065 271.697 109.287 272.771C109.517 273.832 109.584 274.921 109.485 276.002C110.012 276.956 110.392 277.983 110.615 279.049C110.851 280.116 110.92 281.213 110.82 282.301C111.347 283.254 111.728 284.282 111.95 285.348C112.182 286.413 112.258 287.505 112.175 288.592C112.694 289.549 113.074 290.575 113.306 291.639C113.548 292.702 113.624 293.796 113.531 294.883C114.069 295.831 114.451 296.86 114.661 297.93C114.904 298.993 114.98 300.087 114.887 301.174C115.413 302.127 115.794 303.155 116.017 304.221C116.242 305.289 116.311 306.384 116.222 307.472C116.749 308.426 117.129 309.453 117.352 310.52C117.588 311.587 117.657 312.683 117.557 313.771C118.084 314.725 118.465 315.752 118.687 316.819C118.923 317.885 118.992 318.982 118.892 320.07C119.419 321.023 119.8 322.051 120.022 323.117C120.254 324.182 120.33 325.274 120.248 326.361C120.774 327.314 121.155 328.342 121.378 329.408C121.62 330.471 121.696 331.566 121.603 332.652C121.986 333.399 122.279 334.188 122.475 335.004C126.811 336.346 130.578 339.09 133.185 342.805L186.967 330.983L162.969 218.828Z" stroke="white" stroke-width="2.18147" stroke-miterlimit="10"/>
<path d="M366.314 209.665C366.082 208.601 366.006 207.508 366.089 206.422C365.562 205.468 365.181 204.441 364.958 203.374C364.716 202.311 364.64 201.217 364.733 200.13C364.195 199.182 363.813 198.153 363.603 197.083C363.36 196.02 363.284 194.926 363.377 193.839C362.851 192.886 362.47 191.858 362.247 190.792C362.022 189.724 361.953 188.629 362.042 187.541C361.673 186.91 361.378 186.239 361.161 185.541C356.812 184.202 353.034 181.453 350.423 177.727L179.703 215.205L204.251 327.086L374.971 289.608C375.784 285.134 378.062 281.056 381.445 278.017C381.654 276.083 381.21 274.135 380.184 272.482C379.959 271.414 379.889 270.319 379.979 269.231C379.452 268.278 379.071 267.25 378.849 266.184C378.613 265.117 378.544 264.02 378.644 262.933C378.117 261.979 377.736 260.952 377.514 259.885C377.278 258.818 377.209 257.722 377.309 256.634C376.782 255.68 376.401 254.653 376.179 253.586C375.947 252.522 375.871 251.429 375.953 250.343C375.435 249.385 375.055 248.359 374.823 247.295C374.591 246.231 374.515 245.138 374.598 244.052C374.071 243.098 373.69 242.071 373.468 241.004C373.225 239.941 373.149 238.847 373.242 237.761C372.704 236.812 372.323 235.783 372.112 234.713C371.87 233.65 371.793 232.556 371.887 231.47C371.36 230.516 370.979 229.489 370.757 228.422C370.523 227.362 370.456 226.272 370.559 225.192C370.028 224.232 369.644 223.198 369.421 222.123C369.191 221.063 369.125 219.974 369.224 218.893C368.697 217.939 368.316 216.912 368.094 215.845C367.858 214.779 367.789 213.682 367.889 212.594C367.217 211.704 366.686 210.716 366.314 209.665Z" stroke="white" stroke-width="2.18147" stroke-miterlimit="10"/>
<path d="M205.596 218.587L207.061 225.675L214.057 224.151L212.503 217.072L217.025 216.093L220.84 233.408L216.297 234.395L214.853 227.741L207.864 229.285L209.308 235.939L204.793 236.939L200.991 219.596L205.596 218.587Z" fill="white"/>
<path d="M234.258 221.337L236.125 229.951L231.822 230.895L231.496 229.388C231.134 230.085 230.61 230.685 229.968 231.137C229.326 231.59 228.585 231.882 227.807 231.989C227.238 232.181 226.634 232.25 226.036 232.191C225.438 232.132 224.86 231.946 224.339 231.646C223.818 231.346 223.368 230.939 223.017 230.451C222.666 229.963 222.423 229.407 222.304 228.818C221.756 226.275 223.234 224.424 226.548 223.637L230.016 222.887L229.963 222.744C229.699 221.469 228.652 220.903 226.981 221.29C225.604 221.668 224.319 222.327 223.208 223.224L221.351 220.539C223.093 219.166 225.119 218.199 227.283 217.711C231.005 216.959 233.562 218.268 234.258 221.337ZM230.853 226.462L230.587 225.304L227.962 225.882C226.736 226.15 226.203 226.72 226.414 227.666C226.625 228.611 227.425 229.013 228.549 228.782C229.131 228.693 229.669 228.419 230.084 228.002C230.498 227.584 230.768 227.044 230.853 226.462Z" fill="white"/>
<path d="M239.606 210.047L243.642 228.397L239.331 229.321L235.303 210.991L239.606 210.047Z" fill="white"/>
<path d="M260.328 268.439L306.416 258.329" stroke="white" stroke-width="2.18147" stroke-linecap="round" stroke-linejoin="round"/>
<path d="M268.158 304.111L314.246 294.002" stroke="white" stroke-width="2.18147" stroke-linecap="round" stroke-linejoin="round"/>
<path d="M328.441 290.878L337.288 288.947" stroke="white" stroke-width="2.18147" stroke-linecap="round" stroke-linejoin="round"/>
<path d="M255.101 306.975L240.623 310.157" stroke="white" stroke-width="2.18147" stroke-linecap="round" stroke-linejoin="round"/>
<path d="M120.254 270.287L127.24 302.177" stroke="white" stroke-width="2.18147" stroke-linecap="round" stroke-linejoin="round"/>
<path d="M129.397 312.01L130.746 318.094" stroke="white" stroke-width="2.18147" stroke-linecap="round" stroke-linejoin="round"/>
<path d="M118.255 261.257L116.058 251.253" stroke="white" stroke-width="2.18147" stroke-linecap="round" stroke-linejoin="round"/>
<path d="M154.07 243.2L119.93 250.641L121.402 257.396L155.543 249.955L154.07 243.2Z" fill="white"/>
<path d="M167.283 303.856L133.143 311.297L134.615 318.053L168.755 310.612L167.283 303.856Z" fill="white"/>
<path d="M157.169 252.99L123.035 260.485L123.4 262.147L157.534 254.652L157.169 252.99Z" fill="white"/>
<path d="M157.549 259.182L123.408 266.624L123.771 268.286L157.911 260.845L157.549 259.182Z" fill="white"/>
<path d="M163.562 282.137L129.428 289.633L129.793 291.295L163.927 283.799L163.562 282.137Z" fill="white"/>
<path d="M158.371 262.898L124.23 270.339L125.113 274.388L159.253 266.947L158.371 262.898Z" fill="white"/>
<path d="M165.739 292.022L131.605 299.518L132.494 303.566L166.628 296.071L165.739 292.022Z" fill="white"/>
<path d="M163.824 287.881L129.684 295.323L130.566 299.372L164.707 291.93L163.824 287.881Z" fill="white"/>
<path d="M313.133 277.867L316.91 243.845L299.617 214.701C296.986 211.074 295.146 207.77 291.667 208.523L274.3 212.281C262 214.912 250.749 221.112 241.956 230.106C232.788 239.409 226.654 251.271 224.363 264.129C231.036 276.115 243.501 283.49 253.646 287.397C265.366 291.959 278.173 292.958 290.459 290.268L306.087 286.886C311.07 285.867 312.889 282.519 313.133 277.867Z" fill="#FFCF08"/>
<path d="M231.201 262.641L231.229 262.501C233.18 251.531 238.346 241.388 246.072 233.36C253.797 225.331 263.733 219.779 274.62 217.407L289.614 214.163C292.548 213.528 294.183 215.885 296.144 218.625L296.876 219.642L311.891 244.931L308.615 274.404C308.369 279.048 306.273 281.735 302.216 282.612L288.738 285.529C278.058 287.857 266.929 286.99 256.739 283.034C249.977 280.41 237.673 274.284 231.263 262.77L231.201 262.641ZM311.049 245.113L296.209 220.131L295.477 219.114C293.674 216.482 292.192 214.444 289.787 214.965L274.793 218.209C264.085 220.544 254.31 226.003 246.705 233.895C239.1 241.787 234.007 251.758 232.07 262.545C238.376 273.771 250.419 279.735 257.055 282.32C267.097 286.199 278.058 287.039 288.574 284.733L302.052 281.817C305.748 281.017 307.576 278.641 307.808 274.36L311.049 245.113Z" fill="white"/>
<path d="M318.409 281.065C318.408 281.833 318.344 282.599 318.216 283.356C318.076 284.276 317.825 285.175 317.47 286.036C316.992 287.227 316.246 288.293 315.29 289.151C314.064 290.206 312.6 290.949 311.025 291.316C309.301 291.689 307.441 292.092 305.412 292.531C301.403 293.398 296.793 294.437 291.653 295.507C279.377 298.023 266.657 297.285 254.755 293.368C247.607 291.027 240.824 287.691 234.607 283.459C228.149 278.981 222.046 273.158 217.864 265.703L217.849 265.631L217.835 265.567C218.407 262.491 219.15 259.45 220.061 256.457C221.03 253.385 222.193 250.378 223.543 247.453C226.345 241.398 229.973 235.761 234.322 230.701C238.994 225.231 244.444 220.478 250.498 216.592C256.294 212.879 262.588 210.008 269.192 208.065C272.41 207.109 275.656 206.482 278.82 205.78C281.984 205.079 285.114 204.419 288.185 203.754L292.772 202.762C293.527 202.574 294.295 202.441 295.069 202.365C295.866 202.331 296.659 202.504 297.369 202.867C298.683 203.648 299.817 204.698 300.696 205.949C301.6 207.138 302.425 208.353 303.275 209.529L322.81 242.519L322.821 242.567L319.616 270.857L318.734 278.418L318.493 280.367C318.445 280.805 318.4 281.025 318.4 281.025C318.4 281.025 318.411 280.804 318.459 280.366L318.657 278.409L319.454 270.842L322.561 242.531L322.58 242.619L302.968 209.738C302.108 208.556 301.285 207.349 300.384 206.176C299.555 204.967 298.476 203.95 297.221 203.192C296.562 202.854 295.824 202.701 295.085 202.748C294.332 202.819 293.586 202.952 292.855 203.147L288.293 204.134C285.224 204.798 282.103 205.473 278.927 206.16C275.72 206.854 272.501 207.492 269.347 208.434C262.771 210.36 256.504 213.217 250.737 216.918C244.723 220.787 239.31 225.518 234.672 230.961C230.348 235.988 226.741 241.59 223.954 247.607C222.612 250.516 221.454 253.505 220.485 256.558C219.578 259.536 218.832 262.561 218.249 265.62L218.232 265.54C222.35 272.933 228.421 278.729 234.839 283.174C241.022 287.407 247.769 290.75 254.882 293.106C261.225 295.195 267.826 296.396 274.498 296.676C280.239 296.895 285.986 296.441 291.621 295.321C296.737 294.214 301.347 293.217 305.383 292.394C307.395 291.959 309.263 291.555 310.995 291.18C312.539 290.821 313.972 290.091 315.168 289.052C316.113 288.212 316.857 287.17 317.346 286.004C317.707 285.155 317.968 284.268 318.125 283.359C318.231 282.793 318.307 282.222 318.35 281.648L318.409 281.065Z" fill="#FFCF08"/>
<path d="M256.96 255.726L268.07 234.571L275.447 238.448L267.999 252.632L291.559 266.789L287.272 273.936L256.96 255.726Z" fill="white"/>
<path d="M160.532 268.321L126.398 275.817L126.618 276.818L160.752 269.323L160.532 268.321Z" fill="white"/>
<path d="M155.875 251.405L121.734 258.846L121.953 259.848L156.093 252.407L155.875 251.405Z" fill="white"/>
<path d="M162.779 278.523L128.645 286.019L128.864 287.02L162.998 279.525L162.779 278.523Z" fill="white"/>
<path d="M161.202 271.331L127.068 278.826L127.288 279.828L161.422 272.332L161.202 271.331Z" fill="white"/>
<path d="M166.445 299.978L132.305 307.419L132.523 308.421L166.663 300.979L166.445 299.978Z" fill="white"/>
<path opacity="0.3" d="M353.796 168.008L351.44 210.155L188.024 291.551L186.218 292.453L111.772 329.55C111.549 329.5 111.319 329.499 111.095 329.545L110.556 327.023C110.804 326.971 111.039 326.87 111.248 326.726C111.456 326.582 111.634 326.398 111.772 326.185C111.909 325.972 112.003 325.733 112.047 325.484C112.092 325.234 112.087 324.978 112.032 324.731C111.917 324.239 111.617 323.81 111.194 323.533C110.771 323.257 110.257 323.154 109.76 323.247L109.2 320.732C109.45 320.682 109.687 320.583 109.897 320.44C110.107 320.297 110.286 320.113 110.424 319.899C110.562 319.685 110.655 319.446 110.699 319.195C110.742 318.944 110.735 318.687 110.677 318.44C110.568 317.948 110.273 317.517 109.853 317.238C109.433 316.96 108.921 316.856 108.425 316.948L107.873 314.454C108.353 314.324 108.765 314.014 109.023 313.588C109.282 313.163 109.367 312.655 109.261 312.168C109.155 311.682 108.867 311.255 108.455 310.975C108.044 310.695 107.54 310.584 107.049 310.665L106.497 308.171C106.977 308.04 107.389 307.73 107.647 307.305C107.906 306.879 107.991 306.371 107.885 305.885C107.779 305.398 107.491 304.971 107.079 304.691C106.668 304.411 106.164 304.3 105.673 304.381L105.121 301.887C105.594 301.749 105.997 301.436 106.248 301.011C106.499 300.586 106.579 300.082 106.471 299.601C106.364 299.119 106.077 298.697 105.67 298.419C105.262 298.141 104.764 298.029 104.277 298.105L103.745 295.604C104.218 295.465 104.621 295.152 104.872 294.727C105.123 294.303 105.203 293.798 105.095 293.317C104.988 292.836 104.701 292.413 104.294 292.136C103.886 291.858 103.388 291.746 102.901 291.822L102.368 289.32C102.615 289.265 102.849 289.162 103.056 289.017C103.264 288.872 103.44 288.687 103.576 288.474C103.712 288.26 103.804 288.022 103.848 287.773C103.892 287.524 103.886 287.268 103.831 287.021C103.776 286.774 103.673 286.54 103.528 286.333C103.383 286.126 103.198 285.95 102.984 285.814C102.771 285.678 102.533 285.586 102.284 285.542C102.035 285.498 101.779 285.504 101.532 285.559L100.972 283.044C101.472 282.936 101.908 282.634 102.185 282.204C102.462 281.774 102.557 281.252 102.449 280.752C102.34 280.252 102.038 279.816 101.608 279.539C101.178 279.262 100.656 279.167 100.156 279.275L99.596 276.761C100.096 276.653 100.532 276.35 100.809 275.92C101.086 275.49 101.181 274.968 101.073 274.468C100.964 273.968 100.662 273.532 100.232 273.255C99.8022 272.978 99.2799 272.884 98.7801 272.992L98.22 270.477C98.7198 270.369 99.1561 270.067 99.433 269.637C99.71 269.207 99.8047 268.685 99.6965 268.185C99.5883 267.685 99.286 267.249 98.8561 266.972C98.4262 266.695 97.9039 266.6 97.4041 266.708L96.844 264.194C97.0909 264.139 97.3247 264.036 97.5319 263.891C97.739 263.745 97.9155 263.561 98.0513 263.347C98.1872 263.134 98.2796 262.896 98.3234 262.646C98.3671 262.397 98.3614 262.142 98.3065 261.895C98.2516 261.648 98.1486 261.414 98.0033 261.207C97.8581 261 97.6734 260.823 97.4599 260.687C97.2465 260.552 97.0084 260.459 96.7592 260.415C96.51 260.372 96.2546 260.377 96.0076 260.432L95.4679 257.91C95.9667 257.799 96.4011 257.495 96.6753 257.064C96.9496 256.633 97.0414 256.11 96.9305 255.611C96.8196 255.113 96.5151 254.678 96.0839 254.404C95.6528 254.13 95.1304 254.038 94.6316 254.149L94.0919 251.627C94.3399 251.574 94.5751 251.473 94.7838 251.329C94.9925 251.185 95.1707 251.001 95.308 250.788C95.4453 250.575 95.5389 250.337 95.5837 250.087C95.6284 249.838 95.6232 249.582 95.5685 249.334C95.4537 248.842 95.1534 248.413 94.7302 248.137C94.307 247.86 93.7934 247.758 93.2965 247.85L92.7364 245.336C92.9858 245.286 93.2227 245.186 93.433 245.043C93.6432 244.9 93.8225 244.716 93.9603 244.502C94.098 244.288 94.1913 244.049 94.2347 243.798C94.2781 243.548 94.2707 243.291 94.2129 243.043C94.1047 242.551 93.8092 242.12 93.389 241.842C92.9688 241.563 92.4569 241.459 91.9613 241.552L91.2859 238.475L91.7563 238.301C93.2618 237.972 94.6877 237.35 95.9523 236.469C97.2169 235.589 98.2954 234.468 99.126 233.17C99.9567 231.872 100.523 230.423 100.793 228.906C101.063 227.389 101.03 225.834 100.698 224.329C100.63 224.053 100.531 223.785 100.402 223.531L131.148 216.784L324.781 174.276L353.796 168.008Z" fill="black"/>
<path d="M270.384 66.7854L268.498 64.2737L268.102 64.5838C266.865 65.5059 265.46 66.1752 263.965 66.5537C262.469 66.9322 260.914 67.0123 259.388 66.7895C257.862 66.5667 256.395 66.0453 255.071 65.2551C253.747 64.465 252.591 63.4215 251.67 62.1844C251.579 61.939 251.337 61.7262 251.198 61.4755L225.969 80.2765L66.9863 198.789L41.7779 217.583C41.9718 217.789 42.1478 218.012 42.3039 218.248C43.2279 219.481 43.8993 220.884 44.2795 222.376C44.6598 223.869 44.7414 225.422 44.5197 226.946C44.2979 228.47 43.7772 229.936 42.9874 231.258C42.1976 232.58 41.1543 233.734 39.9175 234.652L39.4925 234.949L41.3778 237.461C41.7906 237.21 42.2821 237.122 42.7564 237.214C43.2306 237.306 43.6535 237.571 43.9424 237.958C44.2314 238.345 44.3657 238.826 44.3189 239.307C44.2722 239.788 44.0479 240.234 43.6898 240.559L45.2218 242.62C45.6346 242.369 46.1262 242.28 46.6004 242.373C47.0747 242.465 47.4976 242.73 47.7865 243.117C48.0755 243.504 48.2097 243.985 48.163 244.466C48.1163 244.947 47.8919 245.393 47.5339 245.717L49.0659 247.778C49.4787 247.528 49.9702 247.439 50.4445 247.531C50.9187 247.623 51.3416 247.889 51.6305 248.276C51.9195 248.663 52.0537 249.144 52.007 249.625C51.9603 250.106 51.736 250.552 51.3779 250.876L52.9099 252.937C53.3204 252.647 53.8275 252.528 54.3243 252.604C54.8212 252.68 55.2692 252.946 55.574 253.346C55.8727 253.753 56.0028 254.26 55.9372 254.761C55.8717 255.262 55.6155 255.718 55.222 256.035L56.754 258.096C57.1626 257.801 57.6712 257.678 58.1697 257.754C58.6682 257.831 59.1166 258.1 59.418 258.504C59.7168 258.912 59.8469 259.419 59.7813 259.92C59.7157 260.421 59.4596 260.877 59.066 261.194L60.5904 263.235C61.0032 262.984 61.4948 262.896 61.969 262.988C62.4433 263.08 62.8662 263.345 63.1551 263.733C63.4441 264.12 63.5783 264.601 63.5316 265.082C63.4849 265.562 63.2605 266.008 62.9025 266.333L64.4345 268.394C64.8473 268.143 65.3388 268.055 65.813 268.147C66.2873 268.239 66.7102 268.504 66.9991 268.891C67.2881 269.279 67.4223 269.76 67.3756 270.24C67.3289 270.721 67.1046 271.167 66.7465 271.492L68.2785 273.553C68.6913 273.302 69.1828 273.214 69.6571 273.306C70.1314 273.398 70.5543 273.663 70.8432 274.05C71.1322 274.438 71.2664 274.919 71.2197 275.399C71.173 275.88 70.9486 276.326 70.5906 276.651L72.1225 278.712C72.5353 278.461 73.0269 278.373 73.5011 278.465C73.9754 278.557 74.3983 278.822 74.6872 279.209C74.9762 279.596 75.1104 280.077 75.0637 280.558C75.017 281.039 74.7926 281.485 74.4346 281.81L75.9666 283.871C76.3771 283.581 76.8842 283.461 77.381 283.537C77.8779 283.613 78.3258 283.879 78.6307 284.279C78.9294 284.686 79.0595 285.193 78.9939 285.694C78.9284 286.195 78.6722 286.652 78.2787 286.969L79.8106 289.03C80.2211 288.739 80.7282 288.62 81.225 288.696C81.7219 288.772 82.1699 289.038 82.4747 289.438C82.7735 289.845 82.9035 290.352 82.8379 290.853C82.7724 291.354 82.5162 291.811 82.1227 292.128L83.588 294.26C83.7901 294.108 84.02 293.998 84.2646 293.936C84.5092 293.873 84.7637 293.86 85.0136 293.896C85.2634 293.932 85.5038 294.016 85.7209 294.145C85.9381 294.274 86.1277 294.444 86.279 294.646C86.4303 294.848 86.5403 295.078 86.6028 295.323C86.6653 295.567 86.679 295.822 86.6431 296.072C86.6072 296.322 86.5225 296.562 86.3937 296.779C86.2649 296.996 86.0946 297.186 85.8925 297.337L87.4245 299.398C87.8373 299.147 88.3288 299.059 88.8031 299.151C89.2773 299.243 89.7002 299.509 89.9892 299.896C90.2781 300.283 90.4123 300.764 90.3656 301.245C90.3189 301.726 90.0946 302.172 89.7365 302.496L91.2686 304.557C91.6813 304.306 92.1729 304.218 92.6471 304.31C93.1214 304.402 93.5442 304.668 93.8332 305.055C94.1221 305.442 94.2564 305.923 94.2097 306.404C94.163 306.885 93.9387 307.331 93.5806 307.655L95.1126 309.716C95.5254 309.465 96.0169 309.377 96.4912 309.469C96.9654 309.561 97.3883 309.827 97.6773 310.214C97.9662 310.601 98.1004 311.082 98.0537 311.563C98.007 312.044 97.7827 312.49 97.4246 312.814L98.9567 314.875C99.3672 314.585 99.8742 314.465 100.371 314.542C100.868 314.618 101.316 314.884 101.621 315.283C101.919 315.691 102.05 316.198 101.984 316.699C101.918 317.2 101.662 317.656 101.269 317.973L103.306 320.707L103.675 320.384C106.174 318.528 109.307 317.738 112.387 318.188C115.467 318.637 118.243 320.29 120.107 322.784C120.284 323.006 120.441 323.244 120.579 323.493L145.808 304.692L304.798 186.2L330.027 167.399C329.829 167.193 329.646 166.973 329.48 166.74C327.624 164.242 326.834 161.109 327.283 158.029C327.733 154.948 329.386 152.172 331.88 150.309L332.284 150.019L330.254 147.305C329.841 147.556 329.35 147.644 328.875 147.552C328.401 147.46 327.978 147.195 327.689 146.808C327.4 146.421 327.266 145.94 327.313 145.459C327.36 144.978 327.584 144.532 327.942 144.207L326.41 142.146C325.997 142.397 325.506 142.486 325.031 142.393C324.557 142.301 324.134 142.036 323.845 141.649C323.556 141.262 323.422 140.781 323.469 140.3C323.516 139.819 323.74 139.373 324.098 139.048L322.566 136.987C322.153 137.238 321.662 137.327 321.187 137.235C320.713 137.143 320.29 136.877 320.001 136.49C319.712 136.103 319.578 135.622 319.625 135.141C319.672 134.66 319.896 134.214 320.254 133.89L318.722 131.829C318.309 132.08 317.818 132.168 317.343 132.076C316.869 131.984 316.446 131.718 316.157 131.331C315.868 130.944 315.734 130.463 315.781 129.982C315.828 129.501 316.052 129.055 316.41 128.731L314.878 126.67C314.467 126.96 313.96 127.079 313.463 127.003C312.967 126.927 312.519 126.661 312.214 126.261C311.915 125.854 311.785 125.347 311.851 124.846C311.916 124.345 312.172 123.889 312.566 123.572L311.034 121.511C310.626 121.816 310.113 121.947 309.608 121.875C309.104 121.802 308.648 121.532 308.343 121.124C308.037 120.716 307.906 120.203 307.979 119.699C308.051 119.194 308.321 118.739 308.729 118.433L307.197 116.372C306.785 116.623 306.293 116.711 305.819 116.619C305.345 116.527 304.922 116.262 304.633 115.875C304.344 115.487 304.21 115.006 304.256 114.526C304.303 114.045 304.527 113.599 304.885 113.274L303.353 111.213C302.941 111.464 302.449 111.552 301.975 111.46C301.501 111.368 301.078 111.103 300.789 110.716C300.5 110.328 300.365 109.847 300.412 109.367C300.459 108.886 300.683 108.44 301.041 108.115L299.509 106.054C299.097 106.358 298.582 106.486 298.076 106.41C297.57 106.333 297.115 106.059 296.811 105.647C296.507 105.235 296.379 104.72 296.455 104.214C296.532 103.708 296.806 103.253 297.218 102.949L295.734 100.893C295.53 101.044 295.299 101.152 295.053 101.213C294.807 101.274 294.551 101.286 294.301 101.248C294.05 101.211 293.809 101.124 293.592 100.993C293.375 100.862 293.186 100.69 293.036 100.486C292.885 100.282 292.776 100.051 292.715 99.8046C292.654 99.5587 292.642 99.3031 292.68 99.0525C292.718 98.8019 292.805 98.5613 292.936 98.3442C293.066 98.1272 293.239 97.938 293.443 97.7875L291.89 95.7341C291.478 96.038 290.963 96.1659 290.457 96.0895C289.95 96.0132 289.496 95.739 289.192 95.3271C288.888 94.9153 288.76 94.3996 288.836 93.8936C288.913 93.3875 289.187 92.9325 289.599 92.6286L288.046 90.5752C287.637 90.8707 287.129 90.9936 286.63 90.9172C286.132 90.8409 285.683 90.5714 285.382 90.1671C285.083 89.7565 284.955 89.2462 285.025 88.7433C285.094 88.2404 285.356 87.7838 285.755 87.4696L284.21 85.4367C283.794 85.7215 283.285 85.8359 282.788 85.7561C282.291 85.6763 281.843 85.4086 281.538 85.0081C281.241 84.6 281.115 84.0923 281.185 83.5926C281.256 83.0929 281.519 82.6405 281.918 82.3312L280.366 80.2778C280.162 80.4282 279.93 80.5371 279.684 80.598C279.438 80.659 279.183 80.6709 278.932 80.6332C278.426 80.5568 277.971 80.2826 277.667 79.8708C277.363 79.459 277.235 78.9433 277.312 78.4372C277.388 77.9312 277.662 77.4761 278.074 77.1722L276.522 75.1188C276.318 75.2693 276.086 75.3781 275.84 75.4391C275.594 75.5001 275.339 75.512 275.088 75.4742C274.837 75.4364 274.597 75.3496 274.38 75.2188C274.163 75.088 273.973 74.9158 273.823 74.7118C273.673 74.5079 273.564 74.2764 273.503 74.0304C273.442 73.7844 273.43 73.5289 273.468 73.2783C273.505 73.0277 273.592 72.787 273.723 72.57C273.854 72.3529 274.026 72.1638 274.23 72.0133L272.677 69.9599C272.266 70.2638 271.75 70.3916 271.244 70.3153C270.738 70.239 270.283 69.9647 269.979 69.5529C269.675 69.1411 269.547 68.6254 269.624 68.1193C269.7 67.6132 269.974 67.1582 270.386 66.8544L270.384 66.7854ZM176.139 277.251C176.392 277.602 176.499 278.037 176.436 278.465C176.373 278.892 176.145 279.278 175.801 279.54C175.629 279.669 175.433 279.762 175.225 279.814C175.016 279.866 174.8 279.877 174.587 279.846C174.374 279.814 174.17 279.741 173.986 279.631C173.801 279.521 173.641 279.375 173.512 279.203C173.365 279.029 173.254 278.826 173.187 278.608C173.12 278.39 173.098 278.16 173.123 277.934C173.148 277.707 173.218 277.487 173.331 277.289C173.443 277.09 173.595 276.916 173.777 276.778C173.944 276.648 174.135 276.553 174.34 276.498C174.544 276.443 174.757 276.429 174.967 276.457C175.177 276.486 175.379 276.555 175.562 276.663C175.744 276.77 175.903 276.913 176.03 277.083L176.139 277.251ZM172.064 271.783C172.192 271.955 172.285 272.151 172.337 272.36C172.39 272.568 172.401 272.785 172.369 272.997C172.338 273.21 172.265 273.414 172.155 273.598C172.044 273.783 171.899 273.944 171.726 274.072C171.554 274.2 171.358 274.293 171.149 274.345C170.941 274.398 170.724 274.408 170.512 274.377C170.299 274.346 170.095 274.273 169.911 274.162C169.726 274.052 169.565 273.906 169.437 273.734L169.361 273.529C169.108 273.179 169.002 272.744 169.065 272.316C169.128 271.889 169.356 271.503 169.699 271.24C170.047 270.982 170.484 270.872 170.914 270.935C171.343 270.999 171.729 271.23 171.988 271.578L172.064 271.783ZM167.968 266.322C168.096 266.494 168.189 266.69 168.242 266.898C168.294 267.107 168.305 267.323 168.273 267.536C168.242 267.749 168.169 267.953 168.059 268.137C167.949 268.322 167.803 268.482 167.63 268.611C167.458 268.739 167.262 268.832 167.054 268.884C166.845 268.936 166.629 268.947 166.416 268.916C166.203 268.884 165.999 268.811 165.815 268.701C165.63 268.591 165.47 268.445 165.341 268.273L165.273 268.089C165.014 267.74 164.905 267.304 164.968 266.874C165.031 266.445 165.263 266.058 165.611 265.8C165.959 265.541 166.396 265.431 166.825 265.495C167.255 265.558 167.641 265.789 167.9 266.138L167.968 266.322ZM163.873 260.86C164.131 261.209 164.241 261.646 164.178 262.075C164.114 262.504 163.883 262.891 163.535 263.149C163.186 263.408 162.75 263.518 162.32 263.455C161.891 263.391 161.505 263.16 161.246 262.812L161.17 262.607C161.042 262.435 160.949 262.239 160.897 262.03C160.844 261.822 160.833 261.605 160.865 261.393C160.896 261.18 160.969 260.976 161.079 260.791C161.19 260.607 161.335 260.446 161.508 260.318C161.68 260.19 161.876 260.097 162.085 260.045C162.293 259.992 162.51 259.982 162.722 260.013C162.935 260.044 163.139 260.117 163.323 260.228C163.508 260.338 163.669 260.483 163.797 260.656L163.873 260.86ZM159.777 255.399C160.036 255.748 160.145 256.184 160.082 256.614C160.019 257.043 159.787 257.43 159.439 257.688C159.268 257.819 159.072 257.915 158.863 257.969C158.654 258.023 158.437 258.034 158.223 258.003C158.01 257.971 157.805 257.897 157.621 257.785C157.436 257.673 157.276 257.525 157.15 257.351L157.074 257.146C156.946 256.973 156.853 256.777 156.801 256.569C156.749 256.361 156.738 256.144 156.769 255.932C156.8 255.719 156.873 255.515 156.984 255.33C157.094 255.146 157.24 254.985 157.412 254.857C157.585 254.729 157.781 254.636 157.989 254.584C158.197 254.531 158.414 254.52 158.627 254.552C158.839 254.583 159.043 254.656 159.228 254.766C159.412 254.877 159.573 255.022 159.701 255.195L159.777 255.399ZM155.681 249.938C155.809 250.111 155.902 250.307 155.955 250.515C156.007 250.723 156.018 250.94 155.986 251.153C155.955 251.365 155.882 251.569 155.772 251.754C155.661 251.938 155.516 252.099 155.343 252.227C155.172 252.358 154.976 252.453 154.767 252.507C154.559 252.561 154.341 252.573 154.128 252.541C153.914 252.51 153.709 252.436 153.525 252.324C153.341 252.212 153.181 252.064 153.054 251.889L152.986 251.705C152.855 251.534 152.76 251.338 152.706 251.129C152.652 250.92 152.64 250.703 152.672 250.489C152.703 250.276 152.777 250.071 152.889 249.887C153.001 249.703 153.149 249.543 153.324 249.416C153.669 249.158 154.103 249.046 154.53 249.105C154.957 249.165 155.344 249.391 155.605 249.734L155.681 249.938ZM151.585 244.477C151.833 244.829 151.936 245.263 151.874 245.689C151.811 246.115 151.587 246.5 151.248 246.766C150.897 247.019 150.462 247.126 150.035 247.062C149.607 246.999 149.221 246.772 148.959 246.428L148.883 246.224C148.755 246.051 148.662 245.855 148.609 245.647C148.557 245.438 148.546 245.222 148.578 245.009C148.609 244.797 148.682 244.592 148.792 244.408C148.903 244.224 149.048 244.063 149.221 243.935C149.393 243.807 149.589 243.714 149.798 243.661C150.006 243.609 150.223 243.598 150.435 243.629C150.648 243.661 150.852 243.734 151.036 243.844C151.221 243.954 151.382 244.1 151.51 244.272L151.585 244.477ZM147.469 239.023C147.627 239.191 147.748 239.391 147.823 239.609C147.898 239.826 147.927 240.058 147.906 240.287C147.886 240.517 147.818 240.739 147.705 240.941C147.593 241.142 147.439 241.317 147.255 241.455C147.07 241.593 146.858 241.69 146.633 241.74C146.408 241.79 146.175 241.793 145.95 241.746C145.724 241.7 145.51 241.607 145.323 241.473C145.136 241.339 144.979 241.166 144.863 240.967L144.787 240.763C144.659 240.59 144.566 240.394 144.514 240.186C144.461 239.977 144.451 239.761 144.482 239.548C144.513 239.335 144.586 239.131 144.697 238.947C144.807 238.762 144.952 238.602 145.125 238.474C145.475 238.22 145.911 238.114 146.338 238.177C146.766 238.24 147.152 238.468 147.414 238.811L147.469 239.023ZM143.374 233.562C143.505 233.734 143.6 233.93 143.654 234.138C143.708 234.347 143.719 234.565 143.688 234.778C143.656 234.991 143.583 235.196 143.471 235.381C143.359 235.565 143.211 235.725 143.036 235.851C142.863 235.979 142.667 236.072 142.459 236.125C142.251 236.177 142.034 236.188 141.821 236.156C141.609 236.125 141.404 236.052 141.22 235.942C141.036 235.832 140.875 235.686 140.747 235.513L140.679 235.329C140.525 235.161 140.407 234.963 140.334 234.747C140.261 234.531 140.234 234.302 140.255 234.075C140.276 233.848 140.344 233.628 140.454 233.429C140.565 233.23 140.716 233.056 140.898 232.918C141.08 232.781 141.288 232.683 141.51 232.631C141.732 232.579 141.962 232.574 142.186 232.616C142.411 232.658 142.623 232.746 142.811 232.875C142.999 233.004 143.158 233.171 143.277 233.365L143.374 233.562ZM139.278 228.101C139.538 228.452 139.65 228.891 139.588 229.324C139.526 229.756 139.296 230.147 138.948 230.411C138.596 230.658 138.162 230.761 137.736 230.699C137.31 230.636 136.924 230.412 136.659 230.073L136.583 229.868C136.33 229.518 136.223 229.083 136.286 228.655C136.35 228.227 136.577 227.841 136.921 227.579C137.092 227.448 137.288 227.353 137.497 227.299C137.706 227.245 137.923 227.233 138.136 227.265C138.35 227.296 138.555 227.37 138.739 227.482C138.923 227.594 139.083 227.742 139.21 227.917L139.278 228.101ZM135.182 222.64C135.441 222.988 135.551 223.425 135.487 223.854C135.424 224.284 135.193 224.67 134.844 224.929C134.494 225.182 134.059 225.289 133.631 225.225C133.204 225.162 132.818 224.935 132.555 224.591L132.48 224.387C132.351 224.214 132.259 224.018 132.206 223.81C132.154 223.601 132.143 223.385 132.174 223.172C132.206 222.96 132.279 222.755 132.389 222.571C132.499 222.387 132.645 222.226 132.817 222.098C132.989 221.967 133.185 221.871 133.393 221.817C133.602 221.763 133.82 221.752 134.033 221.783C134.247 221.815 134.452 221.889 134.636 222.001C134.82 222.113 134.98 222.261 135.106 222.435L135.182 222.64ZM131.087 217.179C131.215 217.351 131.308 217.547 131.36 217.756C131.412 217.964 131.423 218.181 131.392 218.393C131.36 218.606 131.287 218.81 131.177 218.995C131.067 219.179 130.921 219.34 130.749 219.468C130.576 219.596 130.38 219.689 130.172 219.741C129.963 219.794 129.747 219.804 129.534 219.773C129.322 219.742 129.117 219.669 128.933 219.558C128.749 219.448 128.588 219.303 128.46 219.13L128.384 218.925C128.125 218.577 128.015 218.14 128.079 217.711C128.142 217.282 128.373 216.895 128.722 216.636C129.07 216.378 129.507 216.268 129.936 216.331C130.365 216.395 130.752 216.626 131.011 216.974L131.087 217.179ZM126.991 211.718C127.252 212.065 127.365 212.502 127.304 212.932C127.244 213.363 127.014 213.752 126.667 214.013C126.32 214.275 125.883 214.387 125.452 214.327C125.022 214.266 124.633 214.037 124.372 213.689L124.296 213.485C124.037 213.136 123.927 212.7 123.991 212.27C124.054 211.841 124.285 211.455 124.634 211.196C124.982 210.937 125.419 210.827 125.848 210.891C126.277 210.954 126.664 211.185 126.923 211.534L126.991 211.718ZM122.895 206.257C123.023 206.429 123.116 206.625 123.169 206.833C123.221 207.042 123.232 207.258 123.2 207.471C123.169 207.684 123.096 207.888 122.986 208.072C122.875 208.257 122.73 208.417 122.557 208.546C122.385 208.674 122.189 208.767 121.98 208.819C121.772 208.871 121.555 208.882 121.343 208.851C121.13 208.819 120.926 208.746 120.742 208.636C120.557 208.526 120.396 208.38 120.268 208.208L120.192 208.003C119.934 207.655 119.824 207.218 119.887 206.789C119.951 206.359 120.182 205.973 120.53 205.714C120.879 205.455 121.315 205.346 121.745 205.409C122.174 205.472 122.561 205.704 122.819 206.052L122.895 206.257ZM118.799 200.795C118.928 200.968 119.02 201.164 119.073 201.372C119.125 201.581 119.136 201.797 119.105 202.01C119.073 202.222 119 202.427 118.89 202.611C118.78 202.795 118.634 202.956 118.462 203.084C118.29 203.215 118.094 203.311 117.886 203.365C117.677 203.419 117.459 203.43 117.246 203.399C117.032 203.367 116.828 203.293 116.643 203.181C116.459 203.069 116.299 202.921 116.173 202.747L116.097 202.542C115.838 202.194 115.728 201.757 115.792 201.328C115.855 200.898 116.086 200.512 116.435 200.253C116.785 200 117.22 199.894 117.648 199.957C118.075 200.02 118.461 200.247 118.724 200.591L118.799 200.795ZM114.704 195.334C114.957 195.685 115.063 196.12 115 196.547C114.937 196.975 114.709 197.361 114.366 197.623C114.196 197.754 114.002 197.85 113.794 197.905C113.587 197.96 113.371 197.973 113.159 197.943C112.946 197.914 112.742 197.842 112.557 197.733C112.373 197.623 112.212 197.478 112.085 197.306L112.009 197.101C111.878 196.93 111.782 196.734 111.728 196.525C111.674 196.316 111.663 196.099 111.694 195.886C111.726 195.672 111.8 195.467 111.912 195.283C112.024 195.099 112.172 194.939 112.346 194.812C112.695 194.554 113.132 194.444 113.561 194.507C113.99 194.571 114.377 194.802 114.636 195.15L114.704 195.334ZM110.588 189.881C110.745 190.049 110.866 190.248 110.941 190.466C111.016 190.684 111.045 190.915 111.025 191.144C111.004 191.374 110.936 191.597 110.824 191.798C110.711 191.999 110.558 192.174 110.373 192.312C110.188 192.45 109.976 192.547 109.752 192.597C109.527 192.648 109.294 192.65 109.068 192.604C108.842 192.558 108.629 192.464 108.441 192.33C108.254 192.196 108.097 192.023 107.981 191.824L107.905 191.62C107.647 191.271 107.537 190.835 107.6 190.405C107.664 189.976 107.895 189.589 108.243 189.331C108.592 189.072 109.028 188.962 109.458 189.026C109.887 189.089 110.273 189.32 110.532 189.669L110.588 189.881ZM106.492 184.42C106.75 184.765 106.862 185.198 106.803 185.626C106.743 186.053 106.518 186.439 106.175 186.701C105.824 186.961 105.384 187.073 104.952 187.011C104.519 186.949 104.129 186.719 103.865 186.371L103.789 186.166C103.631 185.998 103.511 185.799 103.436 185.581C103.36 185.363 103.332 185.132 103.352 184.902C103.372 184.673 103.441 184.45 103.553 184.249C103.666 184.048 103.819 183.872 104.004 183.735C104.189 183.597 104.4 183.5 104.625 183.45C104.85 183.399 105.083 183.397 105.309 183.443C105.535 183.489 105.748 183.582 105.936 183.717C106.123 183.851 106.28 184.023 106.396 184.223L106.492 184.42ZM102.396 178.958C102.527 179.13 102.622 179.326 102.676 179.534C102.73 179.743 102.742 179.961 102.711 180.174C102.679 180.388 102.605 180.592 102.493 180.777C102.381 180.961 102.233 181.121 102.058 181.247C101.886 181.375 101.69 181.468 101.481 181.521C101.273 181.573 101.056 181.584 100.844 181.553C100.631 181.521 100.427 181.448 100.243 181.338C100.058 181.228 99.8975 181.082 99.7693 180.91C99.6245 180.734 99.5164 180.532 99.4511 180.314C99.3859 180.096 99.365 179.867 99.3896 179.641C99.4143 179.415 99.4839 179.197 99.5945 178.998C99.7052 178.799 99.8544 178.625 100.034 178.485C100.201 178.354 100.392 178.258 100.596 178.201C100.8 178.144 101.014 178.128 101.224 178.154C101.434 178.179 101.638 178.246 101.822 178.351C102.007 178.455 102.169 178.594 102.3 178.761L102.396 178.958Z" fill="#007470"/>
<path d="M96.8866 187.446L52.7808 220.343C53.8603 224.763 53.4602 229.414 51.6418 233.585C52.0119 234.216 52.3273 234.877 52.5843 235.562C54.3552 236.856 55.6948 238.654 56.4283 240.721C58.1992 242.015 59.5389 243.813 60.2724 245.88C61.1546 246.519 61.9344 247.289 62.5849 248.163C63.232 249.034 63.7456 249.996 64.1088 251.018C64.9908 251.669 65.7725 252.445 66.4289 253.322C67.076 254.193 67.5897 255.155 67.9529 256.177C68.8289 256.824 69.6077 257.593 70.2654 258.461C70.915 259.338 71.4311 260.307 71.7969 261.336C72.6729 261.983 73.4517 262.752 74.1094 263.62C74.7591 264.497 75.2752 265.466 75.641 266.495C77.4119 267.789 78.7515 269.587 79.485 271.654C81.2559 272.948 82.5956 274.746 83.3291 276.813C84.2113 277.452 84.991 278.222 85.6415 279.097C86.2886 279.967 86.8023 280.929 87.1655 281.952C88.0475 282.602 88.8292 283.378 89.4856 284.255C90.1327 285.126 90.6463 286.088 91.0095 287.11C91.8856 287.757 92.6643 288.526 93.322 289.394C93.9717 290.272 94.4878 291.241 94.8536 292.269C95.7296 292.916 96.5084 293.685 97.1661 294.553C97.8158 295.431 98.3318 296.399 98.6976 297.428C100.469 298.722 101.808 300.52 102.542 302.587C104.313 303.881 105.652 305.679 106.386 307.746C107.055 308.224 107.666 308.778 108.208 309.397C112.715 308.851 117.276 309.8 121.191 312.098L165.305 279.221L96.8866 187.446Z" stroke="white" stroke-width="2.18147" stroke-miterlimit="10"/>
<path d="M278.419 95.3548C277.765 94.4879 277.245 93.5281 276.874 92.5074C275.998 91.8652 275.225 91.0926 274.582 90.2164C273.927 89.342 273.404 88.3756 273.03 87.3485C272.154 86.7062 271.381 85.9336 270.738 85.0574C270.083 84.1831 269.56 83.2166 269.186 82.1895C268.307 81.5508 267.533 80.7776 266.894 79.8985C266.236 79.0257 265.713 78.0589 265.342 77.0306C264.743 76.5846 264.19 76.0805 263.691 75.5258C259.177 76.097 254.602 75.1496 250.687 72.8327L110.533 177.244L178.968 269.13L319.107 164.677C318.013 160.269 318.409 155.623 320.233 151.463C319.777 150.762 319.404 150.01 319.123 149.222C318.247 148.576 317.468 147.807 316.811 146.939C316.17 146.055 315.655 145.088 315.279 144.063C314.4 143.42 313.621 142.651 312.967 141.78C312.325 140.897 311.809 139.93 311.435 138.905C310.556 138.261 309.777 137.492 309.123 136.621C308.481 135.738 307.965 134.771 307.591 133.746C306.709 133.106 305.929 132.336 305.279 131.462C304.641 130.586 304.128 129.625 303.755 128.607C302.872 127.961 302.096 127.181 301.455 126.296C300.801 125.429 300.281 124.469 299.911 123.448C299.034 122.806 298.261 122.033 297.618 121.157C296.963 120.283 296.44 119.316 296.066 118.289C295.19 117.647 294.417 116.874 293.774 115.998C293.119 115.124 292.596 114.157 292.222 113.13C291.343 112.492 290.57 111.718 289.93 110.839C289.272 109.966 288.749 109 288.378 107.971C287.499 107.333 286.725 106.559 286.086 105.68C285.428 104.808 284.905 103.841 284.534 102.812C283.652 102.177 282.878 101.403 282.242 100.521C281.589 99.6544 281.068 98.6947 280.698 97.6739C279.822 97.024 279.053 96.2416 278.419 95.3548Z" stroke="white" stroke-width="2.18147" stroke-miterlimit="10"/>
<path d="M79.1523 251.931L98.6545 278.11" stroke="white" stroke-width="2.18147" stroke-linecap="round" stroke-linejoin="round"/>
<path d="M104.674 286.185L108.388 291.183" stroke="white" stroke-width="2.18147" stroke-linecap="round" stroke-linejoin="round"/>
<path d="M73.6185 244.537L67.498 236.313" stroke="white" stroke-width="2.18147" stroke-linecap="round" stroke-linejoin="round"/>
<path d="M98.9455 212.078L70.9238 232.96L75.0561 238.505L103.078 217.622L98.9455 212.078Z" fill="white"/>
<path d="M136.082 261.864L108.061 282.747L112.193 288.292L140.214 267.409L136.082 261.864Z" fill="white"/>
<path d="M105.652 222.354L77.5977 243.193L78.6123 244.559L106.667 223.72L105.652 222.354Z" fill="white"/>
<path d="M108.744 225.209L80.7227 246.092L81.7394 247.456L109.761 226.573L108.744 225.209Z" fill="white"/>
<path d="M123.498 244.988L95.4766 265.871L96.4933 267.235L124.515 246.352L123.498 244.988Z" fill="white"/>
<path d="M111.018 228.229L82.9961 249.112L85.4728 252.436L113.494 231.553L111.018 228.229Z" fill="white"/>
<path d="M129.555 253.119L101.533 274.002L104.01 277.325L132.032 256.443L129.555 253.119Z" fill="white"/>
<path d="M126.299 248.751L98.2773 269.634L100.754 272.957L128.776 252.075L126.299 248.751Z" fill="white"/>
<path d="M115.015 234.957L86.9609 255.796L87.5723 256.619L115.627 235.78L115.015 234.957Z" fill="white"/>
<path d="M104.008 218.828L75.9863 239.711L76.599 240.533L104.621 219.65L104.008 218.828Z" fill="white"/>
<path d="M121.26 242.014L93.2383 262.897L93.851 263.719L121.873 242.836L121.26 242.014Z" fill="white"/>
<path d="M116.889 236.132L88.8672 257.015L89.4799 257.837L117.502 236.954L116.889 236.132Z" fill="white"/>
<path d="M133.721 258.69L105.699 279.572L106.312 280.394L134.334 259.512L133.721 258.69Z" fill="white"/>
<path d="M55.7853 120.176H33.5371V99.5539H55.7853V77.3058H76.407V99.5539H98.6552V120.176H76.407V142.424H55.7853V120.176ZM73.4775 117.236H95.7256V102.484H73.4775V80.2354H58.7253V102.484H36.4771V117.236H58.7253V139.484H73.4775V117.236Z" fill="#EBEBEB"/>
<path d="M44.3776 157.53V171.522H29.2814V186.618H15.2798V171.522H0.183594V157.53H15.2798V142.424H29.2814V157.53H44.3776Z" fill="#EBEBEB"/>
<path d="M405.569 313.016C412.65 282.388 400.594 253.577 378.641 248.666C356.688 243.754 333.152 264.601 326.071 295.228C318.99 325.856 331.046 354.667 352.999 359.579C374.952 364.491 398.489 343.644 405.569 313.016Z" fill="#EEAAA2" stroke="#46001E" stroke-width="0.79406" stroke-linecap="round" stroke-linejoin="round"/>
<path d="M389.244 253.361C391.699 255.071 393.949 257.135 395.965 259.513L368.201 253.399L368.244 253.398L396.008 259.512C397.439 261.217 398.76 263.064 399.942 265.055M389.244 253.361L369.211 248.951M389.244 253.361C386.051 251.136 382.503 249.52 378.631 248.655C356.681 243.741 333.135 264.594 326.059 295.218C318.984 325.843 331.034 354.664 352.998 359.578C356.685 360.405 360.412 360.49 364.111 359.93M364.111 359.93L344.949 355.711M364.111 359.93C367.172 359.469 370.223 358.575 373.179 357.248M373.179 357.248L345.958 351.262M373.179 357.248C375.248 356.333 377.285 355.222 379.26 353.917M379.26 353.917L346.967 346.813M379.26 353.917C380.9 352.844 382.493 351.618 384.056 350.294M384.056 350.294L347.977 342.364M384.056 350.294C385.437 349.114 386.774 347.866 388.08 346.506M388.08 346.506L348.985 337.901M388.08 346.506C389.261 345.274 390.412 343.974 391.532 342.59M391.532 342.59L350.009 333.452M391.532 342.59C392.57 341.306 393.563 339.967 394.513 338.573M394.513 338.573L351.018 329.003M394.513 338.573C395.422 337.25 396.287 335.886 397.108 334.467M397.108 334.467L352.027 324.554M397.108 334.467C397.903 333.118 398.653 331.729 399.375 330.298M399.375 330.298L353.05 320.105M399.375 330.298C400.069 328.924 400.72 327.508 401.341 326.066M401.341 326.066L354.06 315.67M401.341 326.066C401.935 324.666 402.5 323.224 403.022 321.77M403.022 321.77L355.069 311.221M403.022 321.77C403.53 320.344 403.995 318.891 404.431 317.41M404.431 317.41L356.092 306.772M404.431 317.41C404.854 315.958 405.247 314.492 405.598 313M405.598 313L357.101 302.337M405.598 313C405.948 311.507 406.227 310.016 406.492 308.525M406.492 308.525L358.125 297.888M406.492 308.525C406.757 307.007 406.979 305.503 407.144 304M407.144 304L359.134 293.439M407.144 304C407.323 302.456 407.445 300.926 407.525 299.412M407.525 299.412L360.143 288.99M407.525 299.412C407.603 297.841 407.64 296.299 407.619 294.759M407.619 294.759L361.166 284.541M407.619 294.759C407.598 293.163 407.548 291.595 407.414 290.043M407.414 290.043L362.175 280.092M407.414 290.043C407.292 288.421 407.114 286.829 406.88 285.251M406.88 285.251L363.184 275.643M406.88 285.251C406.629 283.59 406.323 281.972 405.96 280.383M405.96 280.383L364.193 271.194M405.96 280.383C405.566 278.683 405.102 277.027 404.583 275.414M404.583 275.414L365.203 266.745M404.583 275.414C404.017 273.647 403.353 271.954 402.634 270.317M402.634 270.317L366.212 262.311M402.634 270.317C401.825 268.472 400.932 266.713 399.942 265.055M399.942 265.055L367.235 257.861" stroke="#46001E" stroke-width="0.79406" stroke-linecap="round" stroke-linejoin="round"/>
<path d="M399.265 311.647C406.345 281.019 394.289 252.209 372.336 247.297C350.383 242.385 326.847 263.232 319.766 293.86C312.685 324.488 324.742 353.298 346.695 358.21C368.647 363.122 392.184 342.275 399.265 311.647Z" fill="#FFC200" stroke="#46001E" stroke-width="0.79406" stroke-linecap="round" stroke-linejoin="round"/>
<mask id="mask0_2152_123433" style="mask-type:luminance" maskUnits="userSpaceOnUse" x="317" y="246" width="85" height="113">
<path d="M399.37 311.709C406.451 281.081 394.395 252.271 372.442 247.359C350.489 242.447 326.952 263.294 319.872 293.922C312.791 324.549 324.847 353.36 346.8 358.272C368.753 363.184 392.289 342.337 399.37 311.709Z" fill="white"/>
</mask>
<g mask="url(#mask0_2152_123433)">
<path d="M375.713 308.822C375.403 280.974 358.205 258.598 337.301 258.844C316.396 259.091 299.701 281.866 300.011 309.714C300.321 337.562 317.519 359.937 338.423 359.691C359.328 359.445 376.023 336.67 375.713 308.822Z" fill="#46001E" stroke="#46001E" stroke-width="0.79406" stroke-linecap="round" stroke-linejoin="round"/>
</g>
<path d="M351.851 339.922C374.046 317.361 378.937 286.562 362.774 271.13C346.611 255.699 315.516 261.478 293.321 284.039C271.126 306.6 266.235 337.399 282.398 352.83C298.561 368.262 329.656 362.482 351.851 339.922Z" fill="#EEAAA2" stroke="#46001E" stroke-width="0.79406" stroke-linecap="round" stroke-linejoin="round"/>
<path d="M291.695 358.84C288.25 357.419 285.106 355.43 282.389 352.844C266.217 337.407 271.113 306.608 293.313 284.048C315.513 261.489 346.621 255.705 362.778 271.142C365.626 273.852 367.802 277.053 369.36 280.589L354.571 266.578L354.586 266.606L369.375 280.617C370.574 283.335 371.407 286.244 371.874 289.315M291.695 358.84L277.545 345.431M291.695 358.84C294.551 360.022 297.625 360.808 300.847 361.198M300.847 361.198L280.756 342.151M300.847 361.198C303.1 361.469 305.419 361.557 307.806 361.462M307.806 361.462L283.966 338.857M307.806 361.462C309.78 361.375 311.78 361.162 313.806 360.823M313.806 360.823L287.177 335.578M313.806 360.823C315.605 360.53 317.416 360.139 319.239 359.65M319.239 359.65L290.388 332.298M319.239 359.65C320.907 359.206 322.573 358.679 324.251 358.067M324.251 358.067L293.598 329.004M324.251 358.067C325.803 357.5 327.367 356.862 328.915 356.155M328.915 356.155L296.808 325.711M328.915 356.155C330.378 355.492 331.841 354.759 333.288 353.984M333.288 353.984L300.019 322.431M333.288 353.984C334.679 353.238 336.054 352.423 337.414 351.58M337.414 351.58L303.216 319.165M337.414 351.58C338.732 350.752 340.035 349.882 341.322 348.957M341.322 348.957L306.426 315.872M341.322 348.957C342.567 348.06 343.812 347.122 345.027 346.142M345.027 346.142L309.637 312.592M345.027 346.142C346.213 345.177 347.371 344.171 348.528 343.136M348.528 343.136L312.848 309.312M348.528 343.136C349.657 342.116 350.756 341.069 351.841 339.966M351.841 339.966L316.045 306.033M351.841 339.966C352.925 338.863 353.952 337.734 354.964 336.59M354.964 336.59L319.255 302.739M354.964 336.59C355.99 335.433 356.973 334.248 357.913 333.05M357.913 333.05L322.48 299.459M357.913 333.05C358.881 331.824 359.791 330.571 360.658 329.319M360.658 329.319L325.69 296.165M360.658 329.319C361.554 328.024 362.392 326.717 363.187 325.396M363.187 325.396L328.887 292.886M363.187 325.396C364.009 324.033 364.788 322.643 365.496 321.254M365.496 321.254L332.097 289.592M365.496 321.254C366.246 319.809 366.938 318.35 367.56 316.894M367.56 316.894L335.308 286.313M367.56 316.894C368.222 315.352 368.812 313.798 369.347 312.259M369.347 312.259L338.519 283.033M369.347 312.259C369.907 310.608 370.395 308.944 370.799 307.296M370.799 307.296L341.729 279.739M370.799 307.296C371.242 305.493 371.572 303.707 371.83 301.936M371.83 301.936L344.94 276.445M371.83 301.936C372.113 299.955 372.268 297.977 372.31 296.057M372.31 296.057L348.165 273.165M372.31 296.057C372.343 293.745 372.207 291.493 371.874 289.315M371.874 289.315L351.376 269.886" stroke="#46001E" stroke-width="0.79406" stroke-linecap="round" stroke-linejoin="round"/>
<path d="M347.203 335.523C369.398 312.963 374.288 282.164 358.126 266.732C341.963 251.301 310.868 257.08 288.672 279.641C266.477 302.202 261.587 333 277.749 348.432C293.912 363.864 325.007 358.084 347.203 335.523Z" fill="#FFC200" stroke="#46001E" stroke-width="0.79406" stroke-linecap="round" stroke-linejoin="round"/>
<path d="M332.968 283.956C333.938 283.5 334.969 284.444 334.579 285.433L328.845 299.807C328.697 300.188 328.75 300.635 329.013 300.952L337.646 311.837C338.217 312.553 337.757 313.628 336.835 313.732L321.264 315.525C320.924 315.561 320.615 315.75 320.408 316.034L311.024 329.342C310.446 330.167 309.161 329.958 308.898 328.997L305.174 315.746C305.051 315.329 304.702 315.001 304.274 314.912L290.591 312.166C289.605 311.964 289.307 310.724 290.104 310.104L302.943 299.969C303.208 299.752 303.372 299.441 303.393 299.104L304.155 283.679C304.205 282.754 305.246 282.24 306.025 282.755L317.645 290.492C317.991 290.722 318.433 290.754 318.827 290.577L332.982 283.97L332.968 283.956Z" fill="#CCA500" stroke="#46001E" stroke-width="0.79406" stroke-miterlimit="10"/>
<path d="M264.927 173.585L254.003 141.144L226.033 122.012C222.117 119.832 219.056 117.613 216.219 119.763L202.056 130.494C192.013 138.067 184.427 148.434 180.247 160.297C175.857 172.598 175.298 185.941 178.644 198.566C189.748 206.619 204.161 208.05 215.008 207.314C227.559 206.507 239.593 202.012 249.598 194.391L262.342 184.735C266.43 181.709 266.667 177.906 264.927 173.585Z" fill="#FFCF08"/>
<path d="M184.215 194.333L184.181 194.194C181.324 183.424 181.731 172.049 185.349 161.511C188.968 150.974 195.636 141.749 204.507 135.007L216.734 125.742C219.127 123.929 221.604 125.377 224.537 127.035L225.63 127.648L249.909 144.246L259.369 172.351C261.105 176.665 260.337 179.985 257.028 182.492L246.037 190.821C237.335 197.436 226.879 201.342 215.972 202.054C208.733 202.526 194.994 202.16 184.325 194.424L184.215 194.333ZM249.223 144.766L225.231 128.372L224.139 127.758C221.394 126.133 219.191 124.91 217.23 126.396L205.003 135.661C196.278 142.294 189.717 151.367 186.15 161.73C182.582 172.093 182.169 183.282 184.962 193.88C195.415 201.398 208.849 201.728 215.956 201.273C226.698 200.555 236.991 196.694 245.553 190.168L256.544 181.84C259.558 179.556 260.213 176.63 258.619 172.651L249.223 144.766Z" fill="white"/>
<path d="M271.058 174.26C271.382 174.957 271.646 175.679 271.85 176.419C272.11 177.312 272.263 178.234 272.303 179.163C272.372 180.446 272.145 181.727 271.641 182.907C270.974 184.381 269.96 185.672 268.686 186.669C267.281 187.735 265.764 188.884 264.109 190.137C260.84 192.615 257.099 195.501 252.889 198.639C242.819 206.097 230.975 210.793 218.53 212.261C211.062 213.153 203.505 212.988 196.083 211.773C188.338 210.436 180.35 207.731 173.414 202.734L173.37 202.675L173.33 202.623C172.551 199.593 171.942 196.522 171.506 193.424C171.09 190.23 170.876 187.013 170.866 183.791C170.854 177.12 171.765 170.478 173.575 164.056C175.505 157.126 178.442 150.518 182.292 144.441C185.981 138.63 190.478 133.372 195.646 128.826C198.16 126.602 200.84 124.664 203.413 122.694C205.985 120.724 208.545 118.805 211.05 116.907L214.79 114.073C215.395 113.584 216.036 113.14 216.706 112.745C217.414 112.377 218.205 112.2 219.002 112.23C220.523 112.383 221.995 112.858 223.319 113.621C224.64 114.318 225.901 115.072 227.168 115.779L258.793 137.453L258.823 137.493L267.849 164.496L270.237 171.723L270.84 173.592C270.982 174.01 271.034 174.228 271.034 174.228C271.034 174.228 270.951 174.023 270.809 173.605L270.163 171.748L267.695 164.551L258.572 137.569L258.626 137.641L226.977 116.099C225.699 115.39 224.443 114.643 223.132 113.958C221.87 113.212 220.463 112.745 219.006 112.587C218.266 112.558 217.532 112.73 216.882 113.085C216.229 113.467 215.608 113.903 215.027 114.387L211.307 117.206C208.805 119.102 206.259 121.031 203.67 122.993C201.055 124.975 198.404 126.911 195.943 129.095C190.792 133.615 186.314 138.848 182.646 144.636C178.825 150.681 175.912 157.254 174.002 164.144C172.202 170.527 171.294 177.127 171.304 183.758C171.314 186.961 171.524 190.16 171.934 193.337C172.367 196.42 172.966 199.478 173.728 202.496L173.678 202.431C180.53 207.398 188.48 210.092 196.173 211.416C203.564 212.647 211.092 212.833 218.536 211.969C225.168 211.188 231.66 209.494 237.827 206.934C243.125 204.711 248.144 201.876 252.782 198.484C256.953 195.323 260.713 192.474 264.025 190.026C265.666 188.783 267.19 187.628 268.602 186.558C269.851 185.582 270.841 184.316 271.488 182.869C271.991 181.709 272.226 180.45 272.177 179.187C272.147 178.265 272.009 177.35 271.768 176.46C271.626 175.902 271.454 175.353 271.251 174.814L271.058 174.26Z" fill="#FFCF08"/>
<path d="M204.654 177.2L205.806 153.333L214.13 153.736L213.359 169.739L240.691 172.64L239.818 180.928L204.654 177.2Z" fill="white"/>
</svg>
