<svg width="224" height="224" viewBox="0 0 224 224" fill="none" xmlns="http://www.w3.org/2000/svg">
<path d="M201.555 178.523H186.717V178.635H201.555V178.523Z" fill="#EBEBEB"/>
<path d="M148.387 179.742H144.494V179.854H148.387V179.742Z" fill="#EBEBEB"/>
<path d="M186.269 174.366H177.672V174.478H186.269V174.366Z" fill="#EBEBEB"/>
<path d="M42.8511 175.119H23.502V175.231H42.8511V175.119Z" fill="#EBEBEB"/>
<path d="M49.6796 175.119H46.8438V175.231H49.6796V175.119Z" fill="#EBEBEB"/>
<path d="M100.867 177.009H58.8984V177.121H100.867V177.009Z" fill="#EBEBEB"/>
<path d="M106.803 151.334H20.2944C19.616 151.334 18.9653 151.065 18.4856 150.585C18.0058 150.105 17.7363 149.455 17.7363 148.776V27.1756C17.7422 26.501 18.0144 25.8561 18.4934 25.3812C18.9725 24.9063 19.6198 24.6399 20.2944 24.6399H106.803C107.139 24.6399 107.472 24.7061 107.782 24.8346C108.093 24.9632 108.375 25.1516 108.612 25.3891C108.85 25.6267 109.038 25.9087 109.167 26.219C109.295 26.5294 109.361 26.862 109.361 27.198V148.776C109.361 149.112 109.295 149.445 109.167 149.755C109.038 150.066 108.85 150.348 108.612 150.585C108.375 150.823 108.093 151.011 107.782 151.14C107.472 151.268 107.139 151.334 106.803 151.334ZM20.2944 24.7295C19.646 24.7307 19.0245 24.9888 18.5661 25.4472C18.1076 25.9057 17.8495 26.5272 17.8483 27.1756V148.776C17.8495 149.425 18.1076 150.046 18.5661 150.505C19.0245 150.963 19.646 151.221 20.2944 151.222H106.803C107.452 151.221 108.073 150.963 108.532 150.505C108.99 150.046 109.248 149.425 109.249 148.776V27.1756C109.248 26.5272 108.99 25.9057 108.532 25.4472C108.073 24.9888 107.452 24.7307 106.803 24.7295H20.2944Z" fill="#EBEBEB"/>
<path d="M203.706 151.334H117.197C116.518 151.334 115.868 151.065 115.388 150.585C114.908 150.105 114.639 149.455 114.639 148.776V27.1756C114.645 26.501 114.917 25.8561 115.396 25.3812C115.875 24.9063 116.522 24.6399 117.197 24.6399H203.706C204.384 24.6399 205.035 24.9094 205.514 25.3891C205.994 25.8689 206.264 26.5195 206.264 27.198V148.776C206.264 149.455 205.994 150.105 205.514 150.585C205.035 151.065 204.384 151.334 203.706 151.334ZM117.197 24.7295C116.548 24.7307 115.927 24.9888 115.468 25.4472C115.01 25.9057 114.752 26.5272 114.751 27.1756V148.776C114.752 149.425 115.01 150.046 115.468 150.505C115.927 150.963 116.548 151.221 117.197 151.222H203.706C204.354 151.221 204.975 150.963 205.434 150.505C205.892 150.046 206.15 149.425 206.152 148.776V27.1756C206.15 26.5272 205.892 25.9057 205.434 25.4472C204.975 24.9888 204.354 24.7307 203.706 24.7295H117.197Z" fill="#EBEBEB"/>
<path d="M224 171.315H0V171.427H224V171.315Z" fill="#EBEBEB"/>
<path d="M53.4596 141.008C53.0833 136.68 48.666 135.063 43.4289 135.52C38.1917 135.977 34.1284 138.338 34.4957 142.666L53.4596 141.008Z" fill="#F0F0F0"/>
<path d="M43.2588 133.544C45.687 133.329 46.462 131.277 46.2514 128.849C46.0409 126.421 44.9074 124.535 42.4882 124.746C40.069 124.956 39.285 127.012 39.4956 129.441C39.7062 131.869 40.8306 133.755 43.2588 133.544Z" fill="#F0F0F0"/>
<path d="M152.365 48.8319C152.407 49.3122 152.306 49.7943 152.075 50.2172C151.843 50.6402 151.491 50.9849 151.064 51.2078C150.636 51.4307 150.152 51.5218 149.673 51.4695C149.193 51.4172 148.74 51.2239 148.371 50.914C148.002 50.6042 147.732 50.1917 147.597 49.7288C147.462 49.2659 147.468 48.7734 147.613 48.3135C147.758 47.8537 148.036 47.4472 148.412 47.1455C148.788 46.8439 149.246 46.6605 149.726 46.6188C150.369 46.5629 151.009 46.7645 151.503 47.1794C151.998 47.5944 152.308 48.1887 152.365 48.8319Z" fill="#F5F5F5"/>
<path d="M165.837 47.6401C165.878 48.1194 165.777 48.6003 165.545 49.022C165.313 49.4436 164.962 49.7871 164.535 50.009C164.108 50.2309 163.625 50.3212 163.147 50.2685C162.669 50.2158 162.217 50.0225 161.848 49.713C161.48 49.4036 161.212 48.9918 161.077 48.5298C160.943 48.0679 160.949 47.5764 161.093 47.1177C161.238 46.6589 161.516 46.2534 161.892 45.9525C162.267 45.6515 162.723 45.4687 163.202 45.427C163.845 45.3723 164.483 45.5745 164.977 45.9894C165.47 46.4042 165.78 46.9978 165.837 47.6401Z" fill="#F5F5F5"/>
<path d="M179.312 46.462C179.355 46.9423 179.254 47.4244 179.022 47.8474C178.79 48.2703 178.439 48.615 178.011 48.8379C177.583 49.0608 177.099 49.1519 176.62 49.0996C176.141 49.0473 175.688 48.854 175.318 48.5442C174.949 48.2343 174.68 47.8218 174.545 47.3589C174.41 46.896 174.415 46.4035 174.56 45.9437C174.705 45.4838 174.983 45.0773 175.36 44.7757C175.736 44.474 176.193 44.2907 176.673 44.2489C177.317 44.193 177.956 44.3946 178.451 44.8096C178.945 45.2245 179.255 45.8188 179.312 46.462Z" fill="#F5F5F5"/>
<path d="M153.566 62.5497C153.608 63.03 153.508 63.5121 153.276 63.935C153.044 64.3579 152.693 64.7027 152.265 64.9256C151.837 65.1485 151.353 65.2396 150.874 65.1873C150.395 65.135 149.942 64.9417 149.572 64.6318C149.203 64.322 148.934 63.9095 148.799 63.4466C148.664 62.9837 148.669 62.4911 148.814 62.0313C148.959 61.5715 149.237 61.165 149.614 60.8633C149.99 60.5616 150.447 60.3783 150.927 60.3366C151.57 60.2806 152.21 60.4823 152.704 60.8972C153.199 61.3122 153.509 61.9065 153.566 62.5497Z" fill="#F5F5F5"/>
<path d="M167.036 61.3758C167.077 61.8551 166.976 62.336 166.744 62.7577C166.513 63.1793 166.161 63.5228 165.734 63.7447C165.307 63.9666 164.824 64.0569 164.346 64.0042C163.868 63.9515 163.416 63.7582 163.048 63.4488C162.679 63.1393 162.411 62.7275 162.276 62.2655C162.142 61.8036 162.148 61.3121 162.293 60.8534C162.438 60.3946 162.715 59.9891 163.091 59.6882C163.466 59.3872 163.922 59.2044 164.402 59.1627C164.72 59.135 165.041 59.1703 165.345 59.2666C165.65 59.3628 165.933 59.5181 166.177 59.7236C166.422 59.9292 166.623 60.1808 166.771 60.4643C166.918 60.7478 167.008 61.0575 167.036 61.3758Z" fill="#F5F5F5"/>
<path d="M180.513 60.1932C180.556 60.6735 180.455 61.1556 180.223 61.5786C179.992 62.0015 179.64 62.3462 179.212 62.5691C178.785 62.792 178.301 62.8831 177.821 62.8308C177.342 62.7785 176.889 62.5852 176.519 62.2754C176.15 61.9655 175.881 61.553 175.746 61.0901C175.611 60.6272 175.616 60.1347 175.761 59.6749C175.906 59.215 176.185 58.8085 176.561 58.5069C176.937 58.2052 177.394 58.0219 177.874 57.9801C178.518 57.9242 179.157 58.1258 179.652 58.5408C180.146 58.9557 180.456 59.55 180.513 60.1932Z" fill="#F5F5F5"/>
<path d="M154.766 76.2854C154.808 76.7647 154.706 77.2456 154.475 77.6672C154.243 78.0889 153.892 78.4324 153.465 78.6543C153.038 78.8761 152.555 78.9665 152.076 78.9138C151.598 78.8611 151.146 78.6678 150.778 78.3583C150.41 78.0488 150.141 77.6371 150.007 77.1751C149.873 76.7131 149.878 76.2217 150.023 75.7629C150.168 75.3042 150.446 74.8987 150.821 74.5977C151.197 74.2968 151.653 74.1139 152.132 74.0723C152.45 74.044 152.771 74.0789 153.076 74.1749C153.381 74.2709 153.664 74.4262 153.909 74.6318C154.154 74.8374 154.355 75.0893 154.502 75.3731C154.65 75.6568 154.739 75.9669 154.766 76.2854Z" fill="#F5F5F5"/>
<path d="M168.242 75.1027C168.284 75.583 168.183 76.0651 167.952 76.488C167.72 76.9109 167.368 77.2556 166.941 77.4786C166.513 77.7015 166.029 77.7925 165.55 77.7402C165.07 77.688 164.617 77.4947 164.248 77.1848C163.879 76.8749 163.609 76.4625 163.474 75.9996C163.339 75.5367 163.345 75.0441 163.49 74.5843C163.635 74.1244 163.913 73.718 164.289 73.4163C164.665 73.1146 165.123 72.9313 165.603 72.8895C166.246 72.8336 166.885 73.0353 167.38 73.4502C167.875 73.8651 168.185 74.4595 168.242 75.1027Z" fill="#F5F5F5"/>
<path d="M181.712 73.9198C181.755 74.4001 181.654 74.8822 181.422 75.3051C181.191 75.7281 180.839 76.0728 180.411 76.2957C179.984 76.5186 179.5 76.6097 179.02 76.5574C178.541 76.5051 178.088 76.3118 177.719 76.0019C177.349 75.6921 177.08 75.2796 176.945 74.8167C176.81 74.3538 176.815 73.8613 176.961 73.4014C177.106 72.9416 177.384 72.5351 177.76 72.2334C178.136 71.9318 178.593 71.7484 179.074 71.7067C179.717 71.6507 180.356 71.8524 180.851 72.2673C181.346 72.6823 181.655 73.2766 181.712 73.9198Z" fill="#F5F5F5"/>
<path d="M178.801 74.7174L151.123 77.1366L175.665 47.3177L150.527 49.5174C150.457 49.5242 150.386 49.5168 150.319 49.4958C150.252 49.4748 150.189 49.4405 150.135 49.395C150.082 49.3495 150.037 49.2937 150.005 49.2309C149.973 49.168 149.954 49.0994 149.949 49.0291C149.937 48.8883 149.981 48.7483 150.072 48.64C150.162 48.5316 150.292 48.4637 150.433 48.4512L178.115 46.032L153.569 75.8509L178.715 73.6512C178.857 73.6399 178.998 73.6848 179.107 73.7762C179.215 73.8675 179.284 73.998 179.298 74.1395C179.303 74.2101 179.295 74.2812 179.273 74.3485C179.251 74.4158 179.216 74.4782 179.169 74.5319C179.123 74.5856 179.067 74.6296 179.003 74.6615C178.94 74.6933 178.871 74.7123 178.801 74.7174Z" fill="#E6E6E6"/>
<path d="M179.227 127.953C179.185 127.823 179.105 127.708 178.997 127.622C178.89 127.537 178.759 127.486 178.623 127.474C177.419 127.418 176.28 126.915 175.428 126.063C174.322 124.947 173.672 123.258 173.565 121.251C173.555 121.07 173.476 120.9 173.344 120.775C173.212 120.65 173.038 120.58 172.857 120.579C172.759 120.58 172.662 120.6 172.572 120.639C172.482 120.678 172.401 120.735 172.334 120.806C172.266 120.877 172.214 120.961 172.18 121.053C172.146 121.145 172.131 121.243 172.136 121.341C172.261 123.697 173.059 125.713 174.416 127.071C175.479 128.135 176.889 128.782 178.39 128.894H178.493C178.611 128.903 178.729 128.883 178.837 128.835C178.945 128.787 179.039 128.714 179.112 128.62C179.185 128.527 179.234 128.418 179.254 128.301C179.274 128.185 179.265 128.065 179.227 127.953Z" fill="#F0F0F0"/>
<path d="M177.793 136.55C171.857 136.031 167.574 131.985 166.221 125.668C166.199 125.573 166.197 125.475 166.215 125.379C166.232 125.284 166.269 125.193 166.322 125.111C166.376 125.03 166.445 124.961 166.526 124.907C166.608 124.853 166.699 124.817 166.794 124.799C166.976 124.767 167.163 124.806 167.316 124.907C167.469 125.009 167.578 125.166 167.619 125.346C168.833 131.022 172.641 134.66 177.923 135.121C183.711 135.627 189.925 131.819 191.04 122.223C191.059 122.036 191.152 121.864 191.297 121.744C191.442 121.624 191.628 121.566 191.815 121.583C191.91 121.59 192.003 121.617 192.087 121.661C192.171 121.705 192.246 121.766 192.307 121.84C192.367 121.913 192.412 121.998 192.44 122.089C192.467 122.181 192.475 122.276 192.465 122.371C191.394 131.421 185.445 137.218 177.793 136.55Z" fill="#F0F0F0"/>
<path d="M166.593 119.374C166.498 119.366 166.406 119.339 166.322 119.295C166.237 119.251 166.163 119.19 166.102 119.117C166.041 119.043 165.996 118.959 165.969 118.867C165.942 118.776 165.933 118.68 165.944 118.585C167.01 109.536 172.959 103.734 180.607 104.406C187.327 104.993 191.829 110.011 192.533 117.569C192.54 117.663 192.528 117.759 192.498 117.849C192.468 117.939 192.421 118.023 192.358 118.095C192.296 118.166 192.219 118.225 192.134 118.267C192.049 118.309 191.956 118.333 191.861 118.339C191.674 118.348 191.491 118.284 191.35 118.16C191.21 118.036 191.123 117.863 191.108 117.676C190.458 110.866 186.44 106.355 180.486 105.835C174.72 105.329 168.479 109.133 167.368 118.72C167.361 118.814 167.334 118.905 167.291 118.989C167.248 119.072 167.188 119.147 167.116 119.208C167.044 119.268 166.961 119.314 166.871 119.343C166.782 119.371 166.687 119.382 166.593 119.374Z" fill="#F0F0F0"/>
<path d="M178.085 132.711C177.021 132.626 175.978 132.365 174.998 131.94C174.907 131.9 174.825 131.842 174.757 131.768C174.69 131.695 174.638 131.609 174.606 131.514C174.573 131.42 174.561 131.32 174.569 131.221C174.577 131.121 174.606 131.025 174.653 130.937C174.737 130.783 174.875 130.666 175.041 130.608C175.206 130.55 175.387 130.555 175.549 130.623C176.483 131.024 177.482 131.255 178.497 131.304C182.883 131.555 187.515 128.446 187.972 120.938C188.25 116.31 186.664 112.573 183.707 110.786C183.554 110.693 183.441 110.547 183.391 110.375C183.34 110.204 183.356 110.019 183.434 109.858C183.479 109.77 183.541 109.691 183.617 109.627C183.693 109.563 183.782 109.516 183.877 109.488C183.973 109.46 184.073 109.451 184.171 109.463C184.27 109.476 184.365 109.508 184.451 109.558C187.878 111.628 189.715 115.83 189.401 121.023C188.953 128.262 184.446 133.083 178.412 132.738L178.085 132.711Z" fill="#F0F0F0"/>
<path d="M171.706 128.244C171.623 128.3 171.53 128.338 171.432 128.357C171.334 128.375 171.234 128.373 171.137 128.351C171.04 128.328 170.948 128.286 170.868 128.227C170.788 128.168 170.721 128.093 170.671 128.007C169.343 125.538 168.759 122.737 168.991 119.943C169.412 113.012 173.565 108.295 179.205 108.214C179.305 108.212 179.403 108.231 179.495 108.269C179.587 108.307 179.67 108.363 179.739 108.435C179.808 108.506 179.861 108.591 179.896 108.684C179.931 108.777 179.946 108.877 179.94 108.976C179.929 109.155 179.851 109.324 179.721 109.448C179.592 109.572 179.421 109.644 179.241 109.648C175.057 109.728 170.855 112.891 170.425 120.028C170.207 122.55 170.727 125.081 171.921 127.312C172.011 127.467 172.038 127.651 171.999 127.825C171.959 128 171.854 128.153 171.706 128.253V128.244Z" fill="#F0F0F0"/>
<path d="M181.497 127.68C181.429 127.521 181.421 127.342 181.475 127.177C181.529 127.013 181.64 126.873 181.788 126.784C183.675 125.65 184.83 123.272 184.848 120.4C184.848 118.102 184.199 116.157 182.971 114.925C182.495 114.453 181.926 114.083 181.302 113.838C180.677 113.593 180.009 113.478 179.338 113.501C177.129 113.501 175.337 114.715 174.347 116.847C174.271 117.009 174.136 117.137 173.97 117.204C173.804 117.271 173.619 117.273 173.451 117.21C173.358 117.175 173.272 117.122 173.201 117.053C173.129 116.983 173.072 116.9 173.035 116.808C172.997 116.716 172.978 116.617 172.981 116.517C172.983 116.417 173.006 116.319 173.048 116.229C174.276 113.617 176.574 112.072 179.32 112.067C180.18 112.045 181.036 112.197 181.836 112.514C182.636 112.831 183.363 113.307 183.975 113.913C185.476 115.418 186.291 117.725 186.273 120.413C186.246 123.796 184.821 126.636 182.501 128.029C182.413 128.077 182.316 128.106 182.216 128.115C182.116 128.123 182.016 128.11 181.922 128.077C181.827 128.044 181.74 127.992 181.667 127.923C181.594 127.855 181.536 127.772 181.497 127.68Z" fill="#F0F0F0"/>
<path d="M176.336 122.389C176.241 122.428 176.138 122.446 176.035 122.441C175.931 122.437 175.83 122.41 175.738 122.363C175.646 122.316 175.566 122.249 175.502 122.168C175.438 122.086 175.393 121.992 175.369 121.892C175.32 121.699 175.284 121.498 175.252 121.291C174.845 118.603 176.287 116.278 178.603 115.862C179.143 115.744 179.702 115.755 180.236 115.893C180.771 116.03 181.266 116.291 181.681 116.655C181.759 116.724 181.82 116.81 181.861 116.906C181.901 117.003 181.919 117.107 181.913 117.211C181.907 117.315 181.878 117.417 181.828 117.508C181.778 117.599 181.708 117.678 181.623 117.739L181.578 117.77C181.444 117.864 181.281 117.908 181.118 117.896C180.955 117.883 180.801 117.815 180.682 117.703C180.431 117.491 180.134 117.34 179.814 117.262C179.495 117.185 179.161 117.182 178.841 117.255C177.076 117.573 176.404 119.41 176.655 121.059C176.681 121.22 176.708 121.377 176.749 121.507C176.792 121.675 176.773 121.854 176.694 122.01C176.616 122.165 176.484 122.287 176.323 122.353L176.336 122.389Z" fill="#F0F0F0"/>
<path d="M178.708 125.149C178.595 125.138 178.487 125.098 178.393 125.033C178.3 124.969 178.225 124.882 178.174 124.78C178.124 124.678 178.101 124.565 178.106 124.452C178.112 124.338 178.146 124.228 178.206 124.132L178.269 124.033C178.333 123.931 178.424 123.847 178.533 123.793C178.641 123.738 178.762 123.715 178.883 123.724C179.107 123.737 179.333 123.723 179.555 123.684C181.096 123.406 181.795 121.972 181.795 120.512C181.79 120.337 181.85 120.165 181.962 120.03C182.074 119.895 182.231 119.805 182.404 119.777C182.503 119.762 182.605 119.768 182.702 119.795C182.799 119.821 182.889 119.868 182.967 119.932C183.045 119.996 183.108 120.075 183.153 120.165C183.198 120.255 183.224 120.353 183.228 120.454C183.269 122.792 181.884 124.723 179.81 125.095C179.447 125.162 179.076 125.18 178.708 125.149Z" fill="#F0F0F0"/>
<path d="M179.026 122.501C178.664 122.471 178.321 122.328 178.044 122.092C177.768 121.857 177.572 121.541 177.485 121.188C177.459 121.089 177.458 120.985 177.481 120.885C177.504 120.785 177.551 120.692 177.617 120.614C177.683 120.535 177.767 120.474 177.862 120.434C177.956 120.395 178.059 120.378 178.161 120.386H178.327C178.452 120.4 178.571 120.449 178.669 120.528C178.767 120.608 178.84 120.714 178.878 120.834C178.894 120.897 178.928 120.953 178.977 120.995C179.026 121.036 179.087 121.062 179.151 121.067C179.496 121.099 179.554 120.619 179.563 120.503C179.584 120.329 179.551 120.152 179.469 119.997C179.346 119.847 179.282 119.657 179.29 119.464C179.301 119.321 179.355 119.185 179.444 119.074C179.533 118.962 179.653 118.88 179.79 118.837C179.926 118.794 180.072 118.793 180.209 118.833C180.346 118.874 180.467 118.955 180.558 119.065C180.908 119.507 181.069 120.068 181.006 120.628C180.889 121.807 180.061 122.591 179.026 122.501Z" fill="#F0F0F0"/>
<path d="M165.549 106.467C165.455 106.459 165.364 106.433 165.281 106.39C165.197 106.346 165.123 106.287 165.063 106.215C165.002 106.143 164.957 106.059 164.929 105.97C164.901 105.88 164.891 105.786 164.899 105.692L165.442 99.4783L171.655 100.025C171.749 100.033 171.84 100.059 171.924 100.102C172.007 100.146 172.081 100.205 172.142 100.277C172.202 100.349 172.247 100.432 172.275 100.522C172.304 100.612 172.314 100.706 172.305 100.8C172.297 100.894 172.271 100.985 172.227 101.069C172.184 101.152 172.125 101.227 172.053 101.288C171.981 101.348 171.898 101.394 171.808 101.423C171.718 101.451 171.624 101.462 171.53 101.454L166.745 101.033L166.329 105.817C166.32 105.911 166.293 106.003 166.25 106.086C166.206 106.17 166.146 106.244 166.074 106.304C166.001 106.364 165.918 106.41 165.828 106.438C165.738 106.466 165.643 106.476 165.549 106.467Z" fill="#F0F0F0"/>
<path d="M195.086 109.052C194.993 109.044 194.901 109.018 194.818 108.974C194.734 108.931 194.66 108.872 194.6 108.8C194.54 108.728 194.494 108.644 194.466 108.555C194.438 108.465 194.428 108.371 194.437 108.277L194.853 103.492L190.069 103.076C189.975 103.067 189.883 103.04 189.8 102.997C189.717 102.953 189.642 102.893 189.582 102.821C189.522 102.748 189.476 102.665 189.448 102.575C189.42 102.485 189.41 102.39 189.419 102.296C189.427 102.202 189.453 102.111 189.497 102.028C189.54 101.944 189.599 101.87 189.671 101.81C189.743 101.75 189.827 101.704 189.916 101.676C190.006 101.648 190.1 101.638 190.194 101.647L196.408 102.189L195.866 108.416C195.845 108.603 195.752 108.775 195.606 108.894C195.46 109.013 195.274 109.07 195.086 109.052Z" fill="#F0F0F0"/>
<path d="M192.886 142.464L186.672 141.922C186.578 141.913 186.487 141.887 186.404 141.843C186.32 141.799 186.246 141.739 186.186 141.667C186.125 141.594 186.08 141.511 186.052 141.421C186.024 141.331 186.014 141.236 186.023 141.142C186.03 141.049 186.057 140.957 186.1 140.874C186.143 140.791 186.203 140.717 186.275 140.656C186.347 140.596 186.43 140.55 186.52 140.522C186.61 140.494 186.704 140.484 186.798 140.493L191.582 140.909L191.999 136.129C192.007 136.035 192.033 135.943 192.077 135.859C192.12 135.775 192.18 135.701 192.252 135.64C192.325 135.579 192.409 135.533 192.499 135.505C192.589 135.477 192.684 135.467 192.778 135.475C192.872 135.483 192.963 135.509 193.047 135.553C193.13 135.596 193.204 135.655 193.265 135.727C193.325 135.799 193.37 135.883 193.399 135.972C193.427 136.062 193.437 136.157 193.428 136.25L192.886 142.464Z" fill="#F0F0F0"/>
<path d="M168.134 140.287L161.92 139.74L162.462 133.531C162.48 133.341 162.572 133.167 162.718 133.044C162.864 132.922 163.052 132.862 163.242 132.877C163.335 132.885 163.427 132.912 163.51 132.956C163.594 133 163.668 133.059 163.728 133.132C163.788 133.204 163.834 133.288 163.862 133.378C163.89 133.468 163.9 133.562 163.891 133.656L163.474 138.432L168.255 138.853C168.349 138.861 168.44 138.887 168.524 138.931C168.607 138.974 168.682 139.033 168.742 139.105C168.803 139.177 168.849 139.26 168.878 139.35C168.906 139.44 168.917 139.534 168.909 139.628C168.893 139.818 168.802 139.994 168.657 140.117C168.512 140.241 168.324 140.302 168.134 140.287Z" fill="#F0F0F0"/>
<path d="M33.4789 126.842C33.3621 126.851 33.2466 126.814 33.157 126.738C33.0674 126.663 33.0109 126.555 32.9995 126.439L32.668 122.622L36.4849 122.286C36.6017 122.277 36.7172 122.314 36.8068 122.39C36.8964 122.465 36.9529 122.573 36.9643 122.689C36.9718 122.805 36.934 122.92 36.8587 123.008C36.7835 123.097 36.6768 123.153 36.5611 123.164L33.6222 123.424L33.8776 126.363C33.8864 126.479 33.8497 126.594 33.7753 126.683C33.7009 126.773 33.5946 126.83 33.4789 126.842Z" fill="#E0E0E0"/>
<path d="M51.6411 125.252C51.5251 125.26 51.4102 125.224 51.3207 125.149C51.2312 125.075 51.1742 124.969 51.1618 124.853L50.9064 121.91L47.963 122.169C47.8463 122.178 47.7308 122.141 47.6412 122.066C47.5516 121.99 47.4951 121.883 47.4837 121.766C47.4749 121.649 47.5122 121.534 47.5876 121.444C47.6629 121.355 47.7704 121.298 47.8869 121.287L51.7038 120.955L52.0398 124.772C52.0487 124.888 52.012 125.003 51.9376 125.093C51.8631 125.182 51.7568 125.239 51.6411 125.252Z" fill="#E0E0E0"/>
<path d="M53.5228 141.698L49.7013 142.034C49.5846 142.043 49.4691 142.005 49.3795 141.93C49.2899 141.855 49.2333 141.747 49.222 141.631C49.2132 141.514 49.2505 141.398 49.3259 141.309C49.4012 141.219 49.5086 141.163 49.6252 141.151L52.564 140.896L52.3087 137.957C52.2999 137.841 52.3365 137.726 52.411 137.637C52.4854 137.547 52.5917 137.49 52.7074 137.478C52.8234 137.469 52.9384 137.505 53.0278 137.58C53.1173 137.654 53.1743 137.761 53.1868 137.876L53.5228 141.698Z" fill="#E0E0E0"/>
<path d="M38.2987 143.028L34.4951 143.36L34.1591 139.538C34.1516 139.422 34.1895 139.308 34.2647 139.219C34.3399 139.131 34.4467 139.075 34.5623 139.063C34.6776 139.056 34.7914 139.093 34.8799 139.167C34.9684 139.242 35.0248 139.347 35.0372 139.462L35.2971 142.406L38.2359 142.146C38.3527 142.137 38.4682 142.174 38.5578 142.25C38.6474 142.325 38.7039 142.432 38.7153 142.549C38.7196 142.608 38.7122 142.667 38.6935 142.723C38.6749 142.779 38.6453 142.831 38.6066 142.875C38.5679 142.92 38.5208 142.956 38.4679 142.982C38.4151 143.009 38.3575 143.024 38.2987 143.028Z" fill="#E0E0E0"/>
<path d="M51.3315 63.1679L36.7357 64.4223L36.4355 61.0041C36.4136 59.3727 37.0093 57.7933 38.1032 56.5828C39.1971 55.3723 40.7083 54.6202 42.3335 54.4773C43.9588 54.3345 45.578 54.8114 46.8663 55.8126C48.1546 56.8137 49.0167 58.2649 49.2797 59.8751L49.4499 61.8642L51.56 61.6805L51.3853 59.6914C51.287 58.5695 50.9688 57.4779 50.4486 56.479C49.9285 55.48 49.2168 54.5933 48.354 53.8695C47.4912 53.1456 46.4942 52.5988 45.4201 52.2602C44.346 51.9217 43.2157 51.798 42.0938 51.8962C39.8279 52.0946 37.7337 53.185 36.2718 54.9275C35.548 55.7903 35.0012 56.7873 34.6626 57.8614C34.324 58.9355 34.2003 60.0658 34.2986 61.1877L34.5987 64.6284C33.7676 64.791 33.026 65.2553 32.5165 65.9318C32.0071 66.6083 31.7658 67.4493 31.839 68.293L32.8829 80.2277C32.9201 80.6782 33.046 81.1168 33.2532 81.5185C33.4604 81.9202 33.745 82.277 34.0905 82.5683C34.436 82.8597 34.8357 83.08 35.2665 83.2165C35.6974 83.353 36.151 83.403 36.6013 83.3637L52.9667 81.9346C53.4172 81.8974 53.8558 81.7715 54.2575 81.5643C54.6592 81.3571 55.0159 81.0725 55.3073 80.727C55.5987 80.3815 55.819 79.9818 55.9555 79.551C56.092 79.1201 56.142 78.6665 56.1027 78.2162L55.0589 66.2815C55.0189 65.8322 54.8907 65.3952 54.6817 64.9955C54.4727 64.5957 54.1869 64.2411 53.8407 63.9519C53.4945 63.6627 53.0947 63.4447 52.6642 63.3101C52.2336 63.1756 51.7808 63.1273 51.3315 63.1679ZM45.1222 72.3653L45.4806 76.4735C45.5048 76.6388 45.4949 76.8074 45.4516 76.9688C45.4083 77.1301 45.3325 77.281 45.2289 77.412C45.1252 77.5431 44.9959 77.6517 44.8489 77.731C44.7018 77.8103 44.5401 77.8588 44.3737 77.8735C44.2072 77.8881 44.0395 77.8687 43.8809 77.8163C43.7222 77.7638 43.5759 77.6796 43.451 77.5686C43.326 77.4577 43.2251 77.3224 43.1542 77.1711C43.0834 77.0198 43.0442 76.8556 43.039 76.6885L42.6806 72.5759C42.3111 72.3489 42.0225 72.0112 41.8561 71.6106C41.6896 71.2101 41.6538 70.7673 41.7537 70.3453C41.8535 69.9232 42.084 69.5434 42.4123 69.26C42.7406 68.9765 43.1499 68.8039 43.582 68.7666C44.0141 68.7294 44.447 68.8294 44.8189 69.0524C45.1909 69.2755 45.483 69.6102 45.6536 70.0089C45.8243 70.4077 45.8648 70.8501 45.7694 71.2732C45.674 71.6963 45.4475 72.0785 45.1222 72.3653Z" fill="#EBEBEB"/>
<path d="M76.358 70.0626L74.884 67.6479C74.1411 67.7537 73.387 67.7537 72.644 67.6479L71.1656 70.0537L70.8834 69.9775C69.9254 69.7251 69.006 69.3438 68.1506 68.8441L67.8997 68.7007L68.5224 66.0844C68.5345 66.0336 68.5565 65.9858 68.5872 65.9436C68.6179 65.9014 68.6567 65.8658 68.7013 65.8387C68.7459 65.8116 68.7954 65.7936 68.847 65.7858C68.8986 65.778 68.9512 65.7805 69.0018 65.7932C69.1033 65.8176 69.191 65.8814 69.2456 65.9704C69.3002 66.0594 69.3173 66.1665 69.293 66.2681L68.8002 68.3065C69.4368 68.6533 70.108 68.9326 70.8028 69.1398L72.2453 66.7833L72.5096 66.8281C73.3465 66.9625 74.1995 66.9625 75.0364 66.8281L75.2962 66.7833L76.7388 69.1398C77.4341 68.9342 78.1054 68.6549 78.7413 68.3065L78.1007 65.6185L78.3157 65.4617C78.8993 65.0408 79.4223 64.5419 79.8703 63.9788C79.9325 63.8977 80.0239 63.8439 80.125 63.8289C80.2262 63.8138 80.3292 63.8387 80.4124 63.8982C80.4559 63.9284 80.4929 63.9672 80.5209 64.0122C80.549 64.0572 80.5676 64.1074 80.5755 64.1598C80.5835 64.2123 80.5807 64.2657 80.5673 64.317C80.5538 64.3683 80.5301 64.4164 80.4975 64.4582C80.0573 65.0141 79.5502 65.5137 78.9877 65.9455L79.6463 68.6918L79.3909 68.8351C78.5367 69.3341 77.6189 69.7153 76.6626 69.9686L76.358 70.0626ZM67.2994 64.8031C67.1784 64.6642 67.0575 64.5164 66.941 64.3551L64.1948 65.0137L64.0469 64.7628C63.5509 63.9055 63.1698 62.9867 62.9135 62.03L62.8418 61.7478L65.2476 60.2694C65.1417 59.5264 65.1417 58.7723 65.2476 58.0294L62.8418 56.5554L62.9135 56.2687C63.1698 55.3134 63.5509 54.3961 64.0469 53.5404L64.1948 53.285L66.941 53.9436C67.3995 53.3436 67.9359 52.8073 68.5359 52.3487L68.0386 50.27C68.0143 50.1684 68.0314 50.0614 68.086 49.9723C68.1406 49.8833 68.2283 49.8196 68.3298 49.7951C68.3798 49.7832 68.4317 49.7812 68.4825 49.7894C68.5332 49.7976 68.5819 49.8157 68.6256 49.8428C68.6693 49.8699 68.7073 49.9053 68.7372 49.9471C68.7672 49.9889 68.7886 50.0362 68.8002 50.0863L69.4229 52.6758L69.2079 52.8281C68.5177 53.3247 67.9125 53.9299 67.4159 54.6201L67.2591 54.8351L64.5711 54.1945C64.2227 54.8304 63.9433 55.5017 63.7378 56.197L66.0898 57.6396L66.0495 57.8994C65.8999 58.735 65.8999 59.5906 66.0495 60.4262L66.0898 60.6905L63.7378 62.133C63.9442 62.8267 64.2235 63.4964 64.5711 64.1311L67.2591 63.4905L67.4159 63.7055C67.5551 63.9087 67.7046 64.1045 67.8639 64.2924C67.9329 64.3649 67.9714 64.4611 67.9714 64.5612C67.9714 64.6613 67.9329 64.7575 67.8639 64.83C67.8257 64.8666 67.7805 64.895 67.7309 64.9135C67.6814 64.932 67.6287 64.9402 67.5759 64.9377C67.5231 64.9352 67.4713 64.922 67.4238 64.8988C67.3763 64.8757 67.3339 64.8431 67.2994 64.8031ZM83.3109 65.0226L82.2984 64.7807C82.1969 64.7563 82.1092 64.6926 82.0546 64.6035C82 64.5145 81.983 64.4074 82.0072 64.3058C82.0317 64.2043 82.0954 64.1166 82.1844 64.062C82.2735 64.0074 82.3805 63.9904 82.4821 64.0146L82.9301 64.1177C83.2763 63.4828 83.5541 62.8131 83.7589 62.1196L81.4069 60.677L81.4517 60.4127C81.6013 59.5771 81.6013 58.7216 81.4517 57.886L81.4069 57.6262L83.7589 56.1836C83.5549 55.4884 83.2771 54.8171 82.9301 54.181L80.2421 54.8217L80.0898 54.6066C79.592 53.9175 78.987 53.3125 78.2978 52.8146L78.0828 52.6623L78.7234 49.9743C78.0874 49.6274 77.416 49.3495 76.7208 49.1455L75.2648 51.5199L75.005 51.4751C74.1681 51.3407 73.3152 51.3407 72.4783 51.4751L72.214 51.5199L70.7848 49.1545L70.516 49.2351C70.4204 49.2667 70.3161 49.2595 70.2257 49.2151C70.1352 49.1707 70.0658 49.0927 70.0322 48.9977C70.0137 48.9486 70.0052 48.8963 70.0071 48.8439C70.0091 48.7915 70.0215 48.74 70.0436 48.6924C70.0657 48.6449 70.0971 48.6022 70.1359 48.5669C70.1747 48.5316 70.2202 48.5045 70.2696 48.487C70.4668 48.4242 70.6684 48.366 70.8655 48.3122L71.1477 48.2361L72.6261 50.6463C73.3687 50.5359 74.1235 50.5359 74.8661 50.6463L76.34 48.2361L76.6268 48.3122C77.5824 48.5674 78.4999 48.9486 79.3551 49.4457L79.6104 49.5935L78.9519 52.3398C79.5528 52.7973 80.0892 53.3337 80.5468 53.9346L83.293 53.2761L83.4408 53.5314C83.9387 54.3862 84.3199 55.3038 84.5743 56.2598L84.6504 56.5465L82.2402 58.0204C82.3519 58.7629 82.3519 59.5179 82.2402 60.2604L84.6504 61.7388L84.5743 62.021C84.3199 62.9784 83.9387 63.8975 83.4408 64.7538L83.3109 65.0226ZM73.6431 62.9887C72.6669 62.9501 71.7411 62.5449 71.0503 61.8541C70.3595 61.1633 69.9544 60.2376 69.9157 59.2614C69.8891 58.3012 70.2228 57.3659 70.8514 56.6395C71.4799 55.9132 72.3575 55.4485 73.3116 55.3369C73.3675 55.3299 73.4243 55.3349 73.4782 55.3515C73.5321 55.3681 73.5819 55.396 73.6242 55.4332C73.6666 55.4705 73.7005 55.5163 73.7239 55.5677C73.7472 55.619 73.7594 55.6747 73.7596 55.7311C73.7591 55.8264 73.7237 55.9182 73.6602 55.9892C73.5966 56.0602 73.5092 56.1055 73.4146 56.1164C72.7507 56.1921 72.1301 56.4837 71.648 56.9463C71.1658 57.4089 70.8489 58.017 70.7459 58.6772C70.6429 59.3374 70.7594 60.0131 71.0776 60.6007C71.3959 61.1882 71.8982 61.655 72.5074 61.9294C73.1166 62.2038 73.7991 62.2706 74.45 62.1195C75.1009 61.9685 75.6841 61.6079 76.1103 61.0933C76.5364 60.5786 76.7817 59.9383 76.8087 59.2707C76.8356 58.603 76.6427 57.945 76.2594 57.3977C76.2041 57.3201 76.1798 57.2247 76.1914 57.1301C76.2031 57.0356 76.2497 56.9488 76.3221 56.887C76.3639 56.8498 76.4132 56.822 76.4665 56.8054C76.5199 56.7887 76.5762 56.7836 76.6317 56.7904C76.6872 56.7972 76.7407 56.8157 76.7885 56.8447C76.8363 56.8737 76.8774 56.9125 76.909 56.9586C77.3165 57.5417 77.5539 58.2266 77.5945 58.9367C77.6351 59.6469 77.4774 60.3544 77.139 60.9801C76.8006 61.6057 76.2948 62.125 75.6782 62.4797C75.0616 62.8344 74.3586 63.0107 73.6476 62.9887H73.6431Z" fill="#F0F0F0"/>
<path d="M48.5225 102.856L47.5683 101.302C47.0856 101.373 46.595 101.373 46.1123 101.302L45.1581 102.856L44.9744 102.807C44.3559 102.644 43.7622 102.398 43.2093 102.077L43.048 101.983L43.4512 100.289C43.4671 100.224 43.508 100.168 43.565 100.133C43.622 100.098 43.6905 100.086 43.7558 100.101C43.7885 100.109 43.8193 100.123 43.8465 100.143C43.8736 100.163 43.8966 100.188 43.9141 100.216C43.9316 100.245 43.9432 100.277 43.9484 100.31C43.9535 100.344 43.952 100.377 43.944 100.41L43.6304 101.727C44.0414 101.952 44.4755 102.133 44.9251 102.265L45.8569 100.746L46.0227 100.773C46.5641 100.863 47.1165 100.863 47.6579 100.773L47.8237 100.746L48.76 102.265C49.2072 102.13 49.6395 101.95 50.0502 101.727L49.6381 99.998L49.7769 99.8949C50.1536 99.6243 50.4912 99.3032 50.7805 98.9407C50.8198 98.8874 50.8786 98.8519 50.9441 98.8418C51.0096 98.8317 51.0763 98.848 51.1299 98.8869C51.1574 98.9065 51.1808 98.9314 51.1986 98.96C51.2164 98.9887 51.2284 99.0206 51.2338 99.054C51.2392 99.0873 51.238 99.1214 51.2301 99.1542C51.2223 99.1871 51.208 99.218 51.1881 99.2453C50.9027 99.6047 50.5748 99.9281 50.2115 100.209L50.6595 102.001L50.4937 102.095C49.9411 102.417 49.3473 102.662 48.7286 102.825L48.5225 102.856ZM42.6717 99.4559L42.4387 99.1737L40.6467 99.5948L40.5526 99.4335C40.237 98.8782 39.9974 98.283 39.8403 97.6639L39.791 97.4802L41.3456 96.526C41.2739 96.0433 41.2739 95.5527 41.3456 95.07L39.791 94.1157L39.8403 93.9321C40.0027 93.3133 40.2483 92.7195 40.5705 92.1669L40.6646 92.0012L42.4566 92.4492C42.7448 92.0569 43.0803 91.7018 43.4557 91.3919L43.1376 90.0479C43.1296 90.0155 43.1282 89.9819 43.1333 89.949C43.1385 89.916 43.1502 89.8845 43.1677 89.8561C43.1853 89.8277 43.2082 89.8031 43.2354 89.7838C43.2625 89.7644 43.2932 89.7506 43.3257 89.7433C43.391 89.7284 43.4596 89.7398 43.5166 89.775C43.5735 89.8102 43.6144 89.8664 43.6304 89.9314L44.0336 91.6025L43.8902 91.7055C43.4463 92.024 43.0573 92.4129 42.7389 92.8569L42.6358 92.9957L40.9065 92.5836C40.6841 92.9943 40.5039 93.4266 40.3689 93.8738L41.8877 94.8057L41.8608 94.9759C41.8146 95.2453 41.7906 95.518 41.7891 95.7913C41.7906 96.066 41.8146 96.3402 41.8608 96.6111L41.8877 96.7769L40.3689 97.7087C40.5031 98.1576 40.6832 98.5915 40.9065 99.0034L42.6358 98.5868L42.7389 98.7257C42.8314 98.8583 42.9316 98.9855 43.039 99.1065C43.0831 99.153 43.1077 99.2148 43.1077 99.2789C43.1077 99.3431 43.0831 99.4048 43.039 99.4514C43.0158 99.4769 42.9877 99.4974 42.9562 99.5116C42.9248 99.5257 42.8908 99.5332 42.8563 99.5337C42.8218 99.5341 42.7877 99.5274 42.7559 99.514C42.7241 99.5006 42.6954 99.4808 42.6717 99.4559ZM53.016 99.5948L52.3619 99.4425C52.3292 99.4346 52.2984 99.4203 52.2712 99.4005C52.2441 99.3807 52.2211 99.3557 52.2036 99.327C52.1861 99.2983 52.1745 99.2664 52.1694 99.2331C52.1642 99.1999 52.1657 99.166 52.1737 99.1333C52.1811 99.1008 52.1949 99.0701 52.2143 99.043C52.2336 99.0158 52.2582 98.9929 52.2866 98.9753C52.3149 98.9578 52.3465 98.9461 52.3794 98.9409C52.4124 98.9358 52.446 98.9372 52.4784 98.9452L52.7606 99.0124C52.9858 98.6013 53.166 98.1673 53.2982 97.7177L51.7795 96.7858L51.8064 96.6201C51.8526 96.3492 51.8766 96.075 51.8781 95.8002C51.8765 95.5269 51.8526 95.2542 51.8064 94.9849L51.7795 94.8146L53.2982 93.8828C53.1652 93.4349 52.985 93.0024 52.7606 92.5925L51.0313 93.0047L50.9283 92.8658C50.6098 92.4218 50.2209 92.0329 49.7769 91.7145L49.6381 91.6114L50.0502 89.8821C49.6404 89.6578 49.2079 89.4776 48.76 89.3445L47.8237 90.8633L47.6579 90.8364C47.1165 90.7468 46.5641 90.7468 46.0227 90.8364L45.8569 90.8633L44.9251 89.3445L44.7504 89.3983C44.688 89.4183 44.6202 89.4131 44.5616 89.3838C44.503 89.3545 44.4582 89.3034 44.4368 89.2415C44.4247 89.2101 44.4191 89.1765 44.4203 89.1429C44.4214 89.1092 44.4294 89.0762 44.4436 89.0457C44.4578 89.0152 44.478 88.9878 44.503 88.9653C44.528 88.9427 44.5573 88.9254 44.5891 88.9145L44.9744 88.798L45.1581 88.7532L46.1123 90.3077C46.595 90.236 47.0856 90.236 47.5683 90.3077L48.5225 88.7532L48.7062 88.798C49.3244 88.9639 49.918 89.2109 50.4713 89.5327L50.6371 89.6268L50.1891 91.4188C50.5749 91.7172 50.9211 92.0634 51.2195 92.4492L53.0115 92.0012L53.1056 92.1669C53.4278 92.7195 53.6734 93.3133 53.8358 93.9321L53.8851 94.1157L52.3305 95.07C52.4022 95.5527 52.4022 96.0433 52.3305 96.526L53.8851 97.4802L53.8358 97.6639C53.6727 98.2823 53.427 98.876 53.1056 99.429L53.016 99.5948ZM46.7709 98.2821C46.1621 98.2404 45.5901 97.9758 45.164 97.5391C44.738 97.1023 44.4877 96.5238 44.4611 95.9142C44.4345 95.3046 44.6334 94.7066 45.0198 94.2344C45.4062 93.7621 45.953 93.4488 46.5558 93.3541C46.5918 93.3504 46.6281 93.3542 46.6625 93.3653C46.6969 93.3764 46.7285 93.3945 46.7555 93.4185C46.7825 93.4426 46.8042 93.472 46.8192 93.5048C46.8341 93.5377 46.8421 93.5734 46.8425 93.6095C46.8429 93.6716 46.8202 93.7317 46.7788 93.778C46.7374 93.8244 46.6803 93.8537 46.6185 93.8604C46.2407 93.9036 45.8834 94.0552 45.5897 94.2969C45.2961 94.5387 45.0786 94.8602 44.9636 95.2227C44.8486 95.5853 44.8409 95.9733 44.9415 96.3401C45.0421 96.7069 45.2467 97.0368 45.5305 97.2899C45.8144 97.5431 46.1654 97.7087 46.5413 97.7668C46.9172 97.825 47.3018 97.7731 47.6489 97.6175C47.9959 97.462 48.2906 97.2093 48.4973 96.89C48.704 96.5707 48.8139 96.1985 48.8137 95.8181C48.8146 95.4137 48.6893 95.0191 48.4553 94.6892C48.4211 94.6383 48.4064 94.5768 48.4138 94.5159C48.4212 94.455 48.4503 94.3989 48.4957 94.3577C48.5226 94.3334 48.5545 94.3152 48.5891 94.3042C48.6236 94.2932 48.6602 94.2897 48.6962 94.294C48.7322 94.2982 48.7669 94.3101 48.798 94.3288C48.8291 94.3475 48.8558 94.3726 48.8765 94.4025C49.1385 94.7794 49.2908 95.2216 49.3165 95.68C49.3423 96.1383 49.2404 96.5948 49.0222 96.9987C48.804 97.4026 48.478 97.7381 48.0806 97.9678C47.6831 98.1976 47.2298 98.3126 46.7709 98.3001V98.2821Z" fill="#E6E6E6"/>
<path d="M111.999 191.3C159.972 191.3 198.862 189.03 198.862 186.229C198.862 183.428 159.972 181.158 111.999 181.158C64.0265 181.158 25.1367 183.428 25.1367 186.229C25.1367 189.03 64.0265 191.3 111.999 191.3Z" fill="#F5F5F5"/>
<path d="M162.824 65.3318H148.238L137.934 183.268H152.52C154.568 183.228 156.53 182.441 158.037 181.055C159.544 179.668 160.491 177.778 160.701 175.741L169.701 72.8537C169.806 71.8951 169.705 70.9252 169.405 70.0086C169.106 69.092 168.614 68.2498 167.963 67.5381C167.313 66.8264 166.518 66.2615 165.632 65.8811C164.746 65.5006 163.789 65.3134 162.824 65.3318Z" fill="#FFC300"/>
<path d="M159.85 65.3318H110.481C108.433 65.3701 106.471 66.1562 104.963 67.5418C103.455 68.9274 102.506 70.8168 102.296 72.8537L93.2953 175.741C93.1916 176.699 93.2929 177.668 93.5922 178.584C93.8916 179.5 94.3823 180.342 95.0318 181.053C95.6813 181.765 96.4747 182.331 97.3593 182.712C98.244 183.094 99.1997 183.284 100.163 183.268H149.528C151.573 183.224 153.531 182.435 155.035 181.049C156.539 179.663 157.485 177.776 157.695 175.741L166.696 72.8537C166.8 71.8977 166.7 70.9305 166.402 70.0162C166.104 69.1018 165.615 68.2612 164.968 67.55C164.321 66.8388 163.53 66.2733 162.648 65.8908C161.765 65.5084 160.812 65.3179 159.85 65.3318Z" fill="#FFC300"/>
<path opacity="0.3" d="M159.85 65.3318H110.481C108.433 65.3701 106.471 66.1562 104.963 67.5418C103.455 68.9274 102.506 70.8168 102.296 72.8537L93.2953 175.741C93.1916 176.699 93.2929 177.668 93.5922 178.584C93.8916 179.5 94.3823 180.342 95.0318 181.053C95.6813 181.765 96.4747 182.331 97.3593 182.712C98.244 183.094 99.1997 183.284 100.163 183.268H149.528C151.573 183.224 153.531 182.435 155.035 181.049C156.539 179.663 157.485 177.776 157.695 175.741L166.696 72.8537C166.8 71.8977 166.7 70.9305 166.402 70.0162C166.104 69.1018 165.615 68.2612 164.968 67.55C164.321 66.8388 163.53 66.2733 162.648 65.8908C161.765 65.5084 160.812 65.3179 159.85 65.3318Z" fill="white"/>
<path opacity="0.4" d="M159.64 67.742H146.621C146.233 67.7451 145.855 67.8647 145.535 68.0851C145.216 68.3055 144.97 68.6167 144.829 68.9784C144.315 70.3071 143.418 71.4527 142.25 72.269C141.083 73.0853 139.699 73.5353 138.275 73.5615H130.596C129.255 73.5885 127.946 73.147 126.895 72.3129C125.844 71.4788 125.117 70.3043 124.839 68.9919C124.765 68.6368 124.569 68.3188 124.285 68.093C124.001 67.8672 123.647 67.7477 123.285 67.7554H110.27C108.879 67.78 107.544 68.3138 106.52 69.2557C105.495 70.1977 104.852 71.4825 104.711 72.8671L95.7057 175.755C95.6336 176.406 95.7013 177.066 95.9042 177.689C96.107 178.312 96.4405 178.885 96.8823 179.369C97.324 179.853 97.864 180.238 98.4661 180.497C99.0682 180.756 99.7185 180.883 100.374 180.871H149.743C151.135 180.845 152.47 180.31 153.494 179.368C154.519 178.425 155.162 177.14 155.303 175.755L164.303 72.8671C164.377 72.2153 164.31 71.5554 164.108 70.9314C163.906 70.3074 163.574 69.7336 163.132 69.2485C162.691 68.7634 162.151 68.3781 161.549 68.1183C160.946 67.8585 160.296 67.7302 159.64 67.742Z" fill="white"/>
<path d="M147.337 123.648H112.787C112.55 123.652 112.314 123.605 112.096 123.511C111.878 123.417 111.682 123.278 111.522 123.102C111.362 122.927 111.241 122.719 111.167 122.494C111.093 122.268 111.068 122.029 111.094 121.793L111.268 119.813C111.32 119.311 111.553 118.845 111.925 118.503C112.296 118.162 112.78 117.968 113.284 117.958H147.839C148.076 117.954 148.312 118.001 148.53 118.095C148.748 118.189 148.943 118.328 149.103 118.504C149.264 118.679 149.385 118.887 149.459 119.112C149.532 119.338 149.557 119.577 149.532 119.813L149.362 121.793C149.309 122.296 149.074 122.763 148.701 123.105C148.328 123.446 147.843 123.64 147.337 123.648Z" fill="white"/>
<path d="M146.593 132.16H112.039C111.802 132.164 111.566 132.117 111.348 132.023C111.13 131.929 110.935 131.79 110.775 131.614C110.616 131.439 110.495 131.231 110.422 131.006C110.348 130.78 110.324 130.541 110.35 130.305L110.52 128.325C110.573 127.823 110.806 127.358 111.177 127.017C111.549 126.675 112.032 126.481 112.536 126.47H147.09C147.328 126.467 147.564 126.513 147.782 126.607C148 126.701 148.195 126.841 148.355 127.016C148.516 127.191 148.637 127.399 148.71 127.624C148.784 127.85 148.809 128.089 148.784 128.325L148.609 130.305C148.557 130.807 148.323 131.272 147.952 131.614C147.581 131.955 147.098 132.15 146.593 132.16Z" fill="white"/>
<path opacity="0.1" d="M136.841 69.6684C136.784 70.226 136.525 70.7432 136.112 71.1222C135.699 71.5012 135.161 71.7156 134.601 71.7248C134.338 71.7295 134.076 71.6781 133.834 71.574C133.592 71.4698 133.375 71.3153 133.198 71.1208C133.02 70.9262 132.886 70.6961 132.804 70.4457C132.723 70.1952 132.695 69.9303 132.724 69.6684C132.781 69.1109 133.04 68.5936 133.453 68.2147C133.866 67.8357 134.404 67.6213 134.964 67.6121C135.227 67.6074 135.489 67.6588 135.731 67.7629C135.973 67.8671 136.19 68.0216 136.367 68.2161C136.545 68.4106 136.679 68.6408 136.761 68.8912C136.842 69.1416 136.87 69.4066 136.841 69.6684Z" fill="black"/>
<path opacity="0.1" d="M135.909 69.6685C135.878 69.9729 135.736 70.2552 135.511 70.4623C135.286 70.6694 134.992 70.787 134.686 70.793C134.542 70.7958 134.399 70.7678 134.267 70.7109C134.135 70.6541 134.016 70.5696 133.919 70.4631C133.822 70.3567 133.748 70.2307 133.704 70.0937C133.659 69.9567 133.645 69.8117 133.661 69.6685C133.691 69.3638 133.833 69.081 134.058 68.8737C134.284 68.6664 134.577 68.5491 134.884 68.5441C135.027 68.542 135.17 68.5704 135.302 68.6276C135.434 68.6847 135.553 68.7692 135.65 68.8755C135.746 68.9818 135.82 69.1074 135.865 69.2441C135.909 69.3808 135.925 69.5255 135.909 69.6685Z" fill="black"/>
<g opacity="0.8">
<path d="M153.56 73.1002C153.483 73.1013 153.406 73.0859 153.335 73.0552C153.264 73.0244 153.2 72.979 153.148 72.9218C153.096 72.8646 153.057 72.7971 153.033 72.7236C153.009 72.6501 153.001 72.5723 153.009 72.4954L153.108 71.3933C153.124 71.2305 153.2 71.0794 153.32 70.9687C153.441 70.858 153.598 70.7955 153.762 70.793C153.839 70.792 153.915 70.8072 153.985 70.8377C154.056 70.8682 154.119 70.9133 154.171 70.9699C154.223 71.0266 154.263 71.0936 154.287 71.1666C154.312 71.2395 154.32 71.3168 154.313 71.3933L154.214 72.4954C154.198 72.6587 154.122 72.8104 154.002 72.9218C153.881 73.0332 153.724 73.0967 153.56 73.1002Z" fill="white"/>
<path d="M158.38 73.1002C158.303 73.1013 158.226 73.0859 158.155 73.0552C158.084 73.0244 158.021 72.9789 157.969 72.9218C157.917 72.8646 157.877 72.797 157.853 72.7235C157.829 72.65 157.821 72.5723 157.829 72.4954L158.058 69.9104C158.074 69.7476 158.15 69.5964 158.271 69.4858C158.391 69.3751 158.548 69.3126 158.712 69.3101C158.789 69.3091 158.865 69.3243 158.936 69.3548C159.006 69.3853 159.07 69.4304 159.122 69.487C159.174 69.5437 159.213 69.6107 159.237 69.6836C159.262 69.7566 159.27 69.8339 159.263 69.9104L159.034 72.4954C159.018 72.6587 158.942 72.8103 158.822 72.9217C158.701 73.0331 158.544 73.0966 158.38 73.1002Z" fill="white"/>
<path d="M155.97 73.1003C155.893 73.1013 155.816 73.086 155.745 73.0552C155.674 73.0245 155.611 72.979 155.559 72.9219C155.506 72.8647 155.467 72.7971 155.443 72.7236C155.419 72.6501 155.411 72.5724 155.419 72.4955L155.58 70.6542C155.597 70.4901 155.673 70.3379 155.795 70.2264C155.916 70.1148 156.074 70.0519 156.239 70.0494C156.316 70.0482 156.393 70.0635 156.463 70.0943C156.534 70.1251 156.598 70.1707 156.649 70.2279C156.701 70.2852 156.74 70.3528 156.763 70.4263C156.787 70.4999 156.794 70.5775 156.786 70.6542L156.624 72.4955C156.608 72.6587 156.532 72.8104 156.412 72.9218C156.291 73.0332 156.134 73.0967 155.97 73.1003Z" fill="white"/>
</g>
<g opacity="0.8">
<path d="M112.287 73.1002H109.259C109.215 73.1012 109.172 73.0928 109.132 73.0755C109.092 73.0583 109.056 73.0327 109.026 73.0004C108.997 72.9682 108.975 72.93 108.962 72.8885C108.948 72.8469 108.944 72.803 108.949 72.7598L109.088 71.1335C109.098 71.0412 109.141 70.9556 109.21 70.8929C109.278 70.8302 109.367 70.7947 109.46 70.793H112.489C112.532 70.7921 112.575 70.8005 112.616 70.8177C112.656 70.8349 112.691 70.8606 112.721 70.8928C112.75 70.9251 112.772 70.9633 112.785 71.0048C112.799 71.0463 112.803 71.0902 112.798 71.1335L112.654 72.7598C112.647 72.8521 112.605 72.9382 112.537 73.0011C112.469 73.0641 112.38 73.0995 112.287 73.1002Z" fill="white"/>
<path d="M113.69 72.6566C113.646 72.6575 113.603 72.6491 113.563 72.6319C113.523 72.6147 113.486 72.5892 113.457 72.557C113.427 72.5248 113.405 72.4867 113.391 72.4452C113.377 72.4037 113.372 72.3597 113.377 72.3162L113.444 71.5725C113.453 71.4798 113.496 71.3937 113.564 71.3308C113.633 71.2679 113.723 71.2327 113.816 71.232C113.859 71.2311 113.902 71.2395 113.943 71.2567C113.983 71.2739 114.018 71.2995 114.048 71.3318C114.077 71.3641 114.099 71.4023 114.112 71.4438C114.126 71.4853 114.13 71.5292 114.125 71.5725L114.062 72.3162C114.052 72.4085 114.009 72.4941 113.941 72.5568C113.872 72.6195 113.783 72.655 113.69 72.6566Z" fill="white"/>
</g>
<path d="M141.645 110.625C147.674 104.854 148.275 95.6983 142.988 90.1756C137.701 84.6528 128.528 84.8541 122.5 90.6252C116.471 96.3963 115.87 105.552 121.157 111.075C126.444 116.597 135.617 116.396 141.645 110.625Z" fill="white"/>
<path d="M132.124 100.074C128.325 100.074 125.113 101.521 124.84 104.662L124.535 108.152H138.302L138.607 104.662C138.88 101.521 135.928 100.074 132.124 100.074Z" fill="#FFC300"/>
<path d="M132.249 98.636C134.014 98.636 134.829 97.2069 134.981 95.4418C135.134 93.6767 134.574 92.2476 132.809 92.2476C131.043 92.2476 130.233 93.6812 130.076 95.4418C129.919 97.2024 130.483 98.636 132.249 98.636Z" fill="#FFC300"/>
<path d="M145.761 120.682C144.824 120.682 144.031 121.041 143.969 121.816L143.893 122.68H147.293L147.369 121.816C147.432 121.041 146.702 120.682 145.761 120.682Z" fill="#FFC300"/>
<path d="M145.792 120.328C146.24 120.328 146.428 119.974 146.469 119.54C146.509 119.105 146.366 118.751 145.931 118.751C145.496 118.751 145.295 119.105 145.255 119.54C145.214 119.974 145.358 120.328 145.792 120.328Z" fill="#FFC300"/>
<path d="M135.296 140.672H121.856C121.491 140.678 121.13 140.607 120.795 140.463C120.46 140.319 120.16 140.106 119.914 139.836C119.668 139.567 119.482 139.249 119.369 138.903C119.256 138.556 119.218 138.189 119.257 137.827C119.337 137.057 119.696 136.342 120.266 135.818C120.836 135.294 121.579 134.997 122.353 134.982H135.793C136.157 134.976 136.519 135.048 136.853 135.192C137.187 135.337 137.487 135.55 137.733 135.819C137.979 136.088 138.165 136.406 138.278 136.752C138.392 137.099 138.43 137.465 138.391 137.827C138.313 138.598 137.954 139.313 137.384 139.837C136.813 140.361 136.07 140.658 135.296 140.672Z" fill="#FFC300"/>
<path d="M133.669 172.399H119.284C118.898 172.41 118.515 172.337 118.159 172.186C117.804 172.035 117.486 171.809 117.225 171.524C116.965 171.238 116.77 170.9 116.652 170.533C116.534 170.165 116.497 169.777 116.542 169.393L117.461 158.901C117.543 158.087 117.921 157.332 118.523 156.777C119.125 156.223 119.909 155.909 120.727 155.895H135.117C135.501 155.888 135.883 155.963 136.237 156.116C136.59 156.268 136.907 156.494 137.167 156.778C137.426 157.063 137.622 157.399 137.741 157.765C137.86 158.131 137.9 158.518 137.858 158.901L136.94 169.393C136.856 170.207 136.477 170.962 135.874 171.516C135.272 172.07 134.488 172.384 133.669 172.399Z" fill="#FFC300"/>
<g opacity="0.6">
<path d="M129.234 161.549C129.257 161.32 129.232 161.089 129.159 160.87C129.087 160.652 128.969 160.451 128.813 160.282C128.657 160.112 128.467 159.978 128.255 159.888C128.044 159.797 127.815 159.753 127.585 159.757C127.095 159.764 126.624 159.95 126.262 160.28C125.9 160.61 125.671 161.062 125.618 161.549C125.59 161.821 125.63 162.097 125.736 162.35C125.842 162.602 126.009 162.825 126.223 162.996L125.909 166.611C125.894 166.748 125.908 166.887 125.951 167.018C125.993 167.149 126.063 167.269 126.156 167.371C126.249 167.473 126.363 167.554 126.489 167.608C126.616 167.663 126.753 167.689 126.891 167.686C127.183 167.68 127.462 167.568 127.677 167.37C127.891 167.171 128.026 166.902 128.055 166.611L128.373 162.996C128.613 162.832 128.815 162.617 128.963 162.367C129.112 162.117 129.204 161.838 129.234 161.549Z" fill="white"/>
</g>
<path d="M135.241 158.081H133.387L133.835 152.889C133.913 152.168 133.837 151.439 133.612 150.75C133.387 150.061 133.018 149.428 132.529 148.892C132.041 148.357 131.444 147.931 130.778 147.644C130.113 147.357 129.394 147.214 128.669 147.226C127.129 147.256 125.653 147.849 124.519 148.892C123.385 149.935 122.672 151.356 122.514 152.889L122.066 158.081H120.211L120.659 152.889C120.868 150.855 121.814 148.968 123.318 147.584C124.823 146.2 126.782 145.415 128.826 145.376C129.788 145.36 130.742 145.548 131.626 145.929C132.51 146.31 133.302 146.874 133.951 147.585C134.6 148.295 135.09 149.136 135.389 150.05C135.688 150.965 135.789 151.932 135.685 152.889L135.241 158.081Z" fill="#FFC300"/>
<path d="M145.989 128.634L146.047 128.128C146.059 128.011 146.046 127.892 146.009 127.78C145.972 127.668 145.912 127.565 145.832 127.478C145.753 127.391 145.656 127.322 145.548 127.275C145.44 127.228 145.323 127.204 145.205 127.205C144.954 127.21 144.713 127.307 144.528 127.477C144.344 127.647 144.227 127.878 144.201 128.128L144.156 128.625C144.056 128.628 143.96 128.667 143.887 128.736C143.813 128.804 143.767 128.897 143.758 128.997L143.641 130.341C143.635 130.388 143.64 130.436 143.654 130.481C143.668 130.526 143.692 130.567 143.724 130.602C143.756 130.637 143.795 130.665 143.839 130.683C143.883 130.702 143.93 130.71 143.977 130.708H145.823C145.923 130.707 146.019 130.668 146.092 130.601C146.166 130.533 146.212 130.441 146.222 130.341L146.338 128.997C146.342 128.95 146.336 128.902 146.32 128.857C146.304 128.812 146.278 128.771 146.245 128.737C146.212 128.703 146.172 128.676 146.128 128.658C146.084 128.64 146.036 128.632 145.989 128.634ZM145.151 127.443C145.24 127.441 145.328 127.459 145.41 127.495C145.491 127.53 145.564 127.582 145.624 127.647C145.684 127.713 145.73 127.791 145.758 127.875C145.786 127.959 145.796 128.049 145.787 128.137L145.742 128.634H144.354L144.398 128.137C144.418 127.949 144.505 127.776 144.644 127.648C144.782 127.52 144.963 127.447 145.151 127.443Z" fill="#FFC300"/>
<path d="M118.205 129.167L117.559 129.033C117.542 129.029 117.525 129.021 117.51 129.01C117.496 128.999 117.484 128.985 117.476 128.968C117.467 128.952 117.463 128.934 117.463 128.916C117.463 128.897 117.467 128.879 117.474 128.863L117.743 128.226C117.754 128.199 117.755 128.168 117.746 128.14C117.737 128.112 117.718 128.088 117.693 128.072C117.668 128.057 117.638 128.051 117.608 128.055C117.579 128.059 117.552 128.074 117.533 128.096L117.044 128.598C117.033 128.613 117.018 128.625 117 128.633C116.983 128.642 116.965 128.646 116.946 128.646C116.927 128.646 116.908 128.642 116.891 128.633C116.874 128.625 116.859 128.613 116.847 128.598L116.448 128.096C116.363 127.989 116.18 128.096 116.211 128.226L116.368 128.863C116.372 128.881 116.373 128.9 116.37 128.919C116.367 128.938 116.36 128.956 116.349 128.972C116.338 128.988 116.325 129.002 116.309 129.012C116.293 129.023 116.275 129.03 116.256 129.033L115.588 129.167C115.445 129.194 115.427 129.396 115.566 129.423L116.211 129.557C116.229 129.56 116.246 129.568 116.261 129.579C116.275 129.59 116.287 129.605 116.295 129.622C116.303 129.638 116.306 129.656 116.306 129.675C116.305 129.693 116.3 129.711 116.292 129.727L116.032 130.368C116.021 130.395 116.02 130.426 116.029 130.454C116.038 130.482 116.057 130.506 116.082 130.522C116.107 130.537 116.137 130.544 116.167 130.539C116.196 130.535 116.223 130.52 116.242 130.498L116.731 129.996C116.743 129.982 116.759 129.972 116.775 129.964C116.792 129.957 116.811 129.953 116.829 129.953C116.848 129.953 116.866 129.957 116.883 129.964C116.9 129.972 116.915 129.982 116.928 129.996L117.327 130.498C117.412 130.605 117.595 130.498 117.559 130.368L117.403 129.732C117.396 129.694 117.405 129.655 117.426 129.623C117.448 129.591 117.481 129.569 117.519 129.561L118.187 129.427C118.326 129.396 118.343 129.194 118.205 129.167Z" fill="#263238"/>
<path d="M122.443 129.167L121.798 129.033C121.78 129.029 121.763 129.021 121.748 129.01C121.734 128.999 121.722 128.985 121.714 128.968C121.706 128.952 121.701 128.934 121.701 128.916C121.701 128.897 121.705 128.879 121.713 128.863L121.981 128.226C121.993 128.199 121.994 128.168 121.984 128.14C121.975 128.112 121.956 128.088 121.931 128.072C121.906 128.057 121.876 128.051 121.847 128.055C121.817 128.059 121.79 128.074 121.771 128.096L121.283 128.598C121.271 128.613 121.256 128.625 121.239 128.633C121.222 128.642 121.203 128.646 121.184 128.646C121.165 128.646 121.146 128.642 121.129 128.633C121.112 128.625 121.097 128.613 121.085 128.598L120.687 128.096C120.602 127.989 120.418 128.096 120.454 128.226L120.611 128.863C120.614 128.881 120.614 128.901 120.611 128.92C120.607 128.939 120.599 128.957 120.588 128.972C120.578 128.988 120.564 129.002 120.547 129.012C120.531 129.023 120.513 129.03 120.494 129.033L119.827 129.167C119.683 129.194 119.665 129.396 119.804 129.423L120.449 129.557C120.467 129.561 120.484 129.568 120.499 129.579C120.513 129.591 120.525 129.605 120.533 129.621C120.541 129.638 120.546 129.656 120.546 129.674C120.546 129.692 120.542 129.711 120.534 129.727L120.266 130.363C120.254 130.391 120.253 130.421 120.263 130.45C120.272 130.478 120.291 130.502 120.316 130.517C120.341 130.533 120.371 130.539 120.4 130.535C120.43 130.53 120.457 130.516 120.476 130.493L120.964 129.992C120.977 129.978 120.992 129.967 121.009 129.96C121.026 129.952 121.045 129.948 121.063 129.948C121.082 129.948 121.1 129.952 121.117 129.96C121.134 129.967 121.149 129.978 121.162 129.992L121.56 130.493C121.645 130.601 121.829 130.493 121.798 130.363L121.641 129.727C121.637 129.709 121.637 129.69 121.64 129.671C121.644 129.652 121.651 129.635 121.661 129.619C121.672 129.603 121.685 129.589 121.701 129.579C121.717 129.568 121.734 129.561 121.753 129.557L122.42 129.423C122.564 129.396 122.582 129.194 122.443 129.167Z" fill="#263238"/>
<path d="M126.681 129.167L126.04 129.033C126.022 129.03 126.004 129.023 125.989 129.012C125.974 129.001 125.962 128.986 125.953 128.97C125.945 128.953 125.941 128.935 125.941 128.916C125.941 128.897 125.946 128.879 125.955 128.863L126.224 128.226C126.241 128.198 126.246 128.164 126.238 128.131C126.23 128.099 126.21 128.071 126.181 128.054C126.153 128.037 126.118 128.032 126.086 128.04C126.054 128.048 126.026 128.068 126.009 128.097L125.525 128.598C125.513 128.613 125.497 128.625 125.48 128.634C125.462 128.642 125.443 128.646 125.424 128.646C125.405 128.646 125.386 128.642 125.368 128.634C125.351 128.625 125.335 128.613 125.323 128.598L124.924 128.097C124.839 127.989 124.656 128.097 124.691 128.226L124.848 128.863C124.852 128.881 124.852 128.9 124.849 128.919C124.845 128.938 124.838 128.955 124.828 128.971C124.817 128.987 124.804 129.001 124.788 129.011C124.772 129.022 124.755 129.029 124.736 129.033L124.069 129.167C123.925 129.194 123.907 129.396 124.046 129.423L124.687 129.557C124.705 129.561 124.722 129.568 124.736 129.58C124.751 129.591 124.763 129.605 124.771 129.621C124.779 129.638 124.784 129.656 124.784 129.674C124.784 129.693 124.78 129.711 124.772 129.727L124.503 130.363C124.486 130.392 124.481 130.426 124.489 130.458C124.497 130.491 124.517 130.519 124.546 130.536C124.574 130.553 124.609 130.558 124.641 130.55C124.673 130.542 124.701 130.522 124.718 130.493L125.202 129.992C125.215 129.978 125.23 129.967 125.247 129.96C125.264 129.952 125.282 129.949 125.301 129.949C125.319 129.949 125.338 129.952 125.355 129.96C125.371 129.967 125.387 129.978 125.399 129.992L125.803 130.493C125.888 130.601 126.071 130.493 126.035 130.363L125.879 129.727C125.872 129.69 125.88 129.651 125.901 129.62C125.922 129.588 125.954 129.566 125.991 129.557L126.658 129.423C126.784 129.396 126.819 129.194 126.681 129.167Z" fill="#263238"/>
<path d="M130.922 129.167L130.277 129.033C130.259 129.029 130.242 129.021 130.228 129.01C130.213 128.999 130.201 128.985 130.193 128.968C130.185 128.952 130.18 128.934 130.18 128.916C130.18 128.897 130.184 128.879 130.192 128.863L130.461 128.226C130.472 128.199 130.473 128.168 130.464 128.14C130.454 128.112 130.436 128.088 130.41 128.072C130.385 128.057 130.355 128.051 130.326 128.055C130.296 128.059 130.27 128.074 130.25 128.096L129.762 128.598C129.75 128.613 129.735 128.625 129.718 128.633C129.701 128.642 129.682 128.646 129.663 128.646C129.644 128.646 129.625 128.642 129.608 128.633C129.591 128.625 129.576 128.613 129.565 128.598L129.166 128.096C129.081 127.989 128.897 128.096 128.928 128.226L129.085 128.863C129.09 128.881 129.091 128.9 129.087 128.919C129.084 128.938 129.077 128.956 129.066 128.972C129.056 128.988 129.042 129.002 129.026 129.012C129.01 129.023 128.992 129.03 128.973 129.033L128.306 129.167C128.162 129.194 128.144 129.396 128.306 129.423L128.951 129.557C128.969 129.56 128.986 129.568 129 129.579C129.015 129.59 129.027 129.605 129.035 129.622C129.042 129.638 129.046 129.656 129.046 129.675C129.045 129.693 129.04 129.711 129.032 129.727L128.767 130.363C128.756 130.391 128.755 130.421 128.764 130.45C128.773 130.478 128.792 130.502 128.818 130.517C128.843 130.533 128.873 130.539 128.902 130.535C128.931 130.53 128.958 130.516 128.978 130.493L129.466 129.992C129.479 129.978 129.494 129.967 129.511 129.96C129.528 129.952 129.546 129.948 129.565 129.948C129.583 129.948 129.601 129.952 129.618 129.96C129.635 129.967 129.651 129.978 129.663 129.992L130.062 130.493C130.147 130.601 130.331 130.493 130.295 130.363L130.138 129.727C130.131 129.689 130.14 129.65 130.162 129.618C130.183 129.587 130.217 129.565 130.255 129.557L130.922 129.423C131.043 129.396 131.061 129.194 130.922 129.167Z" fill="#263238"/>
<path d="M135.162 129.167L134.517 129.033C134.499 129.029 134.482 129.021 134.467 129.01C134.453 128.999 134.441 128.985 134.433 128.968C134.424 128.952 134.42 128.934 134.42 128.916C134.42 128.897 134.424 128.879 134.431 128.863L134.7 128.226C134.711 128.199 134.712 128.168 134.703 128.14C134.694 128.112 134.675 128.088 134.65 128.072C134.625 128.057 134.595 128.051 134.565 128.055C134.536 128.059 134.509 128.074 134.49 128.096L134.001 128.598C133.99 128.613 133.975 128.625 133.958 128.633C133.94 128.642 133.922 128.646 133.903 128.646C133.884 128.646 133.865 128.642 133.848 128.633C133.831 128.625 133.816 128.613 133.804 128.598L133.405 128.096C133.32 127.989 133.137 128.096 133.173 128.226L133.329 128.863C133.333 128.881 133.333 128.901 133.329 128.92C133.326 128.939 133.318 128.957 133.307 128.972C133.296 128.988 133.282 129.002 133.266 129.012C133.25 129.023 133.232 129.03 133.213 129.033L132.545 129.167C132.402 129.194 132.384 129.396 132.523 129.423L133.168 129.557C133.186 129.561 133.203 129.568 133.217 129.579C133.232 129.591 133.244 129.605 133.252 129.621C133.26 129.638 133.265 129.656 133.265 129.674C133.265 129.692 133.261 129.711 133.253 129.727L132.984 130.363C132.973 130.391 132.972 130.421 132.981 130.45C132.991 130.478 133.009 130.502 133.035 130.517C133.06 130.533 133.09 130.539 133.119 130.535C133.149 130.53 133.175 130.516 133.195 130.493L133.683 129.992C133.696 129.978 133.711 129.967 133.728 129.96C133.745 129.952 133.763 129.948 133.782 129.948C133.8 129.948 133.819 129.952 133.836 129.96C133.853 129.967 133.868 129.978 133.88 129.992L134.279 130.493C134.364 130.601 134.548 130.493 134.517 130.363L134.36 129.727C134.356 129.709 134.356 129.69 134.359 129.671C134.363 129.652 134.37 129.635 134.38 129.619C134.391 129.603 134.404 129.589 134.42 129.579C134.435 129.568 134.453 129.561 134.472 129.557L135.139 129.423C135.296 129.396 135.296 129.194 135.162 129.167Z" fill="#263238"/>
<path d="M139.399 129.167L138.754 129.033C138.736 129.029 138.719 129.022 138.705 129.011C138.69 128.999 138.678 128.985 138.671 128.968C138.663 128.952 138.659 128.933 138.659 128.915C138.66 128.897 138.665 128.879 138.674 128.863L138.942 128.226C138.951 128.212 138.957 128.197 138.959 128.18C138.962 128.164 138.961 128.147 138.957 128.131C138.953 128.115 138.946 128.1 138.936 128.087C138.926 128.074 138.914 128.063 138.9 128.054C138.886 128.045 138.87 128.04 138.854 128.037C138.837 128.035 138.821 128.036 138.805 128.04C138.789 128.043 138.774 128.051 138.76 128.06C138.747 128.07 138.736 128.082 138.727 128.097L138.243 128.598C138.231 128.613 138.216 128.625 138.199 128.634C138.181 128.642 138.162 128.646 138.143 128.646C138.123 128.646 138.104 128.642 138.087 128.634C138.069 128.625 138.054 128.613 138.042 128.598L137.643 128.097C137.558 127.989 137.374 128.097 137.41 128.226L137.567 128.863C137.571 128.881 137.571 128.9 137.568 128.919C137.564 128.938 137.557 128.955 137.547 128.971C137.536 128.987 137.523 129.001 137.507 129.011C137.491 129.022 137.474 129.029 137.455 129.033L136.787 129.167C136.644 129.194 136.626 129.396 136.765 129.423L137.406 129.557C137.424 129.561 137.441 129.568 137.455 129.58C137.47 129.591 137.482 129.605 137.49 129.621C137.498 129.638 137.502 129.656 137.502 129.674C137.503 129.693 137.499 129.711 137.491 129.727L137.222 130.363C137.205 130.392 137.2 130.426 137.208 130.458C137.216 130.491 137.236 130.519 137.265 130.536C137.293 130.553 137.327 130.558 137.36 130.55C137.392 130.542 137.42 130.522 137.437 130.493L137.921 129.992C137.934 129.978 137.949 129.967 137.966 129.96C137.983 129.952 138.001 129.949 138.019 129.949C138.038 129.949 138.056 129.952 138.073 129.96C138.09 129.967 138.105 129.978 138.118 129.992L138.517 130.493C138.538 130.517 138.566 130.533 138.597 130.538C138.628 130.543 138.66 130.538 138.687 130.523C138.715 130.508 138.736 130.484 138.749 130.455C138.761 130.426 138.763 130.394 138.754 130.363L138.597 129.727C138.591 129.69 138.599 129.651 138.619 129.62C138.64 129.588 138.672 129.566 138.709 129.557L139.377 129.423C139.52 129.396 139.538 129.194 139.399 129.167Z" fill="#263238"/>
<path d="M129.18 119.889H121.224C120.98 119.893 120.746 119.987 120.566 120.152C120.386 120.317 120.272 120.542 120.247 120.785C120.234 120.9 120.246 121.015 120.282 121.125C120.317 121.234 120.376 121.335 120.454 121.419C120.531 121.504 120.626 121.572 120.732 121.617C120.838 121.662 120.952 121.684 121.067 121.681H129.024C129.268 121.677 129.502 121.584 129.682 121.419C129.862 121.253 129.975 121.028 130 120.785C130.012 120.671 130 120.556 129.964 120.447C129.928 120.338 129.87 120.237 129.792 120.153C129.715 120.068 129.62 120.001 129.514 119.955C129.409 119.91 129.295 119.887 129.18 119.889Z" fill="#263238"/>
<path d="M137.262 119.889H132.643C132.399 119.893 132.166 119.987 131.987 120.152C131.807 120.317 131.695 120.543 131.671 120.785C131.658 120.899 131.67 121.014 131.705 121.123C131.741 121.233 131.799 121.333 131.876 121.418C131.953 121.502 132.048 121.57 132.153 121.615C132.258 121.661 132.372 121.683 132.486 121.681H137.087C137.331 121.677 137.565 121.583 137.744 121.418C137.923 121.253 138.035 121.028 138.06 120.785C138.072 120.673 138.061 120.559 138.027 120.451C137.992 120.343 137.936 120.244 137.86 120.159C137.785 120.075 137.693 120.007 137.59 119.961C137.487 119.914 137.375 119.89 137.262 119.889Z" fill="#263238"/>
<path d="M143.359 160.5C140.547 161.572 138.008 163.255 135.927 165.428C134.663 164.447 133.156 163.828 131.568 163.636L131.357 163.605L131.268 164.662L131.384 164.707C133.126 165.348 134.6 166.561 135.564 168.148L135.716 168.399L135.882 168.13C137.737 165.168 140.356 162.76 143.462 161.159L143.565 161.105L143.623 160.406L143.359 160.5Z" fill="#263238"/>
<path opacity="0.2" d="M103.326 72.2939C102.755 73.2909 102.404 74.3982 102.296 75.5419L95.625 151.801H116.269L120.417 135.901L119.051 119.997L123.199 104.097L121.855 88.1979L126.004 72.2939H103.326Z" fill="black"/>
<path d="M120.041 83.7177L124.189 67.8137H71.9835L67.8395 83.7177L69.2015 99.6172L65.0575 115.517L66.4194 131.421L62.2754 147.32H114.476L118.625 131.421L117.258 115.517L121.407 99.6172L120.041 83.7177Z" fill="#FFC300"/>
<path opacity="0.7" d="M120.041 83.7177L124.189 67.8137H71.9835L67.8395 83.7177L69.2015 99.6172L65.0575 115.517L66.4194 131.421L62.2754 147.32H114.476L118.625 131.421L117.258 115.517L121.407 99.6172L120.041 83.7177Z" fill="white"/>
<path opacity="0.5" d="M120.041 83.7177H67.8398L71.9838 67.8137H124.189L120.041 83.7177Z" fill="white"/>
<path opacity="0.5" d="M117.26 115.517H65.0586L69.2026 99.6174H121.408L117.26 115.517Z" fill="white"/>
<path opacity="0.5" d="M114.477 147.32H62.2715L66.42 131.421H118.625L114.477 147.32Z" fill="white"/>
<path opacity="0.2" d="M113.056 90.3616C112.52 90.5164 111.965 90.5919 111.407 90.5856C110.651 90.6191 109.899 90.4652 109.217 90.1376C109.093 90.0645 108.952 90.0258 108.809 90.0256C108.677 90.0275 108.548 90.0613 108.433 90.1242H108.406C108.206 90.2365 107.992 90.3224 107.77 90.3796C107.268 90.5119 106.751 90.5767 106.233 90.5722C106.076 90.5722 105.924 90.5722 105.785 90.5722C105.383 90.5464 104.984 90.4758 104.598 90.3616C104.541 90.3447 104.482 90.3342 104.423 90.3303C104.324 90.3222 104.225 90.3347 104.132 90.3668C104.038 90.3989 103.952 90.45 103.88 90.5169C103.807 90.5838 103.749 90.6651 103.709 90.7555C103.669 90.846 103.648 90.9437 103.648 91.0426V91.5264H83.3267C82.9533 91.5264 82.5836 91.6 82.2387 91.7431C81.8938 91.8861 81.5805 92.0957 81.3167 92.3599C81.0529 92.6242 80.8437 92.9378 80.7013 93.2829C80.5588 93.628 80.4858 93.9979 80.4863 94.3712V97.234C80.4852 97.6077 80.5578 97.978 80.7 98.3236C80.8422 98.6693 81.0512 98.9835 81.3151 99.2482C81.5789 99.5129 81.8925 99.7229 82.2376 99.8662C82.5828 100.009 82.9529 100.083 83.3267 100.083H106.412H106.564C106.811 100.289 107.071 100.495 107.348 100.706C107.626 100.917 108.02 101.208 108.383 101.468C108.507 101.557 108.656 101.605 108.809 101.605C108.962 101.605 109.111 101.557 109.234 101.468C112.138 99.362 114.001 97.9104 114.001 93.9232V91.056C114.003 90.9414 113.977 90.828 113.925 90.7254C113.874 90.6228 113.799 90.5338 113.707 90.4659C113.615 90.3981 113.507 90.3532 113.394 90.335C113.281 90.3169 113.165 90.326 113.056 90.3616Z" fill="black"/>
<path d="M105.969 89.9541H82.8878C81.3166 89.9541 80.043 91.2278 80.043 92.7989V95.6616C80.043 97.2328 81.3166 98.5064 82.8878 98.5064H105.969C107.54 98.5064 108.814 97.2328 108.814 95.6616V92.7989C108.814 91.2278 107.54 89.9541 105.969 89.9541Z" fill="#FFC300"/>
<path d="M110.964 89.0087C110.208 89.041 109.456 88.8872 108.773 88.5607C108.652 88.4862 108.512 88.4468 108.37 88.4468C108.228 88.4468 108.088 88.4862 107.967 88.5607C107.283 88.8877 106.529 89.0416 105.772 89.0087C105.214 89.0146 104.659 88.9392 104.123 88.7847C104.015 88.7484 103.9 88.7383 103.787 88.7553C103.675 88.7723 103.568 88.8159 103.476 88.8825C103.383 88.9491 103.308 89.0367 103.256 89.1381C103.204 89.2395 103.177 89.3518 103.178 89.4656V92.3329C103.178 96.3245 105.041 97.776 107.944 99.8816C108.068 99.9713 108.217 100.02 108.37 100.02C108.523 100.02 108.672 99.9713 108.796 99.8816C111.699 97.776 113.562 96.3245 113.562 92.3329V89.4656C113.562 89.3516 113.534 89.2393 113.482 89.1379C113.43 89.0366 113.354 88.9491 113.261 88.8826C113.169 88.8162 113.062 88.7727 112.949 88.7556C112.836 88.7386 112.721 88.7486 112.613 88.7847C112.077 88.9395 111.522 89.0149 110.964 89.0087Z" fill="#FFC300"/>
<path opacity="0.3" d="M110.964 89.0087C110.208 89.041 109.456 88.8872 108.773 88.5607C108.652 88.4862 108.512 88.4468 108.37 88.4468C108.228 88.4468 108.088 88.4862 107.967 88.5607C107.283 88.8877 106.529 89.0416 105.772 89.0087C105.214 89.0146 104.659 88.9392 104.123 88.7847C104.015 88.7484 103.9 88.7383 103.787 88.7553C103.675 88.7723 103.568 88.8159 103.476 88.8825C103.383 88.9491 103.308 89.0367 103.256 89.1381C103.204 89.2395 103.177 89.3518 103.178 89.4656V92.3329C103.178 96.3245 105.041 97.776 107.944 99.8816C108.068 99.9713 108.217 100.02 108.37 100.02C108.523 100.02 108.672 99.9713 108.796 99.8816C111.699 97.776 113.562 96.3245 113.562 92.3329V89.4656C113.562 89.3516 113.534 89.2393 113.482 89.1379C113.43 89.0366 113.354 88.9491 113.261 88.8826C113.169 88.8162 113.062 88.7727 112.949 88.7556C112.836 88.7386 112.721 88.7486 112.613 88.7847C112.077 88.9395 111.522 89.0149 110.964 89.0087Z" fill="white"/>
<path opacity="0.2" d="M107.967 88.5517C107.283 88.8787 106.529 89.0326 105.772 88.9997C105.214 89.0053 104.659 88.9299 104.123 88.7757C104.015 88.7394 103.9 88.7293 103.787 88.7463C103.675 88.7634 103.568 88.8069 103.476 88.8735C103.383 88.9401 103.308 89.0277 103.256 89.1291C103.204 89.2305 103.177 89.3428 103.178 89.4567V92.3239C103.178 96.3155 105.041 97.7671 107.944 99.8727C108.074 99.9669 108.232 100.016 108.392 100.012V88.4352C108.242 88.4322 108.095 88.4727 107.967 88.5517Z" fill="white"/>
<path d="M112.532 91.5533C110.785 92.2375 109.23 93.3333 107.998 94.7476C107.139 94.1142 106.132 93.7116 105.072 93.5783H104.934V94.2637L105.01 94.2906C106.188 94.7157 107.203 95.499 107.913 96.5306L108.025 96.6919L108.119 96.5172C109.149 94.6032 110.717 93.0331 112.63 92.0013L112.697 91.97V91.522L112.532 91.5533Z" fill="#263238"/>
<path d="M123.266 72.2894H121.286C121.032 72.2941 120.779 72.2445 120.545 72.1437C120.311 72.043 120.101 71.8936 119.929 71.7053C119.757 71.5171 119.628 71.2944 119.549 71.0521C119.47 70.8098 119.444 70.5535 119.472 70.3002L119.647 68.3201C119.7 67.7816 119.95 67.2815 120.348 66.9148C120.746 66.5481 121.265 66.3404 121.806 66.331H123.786C124.041 66.3256 124.295 66.3748 124.529 66.4752C124.764 66.5756 124.974 66.725 125.146 66.9133C125.319 67.1016 125.449 67.3245 125.528 67.5671C125.607 67.8098 125.633 68.0665 125.605 68.3201L125.43 70.3002C125.37 70.837 125.118 71.3338 124.72 71.6993C124.323 72.0648 123.806 72.2744 123.266 72.2894Z" fill="#FFC300"/>
<path d="M124.091 68.3157L123.661 67.8408L122.577 68.8354L121.672 67.8408L121.157 68.3157L122.066 69.3103L120.986 70.3048L121.416 70.7752L122.496 69.7807L123.406 70.7752L123.916 70.3048L123.007 69.3103L124.091 68.3157Z" fill="white"/>
<path d="M79.0136 89.3713C80.1604 90.6213 81.2536 91.916 82.3422 93.2197C83.4308 94.5233 84.4836 95.8539 85.532 97.1889C85.5768 97.2472 85.5588 97.2248 85.5678 97.2427C85.5768 97.2606 85.5678 97.2651 85.5678 97.2696C85.5756 97.2862 85.5862 97.3013 85.5992 97.3144C85.6373 97.3686 85.6859 97.4148 85.742 97.4502C85.7982 97.4855 85.8608 97.5094 85.9262 97.5205C85.9767 97.5273 86.028 97.5273 86.0785 97.5205C86.1054 97.5226 86.1323 97.5226 86.1592 97.5205H86.1995C86.2219 97.5205 86.1995 97.5205 86.2712 97.4936L87.3912 96.8843C88.8964 96.0869 90.4152 95.3073 91.9832 94.6085L93.2958 96.2347C92.0324 97.395 90.7153 98.851 89.3848 99.9173L88.3812 100.706C88.3189 100.757 88.253 100.803 88.1841 100.845C88.1081 100.899 88.0288 100.948 87.9467 100.992C87.7845 101.086 87.617 101.17 87.4449 101.243C87.0978 101.389 86.7335 101.49 86.3608 101.543C85.607 101.654 84.8377 101.577 84.1208 101.319C83.7561 101.19 83.4098 101.014 83.0904 100.795C82.9291 100.688 82.7768 100.562 82.6424 100.441C82.5662 100.379 82.5035 100.307 82.4318 100.24L82.2526 100.061C81.0654 98.8421 79.8961 97.6145 78.7492 96.3646C77.6024 95.1147 76.4689 93.8558 75.3848 92.5477L79.0136 89.3713Z" fill="#B55B52"/>
<path d="M91.3906 95.594L92.4345 92.2385L95.1852 93.6094C95.1852 93.6094 94.782 96.0555 92.7839 96.4811L91.3906 95.594Z" fill="#B55B52"/>
<path d="M93.5337 91.3113L96.0156 91.9922L95.1824 93.6095L92.4316 92.2386L93.5337 91.3113Z" fill="#B55B52"/>
<path d="M64.5527 90.2854C64.257 91.71 63.8897 93.1212 63.5089 94.528C63.1281 95.9347 62.7114 97.328 62.2769 98.7212L62.1156 99.2454L62.0349 99.5052C62.0241 99.5426 62.0091 99.5787 61.9901 99.6128C61.939 99.7569 61.9103 99.9079 61.905 100.061C61.8956 100.386 61.9863 100.707 62.1649 100.979C62.253 101.099 62.3504 101.211 62.4561 101.315L62.8279 101.723L63.5626 102.543C64.042 103.098 64.5258 103.654 64.9828 104.236L63.4193 106.028C62.7741 105.661 62.1559 105.262 61.5377 104.868L60.6193 104.259L60.1713 103.949C60.0189 103.842 59.8935 103.77 59.6471 103.569C58.7706 102.822 58.1657 101.806 57.9268 100.679C57.8065 100.105 57.7778 99.515 57.8417 98.9318C57.8417 98.7884 57.8865 98.6272 57.9089 98.4838L57.9581 98.215L58.0522 97.6774C58.3031 96.2393 58.5719 94.8057 58.8721 93.3811C59.1722 91.9564 59.4948 90.5363 59.8756 89.134L64.5527 90.2854Z" fill="#B55B52"/>
<path d="M63.4492 104.093L65.295 103.147L66.1103 106.283C66.1103 106.283 64.6275 106.852 63.4806 106.122L63.4492 104.093Z" fill="#B55B52"/>
<path d="M67.8493 102.139L67.9344 105.025L65.8691 106.373L65.1523 103.206L67.8493 102.139Z" fill="#B55B52"/>
<path d="M73.8928 75.4744C73.9376 75.6939 74.0944 75.8507 74.2378 75.8238C74.3812 75.7969 74.4663 75.5908 74.4215 75.3758C74.3767 75.1608 74.2199 74.9995 74.0765 75.0264C73.9332 75.0532 73.848 75.2638 73.8928 75.4744Z" fill="#263238"/>
<path d="M74.0723 75.8552C74.4756 76.48 74.9624 77.0468 75.5193 77.5397C75.3897 77.6793 75.2311 77.789 75.0547 77.861C74.8782 77.9329 74.6882 77.9655 74.4979 77.9563L74.0723 75.8552Z" fill="#A02724"/>
<path d="M72.8301 74.4082C72.8043 74.4079 72.7791 74.4001 72.7575 74.3859C72.736 74.3717 72.719 74.3515 72.7086 74.3279C72.6983 74.3043 72.6949 74.2782 72.6989 74.2527C72.703 74.2272 72.7143 74.2034 72.7315 74.1842C72.8718 74.0255 73.0475 73.9022 73.2445 73.8243C73.4415 73.7465 73.6541 73.7163 73.8649 73.7362C73.8823 73.7394 73.8988 73.746 73.9136 73.7557C73.9284 73.7653 73.9412 73.7777 73.9512 73.7923C73.9612 73.8069 73.9682 73.8232 73.9718 73.8405C73.9755 73.8578 73.9757 73.8756 73.9725 73.893C73.9698 73.9102 73.9636 73.9266 73.9545 73.9414C73.9453 73.9561 73.9332 73.9689 73.919 73.979C73.9048 73.989 73.8888 73.9961 73.8718 73.9998C73.8548 74.0035 73.8372 74.0037 73.8201 74.0005C73.653 73.9845 73.4845 74.0087 73.3287 74.071C73.1728 74.1333 73.0341 74.2321 72.9241 74.3589C72.9002 74.3868 72.8666 74.4044 72.8301 74.4082Z" fill="#263238"/>
<path d="M67.4332 78.5969C67.926 80.6532 68.4233 84.4209 66.6582 85.7873C66.6582 85.7873 67.3481 87.875 72.0342 87.875C77.1862 87.875 74.4982 86.531 74.4982 86.531C71.6848 85.9844 71.7564 83.5428 72.2582 81.9435L67.4332 78.5969Z" fill="#B55B52"/>
<path d="M66.1068 86.1683C65.8021 85.5994 65.4616 84.9453 66.1605 84.7392C66.9311 84.5152 71.8725 84.0986 73.3285 84.5197C72.8805 85.3126 73.6376 86.3117 73.6376 86.3117L66.1068 86.1683Z" fill="#263238"/>
<path d="M70.2012 182.3H73.4313L73.7538 175.795H70.5193L70.2012 182.3Z" fill="#B55B52"/>
<path d="M49.6875 181.404L52.9624 181.579L54.9515 175.168L51.6766 174.993L49.6875 181.404Z" fill="#B55B52"/>
<path d="M52.8635 181.319L49.7768 180.652C49.7228 180.639 49.6661 180.646 49.6164 180.67C49.5666 180.695 49.5268 180.736 49.5035 180.786L48.4328 183.111C48.4065 183.168 48.3934 183.229 48.3946 183.292C48.3958 183.354 48.4113 183.415 48.4399 183.47C48.4684 183.526 48.5093 183.574 48.5593 183.611C48.6093 183.648 48.6672 183.673 48.7285 183.685C49.8082 183.9 50.3458 183.949 51.7032 184.245C52.5365 184.424 54.4226 184.885 55.5739 185.141C56.7253 185.396 57.124 184.285 56.676 184.079C54.66 183.16 53.8178 182.349 53.2712 181.592C53.1731 181.455 53.0282 181.357 52.8635 181.319Z" fill="#263238"/>
<path d="M73.2614 181.973H70.1926C70.1372 181.974 70.0835 181.993 70.0404 182.028C69.9973 182.063 69.9673 182.112 69.9552 182.166L69.3997 184.661C69.3854 184.722 69.385 184.784 69.3987 184.845C69.4123 184.906 69.4397 184.962 69.4786 185.011C69.5175 185.059 69.5669 185.098 69.6231 185.124C69.6793 185.151 69.7408 185.164 69.8029 185.163C70.9094 185.163 72.4909 185.078 73.9021 185.078C75.5283 185.078 76.9306 185.167 78.8301 185.167C79.9815 185.167 80.304 184.003 79.8202 183.895C77.6205 183.416 75.8285 183.362 73.929 182.193C73.7304 182.06 73.4997 181.985 73.2614 181.973Z" fill="#263238"/>
<path d="M60.8013 86.7372C58.3642 87.8975 57.7012 94.9311 57.7012 94.9311L63.7357 97.7176C64.7558 95.9972 65.3115 94.0413 65.3485 92.0415C65.4695 88.4082 63.2967 85.5679 60.8013 86.7372Z" fill="#263238"/>
<path opacity="0.4" d="M64.0644 91.0737C62.9758 92.7672 63.0788 95.3835 63.4551 97.5921L63.7239 97.7176C64.743 95.9967 65.2987 94.041 65.3367 92.0414C65.3367 91.8264 65.3367 91.5934 65.3367 91.4008L64.0644 91.0737Z" fill="black"/>
<path d="M77.6423 86.5668C77.6423 86.5668 80.6349 89.9448 77.8081 110.848H62.7866C62.6836 108.541 64.1306 97.292 61.8906 86.4235C63.5508 86.1041 65.2298 85.8916 66.9172 85.7873C69.045 85.6663 71.1779 85.6663 73.3057 85.7873C74.7691 85.9355 76.2189 86.1961 77.6423 86.5668Z" fill="#FFC300"/>
<path opacity="0.6" d="M77.6423 86.5668C77.6423 86.5668 80.6349 89.9448 77.8081 110.848H62.7866C62.6836 108.541 64.1306 97.292 61.8906 86.4235C63.5508 86.1041 65.2298 85.8916 66.9172 85.7873C69.045 85.6663 71.1779 85.6663 73.3057 85.7873C74.7691 85.9355 76.2189 86.1961 77.6423 86.5668Z" fill="#FAFAFA"/>
<path opacity="0.2" d="M78.9551 92.9554L78.9014 92.9062L75.9132 91.3113C75.6086 95.9122 77.6649 98.7974 78.8879 100.056C79.0412 97.6924 79.0637 95.3218 78.9551 92.9554Z" fill="black"/>
<path opacity="0.2" d="M73.7538 175.795L73.5881 179.151H70.3535L70.5193 175.795H73.7538Z" fill="black"/>
<path opacity="0.2" d="M51.6763 174.998L54.9512 175.168L53.9253 178.474L50.6504 178.299L51.6763 174.998Z" fill="black"/>
<path d="M66.3924 76.5094C67.1137 79.1974 67.4004 80.8147 69.0804 81.9347C71.5803 83.6191 74.6894 81.6838 74.7879 78.83C74.8731 76.263 73.6814 72.2892 70.7918 71.7471C70.1538 71.6209 69.4941 71.6604 68.8758 71.8617C68.2574 72.0631 67.701 72.4197 67.2597 72.8974C66.8184 73.3751 66.507 73.9579 66.3551 74.5903C66.2033 75.2227 66.2161 75.8834 66.3924 76.5094Z" fill="#B55B52"/>
<path d="M72.4809 110.849C72.4809 110.849 69.2912 132.312 67.5529 140.358C65.6265 149.184 55.3494 178.304 55.3494 178.304L50.3184 177.215C50.3184 177.215 56.7651 153.471 58.3824 141.16C59.0096 136.353 59.7667 128.616 60.7254 122.152C61.6528 115.88 62.7952 110.853 62.7952 110.853L72.4809 110.849Z" fill="#263238"/>
<path d="M56.5555 176.624L55.6147 178.443L49.9609 177.215L50.4358 175.517L56.5555 176.624Z" fill="#FFC300"/>
<path opacity="0.6" d="M56.5555 176.624L55.6147 178.443L49.9609 177.215L50.4358 175.517L56.5555 176.624Z" fill="white"/>
<path opacity="0.6" d="M70.4652 118.496C66.7781 119.217 67.1679 132.966 67.6114 140.036C68.6777 135.036 70.2322 125.422 71.294 118.595C71.0371 118.468 70.7446 118.433 70.4652 118.496Z" fill="black"/>
<path d="M77.8075 110.848C77.8075 110.848 79.3083 131.851 79.0037 140.416C78.6856 149.327 74.461 178.496 74.461 178.496H69.7032C69.7032 178.496 69.5285 149.824 69.3179 141.093C69.085 131.551 67.9336 110.844 67.9336 110.844L77.8075 110.848Z" fill="#263238"/>
<path d="M75.3759 176.606C75.3983 176.606 75.1071 178.582 75.1071 178.582H69.3189L69.1621 176.817L75.3759 176.606Z" fill="#FFC300"/>
<path opacity="0.6" d="M75.3759 176.606C75.3983 176.606 75.1071 178.582 75.1071 178.582H69.3189L69.1621 176.817L75.3759 176.606Z" fill="white"/>
<path d="M75.8906 90.4958C75.8906 96.1317 78.8877 98.4523 78.8877 98.4523L83.7754 93.6945C82.6185 91.7611 81.3013 89.9284 79.8375 88.2155C77.0106 84.9765 75.8906 86.876 75.8906 90.4958Z" fill="#263238"/>
<path opacity="0.2" d="M74.6013 79.8513C74.5016 80.1338 74.3344 80.3875 74.1142 80.5906C73.894 80.7936 73.6275 80.9397 73.3379 81.0161C73.0194 81.0811 72.7302 81.2469 72.5132 81.4889C72.2962 81.7309 72.1628 82.0364 72.1328 82.3601C72.7129 82.1661 73.2389 81.8377 73.6679 81.4017C74.0969 80.9657 74.4167 80.4345 74.6013 79.8513Z" fill="black"/>
<path d="M73.3375 71.1558C74.341 69.8879 72.7954 69.8118 72.7954 69.8118C73.1986 68.302 71.3887 69.1129 71.3887 69.1129C70.3045 67.6166 69.6908 69.4399 69.6908 69.4399C68.5663 68.1721 68.3468 70.2418 68.3468 70.2418C67.2178 68.6335 66.6444 70.9542 66.6444 70.9542C65.605 69.2831 64.9688 71.4559 64.9688 71.4559C62.8229 70.6898 63.8399 72.9209 63.8399 72.9209C62.012 72.9702 63.4815 74.3903 63.4815 74.3903C61.2863 74.3903 63.2216 75.6492 63.2216 75.6492C61.4789 76.7916 63.6696 77.1007 63.6696 77.1007C62.2495 79.3407 64.6911 78.4985 64.6911 78.4985C63.701 80.7026 65.8917 79.7305 65.8917 79.7305C65.7528 81.854 66.9759 81.2761 67.5672 80.8818C67.6792 81.3298 67.8943 81.7778 68.2885 81.8137C69.0546 81.9167 69.1845 80.4697 69.1845 80.4697C69.1845 80.4697 69.8924 81.0252 70.4882 80.725C71.084 80.4249 70.86 79.6678 70.86 79.6678C70.9894 79.7645 71.1465 79.8167 71.308 79.8167C71.4695 79.8167 71.6267 79.7645 71.756 79.6678C72.0114 79.4706 72.0114 78.046 71.6888 77.5442L72.8536 77.0962C72.8536 77.0962 73.7183 76.9753 73.333 75.8329C73.1005 75.1763 73.0801 74.4633 73.2748 73.7945C74.5919 73.1762 73.5077 72.4505 73.5077 72.4505C75.0354 71.4694 73.3375 71.1558 73.3375 71.1558Z" fill="#263238"/>
<path d="M70.9758 76.608C71.1582 77.2764 71.5567 77.8656 72.1093 78.2835C72.8395 78.8301 73.386 78.2835 73.3323 77.4637C73.2875 76.72 72.8484 75.5418 72.042 75.3178C71.2356 75.0938 70.7832 75.815 70.9758 76.608Z" fill="#B55B52"/>
</svg>
