<svg width="154" height="49" viewBox="0 0 154 49" fill="none" xmlns="http://www.w3.org/2000/svg">
<g clip-path="url(#clip0_2126_131525)">
<path d="M0 14.7612C0 12.4078 1.90783 10.5 4.26125 10.5H23.7388C26.0922 10.5 28 12.4078 28 14.7613V34.2388C28 36.5922 26.0922 38.5 23.7388 38.5H4.26125C1.90783 38.5 0 36.5922 0 34.2388V14.7612Z" fill="#FF3000"/>
<path d="M21.0903 33.6875C19.8404 33.6875 18.9793 33.0024 18.9793 30.8801V30.4236H20.3681V30.8804C20.3681 32.0087 20.6737 32.3175 21.0903 32.3175C21.5068 32.3175 21.7987 32.0087 21.7987 31.4848C21.7987 30.8265 21.7015 30.464 20.7292 29.7789C19.5903 28.9865 19.0625 28.1402 19.0625 27.0522C19.0625 25.6687 19.8124 24.8359 21.0903 24.8359C21.9791 24.8359 23.1598 25.1046 23.1598 27.361V27.885H21.7709V27.361C21.7709 26.4746 21.4793 26.1791 21.0903 26.1791C20.6737 26.1791 20.4513 26.4746 20.4513 26.9983C20.4513 27.5355 20.5763 27.9787 21.5485 28.7042C22.757 29.6041 23.1875 30.3161 23.1875 31.4845C23.1875 32.6529 22.6318 33.6875 21.0903 33.6875ZM16.3541 33.6875C15.1042 33.6875 14.2431 33.1099 14.2431 30.8801V30.4236H15.632V30.8804C15.632 32.0087 15.9376 32.3175 16.3541 32.3175C16.7706 32.3175 17.0625 32.0087 17.0625 31.4848C17.0625 30.8265 16.9653 30.464 15.993 29.7789C14.8541 28.9865 14.3263 28.1402 14.3263 27.0522C14.3263 25.6687 15.0762 24.8359 16.3541 24.8359C17.2429 24.8359 18.4236 25.1046 18.4236 27.361V27.885H17.0348V27.361C17.0348 26.4746 16.7432 26.1791 16.3541 26.1791C15.9376 26.1791 15.7152 26.4746 15.7152 26.9983C15.7152 27.5355 15.8401 27.9787 16.8124 28.7042C18.0208 29.6041 18.4513 30.3161 18.4513 31.4845C18.4513 32.6529 17.8958 33.6875 16.3541 33.6875ZM21.0903 24.1641C19.8404 24.1641 18.9793 23.479 18.9793 21.3567V20.9002H20.3681V21.3569C20.3681 22.4853 20.6737 22.7941 21.0903 22.7941C21.5068 22.7941 21.7987 22.4853 21.7987 21.9613C21.7987 21.3031 21.7015 20.9406 20.7292 20.2555C19.5903 19.463 19.0625 18.6167 19.0625 17.5288C19.0625 16.1453 19.8124 15.3125 21.0903 15.3125C21.9791 15.3125 23.1598 15.5812 23.1598 17.8376V18.3615H21.7709V17.8376C21.7709 16.9512 21.4793 16.6557 21.0903 16.6557C20.6737 16.6557 20.4513 16.9512 20.4513 17.4749C20.4513 18.0121 20.5763 18.4553 21.5485 19.1808C22.757 20.0807 23.1875 20.7927 23.1875 21.9611C23.1875 23.1295 22.6318 24.1641 21.0903 24.1641ZM16.3541 24.1641C15.1042 24.1641 14.2431 23.5865 14.2431 21.3567V20.9002H15.632V21.3569C15.632 22.4853 15.9376 22.7941 16.3541 22.7941C16.7706 22.7941 17.0625 22.4853 17.0625 21.9613C17.0625 21.3031 16.9653 20.9406 15.993 20.2555C14.8541 19.463 14.3263 18.6167 14.3263 17.5288C14.3263 16.1453 15.0762 15.3125 16.3541 15.3125C17.2429 15.3125 18.4236 15.5812 18.4236 17.8376V18.3615H17.0348V17.8376C17.0348 16.9512 16.7432 16.6557 16.3541 16.6557C15.9376 16.6557 15.7152 16.9512 15.7152 17.4749C15.7152 18.0121 15.8401 18.4553 16.8124 19.1808C18.0208 20.0807 18.4513 20.7927 18.4513 21.9611C18.4513 23.1295 17.8958 24.1641 16.3541 24.1641ZM6.20158 30.4236H6.47944C7.09065 30.4236 7.39599 30.1281 7.39599 28.7581V27.979C7.39599 26.609 7.09039 26.3134 6.47944 26.3134H6.20158V30.4236ZM6.20158 33.5531H4.81276V24.97H6.47944C8.28506 24.97 8.78507 25.964 8.78507 27.8446V28.8922C8.78507 30.7726 8.28506 31.7668 6.47944 31.7668H6.20158V33.5531ZM6.47918 19.557H6.20132V16.79H6.47918C7.10413 16.79 7.39573 16.9916 7.39573 17.9316V18.4152C7.39599 19.3555 7.10438 19.557 6.47918 19.557ZM9.04868 24.03L7.9792 20.457C8.4932 20.0406 8.78481 19.3555 8.78481 18.5094V17.8379C8.78481 16.2663 8.06266 15.4469 6.47918 15.4469H4.8125V24.03H6.20132V20.9002H6.38198C6.45145 20.9002 6.54865 20.9002 6.70132 20.8867L7.53466 24.0297L9.04868 24.03ZM10.6319 30.4236L11.3403 26.3134H11.4515L12.1596 30.4236H10.6319ZM12.6876 33.5531H14.0765L12.5347 24.97H10.2571L8.7016 33.5531H10.0904L10.4098 31.7668H12.382L12.6876 33.5531ZM11.5347 24.1641C9.82629 24.1641 9.50695 22.9149 9.50695 21.3971V15.4469H10.9515V21.5181C10.9515 22.5793 11.1459 22.8209 11.5347 22.8209C11.9235 22.8209 12.1179 22.5793 12.1179 21.5181V15.4469H13.5625V21.3973C13.5625 22.9149 13.2431 24.1641 11.5347 24.1641Z" fill="white"/>
<rect x="44" y="10.5" width="2" height="28" rx="1" fill="#D9D9D9"/>
<path d="M68.4455 10.8128C70.6471 10.8128 72.2784 11.3864 73.3394 12.5335C74.4269 13.6806 74.9707 15.3622 74.9707 17.5782V21.1369C74.9707 23.3529 74.4269 25.0345 73.3394 26.1816C72.2784 27.3287 70.6471 27.9022 68.4455 27.9022H66.3766V38.1872H62V10.8128H68.4455ZM66.3766 14.7235V23.9916H68.4455C69.1352 23.9916 69.6657 23.8091 70.037 23.4441C70.4084 23.0791 70.5941 22.4013 70.5941 21.4106V17.3045C70.5941 16.3138 70.4084 15.6359 70.037 15.2709C69.6657 14.906 69.1352 14.7235 68.4455 14.7235H66.3766Z" fill="white"/>
<path d="M81.0165 31.8911C81.0165 32.8818 81.2154 33.5857 81.6133 34.0028C82.0377 34.3939 82.5947 34.5894 83.2843 34.5894C83.974 34.5894 84.5177 34.3939 84.9156 34.0028C85.34 33.5857 85.5522 32.8818 85.5522 31.8911V17.1089C85.5522 16.1182 85.34 15.4274 84.9156 15.0363C84.5177 14.6192 83.974 14.4106 83.2843 14.4106C82.5947 14.4106 82.0377 14.6192 81.6133 15.0363C81.2154 15.4274 81.0165 16.1182 81.0165 17.1089V31.8911ZM76.6399 17.3827C76.6399 15.1667 77.2101 13.4721 78.3507 12.2989C79.4913 11.0996 81.1358 10.5 83.2843 10.5C85.4328 10.5 87.0774 11.0996 88.2179 12.2989C89.3585 13.4721 89.9288 15.1667 89.9288 17.3827V31.6173C89.9288 33.8333 89.3585 35.541 88.2179 36.7402C87.0774 37.9134 85.4328 38.5 83.2843 38.5C81.1358 38.5 79.4913 37.9134 78.3507 36.7402C77.2101 35.541 76.6399 33.8333 76.6399 31.6173V17.3827Z" fill="white"/>
<path d="M105.465 27.9804V31.6173C105.465 33.8333 104.908 35.541 103.794 36.7402C102.707 37.9134 101.089 38.5 98.94 38.5C96.7915 38.5 95.1602 37.9134 94.0462 36.7402C92.9586 35.541 92.4149 33.8333 92.4149 31.6173V17.3827C92.4149 15.1667 92.9586 13.4721 94.0462 12.2989C95.1602 11.0996 96.7915 10.5 98.94 10.5C101.089 10.5 102.707 11.0996 103.794 12.2989C104.908 13.4721 105.465 15.1667 105.465 17.3827V20.0419H101.327V17.1089C101.327 16.1182 101.115 15.4274 100.691 15.0363C100.293 14.6192 99.749 14.4106 99.0594 14.4106C98.3697 14.4106 97.8127 14.6192 97.3883 15.0363C96.9904 15.4274 96.7915 16.1182 96.7915 17.1089V31.8911C96.7915 32.8818 96.9904 33.5726 97.3883 33.9637C97.8127 34.3547 98.3697 34.5503 99.0594 34.5503C99.749 34.5503 100.293 34.3547 100.691 33.9637C101.115 33.5726 101.327 32.8818 101.327 31.8911V27.9804H105.465Z" fill="white"/>
<path d="M120.813 27.9804V31.6173C120.813 33.8333 120.256 35.541 119.142 36.7402C118.054 37.9134 116.436 38.5 114.288 38.5C112.139 38.5 110.508 37.9134 109.394 36.7402C108.306 35.541 107.763 33.8333 107.763 31.6173V17.3827C107.763 15.1667 108.306 13.4721 109.394 12.2989C110.508 11.0996 112.139 10.5 114.288 10.5C116.436 10.5 118.054 11.0996 119.142 12.2989C120.256 13.4721 120.813 15.1667 120.813 17.3827V20.0419H116.675V17.1089C116.675 16.1182 116.463 15.4274 116.038 15.0363C115.64 14.6192 115.097 14.4106 114.407 14.4106C113.717 14.4106 113.16 14.6192 112.736 15.0363C112.338 15.4274 112.139 16.1182 112.139 17.1089V31.8911C112.139 32.8818 112.338 33.5726 112.736 33.9637C113.16 34.3547 113.717 34.5503 114.407 34.5503C115.097 34.5503 115.64 34.3547 116.038 33.9637C116.463 33.5726 116.675 32.8818 116.675 31.8911V27.9804H120.813Z" fill="white"/>
<path d="M127.964 38.1872H123.468V10.8128H127.367V28.1369L128.959 22.1145L132.54 10.8128H137.354V38.1872H133.415V18.9078L131.625 25.6341L127.964 38.1872Z" fill="white"/>
<path d="M139.652 38.1872C139.864 37.6657 139.997 37.1574 140.05 36.662C140.103 36.1406 140.129 35.541 140.129 34.8631V30.6397C140.129 29.2058 140.328 27.9935 140.726 27.0028C141.151 25.986 141.92 25.2561 143.034 24.8128C141.124 23.9264 140.169 22.0754 140.169 19.2598V17.1089C140.169 14.9972 140.673 13.4199 141.681 12.3771C142.716 11.3343 144.373 10.8128 146.655 10.8128H153.259V38.1872H148.883V27.0419H147.371C146.363 27.0419 145.633 27.3026 145.182 27.824C144.732 28.3454 144.506 29.2449 144.506 30.5223V34.824C144.506 35.3715 144.493 35.8277 144.466 36.1927C144.466 36.5577 144.44 36.8575 144.387 37.0922C144.36 37.3268 144.32 37.5223 144.267 37.6788C144.214 37.8352 144.161 38.0047 144.108 38.1872H139.652ZM146.774 14.7235C146.005 14.7235 145.434 14.9451 145.063 15.3883C144.718 15.8315 144.546 16.5484 144.546 17.5391V20.2374C144.546 21.3324 144.771 22.0885 145.222 22.5056C145.7 22.9227 146.35 23.1313 147.172 23.1313H148.883V14.7235H146.774Z" fill="white"/>
</g>
<defs>
<clipPath id="clip0_2126_131525">
<rect width="153.259" height="48" fill="white" transform="translate(0 0.5)"/>
</clipPath>
</defs>
</svg>
