<svg width="261" height="260" viewBox="0 0 261 260" fill="none" xmlns="http://www.w3.org/2000/svg">
<path d="M130.392 247.333C199.343 247.333 255.239 214.839 255.239 174.757C255.239 134.674 199.343 102.18 130.392 102.18C61.4407 102.18 5.54492 134.674 5.54492 174.757C5.54492 214.839 61.4407 247.333 130.392 247.333Z" fill="#F5F5F5"/>
<path d="M161.788 242.32L242.388 195.801C243.656 195.068 243.656 193.877 242.388 193.144L110.88 117.224C110.165 116.862 109.376 116.674 108.576 116.674C107.776 116.674 106.986 116.862 106.272 117.224L25.6723 163.748C24.4035 164.481 24.4035 165.672 25.6723 166.405L157.18 242.32C157.894 242.681 158.684 242.87 159.484 242.87C160.284 242.87 161.073 242.681 161.788 242.32Z" fill="#E0E0E0"/>
<path d="M89.04 225.919C102.187 225.919 112.846 219.766 112.846 212.176C112.846 204.585 102.187 198.432 89.04 198.432C75.8925 198.432 65.2344 204.585 65.2344 212.176C65.2344 219.766 75.8925 225.919 89.04 225.919Z" fill="#E0E0E0"/>
<path d="M34.1697 154.653L37.5237 151.741C37.5237 151.741 37.9605 141.965 35.4437 133.733C31.8921 122.158 23.2549 119.22 20.4937 120.811C17.7325 122.403 17.5453 126.011 23.8009 132.101C27.4825 135.72 32.7085 143.655 34.1697 154.653Z" fill="#FFCF08"/>
<g opacity="0.15">
<path d="M34.1697 154.653L37.5237 151.741C37.5237 151.741 37.9605 141.965 35.4437 133.733C31.8921 122.158 23.2549 119.22 20.4937 120.811C17.7325 122.403 17.5453 126.011 23.8009 132.101C27.4825 135.72 32.7085 143.655 34.1697 154.653Z" fill="black"/>
</g>
<path d="M35.8587 149.323H35.8223C35.7514 149.326 35.6822 149.301 35.6297 149.253C35.5772 149.205 35.5455 149.139 35.5415 149.068C34.9435 137.8 28.2095 126.594 22.3387 122.689C22.3091 122.67 22.2837 122.645 22.2637 122.616C22.2438 122.587 22.2298 122.555 22.2225 122.52C22.2153 122.486 22.2149 122.45 22.2214 122.416C22.228 122.381 22.2413 122.349 22.2607 122.319C22.3016 122.261 22.3635 122.221 22.4332 122.208C22.503 122.194 22.5753 122.208 22.6351 122.247C28.6411 126.219 35.4947 137.597 36.0927 149.047C36.0945 149.114 36.0717 149.179 36.0285 149.23C35.9853 149.281 35.9248 149.314 35.8587 149.323Z" fill="white"/>
<path d="M30.321 162.266C30.0194 162.879 27.8978 162.749 27.3362 162.755C26.3671 162.752 25.4147 162.501 24.5698 162.027C23.6156 161.487 22.8552 160.661 22.3962 159.666C22.1488 159.142 21.9419 158.599 21.7774 158.043C21.5954 157.523 21.4186 156.962 21.2574 156.426C21.1191 155.88 20.8695 155.369 20.5242 154.923C19.7754 154.076 18.5118 153.987 17.4042 153.935C16.1562 153.878 14.7366 153.649 13.9826 152.531C13.454 151.622 13.2402 150.564 13.3742 149.521C13.447 148.481 13.6706 147.441 13.6706 146.401C13.7096 145.646 13.4915 144.899 13.0518 144.284C12.7404 143.934 12.3597 143.653 11.9338 143.457C11.0111 143.074 10.1208 142.616 9.27143 142.09C8.46543 141.492 7.84663 140.499 8.07543 139.521C8.20887 139.133 8.41831 138.775 8.69152 138.469C8.96472 138.163 9.29622 137.914 9.66663 137.737C10.3537 137.383 11.1096 137.183 11.8818 137.15C14.3258 136.931 16.7646 138.341 19.1618 137.815C20.0667 137.543 20.9527 137.211 21.8138 136.822C22.2471 136.631 22.7155 136.532 23.1892 136.532C23.6629 136.532 24.1314 136.631 24.5646 136.822C26.1974 137.732 26.0726 140.301 27.5546 141.435C28.865 142.438 30.4614 142.074 31.959 142.761C32.5986 143.081 33.1195 143.596 33.4462 144.232C34.0585 145.264 34.4762 146.399 34.6786 147.581C34.8468 148.827 34.9371 150.083 34.949 151.341L30.321 162.266Z" fill="#FFCF08"/>
<path d="M33.1596 156.26C33.13 156.279 33.0969 156.292 33.0622 156.298C33.0275 156.304 32.9919 156.303 32.9576 156.295C32.9232 156.288 32.8907 156.273 32.862 156.253C32.8333 156.232 32.809 156.206 32.7904 156.176C27.19 147.17 16.478 140.311 11.564 139.536C11.5297 139.531 11.4967 139.52 11.467 139.502C11.4373 139.484 11.4116 139.46 11.3912 139.432C11.3709 139.404 11.3563 139.372 11.3485 139.338C11.3407 139.304 11.3397 139.269 11.3456 139.235C11.3507 139.2 11.3625 139.167 11.3805 139.137C11.3984 139.107 11.422 139.081 11.45 139.06C11.478 139.04 11.5099 139.025 11.5437 139.016C11.5776 139.008 11.6127 139.006 11.6472 139.011C16.6548 139.802 27.5384 146.764 33.2584 155.901C33.2923 155.962 33.301 156.033 33.2825 156.1C33.264 156.168 33.2199 156.225 33.1596 156.26Z" fill="white"/>
<path d="M24.4654 146.515C24.4432 146.53 24.4186 146.54 24.3926 146.546C21.9274 147.389 19.5613 148.498 17.3362 149.853C17.2762 149.89 17.2042 149.901 17.1359 149.884C17.0677 149.868 17.0088 149.825 16.9722 149.765C16.9524 149.735 16.9388 149.702 16.9322 149.667C16.9257 149.633 16.9263 149.597 16.9341 149.562C16.9419 149.528 16.9567 149.495 16.9775 149.466C16.9984 149.438 17.0249 149.414 17.0554 149.396C19.3203 148.019 21.7282 146.893 24.2366 146.036C24.2701 146.026 24.3052 146.022 24.3401 146.026C24.375 146.029 24.4089 146.039 24.4399 146.055C24.4708 146.072 24.4982 146.094 24.5204 146.121C24.5427 146.148 24.5593 146.18 24.5694 146.213C24.5863 146.268 24.5853 146.327 24.5666 146.381C24.5479 146.435 24.5125 146.482 24.4654 146.515Z" fill="white"/>
<path d="M176.001 113.334L171.711 110.859L176.001 109.621V113.334Z" fill="#FFCF08"/>
<path opacity="0.6" d="M176.001 113.334L171.711 110.859L176.001 109.621V113.334Z" fill="black"/>
<path d="M154.514 122.028V125.975L129.783 111.665V107.718L154.514 122.028Z" fill="#FFCF08"/>
<path opacity="0.6" d="M154.514 122.028V125.975L129.783 111.665V107.718L154.514 122.028Z" fill="black"/>
<path d="M127.635 76.7573L152.366 91.0677V123.266L127.635 108.956V76.7573Z" fill="#FFCF08"/>
<path opacity="0.55" d="M127.635 76.7573L152.366 91.0677V123.266L127.635 108.956V76.7573Z" fill="black"/>
<path d="M152.365 91.0678L180.289 74.9478V107.146L152.365 123.266V91.0678Z" fill="#FFCF08"/>
<path opacity="0.45" d="M152.365 91.0678L180.289 74.9478V107.146L152.365 123.266V91.0678Z" fill="black"/>
<path d="M180.29 74.9476L155.554 60.6372L127.635 76.7572L152.366 91.0676L180.29 74.9476Z" fill="#FFCF08"/>
<path opacity="0.3" d="M180.29 74.9476L155.554 60.6372L127.635 76.7572L152.366 91.0676L180.29 74.9476Z" fill="black"/>
<path d="M154.514 92.3052L178.142 78.6604V86.0912L154.514 99.736V92.3052Z" fill="#FFCF08"/>
<path opacity="0.2" d="M154.514 92.3052L178.142 78.6604V86.0912L154.514 99.736V92.3052Z" fill="black"/>
<path opacity="0.2" d="M154.514 102.211L178.142 88.5664V105.903L154.514 119.553V102.211Z" fill="black"/>
<path d="M154.514 125.975L156.656 124.738V120.791L154.514 122.028V125.975Z" fill="#FFCF08"/>
<path opacity="0.55" d="M154.514 125.975L156.656 124.738V120.791L154.514 122.028V125.975Z" fill="black"/>
<path d="M176 113.334L178.142 112.096V108.384L176 109.621V113.334Z" fill="#FFCF08"/>
<path opacity="0.55" d="M176 113.334L178.142 112.096V108.384L176 109.621V113.334Z" fill="black"/>
<path d="M161.836 89.6428C161.836 89.986 162.876 89.6688 164.124 88.9408L168.128 86.6268C169.392 85.8988 170.416 85.0304 170.416 84.6872V84.0684L161.836 89.024V89.6428Z" fill="#37474F"/>
<path opacity="0.2" d="M178.142 105.903L163.229 97.1775L154.514 102.211V119.553L178.142 105.903Z" fill="black"/>
<path d="M162.548 68.9728C162.547 68.826 162.532 68.6796 162.501 68.536C162.147 66.923 161.196 65.5036 159.838 64.5632H154.269C152.915 65.5069 151.965 66.9248 151.607 68.536C151.575 68.6794 151.561 68.8261 151.565 68.9728C151.565 68.9988 151.565 69.0508 151.565 69.0508C151.617 69.8204 152.148 70.5796 153.167 71.1672C154.371 71.7776 155.701 72.0956 157.051 72.0956C158.401 72.0956 159.732 71.7776 160.936 71.1672C161.976 70.5796 162.496 69.8204 162.532 69.0508C162.539 69.0252 162.544 68.9992 162.548 68.9728Z" fill="#263238"/>
<path d="M154.42 64.48C152.964 65.3224 152.964 66.6848 154.42 67.5272C155.239 67.9425 156.144 68.1589 157.062 68.1589C157.98 68.1589 158.885 67.9425 159.703 67.5272C161.159 66.6848 161.159 65.3224 159.703 64.48C158.885 64.0648 157.98 63.8484 157.062 63.8484C156.144 63.8484 155.239 64.0648 154.42 64.48Z" fill="#37474F"/>
<path d="M157.816 45.8953H156.297V65.4161C156.294 65.4894 156.314 65.5619 156.352 65.6241C156.391 65.6862 156.448 65.7352 156.516 65.7645C156.681 65.8489 156.865 65.893 157.051 65.893C157.237 65.893 157.421 65.8489 157.587 65.7645C157.654 65.7352 157.711 65.6862 157.75 65.6241C157.789 65.5619 157.808 65.4894 157.805 65.4161L157.816 45.8953Z" fill="#263238"/>
<path d="M167.888 45.24L162.792 32.24H151.3L146.199 45.24C145.471 47.2732 146.469 49.4728 149.204 51.0536C153.526 53.5496 160.535 53.5496 164.856 51.0536C167.612 49.4728 168.616 47.2732 167.888 45.24Z" fill="#FFCF08"/>
<path opacity="0.4" d="M167.888 45.24L162.792 32.24H151.3L146.199 45.24C145.471 47.2732 146.469 49.4728 149.204 51.0536C153.526 53.5496 160.535 53.5496 164.856 51.0536C167.612 49.4728 168.616 47.2732 167.888 45.24Z" fill="white"/>
<path d="M157.056 36.3428C160.299 36.3428 162.927 34.8249 162.927 32.9524C162.927 31.0799 160.299 29.562 157.056 29.562C153.814 29.562 151.186 31.0799 151.186 32.9524C151.186 34.8249 153.814 36.3428 157.056 36.3428Z" fill="#FFCF08"/>
<path opacity="0.7" d="M157.056 36.3428C160.299 36.3428 162.927 34.8249 162.927 32.9524C162.927 31.0799 160.299 29.562 157.056 29.562C153.814 29.562 151.186 31.0799 151.186 32.9524C151.186 34.8249 153.814 36.3428 157.056 36.3428Z" fill="white"/>
<path d="M157.057 35.5055C155.804 35.5346 154.565 35.2409 153.458 34.6527C152.621 34.1691 152.158 33.5659 152.158 32.9471C152.158 32.3283 152.621 31.7303 153.458 31.2467C154.574 30.6861 155.805 30.394 157.054 30.394C158.303 30.394 159.534 30.6861 160.65 31.2467C161.492 31.7303 161.95 32.3335 161.95 32.9471C161.95 33.5607 161.492 34.1691 160.65 34.6527C159.545 35.2411 158.308 35.5348 157.057 35.5055Z" fill="#FFCF08"/>
<path opacity="0.4" d="M157.057 35.5055C155.804 35.5346 154.565 35.2409 153.458 34.6527C152.621 34.1691 152.158 33.5659 152.158 32.9471C152.158 32.3283 152.621 31.7303 153.458 31.2467C154.574 30.6861 155.805 30.394 157.054 30.394C158.303 30.394 159.534 30.6861 160.65 31.2467C161.492 31.7303 161.95 32.3335 161.95 32.9471C161.95 33.5607 161.492 34.1691 160.65 34.6527C159.545 35.2411 158.308 35.5348 157.057 35.5055Z" fill="white"/>
<path opacity="0.2" d="M157.057 35.5055C155.804 35.5346 154.565 35.2409 153.458 34.6527C152.621 34.1691 152.158 33.5659 152.158 32.9471C152.158 32.3283 152.621 31.7303 153.458 31.2467C154.574 30.6861 155.805 30.394 157.054 30.394C158.303 30.394 159.534 30.6861 160.65 31.2467C161.492 31.7303 161.95 32.3335 161.95 32.9471C161.95 33.5607 161.492 34.1691 160.65 34.6527C159.545 35.2411 158.308 35.5348 157.057 35.5055Z" fill="black"/>
<path opacity="0.1" d="M146.462 77.8073C146.462 79.1645 144.382 80.2669 141.829 80.2669C139.276 80.2669 137.201 79.1645 137.201 77.8073C137.201 76.4501 139.281 75.3477 141.829 75.3477C144.377 75.3477 146.462 76.4397 146.462 77.8073Z" fill="black"/>
<path d="M136.822 69.9294C135.013 69.9294 133.333 69.9294 133.141 71.0474C132.948 72.1654 133.661 75.5506 134.664 76.419C135.668 77.2874 138.034 76.939 138.034 76.939V75.8366C137.267 75.9039 136.494 75.8442 135.746 75.6598C134.956 75.3686 134.399 71.9782 134.399 71.583C134.399 71.1878 136.999 71.271 136.999 71.271L136.822 69.9294Z" fill="#E6E6E6"/>
<path d="M136.647 68.2134C136.766 67.6934 137.265 67.2254 138.149 66.8458C140.527 65.959 143.145 65.959 145.523 66.8458C146.407 67.2306 146.901 67.7142 147.02 68.2186H147.052C147.395 71.5102 146.802 75.327 145.627 77.4382C145.628 77.452 145.628 77.4659 145.627 77.4798V77.5162C145.392 77.8972 145.06 78.2094 144.665 78.421C143.798 78.8609 142.839 79.0901 141.867 79.0901C140.895 79.0901 139.937 78.8609 139.07 78.421C138.674 78.2089 138.341 77.8947 138.108 77.511V77.485V77.433C136.938 75.3218 136.355 71.505 136.704 68.2134H136.647Z" fill="#F5F5F5"/>
<path d="M138.148 66.8458C136.11 67.7298 136.11 69.1598 138.148 70.049C140.528 70.9329 143.147 70.9329 145.527 70.049C147.565 69.165 147.565 67.7298 145.527 66.8458C143.147 65.9577 140.527 65.9577 138.148 66.8458Z" fill="#FAFAFA"/>
<path d="M138.861 67.402C137.218 67.9792 137.213 68.9152 138.861 69.482C140.804 70.0622 142.873 70.0622 144.815 69.482C146.459 68.9048 146.459 67.9688 144.815 67.402C142.873 66.8217 140.804 66.8217 138.861 67.402Z" fill="#E6E6E6"/>
<path d="M138.855 68.6657C138.563 68.763 138.286 68.9013 138.033 69.0765C138.285 69.2555 138.562 69.3957 138.855 69.4925C140.797 70.0727 142.867 70.0727 144.809 69.4925C145.102 69.3972 145.379 69.2588 145.63 69.0817C145.38 68.9016 145.102 68.7613 144.809 68.6657C142.867 68.0854 140.797 68.0854 138.855 68.6657Z" fill="#37474F"/>
<path d="M141.034 65.4626C139.396 64.1938 138.512 62.0618 139.562 59.935C140.613 57.8082 142.615 56.373 141.611 54.813C141.611 54.813 143.873 55.9518 143.312 58.2242C142.563 61.235 140.036 61.7342 141.034 65.4626Z" fill="#E0E0E0"/>
<path d="M142.241 65.4628C142.241 65.4628 141.721 63.5336 142.595 62.2544C143.469 60.9752 144.675 60.268 144.706 58.812C144.706 58.812 145.939 60.294 145.081 61.932C144.223 63.57 142.569 63.726 142.241 65.4628Z" fill="#E0E0E0"/>
<path d="M150.261 82.8778L150.229 82.805C150.22 82.7841 150.208 82.7648 150.193 82.7478C150.135 82.6584 150.059 82.5822 149.969 82.5242V82.753L149.777 82.6386V82.4098C149.48 82.2825 149.16 82.2216 148.837 82.2315C148.515 82.2414 148.198 82.3218 147.91 82.467C147.736 82.5529 147.6 82.6988 147.525 82.8778C147.528 82.8916 147.528 82.9056 147.525 82.9194C147.52 82.9574 147.52 82.9958 147.525 83.0338V83.4862C147.525 83.5963 147.56 83.7038 147.624 83.793C147.707 83.9018 147.811 83.9921 147.931 84.0582C148.236 84.2122 148.572 84.2924 148.914 84.2924C149.255 84.2924 149.592 84.2122 149.897 84.0582C150.01 84.0079 150.107 83.9284 150.18 83.8279C150.252 83.7274 150.296 83.6094 150.307 83.4862V83.0338C150.3 82.9797 150.284 82.927 150.261 82.8778Z" fill="#F0F0F0"/>
<path d="M149.318 82.2691C148.836 82.173 148.336 82.2426 147.898 82.4667C147.725 82.5526 147.588 82.6985 147.514 82.8775C147.516 82.8913 147.516 82.9054 147.514 82.9191C147.508 82.9571 147.508 82.9956 147.514 83.0335V83.4859C147.513 83.5961 147.548 83.7035 147.612 83.7927C147.695 83.9015 147.8 83.9918 147.919 84.0579C148.357 84.2802 148.857 84.348 149.339 84.2503L149.318 82.2691Z" fill="#E6E6E6"/>
<path d="M147.899 82.467C147.379 82.7582 147.379 83.2262 147.805 83.5434L149.765 82.4098C149.469 82.2825 149.148 82.2216 148.826 82.2315C148.503 82.2414 148.187 82.3218 147.899 82.467Z" fill="#F5F5F5"/>
<path d="M147.806 83.4236C147.806 83.4236 147.286 83.0076 147.868 82.4876C147.767 82.5286 147.68 82.5973 147.616 82.6859C147.553 82.7744 147.515 82.8792 147.509 82.988C147.502 83.0968 147.527 83.2052 147.579 83.3007C147.632 83.3962 147.71 83.4749 147.806 83.5276L149.766 82.394L147.806 83.4236Z" fill="white"/>
<path d="M149.957 82.5239L148.002 83.6575C148.298 83.7848 148.617 83.8456 148.939 83.8357C149.261 83.8258 149.576 83.7455 149.864 83.6003C150.378 83.3091 150.41 82.8411 149.957 82.5239Z" fill="#F5F5F5"/>
<path d="M148.002 83.6575C148.298 83.7848 148.617 83.8456 148.939 83.8357C149.261 83.8258 149.576 83.7455 149.864 83.6003C149.921 83.5694 149.975 83.5329 150.025 83.4911C149.751 83.6392 149.449 83.7287 149.138 83.7537C148.827 83.7788 148.515 83.739 148.22 83.6367L149.957 82.5239L148.002 83.6575Z" fill="white"/>
<path d="M149.765 82.6385L147.805 83.7773V83.5433L149.765 82.4097V82.6385Z" fill="#E0E0E0"/>
<path opacity="0.2" d="M148.002 83.6577V83.8865L147.805 83.7773L148.002 83.6577Z" fill="black"/>
<path d="M152.012 85.2226L151.976 85.1498C151.969 85.1291 151.958 85.1098 151.945 85.0926C151.885 85.0043 151.809 84.9284 151.721 84.869V85.0978L151.524 84.9834V84.7598C151.228 84.6325 150.908 84.5717 150.586 84.5816C150.265 84.5915 149.949 84.6718 149.662 84.817C149.487 84.9012 149.35 85.0477 149.277 85.2278C149.277 85.2278 149.277 85.2538 149.277 85.2694C149.272 85.3073 149.272 85.3458 149.277 85.3838V85.8414C149.279 85.9503 149.316 86.0558 149.381 86.143C149.463 86.253 149.567 86.3435 149.688 86.4082C149.993 86.5622 150.329 86.6424 150.671 86.6424C151.012 86.6424 151.349 86.5622 151.654 86.4082C151.766 86.3579 151.863 86.2791 151.935 86.1796C152.007 86.0802 152.052 85.9635 152.064 85.8414V85.3838C152.056 85.3275 152.038 85.2731 152.012 85.2226Z" fill="#F0F0F0"/>
<path d="M151.082 84.6143C150.6 84.5182 150.099 84.5879 149.662 84.8119C149.487 84.8962 149.35 85.0427 149.277 85.2227C149.277 85.2227 149.277 85.2487 149.277 85.2643C149.272 85.3023 149.272 85.3408 149.277 85.3787V85.8363C149.279 85.9453 149.316 86.0508 149.381 86.1379C149.463 86.2479 149.567 86.3385 149.688 86.4031C150.126 86.6255 150.626 86.6933 151.108 86.5955L151.082 84.6143Z" fill="#E6E6E6"/>
<path d="M149.662 84.8121C149.142 85.1033 149.142 85.5713 149.569 85.8885L151.524 84.7549C151.228 84.6277 150.908 84.5668 150.587 84.5767C150.265 84.5866 149.95 84.667 149.662 84.8121Z" fill="#F5F5F5"/>
<path d="M149.568 85.7686C149.568 85.7686 149.048 85.3526 149.625 84.8326C149.524 84.8741 149.437 84.9433 149.374 85.0321C149.311 85.1209 149.274 85.2258 149.268 85.3346C149.262 85.4434 149.287 85.5516 149.34 85.6468C149.393 85.742 149.472 85.8203 149.568 85.8726L151.523 84.739L149.568 85.7686Z" fill="white"/>
<path d="M151.721 84.8691L149.766 86.0027C150.061 86.13 150.381 86.1908 150.703 86.1809C151.024 86.171 151.34 86.0907 151.627 85.9455C152.137 85.6543 152.168 85.1863 151.721 84.8691Z" fill="#F5F5F5"/>
<path d="M149.766 86.0027C150.061 86.13 150.381 86.1908 150.703 86.1809C151.024 86.171 151.34 86.0907 151.627 85.9455C151.685 85.9147 151.739 85.8781 151.788 85.8363C151.514 85.9844 151.212 86.0739 150.902 86.0989C150.591 86.124 150.278 86.0842 149.984 85.9819L151.721 84.8691L149.766 86.0027Z" fill="white"/>
<path d="M151.524 84.9837L149.568 86.1225V85.8885L151.524 84.7549V84.9837Z" fill="#E0E0E0"/>
<path opacity="0.2" d="M149.766 86.0029V86.2369L149.568 86.1225L149.766 86.0029Z" fill="black"/>
<path opacity="0.1" d="M159.947 84.3078C159.109 84.7335 158.183 84.9553 157.243 84.9553C156.303 84.9553 155.377 84.7335 154.539 84.3078C153.047 83.4446 153.047 82.0458 154.539 81.1878C155.377 80.7621 156.303 80.5403 157.243 80.5403C158.183 80.5403 159.109 80.7621 159.947 81.1878C161.44 82.0458 161.44 83.4446 159.947 84.3078Z" fill="black"/>
<path d="M154.103 76.96C154.13 76.6711 154.233 76.3945 154.402 76.1587C154.571 75.9228 154.8 75.7364 155.065 75.6184C155.786 75.2517 156.583 75.0605 157.392 75.0605C158.201 75.0605 158.998 75.2517 159.719 75.6184C159.98 75.7392 160.205 75.927 160.37 76.1626C160.535 76.3982 160.635 76.6733 160.66 76.96V82.55C160.633 82.8389 160.53 83.1155 160.361 83.3513C160.192 83.5871 159.963 83.7736 159.698 83.8916C158.977 84.2583 158.18 84.4494 157.371 84.4494C156.562 84.4494 155.765 84.2583 155.044 83.8916C154.779 83.7736 154.55 83.5871 154.381 83.3513C154.212 83.1155 154.109 82.8389 154.082 82.55L154.103 76.96Z" fill="#FFCF08"/>
<path opacity="0.4" d="M155.367 75.4468V84.032C155.263 83.98 155.164 83.9332 155.065 83.876C154.875 83.7677 154.7 83.6349 154.545 83.4808V75.998C154.7 75.8439 154.875 75.711 155.065 75.6028C155.163 75.5456 155.263 75.4936 155.367 75.4468Z" fill="white"/>
<path opacity="0.4" d="M156.229 84.3078C156.068 84.2755 155.91 84.2321 155.756 84.1778V75.3014C155.91 75.2471 156.068 75.2037 156.229 75.1714V84.3078Z" fill="white"/>
<path opacity="0.1" d="M154.16 76.596C154.366 76.315 154.633 76.084 154.94 75.92C155.655 75.5581 156.441 75.3571 157.243 75.331C158.044 75.305 158.841 75.4545 159.578 75.7692V75.5092L159.734 75.5924C159.996 75.7175 160.22 75.9102 160.383 76.1505C160.546 76.3909 160.641 76.6703 160.66 76.96V78.2444V80.7092V82.55C160.633 82.8389 160.53 83.1155 160.361 83.3513C160.192 83.5871 159.963 83.7736 159.698 83.8916C158.977 84.2583 158.18 84.4494 157.371 84.4494C156.562 84.4494 155.765 84.2583 155.044 83.8916C154.825 83.7712 154.627 83.6168 154.456 83.434C155.07 84.006 156.594 84.318 157.722 84.0996C158.85 83.8812 159.542 83.1532 159.542 82.6384V82.1444C158.836 82.4979 158.054 82.6763 157.264 82.6644V80.158C158.05 80.1864 158.831 80.0259 159.542 79.69V78.962C158.804 79.2745 158.007 79.4224 157.206 79.3954C156.405 79.3685 155.619 79.1673 154.904 78.806C154.568 78.6289 154.285 78.3672 154.082 78.0468V76.96C154.088 76.8352 154.114 76.7122 154.16 76.596Z" fill="black"/>
<path opacity="0.1" d="M160.139 82.7683V75.8887C160.302 76.0115 160.435 76.1681 160.532 76.3477C160.628 76.5272 160.684 76.7254 160.696 76.9287V82.5187C160.669 82.8076 160.566 83.0842 160.397 83.32C160.228 83.5558 159.999 83.7423 159.734 83.8603C159.343 84.078 158.92 84.2308 158.48 84.3127C159.702 83.9903 160.139 83.1479 160.139 82.7683Z" fill="black"/>
<path d="M153.9 75.4417C153.93 75.1328 154.042 74.8376 154.225 74.587C154.408 74.3363 154.655 74.1394 154.94 74.0169C155.705 73.6299 156.551 73.4282 157.408 73.4282C158.265 73.4282 159.11 73.6299 159.875 74.0169C160.16 74.1394 160.407 74.3363 160.59 74.587C160.773 74.8376 160.885 75.1328 160.915 75.4417V77.0017C160.886 77.3109 160.775 77.6066 160.592 77.8575C160.409 78.1083 160.161 78.3049 159.875 78.4265C159.11 78.8135 158.265 79.0152 157.408 79.0152C156.551 79.0152 155.705 78.8135 154.94 78.4265C154.655 78.3049 154.407 78.1083 154.224 77.8575C154.041 77.6066 153.929 77.3109 153.9 77.0017V75.4417Z" fill="#E0E0E0"/>
<mask id="mask0_2126_132458" style="mask-type:luminance" maskUnits="userSpaceOnUse" x="153" y="73" width="8" height="7">
<path d="M153.9 75.4417C153.93 75.1328 154.042 74.8376 154.225 74.587C154.408 74.3363 154.655 74.1394 154.94 74.0169C155.705 73.6299 156.551 73.4282 157.408 73.4282C158.265 73.4282 159.11 73.6299 159.875 74.0169C160.16 74.1394 160.407 74.3363 160.59 74.587C160.773 74.8376 160.885 75.1328 160.915 75.4417V77.0017C160.886 77.3109 160.775 77.6066 160.592 77.8575C160.409 78.1083 160.161 78.3049 159.875 78.4265C159.11 78.8135 158.265 79.0152 157.408 79.0152C156.551 79.0152 155.705 78.8135 154.94 78.4265C154.655 78.3049 154.407 78.1083 154.224 77.8575C154.041 77.6066 153.929 77.3109 153.9 77.0017V75.4417Z" fill="white"/>
</mask>
<g mask="url(#mask0_2126_132458)">
<g opacity="0.2">
<path d="M153.989 75.3013H153.822V77.7037H153.989V75.3013Z" fill="black"/>
<path d="M154.373 75.946H154.207V78.364H154.373V75.946Z" fill="black"/>
<path d="M154.952 76.3936H154.785V78.822H154.952V76.3936Z" fill="black"/>
<path d="M155.616 76.6743H155.449V79.1183H155.616V76.6743Z" fill="black"/>
<path d="M156.35 76.856H156.184V79.3104H156.35V76.856Z" fill="black"/>
<path d="M157.12 76.9497H156.953V79.4197H157.12V76.9497Z" fill="black"/>
<path d="M157.905 76.9497H157.738V79.4301H157.905V76.9497Z" fill="black"/>
<path d="M158.674 76.8457H158.508V79.3417H158.674V76.8457Z" fill="black"/>
<path d="M159.391 76.6377H159.225V79.1441H159.391V76.6377Z" fill="black"/>
<path d="M160.041 76.3206H159.875V78.8426H160.041V76.3206Z" fill="black"/>
<path d="M160.557 75.8735H160.391V78.4059H160.557V75.8735Z" fill="black"/>
<path d="M160.961 75.1558H160.795V77.7038H160.961V75.1558Z" fill="black"/>
</g>
<path opacity="0.1" d="M156.557 78.9414C158.283 78.9414 159.193 78.3902 159.469 77.9326C159.678 77.4172 159.764 76.8596 159.718 76.305C159.718 76.305 159.911 74.8542 159.874 74.8542C159.838 74.8542 160.285 74.7554 160.623 74.6826C160.785 74.9027 160.875 75.1683 160.878 75.4418V77.0018C160.849 77.311 160.737 77.6067 160.554 77.8576C160.371 78.1084 160.124 78.305 159.838 78.4266C158.826 78.9412 157.677 79.1215 156.557 78.9414Z" fill="black"/>
</g>
<path d="M159.859 76.8665C159.094 77.2535 158.249 77.4552 157.392 77.4552C156.534 77.4552 155.689 77.2535 154.924 76.8665C153.562 76.0813 153.562 74.7865 154.924 74.0169C155.689 73.6299 156.534 73.4282 157.392 73.4282C158.249 73.4282 159.094 73.6299 159.859 74.0169C161.221 74.8021 161.221 76.0813 159.859 76.8665Z" fill="#EBEBEB"/>
<path d="M154.737 76.747C153.567 75.9566 153.63 74.7658 154.925 74.017C155.662 73.624 156.486 73.422 157.322 73.4294C157.769 73.4973 158.201 73.6453 158.596 73.8662C159.776 74.537 159.776 75.8786 158.596 76.5546C158.001 76.8507 157.351 77.0206 156.687 77.0538C156.023 77.0869 155.359 76.9824 154.737 76.747Z" fill="#F5F5F5"/>
<path opacity="0.1" d="M159.526 83.7199C158.852 84.0132 158.126 84.1646 157.391 84.1646C156.656 84.1646 155.93 84.0132 155.256 83.7199C154.076 83.1271 154.076 82.1599 155.256 81.5775C155.93 81.2842 156.656 81.1328 157.391 81.1328C158.126 81.1328 158.852 81.2842 159.526 81.5775C160.706 82.1599 160.706 83.1323 159.526 83.7199Z" fill="black"/>
<path d="M160.659 78.3901C160.632 78.6797 160.529 78.9569 160.36 79.1935C160.191 79.4301 159.962 79.6176 159.697 79.7369C158.979 80.1149 158.178 80.3046 157.367 80.2881V82.7529C158.178 82.7694 158.979 82.5797 159.697 82.2017C159.962 82.0824 160.191 81.8949 160.36 81.6583C160.529 81.4217 160.632 81.1445 160.659 80.8549V78.3901Z" fill="white"/>
<path d="M160.612 76.2163C159.684 76.9937 158.492 77.3813 157.284 77.2979C155.095 77.2355 154.216 76.0395 154.102 75.6703C154.044 75.4516 154.04 75.2218 154.092 75.0015C154.143 74.7811 154.249 74.5768 154.398 74.4067C154.248 74.5366 154.127 74.696 154.042 74.875C153.957 75.054 153.91 75.2487 153.904 75.4467V77.0067C153.904 77.1367 153.836 77.5891 154.544 78.1715C154.315 77.9118 154.17 77.5893 154.128 77.2459V76.2059C154.128 76.2059 154.902 77.5007 157.284 77.5007C159.666 77.5007 160.492 76.4087 160.612 76.2163Z" fill="white"/>
<path d="M72.2597 210.147C72.1608 210.755 72.1608 211.375 72.2597 211.983C72.6393 213.163 74.5269 214.775 77.4597 215.051C80.1689 215.306 82.5817 214.718 84.4069 213.377C86.2321 212.035 88.8893 209.487 90.3297 208.343C92.0457 206.975 93.4497 205.774 93.7981 205.223C94.1465 204.672 93.9229 203.346 93.9229 203.346L72.2597 210.147Z" fill="#263238"/>
<path d="M84.0689 212.42C85.8317 210.933 90.6625 207.043 92.3109 205.597C93.9593 204.152 94.7653 202.951 92.6853 201.801C91.5528 201.193 90.2751 200.908 88.9915 200.976C87.7078 201.043 86.4674 201.462 85.4053 202.186C83.1329 203.783 74.2461 209.773 74.2461 209.773L84.0689 212.42Z" fill="#37474F"/>
<path d="M76.7577 205.92C79.4305 205.956 80.9957 206.908 82.7169 208.65C83.2158 209.132 83.5972 209.722 83.8316 210.375C84.0661 211.028 84.1473 211.726 84.0689 212.415C83.0216 213.146 81.833 213.651 80.5794 213.896C79.3257 214.141 78.0347 214.122 76.7889 213.84C72.7953 212.987 72.2285 210.444 72.2285 210.444C72.2285 210.444 72.6445 206.513 76.7577 205.92Z" fill="#455A64"/>
<path d="M83.0863 217.36C82.9869 217.969 82.9869 218.591 83.0863 219.201C83.4711 220.381 85.3587 221.993 88.2863 222.268C90.9903 222.518 93.4082 221.93 95.2334 220.594C97.0586 219.258 99.7106 216.704 101.151 215.555C102.872 214.193 104.271 212.986 104.619 212.435C104.968 211.884 104.744 210.558 104.744 210.558L83.0863 217.36Z" fill="#263238"/>
<path d="M94.9061 219.627C96.6689 218.14 101.5 214.25 103.148 212.805C104.797 211.359 105.603 210.158 103.517 209.003C102.384 208.397 101.106 208.112 99.8228 208.181C98.5393 208.25 97.2992 208.669 96.2373 209.393C93.9701 210.985 85.0781 216.975 85.0781 216.975L94.9061 219.627Z" fill="#37474F"/>
<path d="M87.5897 213.127C90.2625 213.169 91.8329 214.12 93.5541 215.857C94.0531 216.34 94.4345 216.931 94.6689 217.585C94.9034 218.238 94.9845 218.937 94.9061 219.627C93.8582 220.357 92.6695 220.86 91.4159 221.105C90.1624 221.349 88.8716 221.329 87.6261 221.047C83.6273 220.199 83.0605 217.651 83.0605 217.651C83.0605 217.651 83.4817 213.72 87.5897 213.127Z" fill="#455A64"/>
<path d="M34.8212 165.386L31.7012 163.582C31.2264 163.272 30.8312 162.855 30.5476 162.365C30.2639 161.874 30.0997 161.324 30.0684 160.758V112.055C30.1005 111.49 30.2651 110.941 30.5487 110.451C30.8323 109.961 31.2271 109.545 31.7012 109.237L106.467 66.0402C106.971 65.7839 107.529 65.6504 108.094 65.6504C108.66 65.6504 109.218 65.7839 109.722 66.0402L112.873 67.8446C113.347 68.1531 113.742 68.5692 114.024 69.0589C114.307 69.5486 114.47 70.0982 114.501 70.663V119.366C114.472 119.933 114.31 120.486 114.027 120.978C113.744 121.471 113.349 121.889 112.873 122.2L38.0764 165.386C37.571 165.639 37.0138 165.77 36.4488 165.77C35.8838 165.77 35.3265 165.639 34.8212 165.386Z" fill="#FFCF08"/>
<path opacity="0.3" d="M34.8212 165.386L31.7012 163.582C31.2264 163.272 30.8312 162.855 30.5476 162.365C30.2639 161.874 30.0997 161.324 30.0684 160.758V112.055C30.1005 111.49 30.2651 110.941 30.5487 110.451C30.8323 109.961 31.2271 109.545 31.7012 109.237L106.467 66.0402C106.971 65.7839 107.529 65.6504 108.094 65.6504C108.66 65.6504 109.218 65.7839 109.722 66.0402L112.873 67.8446C113.347 68.1531 113.742 68.5692 114.024 69.0589C114.307 69.5486 114.47 70.0982 114.501 70.663V119.366C114.472 119.933 114.31 120.486 114.027 120.978C113.744 121.471 113.349 121.889 112.873 122.2L38.0764 165.386C37.571 165.639 37.0138 165.77 36.4488 165.77C35.8838 165.77 35.3265 165.639 34.8212 165.386Z" fill="black"/>
<path d="M114.499 70.663V119.366C114.47 119.933 114.308 120.486 114.025 120.978C113.742 121.471 113.347 121.89 112.872 122.2L38.0749 165.386C37.1753 165.906 36.4473 165.48 36.4473 164.445V115.742C36.4776 115.176 36.6408 114.626 36.9236 114.136C37.2064 113.645 37.6008 113.228 38.0749 112.918L112.872 69.7218C113.771 69.2018 114.499 69.623 114.499 70.663Z" fill="#FFCF08"/>
<path opacity="0.45" d="M114.499 70.663V119.366C114.47 119.933 114.308 120.486 114.025 120.978C113.742 121.471 113.347 121.89 112.872 122.2L38.0749 165.386C37.1753 165.906 36.4473 165.48 36.4473 164.445V115.742C36.4776 115.176 36.6408 114.626 36.9236 114.136C37.2064 113.645 37.6008 113.228 38.0749 112.918L112.872 69.7218C113.771 69.2018 114.499 69.623 114.499 70.663Z" fill="black"/>
<path d="M37.7013 165.558C37.233 165.723 36.7359 165.791 36.2404 165.757C35.745 165.723 35.2618 165.588 34.8205 165.36L31.6693 163.561C31.1965 163.25 30.8033 162.833 30.5215 162.343C30.2397 161.852 30.0771 161.302 30.0469 160.737V112.055C30.0641 111.489 30.2271 110.938 30.5201 110.453L36.9265 114.135C36.6335 114.619 36.4705 115.171 36.4533 115.737V164.44C36.4533 165.329 36.9837 165.766 37.7013 165.558Z" fill="#FFCF08"/>
<path opacity="0.55" d="M37.7013 165.558C37.233 165.723 36.7359 165.791 36.2404 165.757C35.745 165.723 35.2618 165.588 34.8205 165.36L31.6693 163.561C31.1965 163.25 30.8033 162.833 30.5215 162.343C30.2397 161.852 30.0771 161.302 30.0469 160.737V112.055C30.0641 111.489 30.2271 110.938 30.5201 110.453L36.9265 114.135C36.6335 114.619 36.4705 115.171 36.4533 115.737V164.44C36.4533 165.329 36.9837 165.766 37.7013 165.558Z" fill="black"/>
<path d="M167.057 217.027L159.517 212.68C159.265 212.552 158.986 212.485 158.703 212.485C158.421 212.485 158.142 212.552 157.89 212.68L150.35 217.032C150.107 217.181 149.908 217.391 149.772 217.641C149.746 217.689 149.723 217.74 149.705 217.792C149.601 217.993 149.542 218.215 149.533 218.442V230.672C149.549 230.941 149.625 231.203 149.755 231.439C149.886 231.675 150.067 231.878 150.287 232.034C150.307 232.052 150.328 232.067 150.35 232.081L157.89 236.439C157.916 236.439 157.957 236.439 157.983 236.475C158.075 236.52 158.171 236.557 158.269 236.584C158.411 236.616 158.556 236.631 158.701 236.631C158.985 236.635 159.265 236.569 159.517 236.439L167.057 232.081C167.294 231.927 167.492 231.719 167.633 231.474C167.775 231.229 167.858 230.955 167.874 230.672V218.436C167.858 218.154 167.775 217.879 167.633 217.635C167.492 217.39 167.294 217.182 167.057 217.027Z" fill="#455A64"/>
<path d="M159.516 236.439L167.056 232.081C167.293 231.927 167.49 231.719 167.632 231.474C167.774 231.229 167.856 230.954 167.872 230.672V218.436C167.872 217.916 167.503 217.708 167.056 217.968L159.516 222.321C159.279 222.475 159.081 222.683 158.939 222.928C158.798 223.173 158.715 223.448 158.699 223.73V235.966C158.699 236.486 159.063 236.694 159.516 236.439Z" fill="#37474F"/>
<path d="M236.03 177.185L228.49 172.832C228.238 172.704 227.959 172.637 227.676 172.637C227.393 172.637 227.114 172.704 226.862 172.832L219.317 177.185C219.078 177.335 218.881 177.545 218.745 177.793C218.717 177.843 218.695 177.895 218.677 177.949C218.573 178.149 218.514 178.369 218.506 178.594V191.417C218.521 191.686 218.597 191.948 218.728 192.184C218.858 192.42 219.04 192.623 219.26 192.78C219.278 192.797 219.297 192.812 219.317 192.826L226.862 196.596C226.888 196.596 226.925 196.596 226.956 196.633C227.048 196.678 227.143 196.714 227.242 196.742C227.384 196.773 227.528 196.789 227.673 196.789C227.958 196.795 228.239 196.729 228.49 196.596L236.03 192.239C236.265 192.085 236.461 191.879 236.601 191.636C236.742 191.393 236.824 191.12 236.841 190.84V178.594C236.826 178.312 236.744 178.038 236.603 177.793C236.462 177.548 236.266 177.34 236.03 177.185Z" fill="#455A64"/>
<path d="M228.49 196.597L236.03 192.239C236.265 192.085 236.46 191.879 236.601 191.636C236.742 191.393 236.824 191.12 236.841 190.84V178.594C236.841 178.074 236.472 177.866 236.024 178.126L228.484 182.479C228.247 182.633 228.05 182.841 227.908 183.086C227.766 183.331 227.684 183.605 227.668 183.888V196.123C227.673 196.643 228.037 196.857 228.49 196.597Z" fill="#37474F"/>
<path d="M114.381 103.631L39.7038 146.791C38.7545 147.408 37.9644 148.241 37.3979 149.222C36.8313 150.202 36.5043 151.302 36.4434 152.433V155.527C36.5093 156.654 36.8391 157.75 37.4064 158.727C37.9736 159.703 38.7623 160.533 39.709 161.148L155.461 227.968C156.47 228.481 157.587 228.749 158.719 228.749C159.851 228.749 160.967 228.481 161.977 227.968L236.659 184.808C237.607 184.19 238.395 183.357 238.961 182.376C239.526 181.396 239.853 180.296 239.914 179.166V176.072C239.853 174.942 239.526 173.843 238.961 172.862C238.395 171.882 237.607 171.049 236.659 170.43L120.902 103.631C119.892 103.117 118.775 102.85 117.641 102.85C116.508 102.85 115.391 103.117 114.381 103.631Z" fill="#455A64"/>
<path d="M239.898 176.098V179.187C239.838 180.317 239.512 181.417 238.946 182.398C238.381 183.378 237.591 184.211 236.643 184.829L161.96 227.989C160.959 228.52 159.838 228.787 158.705 228.764V218.13C159.838 218.155 160.958 217.89 161.96 217.36L236.643 174.2C238.317 173.222 238.431 171.694 236.97 170.648C237.829 171.286 238.536 172.105 239.042 173.047C239.548 173.989 239.84 175.03 239.898 176.098Z" fill="#263238"/>
<path d="M39.7077 150.535C37.9969 149.547 37.9137 147.977 39.4581 146.942C38.5797 147.571 37.8534 148.389 37.3325 149.336C36.8115 150.282 36.509 151.334 36.4473 152.412V155.506C36.5094 156.637 36.837 157.737 37.4034 158.717C37.9699 159.697 38.7593 160.53 39.7077 161.148L155.46 227.968C156.462 228.502 157.585 228.771 158.72 228.748V218.13C157.585 218.156 156.463 217.891 155.46 217.36L39.7077 150.535Z" fill="#37474F"/>
<path d="M114.381 86.0135L39.7038 129.173C38.7554 129.792 37.966 130.625 37.3995 131.605C36.8331 132.585 36.5055 133.685 36.4434 134.815V141.388C36.5055 142.519 36.8331 143.619 37.3995 144.599C37.966 145.579 38.7554 146.412 39.7038 147.03L155.461 213.85C156.47 214.363 157.587 214.63 158.719 214.63C159.851 214.63 160.967 214.363 161.977 213.85L236.659 170.69C237.608 170.073 238.397 169.24 238.963 168.259C239.528 167.279 239.854 166.179 239.914 165.048V158.475C239.853 157.345 239.526 156.246 238.961 155.265C238.395 154.285 237.607 153.452 236.659 152.833L120.902 86.0135C119.892 85.4997 118.775 85.2319 117.641 85.2319C116.508 85.2319 115.391 85.4997 114.381 86.0135Z" fill="#FFCF08"/>
<path opacity="0.8" d="M39.7029 132.917L155.46 199.737C156.47 200.25 157.586 200.518 158.718 200.518C159.85 200.518 160.966 200.25 161.976 199.737L236.658 156.603C238.457 155.563 238.457 153.879 236.658 152.839L120.901 86.0185C119.892 85.5056 118.775 85.2383 117.643 85.2383C116.511 85.2383 115.395 85.5056 114.385 86.0185L39.7029 129.178C37.9037 130.198 37.9037 131.882 39.7029 132.917Z" fill="white"/>
<path opacity="0.5" d="M239.898 158.48V165.074C239.837 166.204 239.51 167.304 238.945 168.284C238.379 169.264 237.59 170.097 236.643 170.716L161.96 213.85C160.959 214.383 159.839 214.652 158.705 214.63V200.512C159.838 200.535 160.959 200.269 161.96 199.737L236.643 156.577C238.317 155.6 238.431 154.071 236.97 153.026C237.829 153.664 238.537 154.484 239.043 155.426C239.549 156.369 239.841 157.412 239.898 158.48Z" fill="white"/>
<path opacity="0.6" d="M39.7077 132.917C37.9969 131.929 37.9137 130.364 39.4581 129.324C38.5797 129.954 37.8534 130.771 37.3325 131.718C36.8115 132.665 36.509 133.716 36.4473 134.795V141.388C36.5094 142.519 36.837 143.619 37.4034 144.599C37.9699 145.579 38.7593 146.412 39.7077 147.03L155.46 213.85C156.462 214.384 157.585 214.652 158.72 214.63V200.512C157.585 200.536 156.463 200.27 155.46 199.737L39.7077 132.917Z" fill="white"/>
<path d="M132.144 99.6843C133.184 95.8155 131.624 93.7927 129.502 90.1995C127.38 86.6063 122.414 79.6539 120.381 76.6795C118.348 73.7051 116.086 70.7775 114.869 70.3667C113.652 69.9559 112.831 69.4671 109.612 70.6319C106.393 71.7967 99.706 75.7643 91.412 80.3247C83.118 84.8851 79.7432 86.9859 79.2336 91.4527C78.9164 94.2139 93.4868 118.529 97.0332 118.893C104.911 119.699 105.577 118.201 109.966 115.555C117.287 111.145 122.524 107.885 127.594 104.447C129.908 102.887 131.65 101.478 132.144 99.6843Z" fill="#F0F0F0"/>
<path d="M83.0813 101.197C85.0105 104.317 90.6317 112.814 92.5817 115.326C94.5317 117.837 97.9221 120.692 98.7125 117.473C99.5029 114.254 96.4817 110.193 94.4329 106.995C92.3841 103.797 86.6641 96.2677 84.8077 93.8081C82.9513 91.3485 79.8573 88.9461 79.1293 91.8217C78.4013 94.6973 81.1573 98.0669 83.0813 101.197Z" fill="#E0E0E0"/>
<path d="M95.6286 121.072C96.6686 117.203 95.1086 115.18 92.987 111.587C90.8654 107.994 85.8994 101.041 83.8662 98.0669C81.833 95.0925 79.571 92.1649 78.3542 91.7541C77.1374 91.3433 76.3158 90.8545 73.097 92.0193C69.8782 93.1841 63.191 97.1517 54.897 101.712C46.603 106.273 40.7842 109.762 40.2746 114.229C39.9574 116.99 54.5278 141.31 58.0742 141.669C65.9522 142.48 69.067 139.589 73.4558 136.942C80.7722 132.533 86.0086 129.272 91.0786 125.835C93.3926 124.28 95.1398 122.866 95.6286 121.072Z" fill="#F0F0F0"/>
<path d="M44.1275 123.979C46.0515 127.099 51.6727 135.59 53.6227 138.107C55.5727 140.624 58.9631 143.468 59.7535 140.25C60.5439 137.031 57.5227 132.97 55.4791 129.772C53.4355 126.574 47.6791 119.044 45.8487 116.584C44.0183 114.125 40.8983 111.722 40.1703 114.603C39.4423 117.484 42.1983 120.848 44.1275 123.979Z" fill="#E0E0E0"/>
<path d="M92.0664 124.696C93.4132 129.657 93.9852 134.638 100.496 140.296C107.006 145.954 137.65 162.162 137.65 162.162L157.607 139.058L127.863 120.619L117.635 116.407L92.0664 124.696Z" fill="#455A64"/>
<path d="M72.9668 151.32V175.989L159.089 225.909V200.128C157.956 200.149 156.836 199.882 155.834 199.353L72.9668 151.32Z" fill="#FFCF08"/>
<path opacity="0.3" d="M72.9668 151.32V175.989L159.089 225.909V200.128C157.956 200.149 156.836 199.882 155.834 199.353L72.9668 151.32Z" fill="black"/>
<path d="M236.647 156.125C238.322 155.147 238.436 153.624 236.975 152.579C237.829 153.215 238.534 154.03 239.039 154.968C239.544 155.906 239.837 156.944 239.897 158.007V178.917L159.1 225.899V200.127C160.233 200.148 161.353 199.882 162.355 199.353L236.647 156.125Z" fill="#FFCF08"/>
<path opacity="0.45" d="M236.647 156.125C238.322 155.147 238.436 153.624 236.975 152.579C237.829 153.215 238.534 154.03 239.039 154.968C239.544 155.906 239.837 156.944 239.897 158.007V178.917L159.1 225.899V200.127C160.233 200.148 161.353 199.882 162.355 199.353L236.647 156.125Z" fill="black"/>
<path d="M236.647 152.36L153.775 104.323L127.65 119.543C118.228 118.17 100.709 129.668 96.6424 137.447L72.9668 151.32L155.834 199.363C156.843 199.874 157.958 200.14 159.089 200.14C160.22 200.14 161.335 199.874 162.344 199.363L236.647 156.136C238.441 155.085 238.441 153.4 236.647 152.36Z" fill="#FFCF08"/>
<path opacity="0.2" d="M236.647 152.36L153.775 104.323L127.65 119.543C118.228 118.17 100.709 129.668 96.6424 137.447L72.9668 151.32L155.834 199.363C156.843 199.874 157.958 200.14 159.089 200.14C160.22 200.14 161.335 199.874 162.344 199.363L236.647 156.136C238.441 155.085 238.441 153.4 236.647 152.36Z" fill="black"/>
<path opacity="0.1" d="M89.0615 142.288C91.2663 145.132 96.0399 146.89 99.3887 147.774C101.594 148.358 103.867 148.648 106.149 148.637C106.048 150.472 105.698 152.284 105.109 154.024C104.651 155.361 102.868 157.493 104.896 158.132C106.456 158.621 109.165 157.851 110.761 157.612C112.801 157.305 114.824 156.889 116.819 156.364C117.911 156.078 119.071 155.709 119.752 154.804C120.516 153.764 120.449 152.391 120.646 151.128C120.828 149.942 121.525 148.564 122.851 148.439C121.411 147.628 119.289 147.212 117.682 146.671C115.27 145.86 112.826 145.137 110.402 144.321C105.487 142.661 100.618 140.872 95.7955 138.955C95.4575 138.819 95.1039 138.679 94.7555 138.549L88.8691 141.997C88.9263 142.095 88.9887 142.194 89.0615 142.288Z" fill="black"/>
<path opacity="0.1" d="M236.648 152.36L153.775 104.323L127.65 119.543C134.748 124.057 141.69 126.646 148.929 130.806C152.418 132.814 156.464 136.09 165.304 142.122C168.205 144.098 171.674 146.396 175.34 146.032C178.116 145.756 180.54 144.087 183.212 143.266C183.785 143.058 184.393 142.97 185.001 143.006C187.648 143.281 187.456 146.464 187.497 148.388C187.562 151.363 186.726 154.288 185.1 156.78C184.724 157.31 184.461 157.912 184.33 158.548C183.998 160.535 184.975 162.048 186.868 162.88C188.761 163.712 209.082 172.167 212.702 170.082L236.622 156.125C238.436 155.09 238.436 153.4 236.648 152.36Z" fill="black"/>
<path opacity="0.1" d="M158.174 170.42C156.68 169.515 155.208 168.576 153.759 167.602C153.192 167.222 150.639 165.548 149.984 164.976C151.872 165.808 153.738 166.671 155.6 167.55C157.644 168.517 159.708 169.437 161.809 170.264C164.632 171.372 169.323 173.462 171.756 170.488C173.207 168.714 172.796 166.13 173.316 163.894C173.836 161.658 177.695 154.284 172.796 153.78C172.189 153.745 171.581 153.832 171.008 154.035C168.34 154.862 165.912 156.526 163.135 156.801C159.464 157.165 155.766 155.174 153.099 152.891C149.929 150.27 146.528 147.941 142.938 145.933C142.642 145.767 142.668 145.886 142.418 145.652C143.97 146.247 145.47 146.967 146.906 147.805C148.003 148.45 149.053 149.157 150.15 149.797C152.204 151.023 154.324 152.136 156.5 153.13C158.652 154.158 161.029 154.627 163.41 154.492C166.198 154.243 168.746 152.891 171.346 151.861C172.338 151.386 173.435 151.169 174.533 151.232C176.27 151.456 177.726 153.634 177.653 155.319C177.653 155.371 177.653 155.423 177.653 155.475C177.326 158.32 176.847 161.138 176.582 163.988C176.424 164.833 176.516 165.706 176.847 166.499C177.116 166.915 177.47 167.27 177.886 167.539C178.302 167.808 178.77 167.985 179.26 168.059C180.217 168.278 181.22 168.314 182.156 168.616C182.281 168.645 182.394 168.712 182.479 168.808C182.624 169.016 182.479 169.297 182.328 169.5C181.422 170.597 180.259 171.454 178.943 171.996C177.653 172.588 176.291 173.004 174.986 173.556C173.988 174.055 172.943 174.452 171.866 174.741C171.17 174.855 170.465 174.908 169.76 174.897C168.538 174.897 166.151 174.897 162.48 172.89C160.982 172.12 159.568 171.268 158.174 170.42Z" fill="black"/>
<path opacity="0.2" d="M85.1777 158.356V183.072L86.7065 183.909L86.7013 159.24L85.1777 158.356Z" fill="black"/>
<path opacity="0.1" d="M85.1777 158.356L107.018 145.558C111.921 139.615 130.22 125.2 140.329 126.318L165.996 111.358L167.587 112.289L142.035 127.156C131.91 127.676 117.309 137.036 108.635 146.396L86.7065 159.224L85.1777 158.356Z" fill="black"/>
<path d="M138.3 113.459C135.924 114.244 131.488 114.265 127.297 111.27C122.424 107.791 114.349 101.91 114.349 101.91C114.349 101.91 105.805 88.9462 108.452 88.4938C110.436 88.218 112.455 88.3527 114.384 88.8894C116.314 89.4261 118.112 90.3534 119.668 91.6138C122.788 94.245 137.312 108.831 137.312 108.831L138.3 113.459Z" fill="#FFA8A7"/>
<path d="M114.329 101.884C114.329 101.884 122.405 107.791 127.277 111.244C131.468 114.239 135.904 114.218 138.28 113.433L137.292 108.753C137.292 108.753 122.8 94.1201 119.695 91.5201C118.141 90.2333 116.328 89.2958 114.379 88.7709C112.43 88.2461 110.392 88.1462 108.401 88.4781C105.77 88.9929 114.329 101.884 114.329 101.884Z" fill="#FFCF08"/>
<path opacity="0.1" d="M114.329 101.884C114.329 101.884 122.405 107.791 127.277 111.244C131.468 114.239 135.904 114.218 138.28 113.433L137.292 108.753C137.292 108.753 122.8 94.1201 119.695 91.5201C118.141 90.2333 116.328 89.2958 114.379 88.7709C112.43 88.2461 110.392 88.1462 108.401 88.4781C105.77 88.9929 114.329 101.884 114.329 101.884Z" fill="black"/>
<path opacity="0.2" d="M120.45 92.3052L113.638 92.0972L113.295 95.5812C113.295 95.5812 115.859 95.8724 117.731 96.2104C119.686 96.5303 121.455 97.5618 122.697 99.1068C124.257 100.901 126.493 104.92 128.697 108.009C129.972 109.882 131.631 111.462 133.565 112.642L134.303 105.799C131.703 103.199 127.865 99.4032 124.693 96.3196C124.527 96.3716 120.45 92.3052 120.45 92.3052Z" fill="black"/>
<path d="M120.736 117.666L117.018 113.568L116.576 108.633C117.998 107.395 118.923 105.683 119.18 103.815C119.437 101.947 119.009 100.049 117.974 98.4726C115.941 95.1706 114.714 94.1566 113.092 92.503C110.57 89.9446 109.353 88.889 108.412 88.4678C106.819 88.556 105.233 88.7454 103.664 89.0346L95.994 90.1318L90.17 91.7282C88.7504 99.107 87.57 105.929 88.6672 113.745C90.1492 124.046 91.3244 127.156 95.1672 133.937C95.812 128.43 105.432 122.715 109.446 120.879C116.336 117.733 120.736 117.666 120.736 117.666Z" fill="#455A64"/>
<path d="M105.802 58.9265L102.422 59.2801C98.9324 59.6233 95.5108 59.8001 92.4688 61.7345C89.8161 63.4183 87.9102 66.0556 87.144 69.1029C86.104 73.4085 87.7732 78.0833 90.3056 81.1981C91.1632 82.3684 92.1238 83.4595 93.176 84.4585C94.216 85.3737 95.2092 86.1329 95.8956 86.2213L95.7188 83.3301C97.2435 84.0548 98.9271 84.3804 100.612 84.2765L103.212 84.1465C104.374 84.0808 105.51 83.7785 106.551 83.2581C107.592 82.7377 108.515 82.0101 109.265 81.1201C110.053 80.1996 110.74 79.1972 111.314 78.1301C111.714 77.4073 111.594 76.6221 111.917 75.8889C112.284 75.1188 112.701 74.3736 113.165 73.6581C113.784 72.7248 114.24 71.6924 114.512 70.6057C114.787 69.4915 114.639 68.3147 114.096 67.3037C113.544 66.5202 112.724 65.9655 111.792 65.7437C113.768 63.9133 114.226 59.9613 111.272 58.8069C110.412 58.5509 109.504 58.4993 108.62 58.6561L105.802 58.9265Z" fill="#263238"/>
<path d="M108.266 65C109.826 65.7852 112.478 69.3992 112.785 77.2304C113.04 83.8708 110.991 85.644 109.94 86.1848C108.89 86.7256 106.794 86.5644 104.74 86.3512L104.798 89.5804C108.016 93.2204 102.374 93.938 98.1313 92.1804C97.5229 91.9256 96.0253 90.6568 96.0045 90.1368L95.6613 82.0248C95.1224 82.2935 94.511 82.3805 93.9185 82.2727C93.3261 82.1649 92.7845 81.8681 92.3749 81.4268C90.8513 79.7472 90.3313 77.22 91.5481 75.8212C92.7649 74.4224 94.8813 74.8644 95.9317 76.232C95.9317 76.232 97.1381 74.9788 101.288 72.3528C105.437 69.7268 107.668 67.9848 108.266 65Z" fill="#FFA8A7"/>
<path d="M95.9062 76.232L95.9323 79.352C96.225 79.35 96.5144 79.2902 96.784 79.1762C97.0536 79.0621 97.298 78.896 97.5033 78.6873C97.7086 78.4787 97.8707 78.2315 97.9803 77.9601C98.09 77.6887 98.145 77.3983 98.1423 77.1056L98.1111 73.3564L95.9062 76.232Z" fill="#263238"/>
<path d="M110.891 75.0463C110.772 75.5351 110.371 75.5039 109.851 75.3843C109.331 75.2647 108.988 75.0982 109.108 74.6094C109.13 74.4859 109.176 74.3682 109.245 74.2635C109.315 74.1589 109.404 74.0695 109.509 74.0011C109.614 73.9326 109.732 73.8864 109.856 73.8654C109.98 73.8445 110.106 73.8491 110.228 73.8791C110.35 73.9091 110.464 73.9638 110.564 74.0398C110.664 74.1158 110.747 74.2115 110.808 74.3209C110.869 74.4304 110.907 74.5512 110.92 74.676C110.932 74.8008 110.919 74.9268 110.881 75.0463H110.891Z" fill="#263238"/>
<path d="M104.502 75.27C104.699 75.7536 104.413 75.9668 103.93 76.1644C103.446 76.362 102.947 76.4764 102.749 75.9928C102.702 75.8777 102.678 75.7545 102.678 75.63C102.678 75.5055 102.703 75.3823 102.75 75.2674C102.798 75.1525 102.868 75.0481 102.956 74.9602C103.044 74.8723 103.149 74.8027 103.264 74.7552C103.379 74.7077 103.502 74.6834 103.627 74.6836C103.751 74.6838 103.875 74.7085 103.99 74.7563C104.104 74.8041 104.209 74.8741 104.297 74.9622C104.385 75.0503 104.454 75.1549 104.502 75.27Z" fill="#263238"/>
<path d="M109.54 71.0476L111.271 72.1552C111.205 72.2714 111.116 72.3729 111.009 72.4534C110.902 72.5339 110.78 72.5918 110.65 72.6234C110.52 72.6551 110.385 72.6598 110.253 72.6374C110.121 72.6151 109.995 72.566 109.883 72.4932C109.652 72.3417 109.488 72.1075 109.424 71.8387C109.36 71.5699 109.401 71.2868 109.54 71.0476Z" fill="#263238"/>
<path d="M101.75 72.8001L103.43 71.6145C103.512 71.7199 103.573 71.8411 103.607 71.9706C103.641 72.1001 103.648 72.2353 103.628 72.3677C103.608 72.5002 103.561 72.6272 103.491 72.7409C103.42 72.8546 103.326 72.9526 103.216 73.0289C102.989 73.185 102.71 73.2482 102.438 73.2057C102.165 73.1632 101.919 73.0181 101.75 72.8001Z" fill="#263238"/>
<path d="M106.877 74.23L106.95 79.6744L110.007 78.65L106.877 74.23Z" fill="#F28F8F"/>
<path opacity="0.15" d="M108.717 77.272C107.35 77.9168 106.949 79.6744 106.949 79.6744L110.007 78.6344L108.967 77.168C108.881 77.1948 108.797 77.2296 108.717 77.272Z" fill="black"/>
<path d="M99.9409 78.8111C100.112 79.6483 101.095 80.1579 102.135 79.9499C103.175 79.7419 103.877 78.9099 103.695 78.0467C103.513 77.1835 102.541 76.6999 101.501 76.9079C100.461 77.1159 99.7745 77.9687 99.9409 78.8111Z" fill="#F28F8F"/>
<path d="M110.82 76.8353C110.742 77.6881 111.532 78.4629 112.588 78.5617C113.643 78.6605 114.564 78.0417 114.668 77.1993C114.772 76.3569 113.955 75.5717 112.9 75.4729C111.844 75.3741 110.903 75.9825 110.82 76.8353Z" fill="#F28F8F"/>
<path d="M108.37 82.9453C108.141 83.8189 107.413 83.7149 106.534 83.4653C105.655 83.2157 104.974 82.9765 105.203 82.0977C105.327 81.6941 105.602 81.3542 105.971 81.1486C106.34 80.9431 106.774 80.8879 107.182 80.9945C107.591 81.1012 107.942 81.3615 108.164 81.721C108.385 82.0806 108.459 82.5117 108.37 82.9245V82.9453Z" fill="#B16668"/>
<path d="M105.931 81.6089C105.743 81.6079 105.556 81.6395 105.379 81.7025C105.302 81.8324 105.242 81.9724 105.203 82.1185C104.974 82.9973 105.66 83.2573 106.534 83.4861C106.795 83.5576 107.061 83.6081 107.329 83.6369C107.376 83.5026 107.404 83.3627 107.413 83.2209C107.427 82.8114 107.279 82.4128 107.002 82.1112C106.725 81.8096 106.34 81.6292 105.931 81.6089Z" fill="#F28F8F"/>
<path d="M104.75 86.3615C102.597 86.2159 98.1354 85.2279 97.3398 83.5327C97.6696 84.395 98.2558 85.1355 99.0194 85.6543C100.397 86.6943 104.786 87.7655 104.786 87.7655L104.75 86.3615Z" fill="#F28F8F"/>
<path d="M137.78 103.657C134.166 99.0601 127.089 93.3141 126.137 91.6345C125.362 90.1625 124.426 88.7812 123.345 87.5161C122.872 86.9961 122.305 86.6009 121.899 86.0393L120.298 83.9593L120.235 83.8709C120.069 83.6577 119.856 83.4133 119.585 83.4289C119.491 83.4419 119.401 83.4782 119.324 83.5344C119.247 83.5907 119.185 83.6652 119.143 83.7513C119.068 83.9269 119.031 84.1166 119.034 84.3077C119.028 84.9656 119.141 85.6192 119.367 86.2369C119.559 86.8141 120.339 87.8385 119.715 87.9685C116.959 88.5405 113.595 87.4485 110.782 87.3445C110.382 87.2917 109.975 87.3624 109.617 87.5473C109.464 87.6637 109.339 87.8119 109.249 87.9816C109.159 88.1513 109.107 88.3384 109.097 88.5301C109.073 89.0302 109.131 89.5308 109.269 90.0121C109.701 91.4118 110.584 92.6293 111.78 93.4753C113.039 94.3593 115.29 94.7545 116.772 95.1653C118.254 95.5761 119.939 95.8777 121.239 96.8293C122.679 97.8693 123.839 99.4917 124.879 100.906C126.959 103.621 128.873 106.772 130.771 109.601C133.698 113.969 136.428 114.135 138.29 113.48C140.151 112.825 141.42 108.254 137.78 103.657Z" fill="#FFA8A7"/>
<path d="M118.261 80.7198L108.142 83.3926C107.741 83.5434 107.622 82.7738 108.142 82.6074L118.276 78.8738L118.261 80.7198Z" fill="#FFCF08"/>
<path d="M116.565 80.0332L108.141 82.8516C108.011 82.9036 107.995 83.2 108.141 83.1636C108.437 83.096 116.799 80.7248 116.799 80.7248L116.565 80.0332Z" fill="#F28F8F"/>
<path opacity="0.2" d="M115.863 79.7526L118.255 78.8738V80.7198L116.466 81.193C116.117 80.7893 115.906 80.2847 115.863 79.7526Z" fill="black"/>
<path d="M116.773 79.2949C116.776 79.7948 116.926 80.2828 117.205 80.6972C117.485 81.1117 117.881 81.4339 118.343 81.6233C118.806 81.8127 119.314 81.8606 119.804 81.7611C120.294 81.6616 120.743 81.419 121.095 81.0642C121.447 80.7093 121.686 80.258 121.781 79.7674C121.877 79.2767 121.825 78.7688 121.631 78.3078C121.438 77.8468 121.113 77.4535 120.696 77.1775C120.279 76.9015 119.79 76.7553 119.29 76.7573C118.958 76.7587 118.63 76.8254 118.324 76.9537C118.018 77.082 117.74 77.2693 117.506 77.5049C117.273 77.7405 117.088 78.0199 116.962 78.327C116.836 78.6342 116.772 78.9631 116.773 79.2949Z" fill="#FFCF08"/>
<path d="M117.824 79.2896C117.825 79.5817 117.913 79.8669 118.076 80.1092C118.239 80.3515 118.47 80.54 118.741 80.6508C119.011 80.7616 119.308 80.7898 119.594 80.7318C119.881 80.6738 120.143 80.5322 120.349 80.325C120.555 80.1177 120.695 79.8541 120.75 79.5674C120.806 79.2808 120.776 78.9839 120.663 78.7145C120.551 78.445 120.361 78.215 120.117 78.0536C119.874 77.8922 119.588 77.8066 119.296 77.8076C119.102 77.8076 118.91 77.846 118.73 77.9206C118.551 77.9952 118.388 78.1046 118.252 78.2423C118.115 78.3801 118.007 78.5435 117.933 78.7233C117.86 78.903 117.823 79.0955 117.824 79.2896Z" fill="#F28F8F"/>
<path opacity="0.1" d="M117.824 79.2896C117.825 79.5817 117.913 79.8669 118.076 80.1092C118.239 80.3515 118.47 80.54 118.741 80.6508C119.011 80.7616 119.308 80.7898 119.594 80.7318C119.881 80.6738 120.143 80.5322 120.349 80.325C120.555 80.1177 120.695 79.8541 120.75 79.5674C120.806 79.2808 120.776 78.9839 120.663 78.7145C120.551 78.445 120.361 78.215 120.117 78.0536C119.874 77.8922 119.588 77.8066 119.296 77.8076C119.102 77.8076 118.91 77.846 118.73 77.9206C118.551 77.9952 118.388 78.1046 118.252 78.2423C118.115 78.3801 118.007 78.5435 117.933 78.7233C117.86 78.903 117.823 79.0955 117.824 79.2896Z" fill="black"/>
<path d="M95.1934 94.7442C96.3686 97.1778 100.269 102.955 101.563 109.621C102.214 112.884 102.661 116.183 102.9 119.501C103.04 120.682 111.781 118.071 111.937 116.855C112.093 115.638 111.23 109.876 109.977 105.935C108.724 101.993 106.992 96.3406 104.777 94.3022L95.1934 94.7442Z" fill="#FFCF08"/>
<path opacity="0.1" d="M95.1934 94.7442C96.3686 97.1778 100.269 102.955 101.563 109.621C102.214 112.884 102.661 116.183 102.9 119.501C103.04 120.682 111.781 118.071 111.937 116.855C112.093 115.638 111.23 109.876 109.977 105.935C108.724 101.993 106.992 96.3406 104.777 94.3022L95.1934 94.7442Z" fill="black"/>
<path d="M95.7763 85.0566C94.8923 85.3426 94.3879 85.4466 93.8783 87.0326C93.4311 88.421 92.7603 90.8286 92.8383 91.7126C92.9787 93.0802 94.5803 94.8326 97.3311 95.7582C100.082 96.6838 104.611 95.9558 106.275 95.025C108.792 93.6418 109.156 92.0922 108.792 90.2722C108.513 89.0038 108.141 87.7576 107.679 86.5438C106.566 86.5438 105.599 86.4346 104.741 86.3462L104.767 87.3394C104.767 87.3394 104.065 87.9426 101.647 88.109C96.7851 88.4522 95.8543 86.913 95.8543 86.913L95.7763 85.0566Z" fill="#FFCF08"/>
<path opacity="0.1" d="M99.5262 90.1163C100.631 90.4304 101.79 90.5001 102.925 90.3205C104.059 90.1409 105.14 89.7163 106.094 89.0763C106.302 88.914 106.465 88.7002 106.566 88.4559C106.667 88.2117 106.703 87.9453 106.67 87.683C106.637 87.4207 106.536 87.1715 106.378 86.96C106.219 86.7484 106.009 86.5817 105.766 86.4763H105.621L104.752 86.3931L104.778 87.3863C104.778 87.3863 104.076 87.9895 101.658 88.1559C96.7962 88.4991 95.8654 86.9599 95.8654 86.9599C95.6314 87.1003 96.2814 89.2583 99.5262 90.1163Z" fill="black"/>
<path d="M107.527 141.3C108.271 138.83 110.34 139.48 114.495 141.554C118.65 143.629 124.245 144.196 125.015 144.217C125.888 144.217 126.98 146.817 123.975 148.231C120.969 149.646 120.563 150.082 119.861 152.079C118.868 154.908 117.391 154.705 115.228 154.71C113.8 154.621 112.378 154.952 111.136 155.662C107.823 157.274 106.107 156.005 106.107 156.005C106.107 156.005 107.823 151.216 107.621 146.765C107.418 142.314 107.043 142.896 107.527 141.3Z" fill="#FAFAFA"/>
<path d="M110.835 146.858C112.093 145.47 112.359 144.258 111.641 142.932L107.408 143.749C107.476 144.378 107.559 145.309 107.627 146.765C107.653 147.368 107.627 147.976 107.627 148.574C108.661 148.247 110.097 147.68 110.835 146.858Z" fill="#E6E6E6"/>
<path d="M120.475 150.67C121.026 149.745 121.853 149.23 123.98 148.231C121.838 148.382 117.844 145.964 115.213 144.071C115.213 144.04 117.886 149.006 120.475 150.67Z" fill="#E6E6E6"/>
<path d="M111.141 155.662C111.906 155.232 112.74 154.939 113.606 154.799C113.723 152.054 113.149 149.324 111.937 146.858C112.28 150.358 111.542 154.284 110.346 156C110.617 155.901 110.882 155.788 111.141 155.662Z" fill="#E6E6E6"/>
<path d="M90.8462 91.5513C85.2822 92.5029 82.7862 92.9345 80.7114 102.794C78.7094 112.32 75.5114 122.658 76.8686 126.568C78.2258 130.478 89.801 141.294 94.3406 143.92C98.8802 146.546 102.572 147.404 106.228 147.436C110.825 147.472 113.477 143.073 110.965 141.679C110.149 141.222 109.249 141.268 107.798 140.842C106.212 140.379 104.366 140.02 102.598 139.282C103.712 139.163 104.794 138.84 105.791 138.33C106.431 138.034 108.349 136.984 106.945 136.401C106.688 136.315 106.415 136.284 106.145 136.313L99.8318 136.484C98.8178 136.51 97.9442 136.599 96.9978 136.23C96.0715 135.819 95.2606 135.187 94.637 134.389C93.961 133.593 93.3214 132.756 92.6506 131.945C89.489 128.107 86.2806 123.401 86.2806 123.401L90.4406 106.522C90.4406 106.522 93.7478 97.9109 90.8462 91.5513Z" fill="#FFA8A7"/>
<path d="M91.2672 91.4316C88.4332 91.4316 85.0272 92.2272 83.3112 94.7128C81.5952 97.1984 80.8048 101.13 78.7248 109.97C76.6448 118.81 76.1664 123.053 76.182 125.284C76.1976 127.514 80.5292 131.695 80.5292 131.695C82.6768 129.29 85.408 127.48 88.4592 126.438L86.5508 123.396C86.5508 123.396 90.2324 108.238 91.2672 105.29C92.302 102.341 93.8724 95.16 91.2672 91.4316Z" fill="#FFCF08"/>
<path opacity="0.1" d="M91.2672 91.4316C88.4332 91.4316 85.0272 92.2272 83.3112 94.7128C81.5952 97.1984 80.8048 101.13 78.7248 109.97C76.6448 118.81 76.1664 123.053 76.182 125.284C76.1976 127.514 80.5292 131.695 80.5292 131.695C82.6768 129.29 85.408 127.48 88.4592 126.438L86.5508 123.396C86.5508 123.396 90.2324 108.238 91.2672 105.29C92.302 102.341 93.8724 95.16 91.2672 91.4316Z" fill="black"/>
<path opacity="0.2" d="M86.5514 123.396C84.9914 122.647 82.4746 123.968 82.4746 123.968C82.4746 123.968 83.8838 122.408 86.7906 122.408L86.5514 123.396Z" fill="black"/>
<path d="M75.2613 118.415C75.1992 118.416 75.1384 118.396 75.0897 118.357L73.3945 117.052C73.358 117.025 73.3293 116.988 73.3111 116.946C73.2928 116.904 73.2858 116.858 73.2905 116.813C73.2928 116.767 73.307 116.722 73.3315 116.683C73.3561 116.644 73.3903 116.612 73.4309 116.589L75.1521 115.612L73.5921 114.109C73.5589 114.077 73.534 114.038 73.5195 113.995C73.505 113.951 73.5013 113.905 73.5089 113.859C73.5179 113.815 73.5372 113.773 73.5651 113.736C73.5931 113.7 73.629 113.671 73.6701 113.651L75.5057 112.814L73.9769 111.655C73.9382 111.625 73.9078 111.586 73.8887 111.542C73.8695 111.497 73.8623 111.448 73.8677 111.4C73.8731 111.351 73.8913 111.305 73.9205 111.265C73.9498 111.226 73.989 111.195 74.0341 111.176L76.0621 110.277L74.5645 108.815C74.5327 108.783 74.509 108.744 74.4954 108.7C74.4818 108.657 74.4787 108.611 74.4863 108.567C74.4939 108.522 74.5121 108.48 74.5392 108.443C74.5664 108.407 74.6018 108.378 74.6425 108.358L76.9461 107.318C77.015 107.287 77.0932 107.286 77.1635 107.313C77.2337 107.34 77.2902 107.394 77.3205 107.463C77.3508 107.532 77.3525 107.61 77.3252 107.681C77.2979 107.751 77.2439 107.807 77.1749 107.838L75.2457 108.68L76.7433 110.147C76.7764 110.177 76.8014 110.215 76.816 110.258C76.8305 110.301 76.8341 110.347 76.8265 110.391C76.8191 110.436 76.8005 110.479 76.7723 110.515C76.7442 110.552 76.7074 110.58 76.6653 110.599L74.6893 111.478L76.2129 112.632C76.2515 112.661 76.2814 112.701 76.2997 112.745C76.318 112.79 76.324 112.839 76.3169 112.887C76.312 112.934 76.2951 112.98 76.2679 113.019C76.2406 113.058 76.2038 113.09 76.1609 113.111L74.2733 113.969L75.8333 115.445C75.8649 115.475 75.8889 115.512 75.9035 115.553C75.9181 115.594 75.9228 115.638 75.9172 115.681C75.9116 115.724 75.8959 115.765 75.8714 115.801C75.8469 115.837 75.8142 115.867 75.7761 115.887L74.0913 116.844L75.4485 117.884C75.4778 117.906 75.5024 117.934 75.521 117.965C75.5395 117.997 75.5515 118.032 75.5564 118.068C75.5612 118.105 75.5588 118.141 75.5492 118.177C75.5396 118.212 75.523 118.245 75.5005 118.274C75.4775 118.317 75.4429 118.353 75.4007 118.378C75.3585 118.403 75.3102 118.416 75.2613 118.415Z" fill="#FFCF08"/>
<path d="M141.811 107.89C141.773 107.897 141.735 107.897 141.697 107.89C141.629 107.859 141.577 107.803 141.55 107.735C141.522 107.666 141.523 107.589 141.551 107.521L142.388 105.576L140.308 105.508C140.263 105.506 140.218 105.493 140.178 105.47C140.139 105.448 140.105 105.416 140.08 105.378C140.059 105.338 140.048 105.293 140.048 105.248C140.048 105.203 140.059 105.158 140.08 105.118L140.901 103.116L138.998 103.288C138.95 103.293 138.902 103.286 138.858 103.267C138.815 103.248 138.777 103.217 138.748 103.179C138.718 103.14 138.699 103.094 138.694 103.045C138.688 102.997 138.696 102.947 138.717 102.903L139.523 100.995L137.396 100.943C137.352 100.942 137.309 100.93 137.27 100.909C137.231 100.889 137.198 100.859 137.173 100.823C137.149 100.788 137.133 100.747 137.127 100.705C137.121 100.663 137.124 100.619 137.136 100.579L137.734 98.7326L136.024 98.8782C135.95 98.8839 135.877 98.8604 135.82 98.8127C135.764 98.765 135.729 98.697 135.722 98.6234C135.718 98.5867 135.722 98.5498 135.733 98.5146C135.744 98.4795 135.762 98.4469 135.786 98.4188C135.81 98.3907 135.839 98.3676 135.871 98.351C135.904 98.3343 135.94 98.3244 135.977 98.3218L138.109 98.145C138.154 98.1407 138.2 98.148 138.242 98.1662C138.284 98.1844 138.32 98.2129 138.348 98.249C138.377 98.2849 138.396 98.3276 138.405 98.373C138.413 98.4184 138.409 98.4652 138.395 98.509L137.781 100.397L139.95 100.449C139.995 100.451 140.04 100.464 140.08 100.486C140.119 100.509 140.153 100.54 140.178 100.579C140.199 100.619 140.21 100.663 140.21 100.709C140.21 100.754 140.199 100.798 140.178 100.839L139.388 102.69L141.296 102.518C141.345 102.514 141.394 102.522 141.439 102.542C141.483 102.562 141.522 102.593 141.551 102.633C141.579 102.672 141.597 102.718 141.601 102.767C141.606 102.815 141.598 102.864 141.577 102.908L140.688 104.941L142.768 105.014C142.813 105.016 142.857 105.028 142.896 105.05C142.935 105.072 142.968 105.104 142.992 105.142C143.016 105.18 143.031 105.223 143.034 105.268C143.038 105.313 143.03 105.358 143.012 105.399L142.019 107.723C142.001 107.766 141.972 107.804 141.936 107.833C141.9 107.862 141.857 107.881 141.811 107.89Z" fill="#FFCF08"/>
<path d="M81.0182 138.59C80.9441 138.589 80.8732 138.56 80.8206 138.507C80.7876 138.475 80.7636 138.434 80.7509 138.389C80.7381 138.345 80.7371 138.298 80.7478 138.252L81.1586 136.313L78.9954 136.49C78.9503 136.491 78.9054 136.483 78.864 136.465C78.8226 136.447 78.7858 136.42 78.7562 136.386C78.7285 136.35 78.7098 136.308 78.7017 136.264C78.6935 136.22 78.6962 136.174 78.7094 136.131L79.297 134.202L77.4146 134.576C77.3673 134.585 77.3186 134.581 77.2731 134.566C77.2276 134.55 77.1868 134.523 77.1546 134.488C77.1216 134.452 77.0989 134.408 77.0889 134.36C77.0788 134.313 77.0818 134.263 77.0974 134.217L77.7682 132.101L75.6882 132.252C75.6429 132.255 75.5975 132.247 75.5558 132.229C75.5142 132.211 75.4775 132.183 75.449 132.148C75.4205 132.113 75.4013 132.071 75.3931 132.026C75.3849 131.982 75.3881 131.936 75.4022 131.893L76.1458 129.48C76.1515 129.441 76.1657 129.403 76.1874 129.37C76.2091 129.336 76.2377 129.308 76.2714 129.286C76.3051 129.265 76.343 129.251 76.3825 129.246C76.422 129.241 76.4621 129.244 76.5002 129.256C76.5382 129.268 76.5733 129.288 76.6029 129.315C76.6325 129.341 76.656 129.374 76.6718 129.411C76.6875 129.447 76.6951 129.487 76.6941 129.527C76.6931 129.566 76.6834 129.606 76.6658 129.641L76.0418 131.664L78.1218 131.513C78.1671 131.51 78.2124 131.518 78.254 131.536C78.2956 131.555 78.3322 131.582 78.361 131.617C78.3888 131.654 78.4075 131.696 78.4156 131.742C78.4237 131.787 78.4211 131.833 78.4078 131.877L77.7526 133.957L79.6298 133.583C79.677 133.574 79.7256 133.577 79.7711 133.592C79.8167 133.607 79.8576 133.634 79.8899 133.67C79.9222 133.705 79.9449 133.748 79.9559 133.795C79.9668 133.842 79.9655 133.89 79.9522 133.936L79.3438 135.923L81.4706 135.751C81.5135 135.747 81.5569 135.753 81.5969 135.769C81.6368 135.785 81.672 135.812 81.6994 135.845C81.729 135.876 81.7506 135.915 81.7623 135.956C81.7741 135.998 81.7757 136.042 81.767 136.084L81.3614 137.982L83.0514 137.654C83.0884 137.646 83.1268 137.644 83.1643 137.651C83.2018 137.657 83.2376 137.671 83.2695 137.692C83.3014 137.712 83.3288 137.739 83.35 137.771C83.3713 137.803 83.3858 137.838 83.3929 137.875C83.3999 137.913 83.3993 137.951 83.3911 137.988C83.3828 138.026 83.3671 138.061 83.3449 138.091C83.3227 138.122 83.2945 138.148 83.2619 138.168C83.2293 138.188 83.1931 138.2 83.1554 138.206L81.0754 138.606L81.0182 138.59Z" fill="#FFCF08"/>
<path d="M85.714 69.4982L83.3532 68.2346L84.7104 67.075L79.8068 64.7766L81.9492 63.539L76.666 60.731L79.8068 63.4974L77.2536 64.7766L83.0152 67.2778L81.5904 68.6974L85.714 69.4982Z" fill="#F28F8F"/>
<path d="M86.9212 66.3886L85.382 64.917L86.2192 64.293L84.8672 62.6966L86.1672 62.2546L85.7148 60.2266L86.6248 62.4158L85.7148 62.811L87.1708 64.4126L86.188 65.1146L86.9212 66.3886Z" fill="#F28F8F"/>
<path d="M86.0207 71.8226L83.1243 74.0846L82.0531 72.509L79.5207 73.887L78.4755 71.937L74.5547 72.9406L79.0995 70.7722L80.3995 72.561L82.5055 71.4326L83.3843 72.9406L86.0207 71.8226Z" fill="#F28F8F"/>
<path opacity="0.1" d="M126.299 172.879C126.267 173.118 126.182 173.348 126.05 173.55C125.654 174.455 126.304 175.495 127.09 176.067C127.771 176.518 128.539 176.822 129.345 176.962C130.15 177.102 130.976 177.073 131.77 176.878C133.362 176.465 134.826 175.665 136.034 174.548C137.157 173.56 138.202 172.099 137.724 170.685C137.308 169.463 135.867 168.849 134.604 168.932C133.34 169.015 132.134 169.634 130.964 170.175C129.827 170.71 128.579 170.963 127.324 170.913C126.882 170.913 126.284 170.945 125.987 171.376C125.608 172.042 126.278 172.255 126.299 172.879Z" fill="black"/>
<path opacity="0.1" d="M140.751 180.809C140.475 181.475 140.979 182.249 141.64 182.535C142.325 182.763 143.058 182.809 143.767 182.671C144.807 182.62 145.83 182.384 146.788 181.974C147.243 181.688 147.723 181.444 148.223 181.246C149.237 180.939 150.345 181.376 151.385 181.173C151.978 181.041 152.509 180.712 152.892 180.24C153.275 179.768 153.488 179.181 153.496 178.573L144.396 178.609C142.009 178.609 139.789 179.239 137.412 179.348C137.906 180.539 139.539 181.131 140.751 180.809Z" fill="black"/>
<path d="M127.864 169.52C127.776 169.54 127.689 169.566 127.604 169.598C127.36 169.675 127.138 169.81 126.957 169.991C126.776 170.172 126.642 170.394 126.564 170.638C126.5 170.887 126.514 171.151 126.606 171.392C126.705 171.558 126.954 171.522 126.923 171.808C126.889 171.997 126.787 172.166 126.637 172.286C126.49 172.405 126.368 172.552 126.278 172.718C126.227 172.914 126.241 173.121 126.318 173.309C126.395 173.497 126.531 173.654 126.705 173.758C127.051 173.952 127.381 174.173 127.693 174.418C128.088 174.813 128.265 175.458 128.8 175.64C129.092 175.687 129.389 175.671 129.674 175.593C130.34 175.505 130.792 176.025 131.478 175.645C131.749 175.5 131.957 175.245 132.227 175.125C132.601 174.999 132.986 174.905 133.376 174.845C133.758 174.693 134.122 174.501 134.463 174.273C135.17 173.822 135.787 173.244 136.283 172.567C137.291 171.227 137.757 169.556 137.588 167.887C137.513 166.887 137.075 165.949 136.356 165.251C135.046 164.091 132.893 164.237 131.676 162.963C131.795 164.034 132.107 165.079 132.196 166.161C132.263 166.7 132.217 167.247 132.061 167.767C131.733 168.61 131.088 167.866 130.47 167.731C130.266 167.679 130.054 167.672 129.848 167.711C129.642 167.751 129.448 167.836 129.279 167.96C129.077 168.139 128.95 168.388 128.923 168.657C128.896 168.926 128.971 169.195 129.133 169.411C128.707 169.4 128.282 169.436 127.864 169.52Z" fill="#FAFAFA"/>
<path d="M132.061 167.746C131.911 168.136 131.692 168.183 131.438 168.111C131.438 168.111 133.367 169.468 133.726 170.711C134.199 168.745 132.197 166.119 132.197 166.119C132.267 166.665 132.221 167.22 132.061 167.746Z" fill="#E6E6E6"/>
<path d="M129.129 172.12C129.129 172.12 127.777 172.156 127.387 174.2C127.498 174.267 127.601 174.348 127.694 174.439C127.99 174.735 128.167 175.188 128.463 175.479C128.037 174.865 128.12 172.583 129.129 172.12Z" fill="#E6E6E6"/>
<path d="M132.611 174.959C132.87 174.929 133.125 174.879 133.376 174.808C133.619 174.714 133.854 174.599 134.078 174.465C134.269 173.745 134.221 172.982 133.943 172.291C133.967 172.813 133.857 173.331 133.624 173.798C133.391 174.265 133.042 174.665 132.611 174.959Z" fill="#E6E6E6"/>
<path d="M131.432 170.518C130.985 168.917 128.962 168.438 128.957 168.438C128.91 168.599 128.902 168.769 128.931 168.934C128.961 169.099 129.029 169.255 129.129 169.39C129.495 169.478 129.839 169.642 130.138 169.872C130.437 170.102 130.684 170.392 130.863 170.723C131.043 171.055 131.151 171.421 131.18 171.796C131.209 172.172 131.158 172.55 131.032 172.905C131.032 172.905 131.874 172.12 131.432 170.518Z" fill="#E6E6E6"/>
<path d="M139.658 177.84C139.112 177.915 138.56 177.932 138.01 177.892C138.291 178.552 138.296 178.901 138.837 179.364C139.172 179.648 139.573 179.844 140.003 179.935C140.434 180.026 140.88 180.008 141.301 179.884C141.39 180.591 141.572 181.314 142.341 181.563C142.708 181.659 143.096 181.619 143.435 181.45C143.774 181.28 144.039 180.993 144.182 180.643C144.503 181.025 144.951 181.278 145.444 181.357C145.936 181.437 146.441 181.336 146.865 181.074C147.812 180.44 148.056 179.852 149.299 180.092C150.23 180.268 151.072 180.352 151.847 179.681C152.451 179.078 152.902 178.34 153.163 177.528C153.171 177.51 153.176 177.491 153.176 177.471C153.176 177.451 153.171 177.431 153.163 177.414C153.163 177.372 153.09 177.367 153.048 177.362C151.421 177.18 149.133 177.242 148.171 175.614C147.965 175.209 147.801 174.784 147.682 174.346C147.559 173.905 147.299 173.515 146.938 173.233C146.755 173.098 146.53 173.033 146.303 173.049C146.076 173.065 145.863 173.162 145.701 173.321C145.499 173.028 145.206 172.81 144.866 172.703C144.527 172.596 144.162 172.604 143.829 172.728C143.534 172.81 143.261 172.956 143.029 173.156C142.797 173.355 142.612 173.604 142.487 173.883C142.128 174.559 142.144 175.38 141.832 176.088C141.656 176.512 141.382 176.889 141.032 177.188C140.682 177.486 140.267 177.697 139.819 177.804L139.658 177.84Z" fill="#FAFAFA"/>
<path d="M150.984 180.149C149.705 179.821 147.562 178.006 146.798 176.509C146.732 177.86 147.152 179.19 147.983 180.258C148.183 180.144 148.404 180.07 148.632 180.042C148.861 180.013 149.093 180.03 149.315 180.091C149.86 180.231 150.43 180.251 150.984 180.149Z" fill="#E6E6E6"/>
<path d="M145.351 181.345C144.519 180.248 144.587 176.514 144.587 176.514C144.176 177.851 144.043 179.258 144.197 180.648C144.489 181.007 144.897 181.253 145.351 181.345Z" fill="#E6E6E6"/>
<path d="M141.208 178.823C140.721 179.285 140.122 179.613 139.471 179.774C140.051 180.014 140.695 180.054 141.301 179.889C141.582 178.791 143.381 176.769 143.381 176.769C142.551 177.332 141.817 178.026 141.208 178.823Z" fill="#E6E6E6"/>
<path opacity="0.1" d="M148.004 127.467L159.808 120.707C160.13 120.546 160.487 120.461 160.848 120.461C161.209 120.461 161.565 120.546 161.888 120.707L181.648 132.147C181.775 132.189 181.886 132.27 181.965 132.378C182.043 132.486 182.086 132.617 182.086 132.751C182.086 132.885 182.043 133.015 181.965 133.123C181.886 133.232 181.775 133.312 181.648 133.354L169.839 140.114C169.515 140.275 169.159 140.358 168.799 140.358C168.438 140.358 168.082 140.275 167.759 140.114L147.999 128.674C147.874 128.629 147.766 128.547 147.69 128.439C147.614 128.33 147.574 128.201 147.574 128.069C147.575 127.936 147.616 127.808 147.693 127.7C147.77 127.592 147.879 127.511 148.004 127.467Z" fill="black"/>
<path d="M149.246 121.217L161.144 114.353L180.966 125.798L169.074 132.667L149.246 121.217Z" fill="#455A64"/>
<path d="M149.246 128.086L169.074 139.531V132.667L149.246 121.217V128.086Z" fill="#37474F"/>
<path d="M180.967 125.798L169.074 132.667V139.531L180.967 132.667V125.798Z" fill="#263238"/>
<path d="M159.287 122.439L166.957 126.88C167.586 127.213 168.285 127.394 168.997 127.408C169.708 127.421 170.413 127.267 171.055 126.958C172.147 126.324 172.095 125.268 170.925 124.592L163.26 120.151C162.631 119.818 161.932 119.637 161.22 119.623C160.509 119.61 159.804 119.764 159.162 120.073C158.06 120.708 158.122 121.763 159.287 122.439Z" fill="#263238"/>
<path d="M160.863 122.054C160.863 122.054 159.62 113.625 162.22 110.183C162.22 110.183 162.683 112.647 163.858 113.11C165.782 113.864 167.701 113.287 168.793 114.551C169.885 115.814 169.396 116.698 170.78 117.671C171.622 118.248 174.087 117.499 175.402 118.643C175.402 118.643 170.468 121.508 168.793 126.656L160.863 122.054Z" fill="#FAFAFA"/>
<path d="M167.125 113.713C166.418 113.583 165.617 113.557 164.785 113.38C163.745 116.095 164.265 120.712 164.265 120.712C164.436 117.858 166.137 114.332 167.125 113.713Z" fill="#E6E6E6"/>
<path d="M170.78 117.65C170.608 117.532 170.447 117.398 170.301 117.25C168.44 119.142 167.27 122.97 167.27 122.97C168.029 121.607 171.918 118.045 173.114 117.952C172.158 117.889 171.232 117.962 170.78 117.65Z" fill="#E6E6E6"/>
<path d="M68.1624 68.5985C68.1048 68.5626 68.0379 68.5445 67.97 68.5465H64.4964L63.0664 69.3733L63.888 74.8021L65.3232 73.9753L66.566 72.5401V76.0501L67.5436 75.6965L71.7556 71.1777C71.7924 71.1352 71.8195 71.0852 71.8349 71.0311C71.8503 70.977 71.8536 70.9202 71.8447 70.8647C71.8358 70.8092 71.8148 70.7563 71.7832 70.7098C71.7517 70.6632 71.7103 70.6242 71.662 70.5953L68.1624 68.5985Z" fill="#FFCF08"/>
<path opacity="0.7" d="M68.1624 68.5985C68.1048 68.5626 68.0379 68.5445 67.97 68.5465H64.4964L63.0664 69.3733L63.888 74.8021L65.3232 73.9753L66.566 72.5401V76.0501L67.5436 75.6965L71.7556 71.1777C71.7924 71.1352 71.8195 71.0852 71.8349 71.0311C71.8503 70.977 71.8536 70.9202 71.8447 70.8647C71.8358 70.8092 71.8148 70.7563 71.7832 70.7098C71.7517 70.6632 71.7103 70.6242 71.662 70.5953L68.1624 68.5985Z" fill="white"/>
<path d="M66.5645 76.0499L67.542 75.6963L71.7541 71.1775C71.802 71.1226 71.8331 71.0551 71.8436 70.983C71.8542 70.9108 71.8438 70.8372 71.8136 70.7709C71.7835 70.7045 71.7348 70.6482 71.6736 70.6088C71.6123 70.5693 71.5409 70.5483 71.468 70.5483H67.542L66.5645 71.3751V76.0499Z" fill="#FFCF08"/>
<path opacity="0.4" d="M66.5645 76.0499L67.542 75.6963L71.7541 71.1775C71.802 71.1226 71.8331 71.0551 71.8436 70.983C71.8542 70.9108 71.8438 70.8372 71.8136 70.7709C71.7835 70.7045 71.7348 70.6482 71.6736 70.6088C71.6123 70.5693 71.5409 70.5483 71.468 70.5483H67.542L66.5645 71.3751V76.0499Z" fill="white"/>
<path d="M67.5427 47.6475C67.5129 47.0733 67.3476 46.5142 67.0602 46.0162C66.7727 45.5182 66.3714 45.0953 65.8891 44.7823C65.3764 44.5232 64.8099 44.3882 64.2355 44.3882C63.661 44.3882 63.0946 44.5232 62.5819 44.7823L47.0755 53.6743C46.5931 53.9873 46.1918 54.4102 45.9044 54.9082C45.617 55.4062 45.4516 55.9653 45.4219 56.5395V87.9683C45.4516 88.5426 45.617 89.1016 45.9044 89.5996C46.1918 90.0976 46.5931 90.5205 47.0755 90.8335C47.5882 91.0926 48.1546 91.2276 48.7291 91.2276C49.3035 91.2276 49.87 91.0926 50.3827 90.8335L66.0451 81.8323C67.5323 80.9847 67.5427 80.1319 67.5427 79.0763V47.6475Z" fill="#FFCF08"/>
<path opacity="0.4" d="M67.5427 47.6475C67.5129 47.0733 67.3476 46.5142 67.0602 46.0162C66.7727 45.5182 66.3714 45.0953 65.8891 44.7823C65.3764 44.5232 64.8099 44.3882 64.2355 44.3882C63.661 44.3882 63.0946 44.5232 62.5819 44.7823L47.0755 53.6743C46.5931 53.9873 46.1918 54.4102 45.9044 54.9082C45.617 55.4062 45.4516 55.9653 45.4219 56.5395V87.9683C45.4516 88.5426 45.617 89.1016 45.9044 89.5996C46.1918 90.0976 46.5931 90.5205 47.0755 90.8335C47.5882 91.0926 48.1546 91.2276 48.7291 91.2276C49.3035 91.2276 49.87 91.0926 50.3827 90.8335L66.0451 81.8323C67.5323 80.9847 67.5427 80.1319 67.5427 79.0763V47.6475Z" fill="white"/>
<path opacity="0.2" d="M45.4219 87.9683C45.4516 88.5426 45.617 89.1016 45.9044 89.5996C46.1918 90.0977 46.5931 90.5205 47.0755 90.8335C47.5421 91.0676 48.0528 91.2006 48.5743 91.2238C49.0957 91.2471 49.6163 91.1602 50.1019 90.9687C49.3219 91.2651 48.7291 90.8179 48.7291 89.8767V58.4479C48.7505 57.8717 48.9169 57.3101 49.2127 56.8151L45.9055 54.9067C45.6067 55.4004 45.4402 55.9628 45.4219 56.5395V87.9683Z" fill="black"/>
<path d="M67.4902 47.1796C67.2978 46.4724 66.6582 46.2488 65.8938 46.6908L50.3822 55.5828C49.8916 55.8855 49.4898 56.3124 49.2174 56.8204L45.9102 54.912C46.1855 54.4061 46.5867 53.9799 47.075 53.6744L62.5762 44.7824C63.0898 44.5232 63.6571 44.3882 64.2324 44.3882C64.8077 44.3882 65.3749 44.5232 65.8886 44.7824C66.3047 45.0518 66.6614 45.4034 66.9368 45.8156C67.2122 46.2279 67.4005 46.692 67.4902 47.1796Z" fill="#FFCF08"/>
<path opacity="0.7" d="M67.4902 47.1796C67.2978 46.4724 66.6582 46.2488 65.8938 46.6908L50.3822 55.5828C49.8916 55.8855 49.4898 56.3124 49.2174 56.8204L45.9102 54.912C46.1855 54.4061 46.5867 53.9799 47.075 53.6744L62.5762 44.7824C63.0898 44.5232 63.6571 44.3882 64.2324 44.3882C64.8077 44.3882 65.3749 44.5232 65.8886 44.7824C66.3047 45.0518 66.6614 45.4034 66.9368 45.8156C67.2122 46.2279 67.4005 46.692 67.4902 47.1796Z" fill="white"/>
<path d="M58.3794 83.1377C56.2994 84.3389 54.6094 82.7113 54.6094 79.4977C54.6414 77.2665 55.3345 75.0949 56.601 73.2577V59.0877C56.601 57.5745 57.3966 55.8845 58.3794 55.3177C59.3622 54.7509 60.163 55.5205 60.163 57.0337V71.1985C61.3902 71.5053 62.1494 73.0081 62.1494 75.1609C62.1494 78.3589 60.4594 81.9417 58.3794 83.1377ZM58.3794 55.9209C57.615 56.3629 56.991 57.6837 56.991 58.8641V73.4241L56.8818 73.5697C55.6857 75.2398 55.0289 77.2357 54.9994 79.2897C54.9994 82.1601 56.5178 83.6213 58.3794 82.5449C60.241 81.4685 61.7594 78.2601 61.7594 75.3897C61.7594 73.4033 61.0418 72.0357 59.8822 71.8173H59.773V57.2573C59.7782 56.0769 59.149 55.4737 58.3794 55.9209Z" fill="#455A64"/>
<g opacity="0.7">
<path d="M58.38 55.9212C57.6156 56.3632 56.9916 57.684 56.9916 58.8644V73.4244L56.8824 73.57C55.6863 75.2401 55.0295 77.2359 55 79.29C55 82.1604 56.5184 83.6216 58.38 82.5452C60.2416 81.4688 61.76 78.2604 61.76 75.39C61.76 73.4036 61.0424 72.036 59.8828 71.8176H59.7736V57.2576C59.7788 56.0772 59.1496 55.474 58.38 55.9212Z" fill="white"/>
</g>
<path d="M58.8687 73.8402V58.7602C58.8687 58.3442 58.6503 58.131 58.3799 58.287C58.2235 58.4107 58.098 58.5691 58.0132 58.7495C57.9284 58.93 57.8866 59.1276 57.8911 59.327V74.407C56.7692 75.5891 56.1422 77.1557 56.1387 78.7854C56.1387 80.6938 57.1423 81.661 58.3799 80.9434C59.6175 80.2258 60.6211 78.1042 60.6211 76.1958C60.6211 74.5422 59.8723 73.5958 58.8687 73.8402Z" fill="#F28F8F"/>
<path d="M59.1336 68.739C59.1029 68.7382 59.0729 68.7303 59.0458 68.7159C59.0187 68.7014 58.9954 68.6809 58.9776 68.6558C58.9538 68.6134 58.9471 68.5634 58.9586 68.5162C58.9702 68.4689 58.9993 68.4277 59.04 68.401L59.8564 67.9122C59.8977 67.889 59.9464 67.8829 59.9922 67.895C60.038 67.9071 60.0772 67.9367 60.1016 67.9773C60.126 68.0179 60.1336 68.0664 60.1227 68.1125C60.1119 68.1586 60.0835 68.1987 60.0436 68.2242L59.2272 68.713C59.2001 68.7326 59.1669 68.7418 59.1336 68.739Z" fill="#455A64"/>
<path d="M59.1332 66.4664C59.1019 66.4659 59.0712 66.4576 59.0439 66.4421C59.0167 66.4267 58.9937 66.4046 58.9772 66.378C58.9537 66.3363 58.9471 66.2872 58.9587 66.2408C58.9703 66.1944 58.9993 66.1542 59.0396 66.1284L59.856 65.6396C59.8967 65.6144 59.9458 65.6062 59.9925 65.6169C60.0393 65.6276 60.0799 65.6563 60.1056 65.6968C60.1186 65.7171 60.1273 65.7398 60.1312 65.7636C60.1351 65.7874 60.1341 65.8117 60.1282 65.8351C60.1224 65.8585 60.1118 65.8804 60.0972 65.8995C60.0826 65.9187 60.0642 65.9346 60.0432 65.9464L59.2268 66.4664C59.1965 66.4771 59.1635 66.4771 59.1332 66.4664Z" fill="#455A64"/>
<path d="M59.1332 64.1941C59.1019 64.1936 59.0712 64.1853 59.0439 64.1698C59.0167 64.1544 58.9937 64.1323 58.9772 64.1057C58.9537 64.064 58.9471 64.0149 58.9587 63.9685C58.9703 63.9221 58.9993 63.8819 59.0396 63.8561L59.856 63.3361C59.898 63.3139 59.9467 63.3079 59.9928 63.3195C60.0388 63.331 60.079 63.3591 60.1056 63.3985C60.1186 63.4188 60.1273 63.4415 60.1312 63.4653C60.1351 63.4891 60.1341 63.5134 60.1282 63.5368C60.1224 63.5602 60.1118 63.5821 60.0972 63.6012C60.0826 63.6204 60.0642 63.6363 60.0432 63.6481L59.2268 64.1681C59.1985 64.1851 59.1662 64.1941 59.1332 64.1941Z" fill="#455A64"/>
<path d="M59.1332 61.9218C59.1019 61.9213 59.0712 61.913 59.0439 61.8975C59.0167 61.8821 58.9937 61.86 58.9772 61.8334C58.9537 61.7917 58.9471 61.7426 58.9587 61.6962C58.9703 61.6498 58.9993 61.6096 59.0396 61.5838L59.856 61.0638C59.8765 61.0507 59.8994 61.0419 59.9234 61.0378C59.9474 61.0337 59.972 61.0344 59.9957 61.04C60.0194 61.0455 60.0417 61.0558 60.0614 61.0702C60.081 61.0845 60.0976 61.1026 60.1101 61.1235C60.1226 61.1444 60.1308 61.1676 60.1342 61.1917C60.1377 61.2158 60.1362 61.2403 60.13 61.2638C60.1237 61.2873 60.1128 61.3094 60.0979 61.3286C60.083 61.3479 60.0644 61.3639 60.0432 61.3758L59.2268 61.8958C59.1985 61.9128 59.1662 61.9218 59.1332 61.9218Z" fill="#455A64"/>
<path d="M59.1331 59.6494C59.1017 59.6489 59.0711 59.6405 59.0438 59.6251C59.0165 59.6096 58.9936 59.5876 58.9771 59.561C58.9523 59.5196 58.9449 59.4701 58.9566 59.4233C58.9683 59.3765 58.9981 59.3362 59.0395 59.3114L59.8559 58.7914C59.8972 58.7682 59.9459 58.762 59.9917 58.7741C60.0375 58.7863 60.0767 58.8158 60.1011 58.8564C60.1254 58.897 60.133 58.9456 60.1222 58.9917C60.1114 59.0378 60.083 59.0779 60.0431 59.1034L59.2267 59.6234C59.1984 59.6404 59.1661 59.6494 59.1331 59.6494Z" fill="#455A64"/>
</svg>
