<svg width="285" height="224" viewBox="0 0 285 224" fill="none" xmlns="http://www.w3.org/2000/svg">
<g clip-path="url(#clip0_2138_190268)">
<path d="M254.443 196.161H235.602V196.303H254.443V196.161Z" fill="#EBEBEB"/>
<path d="M186.928 197.708H181.984V197.851H186.928V197.708Z" fill="#EBEBEB"/>
<path d="M235.032 190.882H224.115V191.024H235.032V190.882Z" fill="#EBEBEB"/>
<path d="M52.916 191.837H28.3457V191.98H52.916V191.837Z" fill="#EBEBEB"/>
<path d="M61.5854 191.837H57.9844V191.98H61.5854V191.837Z" fill="#EBEBEB"/>
<path d="M126.585 194.238H73.291V194.381H126.585V194.238Z" fill="#EBEBEB"/>
<path d="M134.124 161.635H24.2718C23.4103 161.635 22.584 161.293 21.9749 160.684C21.3657 160.075 21.0234 159.248 21.0234 158.387V3.97333C21.0309 3.11675 21.3765 2.29781 21.9849 1.69476C22.5932 1.09171 23.4152 0.753385 24.2718 0.753418H134.124C134.551 0.753418 134.973 0.837438 135.367 1.00068C135.761 1.16393 136.12 1.4032 136.421 1.70484C136.723 2.00648 136.962 2.36457 137.125 2.75868C137.289 3.15279 137.373 3.57519 137.373 4.00177V158.387C137.373 158.813 137.289 159.236 137.125 159.63C136.962 160.024 136.723 160.382 136.421 160.684C136.12 160.985 135.761 161.225 135.367 161.388C134.973 161.551 134.551 161.635 134.124 161.635ZM24.2718 0.867196C23.4485 0.8687 22.6593 1.19643 22.0771 1.77862C21.4949 2.36081 21.1672 3.14999 21.1657 3.97333V158.387C21.1672 159.21 21.4949 159.999 22.0771 160.582C22.6593 161.164 23.4485 161.491 24.2718 161.493H134.124C134.948 161.491 135.737 161.164 136.319 160.582C136.901 159.999 137.229 159.21 137.23 158.387V3.97333C137.229 3.14999 136.901 2.36081 136.319 1.77862C135.737 1.19643 134.948 0.8687 134.124 0.867196H24.2718Z" fill="#EBEBEB"/>
<path d="M257.175 161.635H147.323C146.461 161.635 145.635 161.293 145.026 160.684C144.416 160.075 144.074 159.248 144.074 158.387V3.97333C144.082 3.11675 144.427 2.29781 145.036 1.69476C145.644 1.09171 146.466 0.753385 147.323 0.753418H257.175C258.037 0.753418 258.863 1.09565 259.472 1.70484C260.081 2.31402 260.423 3.14026 260.423 4.00177V158.387C260.423 159.248 260.081 160.075 259.472 160.684C258.863 161.293 258.037 161.635 257.175 161.635ZM147.323 0.867196C146.499 0.8687 145.71 1.19643 145.128 1.77862C144.546 2.36081 144.218 3.14999 144.216 3.97333V158.387C144.218 159.21 144.546 159.999 145.128 160.582C145.71 161.164 146.499 161.491 147.323 161.493H257.175C257.998 161.491 258.788 161.164 259.37 160.582C259.952 159.999 260.28 159.21 260.281 158.387V3.97333C260.28 3.14999 259.952 2.36081 259.37 1.77862C258.788 1.19643 257.998 0.8687 257.175 0.867196H147.323Z" fill="#EBEBEB"/>
<path d="M282.944 187.008H-1.5V187.15H282.944V187.008Z" fill="#EBEBEB"/>
<path d="M85.5518 185.916H109.57L109.57 115.487H85.5518V185.916Z" fill="#EBEBEB"/>
<path d="M106.548 185.91H130.566L130.566 49.5413H106.548L106.548 185.91Z" fill="#F5F5F5"/>
<path d="M123.882 66.062H126.34V62.9331H123.882V66.062Z" fill="white"/>
<path d="M110.765 66.062H113.223V62.9331H110.765V66.062Z" fill="white"/>
<path d="M123.882 76.188H126.34V73.0591H123.882V76.188Z" fill="white"/>
<path d="M117.326 76.188H119.783V73.0591H117.326V76.188Z" fill="white"/>
<path d="M110.765 86.3198H113.223V83.1909H110.765V86.3198Z" fill="white"/>
<path d="M123.882 96.4521H126.34V93.3233H123.882V96.4521Z" fill="white"/>
<path d="M117.326 96.4521H119.783V93.3233H117.326V96.4521Z" fill="white"/>
<path d="M117.326 106.584H119.783V103.455H117.326V106.584Z" fill="white"/>
<path d="M110.765 106.584H113.223V103.455H110.765V106.584Z" fill="white"/>
<path d="M117.326 116.716H119.783V113.587H117.326V116.716Z" fill="white"/>
<path d="M110.765 116.716H113.223V113.587H110.765V116.716Z" fill="white"/>
<path d="M110.765 126.848H113.223V123.719H110.765V126.848Z" fill="white"/>
<path d="M117.326 136.974H119.783V133.845H117.326V136.974Z" fill="white"/>
<path d="M60.9283 185.916H87.6035L87.6035 59.2809H60.9283L60.9283 185.916Z" fill="#F5F5F5"/>
<path d="M87.6107 66.062H60.9355V68.6675H87.6107V66.062Z" fill="#E6E6E6"/>
<path d="M87.6107 73.3262H60.9355V75.9317H87.6107V73.3262Z" fill="#E6E6E6"/>
<path d="M87.6107 80.5913H60.9355V83.1968H87.6107V80.5913Z" fill="#E6E6E6"/>
<path d="M87.6107 87.8501H60.9355V90.4556H87.6107V87.8501Z" fill="#E6E6E6"/>
<path d="M87.6107 95.1152H60.9355V97.7207H87.6107V95.1152Z" fill="#E6E6E6"/>
<path d="M87.6107 102.379H60.9355V104.985H87.6107V102.379Z" fill="#E6E6E6"/>
<path d="M87.6107 109.645H60.9355V112.25H87.6107V109.645Z" fill="#E6E6E6"/>
<path d="M87.6107 116.909H60.9355V119.515H87.6107V116.909Z" fill="#E6E6E6"/>
<path d="M87.6107 124.174H60.9355V126.78H87.6107V124.174Z" fill="#E6E6E6"/>
<path d="M87.6107 131.438H60.9355V134.044H87.6107V131.438Z" fill="#E6E6E6"/>
<path d="M87.6107 138.703H60.9355V141.309H87.6107V138.703Z" fill="#E6E6E6"/>
<path d="M87.6107 145.968H60.9355V148.574H87.6107V145.968Z" fill="#E6E6E6"/>
<path d="M87.6107 153.232H60.9355V155.838H87.6107V153.232Z" fill="#E6E6E6"/>
<path d="M87.6107 160.498H60.9355V163.103H87.6107V160.498Z" fill="#E6E6E6"/>
<path d="M87.6107 167.762H60.9355V170.368H87.6107V167.762Z" fill="#E6E6E6"/>
<path d="M87.6107 175.026H60.9355V177.632H87.6107V175.026Z" fill="#E6E6E6"/>
<path d="M38.276 185.916H64.9512L64.9512 97.8458H38.276L38.276 185.916Z" fill="#F0F0F0"/>
<path d="M46.2818 103.455H43.8242V106.584H46.2818V103.455Z" fill="white"/>
<path d="M59.399 103.455H56.9414V106.584H59.399V103.455Z" fill="white"/>
<path d="M46.2818 113.587H43.8242V116.716H46.2818V113.587Z" fill="white"/>
<path d="M52.8404 113.587H50.3828V116.716H52.8404V113.587Z" fill="white"/>
<path d="M59.399 123.719H56.9414V126.848H59.399V123.719Z" fill="white"/>
<path d="M46.2818 133.851H43.8242V136.979H46.2818V133.851Z" fill="white"/>
<path d="M52.8404 133.851H50.3828V136.979H52.8404V133.851Z" fill="white"/>
<path d="M52.8404 143.982H50.3828V147.111H52.8404V143.982Z" fill="white"/>
<path d="M59.399 143.982H56.9414V147.111H59.399V143.982Z" fill="white"/>
<path d="M52.8404 154.109H50.3828V157.238H52.8404V154.109Z" fill="white"/>
<path d="M59.399 154.109H56.9414V157.238H59.399V154.109Z" fill="white"/>
<path d="M59.399 164.241H56.9414V167.37H59.399V164.241Z" fill="white"/>
<path d="M52.8404 174.373H50.3828V177.501H52.8404V174.373Z" fill="white"/>
<path d="M186.222 185.916H210.65V108.689H186.222V185.916Z" fill="#E0E0E0"/>
<path d="M230.651 185.916H252.65V142.964H230.651V185.916Z" fill="#EBEBEB"/>
<path d="M210.65 185.916H232.648V102.755H210.65V185.916Z" fill="#F5F5F5"/>
<path d="M226.527 112.825H228.779V110.919H226.527V112.825Z" fill="white"/>
<path d="M214.519 112.825H216.771V110.919H214.519V112.825Z" fill="white"/>
<path d="M226.527 119.003H228.779V117.097H226.527V119.003Z" fill="white"/>
<path d="M220.525 119.003H222.777V117.097H220.525V119.003Z" fill="white"/>
<path d="M214.519 125.181H216.771V123.275H214.519V125.181Z" fill="white"/>
<path d="M226.527 131.359H228.779V129.453H226.527V131.359Z" fill="white"/>
<path d="M220.525 131.359H222.777V129.453H220.525V131.359Z" fill="white"/>
<path d="M220.525 137.537H222.777V135.631H220.525V137.537Z" fill="white"/>
<path d="M214.519 137.537H216.771V135.631H214.519V137.537Z" fill="white"/>
<path d="M220.525 143.715H222.777V141.81H220.525V143.715Z" fill="white"/>
<path d="M214.519 143.715H216.771V141.81H214.519V143.715Z" fill="white"/>
<path d="M214.519 149.894H216.771V147.988H214.519V149.894Z" fill="white"/>
<path d="M220.525 156.072H222.777V154.166H220.525V156.072Z" fill="white"/>
<path d="M203.312 119.003H205.564V117.097H203.312V119.003Z" fill="white"/>
<path d="M191.296 119.003H193.549V117.097H191.296V119.003Z" fill="white"/>
<path d="M203.312 125.181H205.564V123.275H203.312V125.181Z" fill="white"/>
<path d="M197.302 125.181H199.555V123.275H197.302V125.181Z" fill="white"/>
<path d="M191.296 131.359H193.549V129.453H191.296V131.359Z" fill="white"/>
<path d="M203.312 137.537H205.564V135.631H203.312V137.537Z" fill="white"/>
<path d="M197.302 137.537H199.555V135.631H197.302V137.537Z" fill="white"/>
<path d="M197.302 143.715H199.555V141.81H197.302V143.715Z" fill="white"/>
<path d="M191.296 143.715H193.549V141.81H191.296V143.715Z" fill="white"/>
<path d="M197.302 149.894H199.555V147.988H197.302V149.894Z" fill="white"/>
<path d="M191.296 149.894H193.549V147.988H191.296V149.894Z" fill="white"/>
<path d="M191.296 156.072H193.549V154.166H191.296V156.072Z" fill="white"/>
<path d="M197.302 162.25H199.555V160.344H197.302V162.25Z" fill="white"/>
<path d="M165.468 185.916H189.896V132.207H165.468V185.916Z" fill="#F0F0F0"/>
<path d="M172.802 135.631H170.549V137.537H172.802V135.631Z" fill="white"/>
<path d="M184.817 135.631H182.564V137.537H184.817V135.631Z" fill="white"/>
<path d="M172.802 141.81H170.549V143.715H172.802V141.81Z" fill="white"/>
<path d="M178.808 141.81H176.555V143.715H178.808V141.81Z" fill="white"/>
<path d="M184.817 147.988H182.564V149.894H184.817V147.988Z" fill="white"/>
<path d="M172.802 154.166H170.549V156.071H172.802V154.166Z" fill="white"/>
<path d="M178.808 154.166H176.555V156.071H178.808V154.166Z" fill="white"/>
<path d="M178.808 160.344H176.555V162.25H178.808V160.344Z" fill="white"/>
<path d="M184.817 160.344H182.564V162.25H184.817V160.344Z" fill="white"/>
<path d="M178.808 166.522H176.555V168.428H178.808V166.522Z" fill="white"/>
<path d="M184.817 166.522H182.564V168.428H184.817V166.522Z" fill="white"/>
<path d="M184.817 172.7H182.564V174.606H184.817V172.7Z" fill="white"/>
<path d="M178.808 178.878H176.555V180.784H178.808V178.878Z" fill="white"/>
<path d="M157.471 74.834H155.65C154.896 74.834 154.285 75.4453 154.285 76.1993V184.55C154.285 185.304 154.896 185.915 155.65 185.915H157.471C158.225 185.915 158.836 185.304 158.836 184.55V76.1993C158.836 75.4453 158.225 74.834 157.471 74.834Z" fill="#EBEBEB"/>
<path d="M232.523 41.3096H169.365C167.087 41.3096 165.24 43.1561 165.24 45.434V68.0872C165.24 70.365 167.087 72.2116 169.365 72.2116H232.523C234.801 72.2116 236.647 70.365 236.647 68.0872V45.434C236.647 43.1561 234.801 41.3096 232.523 41.3096Z" fill="#E0E0E0"/>
<path d="M232.525 43.0161H169.367C168.032 43.0161 166.949 44.0986 166.949 45.4339V68.0871C166.949 69.4224 168.032 70.5048 169.367 70.5048H232.525C233.86 70.5048 234.943 69.4224 234.943 68.0871V45.4339C234.943 44.0986 233.86 43.0161 232.525 43.0161Z" fill="#F5F5F5"/>
<path d="M157.983 80.6369H155.139V44.393C155.14 41.8592 156.148 39.4297 157.94 37.6386C159.732 35.8475 162.162 34.8413 164.696 34.8413H234.237C234.614 34.8413 234.976 34.9911 235.243 35.2579C235.509 35.5246 235.659 35.8863 235.659 36.2635C235.659 36.6407 235.509 37.0025 235.243 37.2692C234.976 37.5359 234.614 37.6858 234.237 37.6858H164.696C163.815 37.685 162.942 37.8579 162.128 38.1947C161.313 38.5314 160.573 39.0253 159.95 39.6482C159.326 40.2711 158.832 41.0108 158.494 41.8249C158.157 42.639 157.983 43.5117 157.983 44.393V80.6369Z" fill="#EBEBEB"/>
<path d="M202.355 36.2632H200.916V43.0216H202.355V36.2632Z" fill="#EBEBEB"/>
<path d="M171.465 36.2637H170.025V43.0221H171.465V36.2637Z" fill="#EBEBEB"/>
<path d="M233.248 36.2632H231.809V43.0216H233.248V36.2632Z" fill="#EBEBEB"/>
<path d="M181.882 64.4691H179.362V58.5982C179.361 57.9858 179.118 57.3988 178.685 56.9655L174.947 53.2279L176.728 51.4473L180.465 55.1849C180.916 55.6318 181.273 56.1637 181.516 56.7496C181.759 57.3355 181.883 57.9638 181.882 58.5982V64.4691Z" fill="#E0E0E0"/>
<path d="M174.103 55.7822L172.863 49.0693L179.576 50.3152L174.103 55.7822Z" fill="#E0E0E0"/>
<path d="M218.966 64.4691H221.504V58.5982C221.504 57.9858 221.748 57.3988 222.181 56.9655L225.918 53.2279L224.138 51.4473L220.366 55.1849C219.915 55.6311 219.557 56.1628 219.314 56.7489C219.071 57.335 218.947 57.9637 218.949 58.5982L218.966 64.4691Z" fill="#E0E0E0"/>
<path d="M226.744 55.7822L227.985 49.0693L221.277 50.3152L226.744 55.7822Z" fill="#E0E0E0"/>
<path d="M204.29 54.9232L200.421 49.2969L196.559 54.9232H199.164V64.4293H201.684V54.9232H204.29Z" fill="#E0E0E0"/>
<path d="M23.2121 183.179H33.9698C34.5114 183.179 35.0309 183.394 35.4139 183.777C35.7969 184.16 36.0121 184.68 36.0121 185.222V187.446H21.1641V185.222C21.1641 184.953 21.2171 184.687 21.3201 184.439C21.4231 184.19 21.574 183.965 21.7643 183.775C21.9545 183.586 22.1803 183.435 22.4288 183.333C22.6772 183.231 22.9434 183.178 23.2121 183.179Z" fill="#E0E0E0"/>
<path d="M38.0597 183.179H48.8174C49.3551 183.185 49.8687 183.403 50.2468 183.785C50.6249 184.167 50.837 184.683 50.837 185.221V187.445H36.0117V185.221C36.0117 184.952 36.0647 184.686 36.1677 184.438C36.2707 184.19 36.4217 183.965 36.6119 183.775C36.8022 183.585 37.028 183.435 37.2764 183.333C37.5249 183.23 37.791 183.178 38.0597 183.179Z" fill="#F5F5F5"/>
<path d="M52.9086 183.179H63.6663C64.208 183.179 64.7275 183.394 65.1105 183.777C65.4935 184.16 65.7086 184.68 65.7086 185.221V187.446H50.8379V185.221C50.8379 184.951 50.8916 184.683 50.996 184.433C51.1004 184.183 51.2534 183.957 51.4461 183.767C51.6388 183.577 51.8673 183.427 52.1184 183.326C52.3694 183.225 52.6381 183.175 52.9086 183.179Z" fill="#E0E0E0"/>
<path d="M67.757 183.179H78.5147C79.0563 183.179 79.5758 183.394 79.9588 183.777C80.3418 184.16 80.557 184.68 80.557 185.222V187.446H65.709V185.222C65.709 184.953 65.762 184.687 65.865 184.439C65.968 184.19 66.1189 183.965 66.3092 183.775C66.4994 183.586 66.7252 183.435 66.9737 183.333C67.2221 183.231 67.4883 183.178 67.757 183.179Z" fill="#F5F5F5"/>
<path d="M82.6027 183.179H93.3604C93.902 183.179 94.4215 183.394 94.8045 183.777C95.1875 184.16 95.4027 184.679 95.4027 185.221V187.445H80.5547V185.221C80.5547 184.952 80.6077 184.686 80.7107 184.438C80.8137 184.19 80.9646 183.965 81.1549 183.775C81.3451 183.585 81.5709 183.435 81.8194 183.333C82.0678 183.23 82.334 183.178 82.6027 183.179Z" fill="#E0E0E0"/>
<path d="M97.4464 183.179H108.204C108.746 183.179 109.265 183.394 109.648 183.777C110.031 184.16 110.246 184.679 110.246 185.221V187.445H95.3984V185.221C95.3984 184.952 95.4515 184.686 95.5544 184.438C95.6574 184.19 95.8084 183.965 95.9986 183.775C96.1889 183.585 96.4147 183.435 96.6631 183.333C96.9116 183.23 97.1778 183.178 97.4464 183.179Z" fill="#F5F5F5"/>
<path d="M112.277 183.179H123.034C123.576 183.179 124.095 183.394 124.478 183.777C124.861 184.16 125.077 184.679 125.077 185.221V187.445H110.229V185.221C110.229 184.952 110.282 184.686 110.385 184.438C110.488 184.19 110.638 183.965 110.829 183.775C111.019 183.585 111.245 183.435 111.493 183.333C111.742 183.23 112.008 183.178 112.277 183.179Z" fill="#E0E0E0"/>
<path d="M127.143 183.179H137.878C138.42 183.179 138.939 183.394 139.322 183.777C139.705 184.16 139.92 184.68 139.92 185.221V187.446H125.072V185.221C125.072 184.951 125.126 184.683 125.23 184.433C125.335 184.183 125.488 183.957 125.68 183.767C125.873 183.577 126.102 183.427 126.353 183.326C126.604 183.225 126.872 183.175 127.143 183.179Z" fill="#F5F5F5"/>
<path d="M141.989 183.179H152.747C153.289 183.179 153.808 183.394 154.191 183.777C154.574 184.16 154.789 184.679 154.789 185.221V187.445H139.941V185.221C139.941 184.952 139.994 184.686 140.097 184.438C140.2 184.19 140.351 183.965 140.542 183.775C140.732 183.585 140.958 183.435 141.206 183.333C141.455 183.23 141.721 183.178 141.989 183.179Z" fill="#E0E0E0"/>
<path d="M156.839 183.179H167.597C168.138 183.179 168.658 183.394 169.041 183.777C169.424 184.16 169.639 184.679 169.639 185.221V187.445H154.791V185.221C154.791 184.952 154.844 184.686 154.947 184.438C155.05 184.19 155.201 183.965 155.391 183.775C155.581 183.585 155.807 183.435 156.056 183.333C156.304 183.23 156.57 183.178 156.839 183.179Z" fill="#F5F5F5"/>
<path d="M171.687 183.179H182.444C182.986 183.179 183.505 183.394 183.888 183.777C184.272 184.16 184.487 184.68 184.487 185.221V187.446H169.639V185.221C169.639 184.953 169.692 184.687 169.795 184.438C169.898 184.19 170.049 183.965 170.239 183.775C170.429 183.585 170.655 183.435 170.903 183.333C171.152 183.23 171.418 183.178 171.687 183.179Z" fill="#E0E0E0"/>
<path d="M186.534 183.179H197.292C197.834 183.179 198.353 183.394 198.736 183.777C199.119 184.16 199.334 184.679 199.334 185.221V187.445H184.486V185.221C184.486 184.952 184.539 184.686 184.642 184.438C184.745 184.19 184.896 183.965 185.087 183.775C185.277 183.585 185.503 183.435 185.751 183.333C185.999 183.23 186.266 183.178 186.534 183.179Z" fill="#F5F5F5"/>
<path d="M201.381 183.179H212.139C212.681 183.179 213.2 183.394 213.583 183.777C213.966 184.16 214.181 184.679 214.181 185.221V187.446H199.316V185.221C199.316 184.951 199.37 184.684 199.474 184.434C199.578 184.185 199.731 183.959 199.923 183.769C200.115 183.579 200.342 183.429 200.593 183.328C200.843 183.226 201.111 183.176 201.381 183.179Z" fill="#E0E0E0"/>
<path d="M216.232 183.179H226.989C227.531 183.179 228.05 183.394 228.433 183.777C228.816 184.16 229.032 184.68 229.032 185.222V187.446H214.184V185.222C214.184 184.953 214.237 184.687 214.34 184.439C214.443 184.19 214.594 183.965 214.784 183.775C214.974 183.586 215.2 183.435 215.448 183.333C215.697 183.231 215.963 183.178 216.232 183.179Z" fill="#F5F5F5"/>
<path d="M231.077 183.179H241.835C242.377 183.179 242.896 183.394 243.279 183.777C243.662 184.16 243.877 184.679 243.877 185.221V187.445H229.029V185.221C229.029 184.952 229.082 184.686 229.185 184.438C229.288 184.19 229.439 183.965 229.629 183.775C229.82 183.585 230.046 183.435 230.294 183.333C230.542 183.23 230.809 183.178 231.077 183.179Z" fill="#E0E0E0"/>
<path d="M245.927 183.179H256.685C257.226 183.179 257.746 183.394 258.129 183.777C258.512 184.16 258.727 184.679 258.727 185.221V187.445H243.879V185.221C243.879 184.952 243.932 184.686 244.035 184.438C244.138 184.19 244.289 183.965 244.479 183.775C244.669 183.585 244.895 183.435 245.144 183.333C245.392 183.23 245.658 183.178 245.927 183.179Z" fill="#F5F5F5"/>
<path d="M193.493 29.1978C193.493 30.6484 204.836 29.1978 217.824 29.1978C230.812 29.1978 227.837 20.8465 225.612 19.5266C223.246 18.1499 220.168 19.5266 220.168 19.5266C220.168 19.5266 221.22 14.6854 217.062 13.7354C213.648 12.9503 211.76 17.3535 211.76 17.3535C211.76 17.3535 210.008 14.401 206.884 15.425C203.642 16.4888 204.723 20.2946 203.426 21.4495C202.128 22.6043 196.303 22.3711 196.303 23.2472C196.303 24.493 201.184 24.2143 201.184 24.9994C201.184 26.5069 188.885 24.9994 188.885 26.7515C188.885 28.2534 199.938 26.6833 199.938 27.7698C199.938 28.5549 193.493 28.2534 193.493 29.1978Z" fill="#F5F5F5"/>
<path d="M81.6081 38.4596C81.6081 40.3028 95.9839 38.4596 112.442 38.4596C128.9 38.4596 125.128 27.8783 122.312 26.2342C119.314 24.4877 115.417 26.2342 115.417 26.2342C115.417 26.2342 116.748 20.1016 111.475 18.8956C107.117 17.9057 104.756 23.5093 104.756 23.5093C104.756 23.5093 102.532 19.7603 98.5781 21.063C94.4707 22.4113 95.8417 27.2298 94.1976 28.6975C92.5535 30.1653 85.1694 29.767 85.1694 30.9048C85.1694 32.4806 91.3532 32.1279 91.3532 33.1235C91.3532 35.0349 75.7656 33.1235 75.7656 35.3478C75.7656 37.2479 89.7774 35.2625 89.7774 36.6392C89.7774 37.6234 81.6081 37.2422 81.6081 38.4596Z" fill="#F5F5F5"/>
<path d="M40.1943 38.6923C40.1943 40.0121 50.4855 38.6923 62.2672 38.6923C74.0489 38.6923 71.3694 31.1204 69.3328 29.9428C67.1824 28.6913 64.3949 29.9428 64.3949 29.9428C64.3949 29.9428 65.3506 25.551 61.5504 24.6863C58.4329 23.9752 56.7433 27.9745 56.7433 27.9745C56.7433 27.9745 55.1504 25.2893 52.323 26.2223C49.3819 27.1894 50.3604 30.6369 49.1828 31.6893C48.0052 32.7417 42.7202 32.4573 42.7202 33.2822C42.7202 34.42 47.1518 34.1526 47.1518 34.8637C47.1518 36.2347 35.9902 34.8637 35.9902 36.4566C35.9902 37.8219 46.0254 36.3997 46.0254 37.3839C46.0482 38.095 40.1943 37.8219 40.1943 38.6923Z" fill="#F5F5F5"/>
<path d="M140.722 212.386C201.64 212.386 251.024 209.503 251.024 205.946C251.024 202.39 201.64 199.506 140.722 199.506C79.8038 199.506 30.4199 202.39 30.4199 205.946C30.4199 209.503 79.8038 212.386 140.722 212.386Z" fill="#F5F5F5"/>
<path d="M110.924 165.02L69.7363 108.575L116.601 138.351L108.153 60.9707L138.128 127.224L155.678 69.4699L159.507 129.766L203.528 91.6623L175.487 143.903L226.539 128.196L164.03 170.596L139.602 174.657L110.924 165.02Z" fill="#FFCF08"/>
<path opacity="0.6" d="M110.924 165.02L69.7363 108.575L116.601 138.351L108.153 60.9707L138.128 127.224L155.678 69.4699L159.507 129.766L203.528 91.6623L175.487 143.903L226.539 128.196L164.03 170.596L139.602 174.657L110.924 165.02Z" fill="white"/>
<path d="M165.428 152.169L186.477 112.962L155.2 140.035L152.469 97.0384L139.038 141.235L116.436 91.2812L122.636 148.051L89.1289 126.763L113.995 160.828L140.005 169.572L162.146 165.897L196.45 142.629L165.428 152.169Z" fill="#FFCF08"/>
<path d="M247.814 159.55L253.74 157.688C253.874 157.646 254.019 157.659 254.144 157.723C254.268 157.788 254.362 157.9 254.404 158.034L254.492 158.316C254.534 158.45 254.522 158.595 254.457 158.72C254.392 158.844 254.28 158.937 254.146 158.979L249.462 160.451C249.131 160.555 248.773 160.523 248.465 160.363C248.157 160.202 247.926 159.926 247.822 159.595L247.807 159.546L247.814 159.55Z" fill="#263238"/>
<path d="M147.101 192.031L173.19 185.119L167.541 177.024L156.897 173.406L151.02 175.255L146.48 181.621L146.543 188.214L147.101 192.031Z" fill="#263238"/>
<path d="M217.824 171.096L242.344 162.107L243.527 159.889L240.426 154.45L230.795 150.622L222.467 151.998L216.658 161.271L216.709 169.611L217.824 171.096Z" fill="#263238"/>
<path d="M147.101 192.031L173.19 185.119L167.541 177.024L156.897 173.406L151.02 175.255L146.48 181.621L146.543 188.214L147.101 192.031Z" fill="black"/>
<path d="M217.824 171.096L242.344 162.107L243.527 159.889L240.426 154.45L230.795 150.622L222.467 151.998L216.658 161.271L216.709 169.611L217.824 171.096Z" fill="black"/>
<path d="M139.256 181.831L142.732 186.536L143.261 191.388L142.493 196.224L143.659 195.854L146.339 193.459L145.411 184.618L141.987 180.978L139.256 181.831Z" fill="#FFCF08"/>
<path opacity="0.6" d="M139.256 181.831L142.732 186.536L143.261 191.388L142.493 196.224L143.659 195.854L146.339 193.459L145.411 184.618L141.987 180.978L139.256 181.831Z" fill="black"/>
<path d="M250.053 149.837L244.706 144.603C243.539 143.458 242.071 142.669 240.473 142.327L220.613 131.029C217.962 129.517 215.027 128.57 211.992 128.246C208.957 127.922 205.888 128.228 202.978 129.146L174.687 138.032C172.872 138.603 171.209 139.576 169.821 140.878C168.433 142.18 167.357 143.778 166.671 145.553L161.471 159.03L148.387 164.577C145.356 165.862 142.774 168.016 140.965 170.766C139.156 173.517 138.201 176.741 138.221 180.033L139.222 181.848L143.955 184.653L144.706 190.939L143.682 195.854L146.897 194.847C147.194 194.753 147.469 194.6 147.705 194.397C147.942 194.194 148.135 193.945 148.273 193.666C148.411 193.386 148.491 193.082 148.509 192.771C148.527 192.46 148.481 192.148 148.376 191.855C148.273 191.582 148.182 191.286 148.103 191.013C147.306 188.05 147.697 184.893 149.193 182.214C150.69 179.536 153.173 177.548 156.114 176.673C159.055 175.799 162.221 176.107 164.938 177.533C167.655 178.958 169.708 181.389 170.659 184.306V184.334C170.893 185.063 171.406 185.67 172.086 186.022C172.766 186.374 173.558 186.442 174.289 186.211L217.996 172.484C218.351 172.375 218.68 172.197 218.966 171.96C219.251 171.723 219.487 171.432 219.659 171.104C219.832 170.776 219.937 170.416 219.97 170.047C220.003 169.677 219.963 169.305 219.851 168.951C219.802 168.8 219.756 168.646 219.714 168.491C218.873 165.515 219.237 162.327 220.728 159.618C222.219 156.909 224.717 154.895 227.681 154.014C230.646 153.132 233.838 153.453 236.567 154.907C239.296 156.361 241.343 158.832 242.265 161.783C242.299 161.886 242.322 161.983 242.35 162.085L249.888 159.718C250.555 159.511 251.142 159.104 251.57 158.553C251.998 158.002 252.247 157.332 252.283 156.635V156.259C252.31 155.786 252.25 155.312 252.107 154.86L251.032 151.447C250.841 150.838 250.505 150.286 250.053 149.837Z" fill="#FFCF08"/>
<path opacity="0.3" d="M250.053 149.837L244.706 144.603C243.539 143.458 242.071 142.669 240.473 142.327L220.613 131.029C217.962 129.517 215.027 128.57 211.992 128.246C208.957 127.922 205.888 128.228 202.978 129.146L174.687 138.032C172.872 138.603 171.209 139.576 169.821 140.878C168.433 142.18 167.357 143.778 166.671 145.553L161.471 159.03L148.387 164.577C145.356 165.862 142.774 168.016 140.965 170.766C139.156 173.517 138.201 176.741 138.221 180.033L139.222 181.848L143.955 184.653L144.706 190.939L143.682 195.854L146.897 194.847C147.194 194.753 147.469 194.6 147.705 194.397C147.942 194.194 148.135 193.945 148.273 193.666C148.411 193.386 148.491 193.082 148.509 192.771C148.527 192.46 148.481 192.148 148.376 191.855C148.273 191.582 148.182 191.286 148.103 191.013C147.306 188.05 147.697 184.893 149.193 182.214C150.69 179.536 153.173 177.548 156.114 176.673C159.055 175.799 162.221 176.107 164.938 177.533C167.655 178.958 169.708 181.389 170.659 184.306V184.334C170.893 185.063 171.406 185.67 172.086 186.022C172.766 186.374 173.558 186.442 174.289 186.211L217.996 172.484C218.351 172.375 218.68 172.197 218.966 171.96C219.251 171.723 219.487 171.432 219.659 171.104C219.832 170.776 219.937 170.416 219.97 170.047C220.003 169.677 219.963 169.305 219.851 168.951C219.802 168.8 219.756 168.646 219.714 168.491C218.873 165.515 219.237 162.327 220.728 159.618C222.219 156.909 224.717 154.895 227.681 154.014C230.646 153.132 233.838 153.453 236.567 154.907C239.296 156.361 241.343 158.832 242.265 161.783C242.299 161.886 242.322 161.983 242.35 162.085L249.888 159.718C250.555 159.511 251.142 159.104 251.57 158.553C251.998 158.002 252.247 157.332 252.283 156.635V156.259C252.31 155.786 252.25 155.312 252.107 154.86L251.032 151.447C250.841 150.838 250.505 150.286 250.053 149.837Z" fill="black"/>
<g opacity="0.2">
<path d="M172.985 183.572C172.832 183.617 172.667 183.601 172.525 183.528C172.383 183.455 172.275 183.33 172.223 183.179C171.03 179.913 168.625 177.232 165.507 175.693C162.39 174.153 158.799 173.874 155.481 174.913C154.414 175.245 153.393 175.709 152.443 176.296C152.029 176.556 151.547 176.686 151.059 176.671C150.57 176.656 150.097 176.495 149.701 176.21C149.701 176.5 149.775 176.893 149.82 177.166C149.985 178.207 150.173 179.385 149.251 179.703C148.534 179.954 148.113 179.242 147.801 178.685C147.876 179.5 148.038 180.305 148.284 181.086C148.329 181.238 148.314 181.402 148.24 181.543C148.167 181.684 148.042 181.791 147.892 181.842C147.814 181.87 147.732 181.881 147.65 181.876C147.567 181.87 147.487 181.848 147.414 181.811C147.341 181.774 147.275 181.722 147.223 181.659C147.17 181.596 147.13 181.523 147.107 181.444C146.538 179.567 146.191 177.462 147.311 176.984C147.948 176.699 148.381 177.251 148.682 177.758C148.682 177.61 148.637 177.473 148.62 177.354C148.46 176.33 148.273 175.158 149.189 174.805C149.398 174.743 149.622 174.743 149.831 174.804C150.041 174.866 150.229 174.987 150.372 175.152C150.575 175.322 150.826 175.423 151.09 175.44C151.354 175.458 151.616 175.391 151.84 175.249C152.877 174.615 153.987 174.109 155.145 173.741C158.766 172.609 162.684 172.914 166.085 174.594C169.487 176.274 172.111 179.2 173.412 182.764C173.44 182.845 173.451 182.931 173.444 183.016C173.438 183.101 173.414 183.185 173.374 183.26C173.334 183.336 173.279 183.403 173.212 183.456C173.145 183.51 173.068 183.549 172.985 183.572Z" fill="white"/>
</g>
<path opacity="0.6" d="M138.252 180.017L139.777 180.841C139.777 180.841 143.759 168.019 149.943 165.385L163.027 159.838L161.508 159.013L148.424 164.56C145.392 165.845 142.808 167.998 140.998 170.748C139.188 173.499 138.233 176.724 138.252 180.017Z" fill="black"/>
<path d="M131.223 160.253L131.9 161.846C131.9 161.846 142.999 154.268 149.467 156.06L163.154 159.843L162.477 158.245L148.79 154.467C145.618 153.591 142.257 153.673 139.131 154.702C136.005 155.732 133.253 157.663 131.223 160.253Z" fill="#FFCF08"/>
<path opacity="0.3" d="M131.223 160.253L131.9 161.846C131.9 161.846 142.999 154.268 149.467 156.06L163.154 159.843L162.477 158.245L148.79 154.467C145.618 153.591 142.257 153.673 139.131 154.702C136.005 155.732 133.253 157.663 131.223 160.253Z" fill="black"/>
<path opacity="0.6" d="M146.031 176.006C146.549 177.655 146.321 179.191 145.519 179.419C144.717 179.647 143.653 178.543 143.135 176.899C142.618 175.255 142.851 173.713 143.647 173.485C144.444 173.258 145.519 174.362 146.031 176.006Z" fill="black"/>
<path opacity="0.5" d="M143.914 173.457C143.64 173.705 143.464 174.045 143.419 174.413L144.381 174.93L144.552 175.966L145.428 176.905L144.29 176.182L143.971 175.158L143.34 175.13C143.351 175.684 143.443 176.234 143.613 176.762C144.074 178.23 144.973 179.282 145.735 179.317C146.338 178.856 146.474 177.479 146.008 176.006C145.541 174.532 144.671 173.485 143.914 173.457Z" fill="white"/>
<path d="M251.644 152.322L245.077 154.385C244.379 154.605 243.99 155.349 244.21 156.047L244.404 156.666C244.624 157.364 245.368 157.753 246.066 157.533L252.633 155.47C253.332 155.251 253.72 154.507 253.5 153.808L253.306 153.19C253.087 152.491 252.343 152.103 251.644 152.322Z" fill="#263238"/>
<path opacity="0.4" d="M251.644 152.322L245.077 154.385C244.379 154.605 243.99 155.349 244.21 156.047L244.404 156.666C244.624 157.364 245.368 157.753 246.066 157.533L252.633 155.47C253.332 155.251 253.72 154.507 253.5 153.808L253.306 153.19C253.087 152.491 252.343 152.103 251.644 152.322Z" fill="white"/>
<g opacity="0.2">
<path d="M217.075 167.29C216.992 167.301 216.907 167.295 216.827 167.272C216.746 167.249 216.671 167.209 216.606 167.156C216.542 167.103 216.489 167.036 216.451 166.962C216.413 166.887 216.391 166.805 216.387 166.721C216.067 163.412 216.877 160.091 218.683 157.3C220.49 154.509 223.188 152.41 226.338 151.346C229.488 150.282 232.906 150.315 236.035 151.44C239.164 152.564 241.821 154.714 243.574 157.539C243.614 157.609 243.641 157.686 243.651 157.766C243.661 157.846 243.656 157.927 243.635 158.005C243.614 158.083 243.577 158.156 243.528 158.219C243.478 158.283 243.416 158.336 243.346 158.376C243.208 158.453 243.044 158.473 242.892 158.431C242.739 158.39 242.608 158.29 242.527 158.154C240.915 155.571 238.477 153.608 235.61 152.583C232.742 151.559 229.612 151.533 226.728 152.511C223.844 153.488 221.375 155.411 219.721 157.968C218.067 160.524 217.325 163.565 217.615 166.596C217.628 166.678 217.624 166.761 217.603 166.841C217.583 166.92 217.546 166.995 217.495 167.06C217.445 167.125 217.381 167.179 217.309 167.219C217.237 167.258 217.157 167.283 217.075 167.29Z" fill="white"/>
</g>
<path d="M203.545 148.369L224.714 141.719C224.96 141.641 225.178 141.493 225.342 141.293C225.506 141.093 225.608 140.849 225.636 140.592C225.663 140.335 225.616 140.076 225.498 139.845C225.381 139.615 225.199 139.424 224.975 139.295L217.859 135.239C215.845 134.091 213.617 133.372 211.312 133.125C209.008 132.878 206.678 133.11 204.467 133.805L198.687 135.62C198.512 135.674 198.351 135.764 198.213 135.884C198.075 136.004 197.963 136.151 197.884 136.316C197.806 136.481 197.762 136.661 197.757 136.843C197.751 137.026 197.783 137.208 197.851 137.378L201.913 147.618C202.041 147.925 202.28 148.173 202.582 148.312C202.885 148.451 203.229 148.472 203.545 148.369Z" fill="#263238"/>
<path d="M192.997 137.406L176.18 142.691C175.125 143.022 174.158 143.586 173.351 144.343C172.544 145.099 171.919 146.028 171.521 147.06L167.539 157.426C167.45 157.659 167.428 157.913 167.476 158.158C167.524 158.403 167.641 158.629 167.812 158.812C167.982 158.994 168.201 159.124 168.443 159.188C168.684 159.252 168.939 159.246 169.177 159.172L197.093 150.4C197.429 150.294 197.709 150.059 197.873 149.746C198.036 149.434 198.068 149.069 197.963 148.733L194.681 138.277C194.628 138.109 194.542 137.953 194.428 137.818C194.315 137.683 194.176 137.572 194.02 137.492C193.863 137.411 193.692 137.362 193.517 137.347C193.341 137.332 193.164 137.352 192.997 137.406Z" fill="#263238"/>
<path opacity="0.2" d="M167.114 163.843L167.842 165.151L167.575 167.233L168.502 168.724L167.996 171.978L173.446 180.739C173.77 181.26 174.258 181.659 174.834 181.872C175.41 182.086 176.04 182.101 176.626 181.916L205.247 172.928C205.837 172.742 206.328 172.33 206.614 171.781C206.9 171.233 206.957 170.594 206.771 170.004L201.435 153.017C201.252 152.432 200.844 151.942 200.302 151.656C199.76 151.369 199.126 151.308 198.539 151.486L168.434 160.589C168.114 160.689 167.82 160.859 167.573 161.087C167.326 161.314 167.133 161.594 167.007 161.904C166.881 162.215 166.825 162.551 166.843 162.886C166.862 163.221 166.954 163.548 167.114 163.843Z" fill="black"/>
<path opacity="0.2" d="M146.412 171.887L152.334 166.596L163.985 162.938L152.09 168.388L146.412 171.887Z" fill="white"/>
<path opacity="0.2" d="M151.584 171.045L158.399 170.112L165.783 168.655L158.906 171.739L151.584 171.045Z" fill="white"/>
<path opacity="0.2" d="M148.238 172.098L152.744 173.036L150.537 173.73L148.238 172.098Z" fill="black"/>
<path opacity="0.3" d="M170.782 163.598L168.996 164.787L170.993 165.237C171.104 165.261 171.221 165.25 171.325 165.203C171.43 165.157 171.517 165.079 171.573 164.979C171.63 164.88 171.653 164.766 171.64 164.652C171.627 164.539 171.577 164.432 171.499 164.349L170.782 163.598Z" fill="black"/>
<path opacity="0.3" d="M169.316 168.473L171.319 167.404C171.39 167.363 171.473 167.346 171.554 167.353C171.636 167.361 171.714 167.394 171.776 167.448C171.838 167.501 171.882 167.573 171.902 167.653C171.923 167.732 171.917 167.816 171.888 167.893L171.637 168.553L172.423 170.095C172.462 170.176 172.473 170.269 172.453 170.357C172.433 170.445 172.383 170.524 172.312 170.581C172.241 170.637 172.153 170.667 172.063 170.667C171.972 170.667 171.884 170.635 171.814 170.578L169.316 168.473Z" fill="black"/>
<path d="M200.713 153.114C200.85 153.546 200.309 154.103 199.501 154.354C198.694 154.604 194.421 155.565 194.285 155.133C194.148 154.701 198.199 153.04 199.006 152.789C199.814 152.539 200.582 152.681 200.713 153.114Z" fill="#263238"/>
<path opacity="0.4" d="M200.713 153.114C200.85 153.546 200.309 154.103 199.501 154.354C198.694 154.604 194.421 155.565 194.285 155.133C194.148 154.701 198.199 153.04 199.006 152.789C199.814 152.539 200.582 152.681 200.713 153.114Z" fill="white"/>
<path d="M168.747 146.537C168.841 146.312 168.886 146.069 168.879 145.825C168.871 145.581 168.812 145.342 168.704 145.123C168.596 144.904 168.443 144.711 168.254 144.556C168.065 144.402 167.845 144.29 167.609 144.227L167.336 144.153C167.098 144.601 166.887 145.063 166.705 145.536L161.932 157.909L162.631 158.102C163.043 158.22 163.483 158.179 163.866 157.987C164.248 157.796 164.545 157.467 164.696 157.067L168.753 146.554L168.747 146.537Z" fill="#263238"/>
<path opacity="0.2" d="M164.582 154.866L163.854 153.7L165.47 153.552L164.127 153.193L166.317 151.072L164.656 152.164L166.551 149.894L165.982 149.786L167.518 147.982L165.362 149.979L165.754 150.178L164.463 151.31L162.83 155.543L163.336 157.147L163.137 155.281L163.809 154.462L164.326 155.196L164.611 156.106L164.582 154.866Z" fill="white"/>
<path opacity="0.4" d="M243.402 147.123L246.246 150.093C246.428 150.281 246.558 150.512 246.625 150.765C246.693 151.018 246.694 151.284 246.63 151.537C246.565 151.791 246.437 152.024 246.258 152.214C246.078 152.404 245.853 152.545 245.603 152.624L244.835 152.869L239.596 147.424L241.82 146.725C242.094 146.635 242.389 146.624 242.669 146.695C242.949 146.765 243.203 146.914 243.402 147.123Z" fill="black"/>
<path opacity="0.4" d="M243.088 151.037L246.223 150.053L244.408 148.164L241.273 149.148L243.088 151.037Z" fill="white"/>
<path opacity="0.2" d="M203.626 152.328L204.371 154.701C204.454 154.962 204.637 155.181 204.88 155.308C205.123 155.434 205.407 155.46 205.669 155.378L233.453 146.657C233.799 146.553 234.109 146.355 234.349 146.085C234.588 145.814 234.747 145.482 234.807 145.126C234.861 144.762 234.802 144.389 234.638 144.059C234.475 143.728 234.214 143.456 233.891 143.277L232.002 142.202C231.452 141.885 230.84 141.688 230.207 141.625C229.574 141.562 228.935 141.635 228.333 141.838L205.105 149.421C204.528 149.617 204.05 150.03 203.773 150.573C203.497 151.117 203.444 151.747 203.626 152.328Z" fill="black"/>
<path opacity="0.2" d="M169.878 157.09L169.764 155.127L171.96 155.463L170.828 153.256L176.932 154.655L175.061 153.802L176.642 152.715L174.06 153.352L171.34 152.135L172 150.719L176.005 150.349L175.692 149.342L177.922 149.279L175.112 148.517L175.226 149.911L172.694 149.353L175.14 146.23L170.578 149.512L168.422 155.093L169.878 157.09Z" fill="white"/>
<path d="M235.667 173.995C240.44 171.434 242.233 165.489 239.671 160.716C237.11 155.943 231.165 154.15 226.392 156.711C221.619 159.273 219.826 165.218 222.388 169.991C224.949 174.764 230.894 176.557 235.667 173.995Z" fill="#263238"/>
<path opacity="0.5" d="M235.664 167.721C237.145 164.622 235.833 160.909 232.733 159.428C229.634 157.948 225.922 159.26 224.441 162.359C222.96 165.458 224.272 169.171 227.371 170.651C230.47 172.132 234.183 170.82 235.664 167.721Z" fill="white"/>
<path d="M232.417 164.901C232.503 165.175 232.506 165.468 232.425 165.743C232.344 166.019 232.184 166.264 231.963 166.449C231.743 166.633 231.473 166.748 231.188 166.778C230.902 166.809 230.614 166.754 230.36 166.621C230.106 166.488 229.896 166.282 229.759 166.03C229.622 165.778 229.562 165.491 229.588 165.205C229.614 164.919 229.724 164.647 229.905 164.424C230.085 164.201 230.328 164.036 230.602 163.951C230.783 163.893 230.974 163.873 231.164 163.889C231.354 163.906 231.538 163.96 231.707 164.049C231.875 164.137 232.025 164.258 232.147 164.404C232.268 164.55 232.36 164.719 232.417 164.901Z" fill="#263238"/>
<g opacity="0.4">
<path d="M229.106 162.688L228.947 160.304C227.919 160.727 227.047 161.456 226.449 162.392L228.77 162.961C228.877 162.864 228.989 162.773 229.106 162.688Z" fill="black"/>
<path d="M228.674 167.597C228.573 167.491 228.478 167.379 228.39 167.262L226.006 167.421C226.429 168.448 227.158 169.32 228.094 169.918L228.674 167.597Z" fill="black"/>
<path d="M230.967 168.604C230.82 168.6 230.674 168.586 230.529 168.564L228.953 170.368C229.981 170.796 231.115 170.895 232.201 170.652L230.967 168.604Z" fill="black"/>
<path d="M227.764 165.265C227.768 165.118 227.782 164.972 227.804 164.827L226 163.251C225.572 164.278 225.473 165.413 225.716 166.499L227.764 165.265Z" fill="black"/>
<path d="M234.305 165.401C234.301 165.548 234.288 165.694 234.266 165.839L236.069 167.438C236.497 166.41 236.596 165.276 236.353 164.189L234.305 165.401Z" fill="black"/>
<path d="M233.396 163.069C233.497 163.175 233.592 163.287 233.681 163.404L236.065 163.245C235.642 162.218 234.913 161.346 233.977 160.748L233.396 163.069Z" fill="black"/>
<path d="M233.299 167.694C233.192 167.795 233.08 167.89 232.963 167.978L233.122 170.362C234.149 169.939 235.021 169.21 235.62 168.274L233.299 167.694Z" fill="black"/>
<path d="M231.542 162.102L233.117 160.298C232.09 159.87 230.955 159.771 229.869 160.014L231.104 162.062C231.25 162.066 231.397 162.08 231.542 162.102Z" fill="black"/>
</g>
<path opacity="0.5" d="M231.829 165.083C231.881 165.29 231.852 165.509 231.748 165.695C231.644 165.881 231.472 166.021 231.269 166.085C231.065 166.149 230.845 166.132 230.653 166.039C230.461 165.946 230.312 165.783 230.236 165.583C230.1 165.145 230.589 165.453 231.027 165.316C231.465 165.18 231.693 164.645 231.829 165.083Z" fill="white"/>
<path d="M161.303 197.524C165.826 196.103 168.177 190.762 166.554 185.594C164.93 180.427 159.947 177.389 155.424 178.81C150.901 180.231 148.55 185.572 150.174 190.74C151.797 195.907 156.78 198.945 161.303 197.524Z" fill="#263238"/>
<path opacity="0.5" d="M163.576 186.525C164.606 189.813 163.11 193.209 160.237 194.108C157.364 195.007 154.19 193.084 153.16 189.801C152.13 186.519 153.621 183.117 156.499 182.212C159.378 181.308 162.547 183.242 163.576 186.525Z" fill="white"/>
<path d="M159.576 187.782C159.618 188.024 159.59 188.273 159.494 188.5C159.398 188.727 159.239 188.921 159.036 189.059C158.833 189.198 158.594 189.275 158.348 189.281C158.102 189.288 157.86 189.223 157.649 189.095C157.439 188.967 157.27 188.781 157.163 188.56C157.056 188.338 157.015 188.091 157.045 187.847C157.074 187.602 157.174 187.372 157.331 187.183C157.489 186.994 157.697 186.854 157.932 186.78C158.283 186.698 158.652 186.757 158.959 186.944C159.267 187.131 159.489 187.432 159.576 187.782Z" fill="#263238"/>
<g opacity="0.4">
<path d="M156.562 185.477L156.334 183.111C155.42 183.513 154.666 184.21 154.195 185.091L156.277 185.745C156.367 185.65 156.462 185.561 156.562 185.477Z" fill="black"/>
<path d="M156.349 190.313C156.256 190.206 156.168 190.094 156.087 189.978L153.977 190.046C154.375 191.06 155.049 191.943 155.922 192.594L156.349 190.313Z" fill="black"/>
<path d="M158.421 191.394C158.291 191.386 158.162 191.369 158.034 191.343L156.697 193.049C157.589 193.502 158.606 193.642 159.587 193.448L158.421 191.394Z" fill="black"/>
<path d="M155.463 187.975C155.463 187.835 155.463 187.692 155.463 187.548L153.807 185.927C153.467 186.96 153.42 188.066 153.671 189.124L155.463 187.975Z" fill="black"/>
<path d="M161.271 188.35C161.28 188.492 161.28 188.635 161.271 188.777L162.927 190.398C163.272 189.367 163.321 188.259 163.069 187.201L161.271 188.35Z" fill="black"/>
<path d="M160.385 186.007C160.476 186.115 160.562 186.229 160.641 186.348L162.757 186.274C162.357 185.262 161.683 184.382 160.811 183.731L160.385 186.007Z" fill="black"/>
<path d="M160.458 190.581C160.367 190.672 160.271 190.763 160.174 190.842L160.396 193.209C161.312 192.811 162.068 192.116 162.54 191.235L160.458 190.581Z" fill="black"/>
<path d="M158.7 184.983L160.036 183.276C159.145 182.824 158.127 182.683 157.146 182.878L158.313 184.949C158.442 184.952 158.571 184.963 158.7 184.983Z" fill="black"/>
</g>
<path opacity="0.5" d="M159.064 187.918C159.111 188.013 159.137 188.118 159.141 188.225C159.144 188.332 159.124 188.438 159.082 188.537C159.04 188.635 158.977 188.723 158.898 188.795C158.819 188.867 158.725 188.92 158.623 188.952C158.521 188.984 158.413 188.994 158.307 188.98C158.201 188.967 158.1 188.93 158.009 188.874C157.918 188.817 157.841 188.741 157.783 188.652C157.724 188.563 157.686 188.462 157.67 188.356C157.533 187.918 157.977 188.242 158.358 188.123C158.739 188.003 158.927 187.502 159.064 187.918Z" fill="white"/>
<path d="M225.227 138.851L218.093 134.795C216.017 133.617 213.722 132.878 211.349 132.624C208.976 132.369 206.576 132.605 204.297 133.316L198.517 135.131C198.278 135.21 198.057 135.337 197.869 135.505C197.68 135.672 197.528 135.877 197.421 136.105C197.315 136.334 197.256 136.582 197.249 136.834C197.242 137.086 197.286 137.337 197.38 137.571L201.447 147.783C201.621 148.216 201.952 148.568 202.374 148.767C202.796 148.967 203.278 148.999 203.723 148.858L224.891 142.208C225.234 142.102 225.539 141.897 225.767 141.62C225.995 141.343 226.137 141.005 226.175 140.647C226.213 140.29 226.146 139.93 225.981 139.611C225.817 139.291 225.562 139.027 225.249 138.851H225.227ZM225.13 140.558C225.117 140.718 225.056 140.87 224.954 140.994C224.853 141.118 224.715 141.208 224.561 141.252L203.387 147.902C203.19 147.964 202.977 147.95 202.79 147.861C202.603 147.772 202.457 147.616 202.38 147.424L198.318 137.213C198.273 137.11 198.25 136.998 198.25 136.886C198.25 136.773 198.273 136.662 198.318 136.559C198.366 136.457 198.435 136.366 198.52 136.293C198.606 136.219 198.705 136.164 198.813 136.132L204.593 134.312C206.737 133.642 208.996 133.42 211.229 133.66C213.462 133.9 215.622 134.596 217.575 135.705L224.698 139.761C224.839 139.832 224.955 139.944 225.032 140.082C225.109 140.22 225.143 140.378 225.13 140.535V140.558Z" fill="#263238"/>
<path d="M192.846 136.923L176.029 142.202C174.9 142.553 173.866 143.156 173.003 143.965C172.141 144.774 171.474 145.768 171.052 146.873L167.069 157.238C166.943 157.562 166.911 157.915 166.977 158.256C167.043 158.597 167.205 158.913 167.443 159.166C167.681 159.419 167.986 159.6 168.323 159.686C168.66 159.773 169.014 159.762 169.345 159.656L197.26 150.889C197.726 150.741 198.114 150.415 198.339 149.983C198.565 149.55 198.611 149.045 198.466 148.579L195.178 138.123C195.107 137.889 194.989 137.672 194.832 137.485C194.675 137.297 194.482 137.143 194.265 137.031C194.048 136.919 193.81 136.852 193.566 136.833C193.323 136.815 193.078 136.845 192.846 136.923ZM168.167 158.461C168.061 158.349 167.99 158.209 167.96 158.058C167.931 157.907 167.946 157.751 168.002 157.608L171.985 147.242C172.352 146.281 172.934 145.416 173.685 144.712C174.436 144.009 175.337 143.485 176.32 143.18L176.86 143.01L180.637 155.025L168.992 158.683C168.848 158.727 168.694 158.729 168.548 158.69C168.402 158.651 168.27 158.571 168.167 158.461ZM197.46 148.886C197.492 148.989 197.504 149.097 197.495 149.204C197.486 149.311 197.455 149.415 197.405 149.51C197.356 149.605 197.288 149.689 197.205 149.758C197.123 149.827 197.027 149.879 196.925 149.91L181.172 154.86L177.401 142.845L193.153 137.896C193.255 137.863 193.363 137.851 193.47 137.86C193.577 137.869 193.681 137.9 193.776 137.95C193.872 137.999 193.956 138.067 194.025 138.15C194.094 138.232 194.145 138.328 194.177 138.43L197.46 148.886Z" fill="#263238"/>
<g opacity="0.6">
<path d="M225.227 138.851L218.093 134.795C216.017 133.617 213.722 132.878 211.349 132.624C208.976 132.369 206.576 132.605 204.297 133.316L198.517 135.131C198.278 135.21 198.057 135.337 197.869 135.505C197.68 135.672 197.528 135.877 197.421 136.105C197.315 136.334 197.256 136.582 197.249 136.834C197.242 137.086 197.286 137.337 197.38 137.571L201.447 147.783C201.621 148.216 201.952 148.568 202.374 148.767C202.796 148.967 203.278 148.999 203.723 148.858L224.891 142.208C225.234 142.102 225.539 141.897 225.767 141.62C225.995 141.343 226.137 141.005 226.175 140.647C226.213 140.29 226.146 139.93 225.981 139.611C225.817 139.291 225.562 139.027 225.249 138.851H225.227ZM225.13 140.558C225.117 140.718 225.056 140.87 224.954 140.994C224.853 141.118 224.715 141.208 224.561 141.252L203.387 147.902C203.19 147.964 202.977 147.95 202.79 147.861C202.603 147.772 202.457 147.616 202.38 147.424L198.318 137.213C198.273 137.11 198.25 136.998 198.25 136.886C198.25 136.773 198.273 136.662 198.318 136.559C198.366 136.457 198.435 136.366 198.52 136.293C198.606 136.219 198.705 136.164 198.813 136.132L204.593 134.312C206.737 133.642 208.996 133.42 211.229 133.66C213.462 133.9 215.622 134.596 217.575 135.705L224.698 139.761C224.839 139.832 224.955 139.944 225.032 140.082C225.109 140.22 225.143 140.378 225.13 140.535V140.558Z" fill="black"/>
<path d="M192.846 136.923L176.029 142.202C174.9 142.553 173.866 143.156 173.003 143.965C172.141 144.774 171.474 145.768 171.052 146.873L167.069 157.238C166.943 157.562 166.911 157.915 166.977 158.256C167.043 158.597 167.205 158.913 167.443 159.166C167.681 159.419 167.986 159.6 168.323 159.686C168.66 159.773 169.014 159.762 169.345 159.656L197.26 150.889C197.726 150.741 198.114 150.415 198.339 149.983C198.565 149.55 198.611 149.045 198.466 148.579L195.178 138.123C195.107 137.889 194.989 137.672 194.832 137.485C194.675 137.297 194.482 137.143 194.265 137.031C194.048 136.919 193.81 136.852 193.566 136.833C193.323 136.815 193.078 136.845 192.846 136.923ZM168.167 158.461C168.061 158.349 167.99 158.209 167.96 158.058C167.931 157.907 167.946 157.751 168.002 157.608L171.985 147.242C172.352 146.281 172.934 145.416 173.685 144.712C174.436 144.009 175.337 143.485 176.32 143.18L176.86 143.01L180.637 155.025L168.992 158.683C168.848 158.727 168.694 158.729 168.548 158.69C168.402 158.651 168.27 158.571 168.167 158.461ZM197.46 148.886C197.492 148.989 197.504 149.097 197.495 149.204C197.486 149.311 197.455 149.415 197.405 149.51C197.356 149.605 197.288 149.689 197.205 149.758C197.123 149.827 197.027 149.879 196.925 149.91L181.172 154.86L177.401 142.845L193.153 137.896C193.255 137.863 193.363 137.851 193.47 137.86C193.577 137.869 193.681 137.9 193.776 137.95C193.872 137.999 193.956 138.067 194.025 138.15C194.094 138.232 194.145 138.328 194.177 138.43L197.46 148.886Z" fill="black"/>
</g>
<path opacity="0.2" d="M142.963 179.214L145.557 181.683L145.409 184.619L142.963 179.214Z" fill="black"/>
<path d="M151.19 157.238L154.074 151.515L151.856 150.206L151.469 150.422L149.711 156.635L150.803 157.46L151.19 157.238Z" fill="#FFCF08"/>
<path d="M151.469 150.423L153.687 151.737L150.803 157.46L149.711 156.641L151.469 150.423Z" fill="#FFCF08"/>
<path opacity="0.3" d="M151.469 150.423L153.687 151.737L150.803 157.46L149.711 156.641L151.469 150.423Z" fill="black"/>
<path d="M144.887 148.727L144.955 143.471L147.248 142.68L147.464 142.919L146.303 148.432L145.097 148.966L144.887 148.727Z" fill="#FFCF08"/>
<path d="M147.464 142.919L145.172 143.71L145.098 148.966L146.304 148.431L147.464 142.919Z" fill="#FFCF08"/>
<path opacity="0.3" d="M147.464 142.919L145.172 143.71L145.098 148.966L146.304 148.431L147.464 142.919Z" fill="black"/>
<path d="M31.3516 172.558L36.6593 177.678L56.9174 184.038L72.4993 187.349C72.7674 187.405 73.0444 187.403 73.3115 187.342C73.5785 187.281 73.8292 187.163 74.0467 186.997L74.1377 186.934C74.3483 186.773 74.5902 186.658 74.8479 186.597C75.1056 186.535 75.3733 186.528 75.6339 186.576L97.0639 190.478C97.4494 190.549 97.7989 190.75 98.0538 191.047L100.113 193.442C100.366 193.742 100.717 193.943 101.103 194.011L114.187 196.4L137.569 195.667C137.866 195.659 138.148 195.536 138.355 195.323C138.562 195.111 138.678 194.826 138.678 194.529L138.724 189.028L137.995 178.668L111.718 173.349L97.1436 184.494L69.2225 178.816L58.2316 162.978L38.7073 160.134L32.6885 168.44L31.3516 172.558Z" fill="#263238"/>
<path opacity="0.6" d="M31.3516 172.558L36.6593 177.678L56.9174 184.038L72.4993 187.349C72.7674 187.405 73.0444 187.403 73.3115 187.342C73.5785 187.281 73.8292 187.163 74.0467 186.997L74.1377 186.934C74.3483 186.773 74.5902 186.658 74.8479 186.597C75.1056 186.535 75.3733 186.528 75.6339 186.576L97.0639 190.478C97.4494 190.549 97.7989 190.75 98.0538 191.047L100.113 193.442C100.366 193.742 100.717 193.943 101.103 194.011L114.187 196.4L137.569 195.667C137.866 195.659 138.148 195.536 138.355 195.323C138.562 195.111 138.678 194.826 138.678 194.529L138.724 189.028L137.995 178.668L111.718 173.349L97.1436 184.494L69.2225 178.816L58.2316 162.978L38.7073 160.134L32.6885 168.44L31.3516 172.558Z" fill="black"/>
<path d="M144.703 168.684L143.076 168.15C143.076 168.15 142.057 166.13 141.426 165.789C140.504 165.294 138.177 166.136 137.244 165.664C136.42 165.248 135.777 163.126 134.918 162.779C133.888 162.37 131.556 163.752 130.532 163.348C130.059 163.155 129.724 161.903 129.234 161.761C128.535 161.562 126.481 162.683 126.481 162.683L112.612 158.103C112.612 158.103 111.616 154.405 111.115 153.233C110.546 151.913 109.028 149.444 108.663 148.062C108.425 147.163 108.538 145.286 108.396 144.37C108.155 143.389 107.858 142.422 107.509 141.474C107.3 140.792 106.939 140.166 106.453 139.644C105.967 139.122 105.369 138.717 104.704 138.459L102.036 137.407C96.4912 135.26 90.7559 133.643 84.9067 132.577L45.0105 125.341C44.489 125.247 43.9511 125.341 43.4926 125.607C43.0342 125.872 42.685 126.292 42.5074 126.791L35.0322 147.909C34.9906 148.019 34.9601 148.133 34.9411 148.25L30.5778 172.194C30.538 172.417 30.5881 172.646 30.7172 172.832C30.8463 173.017 31.0437 173.144 31.2661 173.184C31.4284 173.213 31.5955 173.194 31.747 173.129C31.8986 173.065 32.028 172.957 32.1195 172.82L37.0347 165.555C37.6049 164.514 38.489 163.678 39.5614 163.167C40.6337 162.657 41.8397 162.497 43.008 162.711L55.5235 164.987C56.5835 165.181 57.5658 165.674 58.355 166.407C59.1441 167.141 59.7072 168.085 59.9779 169.128L62.9134 180.381C63.0313 180.828 63.2742 181.233 63.6138 181.547C63.9533 181.861 64.3754 182.072 64.8306 182.156L105.148 189.494C105.603 189.577 106.072 189.528 106.5 189.354C106.928 189.179 107.297 188.887 107.566 188.51L114.278 179.01C114.903 178.134 115.765 177.455 116.763 177.051C117.761 176.648 118.852 176.538 119.91 176.734L132.426 179.01C133.595 179.221 134.668 179.796 135.492 180.653C136.315 181.51 136.847 182.606 137.011 183.783L138.229 192.424C138.247 192.547 138.309 192.659 138.403 192.74C138.497 192.821 138.617 192.865 138.741 192.865C138.865 192.865 138.985 192.821 139.079 192.74C139.173 192.659 139.234 192.547 139.253 192.424C139.253 192.424 140.277 179.214 141.528 175.016C142.086 173.326 144.703 168.684 144.703 168.684Z" fill="#FFCF08"/>
<path opacity="0.5" d="M144.703 168.684L143.076 168.15C143.076 168.15 142.057 166.13 141.426 165.789C140.504 165.294 138.177 166.136 137.244 165.664C136.42 165.248 135.777 163.126 134.918 162.779C133.888 162.37 131.556 163.752 130.532 163.348C130.059 163.155 129.724 161.903 129.234 161.761C128.535 161.562 126.481 162.683 126.481 162.683L112.612 158.103C112.612 158.103 111.616 154.405 111.115 153.233C110.546 151.913 109.028 149.444 108.663 148.062C108.425 147.163 108.538 145.286 108.396 144.37C108.155 143.389 107.858 142.422 107.509 141.474C107.3 140.792 106.939 140.166 106.453 139.644C105.967 139.122 105.369 138.717 104.704 138.459L102.036 137.407C96.4912 135.26 90.7559 133.643 84.9067 132.577L45.0105 125.341C44.489 125.247 43.9511 125.341 43.4926 125.607C43.0342 125.872 42.685 126.292 42.5074 126.791L35.0322 147.909C34.9906 148.019 34.9601 148.133 34.9411 148.25L30.5778 172.194C30.538 172.417 30.5881 172.646 30.7172 172.832C30.8463 173.017 31.0437 173.144 31.2661 173.184C31.4284 173.213 31.5955 173.194 31.747 173.129C31.8986 173.065 32.028 172.957 32.1195 172.82L37.0347 165.555C37.6049 164.514 38.489 163.678 39.5614 163.167C40.6337 162.657 41.8397 162.497 43.008 162.711L55.5235 164.987C56.5835 165.181 57.5658 165.674 58.355 166.407C59.1441 167.141 59.7072 168.085 59.9779 169.128L62.9134 180.381C63.0313 180.828 63.2742 181.233 63.6138 181.547C63.9533 181.861 64.3754 182.072 64.8306 182.156L105.148 189.494C105.603 189.577 106.072 189.528 106.5 189.354C106.928 189.179 107.297 188.887 107.566 188.51L114.278 179.01C114.903 178.134 115.765 177.455 116.763 177.051C117.761 176.648 118.852 176.538 119.91 176.734L132.426 179.01C133.595 179.221 134.668 179.796 135.492 180.653C136.315 181.51 136.847 182.606 137.011 183.783L138.229 192.424C138.247 192.547 138.309 192.659 138.403 192.74C138.497 192.821 138.617 192.865 138.741 192.865C138.865 192.865 138.985 192.821 139.079 192.74C139.173 192.659 139.234 192.547 139.253 192.424C139.253 192.424 140.277 179.214 141.528 175.016C142.086 173.326 144.703 168.684 144.703 168.684Z" fill="white"/>
<path opacity="0.2" d="M118.467 172.991L124.6 165.095C124.692 164.975 124.821 164.889 124.966 164.849C125.112 164.809 125.267 164.818 125.407 164.874C125.547 164.93 125.665 165.03 125.743 165.159C125.822 165.288 125.855 165.439 125.84 165.59L125.556 168.434C125.544 168.637 125.597 168.839 125.707 169.009C125.818 169.18 125.979 169.312 126.169 169.385C126.358 169.459 126.566 169.47 126.763 169.418C126.959 169.365 127.134 169.252 127.262 169.094L129.788 165.612C129.871 165.499 129.987 165.413 130.12 165.366C130.254 165.32 130.398 165.315 130.534 165.353C130.67 165.391 130.791 165.469 130.881 165.577C130.972 165.686 131.027 165.819 131.04 165.959L131.449 171.079C131.47 171.269 131.547 171.447 131.669 171.593C131.791 171.738 131.954 171.844 132.137 171.897C132.32 171.95 132.514 171.948 132.696 171.891C132.877 171.833 133.037 171.723 133.156 171.574L135.733 168.07C135.824 167.947 135.954 167.857 136.102 167.816C136.249 167.774 136.407 167.782 136.549 167.84C136.691 167.897 136.811 168 136.889 168.132C136.966 168.264 136.998 168.418 136.979 168.571L136.194 174.715L137.019 179.977L125.578 175.517L118.023 175.21L118.467 172.991Z" fill="black"/>
<path opacity="0.2" d="M140.817 170.641C140.817 170.641 138.673 172.593 138.246 173.446C137.996 173.952 137.387 175.34 137.842 175.687C138.297 176.034 139.657 175.016 140.072 174.55C140.698 173.833 141.324 170.949 141.324 170.949C141.348 170.883 141.349 170.811 141.326 170.744C141.303 170.678 141.257 170.622 141.197 170.586C141.137 170.549 141.067 170.535 140.997 170.545C140.928 170.555 140.864 170.589 140.817 170.641Z" fill="black"/>
<path opacity="0.2" d="M120.718 164.929L114.637 166.744C114.586 166.758 114.54 166.784 114.501 166.82C114.463 166.855 114.433 166.9 114.415 166.949L113.101 170.226C113.074 170.293 113.069 170.367 113.086 170.438C113.104 170.508 113.143 170.572 113.198 170.619C113.253 170.666 113.322 170.695 113.395 170.701C113.467 170.707 113.539 170.69 113.602 170.652L119.467 167.239C119.496 167.219 119.523 167.196 119.547 167.171L121.077 165.464C121.116 165.407 121.137 165.339 121.137 165.27C121.137 165.201 121.117 165.133 121.078 165.076C121.04 165.018 120.985 164.974 120.921 164.947C120.857 164.921 120.786 164.915 120.718 164.929Z" fill="black"/>
<path d="M44.2544 126.831C44.5934 127.331 45.0285 127.759 45.5345 128.089C46.0404 128.419 46.607 128.645 47.2013 128.754L106.309 139.512C105.85 139.058 105.304 138.702 104.705 138.465L102.036 137.407C96.4917 135.26 90.7565 133.643 84.9072 132.577L45.011 125.341C44.4614 125.242 43.8949 125.354 43.4238 125.654L44.2544 126.831Z" fill="#FFCF08"/>
<path d="M67.9066 134.643L48.5471 131.118C47.6754 130.959 46.8401 131.537 46.6814 132.409L44.4464 144.683C44.2877 145.554 44.8656 146.39 45.7373 146.549L65.0968 150.074C65.9685 150.232 66.8038 149.654 66.9625 148.783L69.1975 136.509C69.3562 135.637 68.7783 134.802 67.9066 134.643Z" fill="#263238"/>
<path d="M104.99 157.329L75.4075 151.942C75.2369 151.912 75.074 151.848 74.9281 151.755C74.7822 151.661 74.6562 151.54 74.5574 151.398C74.4585 151.256 74.3887 151.095 74.3521 150.926C74.3154 150.757 74.3125 150.582 74.3437 150.412L76.6818 137.577C76.7441 137.234 76.9402 136.929 77.2271 136.729C77.514 136.53 77.8682 136.452 78.2121 136.514L102.157 140.871C102.408 140.919 102.641 141.038 102.827 141.215C103.013 141.391 103.143 141.618 103.203 141.867C103.203 141.867 103.693 143.574 103.772 144.182C103.886 145.257 103.687 147.442 103.92 148.494C104.199 149.746 105.49 152.004 105.934 153.211C106.15 153.819 106.503 155.731 106.503 155.731C106.554 155.943 106.551 156.165 106.494 156.376C106.438 156.587 106.329 156.781 106.179 156.94C106.029 157.099 105.842 157.217 105.634 157.285C105.426 157.353 105.205 157.368 104.99 157.329Z" fill="#263238"/>
<path opacity="0.2" d="M104.438 149.99C104.205 149.51 104.014 149.009 103.869 148.494C103.745 147.245 103.707 145.988 103.756 144.734L100.843 141.594L102.811 145.161L95.211 140.564L102.038 146.918H96.0928L92.23 145.252L87.457 145.337L92.0935 146.003L96.0757 148.033L98.8348 148.238L96.3488 150.406L93.6295 150.622L91.4449 152.841L94.0561 151.236H96.7299L100.377 148.511L102.163 148.836L99.3184 151.947L96.3488 153.734L101.725 151.976L100.86 151.822L103.05 149.604L101.913 154.451L104.438 149.99Z" fill="white"/>
<path opacity="0.3" d="M109.323 161.467L37.9237 148.466C37.5775 148.403 37.2458 148.632 37.1827 148.978L37.1736 149.029C37.1105 149.375 37.3401 149.707 37.6863 149.77L109.085 162.771C109.432 162.834 109.763 162.604 109.826 162.258L109.836 162.208C109.899 161.862 109.669 161.53 109.323 161.467Z" fill="white"/>
<path opacity="0.3" d="M103.769 176.382L66.8358 169.657C66.4896 169.594 66.1579 169.824 66.0948 170.17L66.0857 170.22C66.0226 170.566 66.2522 170.898 66.5984 170.961L103.532 177.686C103.878 177.75 104.21 177.52 104.273 177.174L104.282 177.123C104.345 176.777 104.116 176.445 103.769 176.382Z" fill="white"/>
<path d="M77.654 158.761L74.1112 158.116C73.765 158.053 73.4333 158.282 73.3702 158.628L73.3611 158.679C73.298 159.025 73.5276 159.357 73.8738 159.42L77.4166 160.065C77.7628 160.128 78.0945 159.898 78.1576 159.552L78.1667 159.502C78.2298 159.156 78.0002 158.824 77.654 158.761Z" fill="#FFCF08"/>
<path d="M106.93 157.409L107.584 153.791C107.606 153.676 107.604 153.559 107.58 153.445C107.556 153.33 107.509 153.222 107.443 153.126C107.377 153.03 107.293 152.948 107.195 152.884C107.097 152.821 106.988 152.777 106.873 152.756L105.451 152.5C105.262 152.463 105.068 152.464 104.879 152.502C104.691 152.541 104.512 152.617 104.353 152.726C104.195 152.834 104.059 152.973 103.954 153.135C103.85 153.296 103.778 153.477 103.744 153.666L103.005 157.722C102.929 158.099 103.007 158.491 103.22 158.811C103.434 159.131 103.765 159.353 104.142 159.429L106.094 159.787L106.663 160.629L107.488 160.783L107.84 158.837L106.93 157.409Z" fill="#FFCF08"/>
<path d="M57.2833 186.757C60.5019 180.854 58.3255 173.459 52.4223 170.241C46.519 167.022 39.1244 169.199 35.9058 175.102C32.6873 181.005 34.8636 188.4 40.7669 191.618C46.6701 194.837 54.0648 192.66 57.2833 186.757Z" fill="#263238"/>
<path opacity="0.4" d="M53.8072 183.146C53.8946 182.863 53.9667 182.577 54.0233 182.287C54.074 181.995 54.1082 181.7 54.1257 181.405L51.4065 180.523C51.3725 180.123 51.2884 179.73 51.1561 179.351L53.2781 177.411C52.9923 176.894 52.6488 176.411 52.2541 175.972L49.6998 177.246C49.393 176.987 49.0546 176.767 48.6929 176.592L48.818 173.748C48.5373 173.655 48.2502 173.583 47.959 173.531C47.6673 173.48 47.3729 173.446 47.0772 173.429L46.1897 176.16C45.788 176.195 45.3923 176.281 45.0121 176.416L43.0609 174.265C42.5384 174.544 42.0498 174.882 41.6045 175.272L42.9073 177.832C42.6495 178.141 42.4316 178.481 42.2587 178.845L39.4143 178.714C39.3275 178.998 39.2554 179.287 39.1981 179.579C39.1472 179.868 39.113 180.161 39.0957 180.455L41.8321 181.348C41.866 181.749 41.9501 182.145 42.0824 182.525L39.9604 184.465C40.2392 184.986 40.5771 185.473 40.9673 185.916L43.5273 184.619C43.8373 184.876 44.1773 185.093 44.54 185.268L44.4148 188.112C44.6964 188.2 44.9834 188.27 45.2738 188.322C45.5636 188.375 45.8561 188.411 46.1499 188.431L47.0431 185.694C47.4446 185.661 47.8403 185.577 48.2207 185.444L50.1606 187.56C50.6833 187.285 51.1704 186.947 51.6113 186.553L50.2687 184.027C50.5277 183.719 50.7457 183.379 50.9172 183.015L53.8072 183.146Z" fill="white"/>
<path opacity="0.6" d="M48.1352 172.467C46.4603 172.162 44.7326 172.361 43.1708 173.039C41.6089 173.716 40.283 174.842 39.3607 176.273C38.4385 177.703 37.9613 179.376 37.9895 181.078C38.0177 182.78 38.55 184.436 39.5192 185.835C40.4883 187.235 41.8508 188.316 43.4342 188.941C45.0176 189.566 46.7509 189.708 48.4149 189.348C50.0788 188.988 51.5987 188.143 52.7823 186.92C53.9659 185.696 54.76 184.149 55.0643 182.474C55.267 181.362 55.2486 180.22 55.01 179.116C54.7715 178.011 54.3175 176.963 53.6739 176.034C53.0304 175.105 52.21 174.311 51.2596 173.699C50.3092 173.087 49.2475 172.668 48.1352 172.467ZM45.2453 188.356C43.7779 188.088 42.4229 187.391 41.3518 186.352C40.2806 185.314 39.5412 183.982 39.2272 182.524C38.9132 181.065 39.0385 179.547 39.5875 178.16C40.1364 176.773 41.0842 175.579 42.3112 174.731C43.5381 173.883 44.989 173.417 46.4805 173.393C47.972 173.369 49.4371 173.788 50.6907 174.596C51.9442 175.405 52.9299 176.567 53.523 177.936C54.1162 179.305 54.2903 180.818 54.0232 182.286C53.8458 183.261 53.4779 184.192 52.9407 185.025C52.4034 185.857 51.7073 186.576 50.8921 187.14C50.0769 187.704 49.1586 188.101 48.1897 188.31C47.2208 188.519 46.2202 188.534 45.2453 188.356Z" fill="white"/>
<path opacity="0.6" d="M50.5412 181.661C50.3979 182.441 50.0266 183.161 49.4742 183.73C48.9219 184.299 48.2132 184.691 47.4379 184.857C46.6626 185.024 45.8553 184.956 45.1182 184.664C44.381 184.372 43.7471 183.868 43.2965 183.215C42.8458 182.563 42.5987 181.791 42.5864 180.998C42.5741 180.205 42.7971 179.427 43.2272 178.76C43.6574 178.094 44.2753 177.571 45.003 177.255C45.7307 176.94 46.5355 176.848 47.3156 176.99C47.836 177.081 48.3331 177.275 48.7779 177.56C49.2227 177.845 49.6064 178.215 49.9066 178.65C50.2068 179.085 50.4175 179.575 50.5265 180.092C50.6354 180.609 50.6404 181.142 50.5412 181.661Z" fill="white"/>
<path opacity="0.5" d="M48.6357 181.302C48.5627 181.705 48.3718 182.078 48.0871 182.372C47.8024 182.667 47.4368 182.87 47.0364 182.957C46.6361 183.044 46.219 183.01 45.838 182.859C45.457 182.709 45.1291 182.449 44.8958 182.112C44.6626 181.775 44.5344 181.377 44.5276 180.968C44.5208 180.558 44.6356 180.156 44.8575 179.811C45.0794 179.467 45.3985 179.196 45.7743 179.033C46.1501 178.87 46.5658 178.822 46.9688 178.896C47.5089 178.994 47.9878 179.303 48.3004 179.754C48.6129 180.205 48.7335 180.762 48.6357 181.302Z" fill="white"/>
<path opacity="0.2" d="M116.935 162.085L120.815 163.132C120.902 163.15 120.979 163.198 121.035 163.267C121.091 163.335 121.121 163.421 121.121 163.51C121.121 163.598 121.091 163.684 121.035 163.753C120.979 163.822 120.902 163.87 120.815 163.888L117.402 164.571C117.304 164.59 117.203 164.571 117.118 164.519C117.033 164.466 116.972 164.383 116.947 164.286L116.503 162.58C116.485 162.517 116.484 162.451 116.498 162.387C116.512 162.324 116.542 162.264 116.585 162.215C116.628 162.166 116.683 162.129 116.744 162.106C116.805 162.083 116.871 162.076 116.935 162.085Z" fill="black"/>
<path d="M140.506 180.677C139.867 179.174 138.866 177.853 137.591 176.833C136.316 175.814 134.807 175.127 133.201 174.834L120.686 172.559C118.836 172.227 116.929 172.428 115.19 173.14C113.45 173.851 111.949 175.042 110.861 176.575L103.243 187.35L67.4034 180.825L64.0811 168.07C63.6064 166.25 62.6218 164.604 61.243 163.325C59.8643 162.046 58.1489 161.188 56.2987 160.851L43.7832 158.575C41.7424 158.203 39.6362 158.484 37.7642 159.378C35.8921 160.271 34.3494 161.732 33.3554 163.553C33.2261 163.789 33.0259 163.979 32.7829 164.095C32.54 164.212 32.2666 164.249 32.0015 164.202L30.8637 163.991C30.51 163.928 30.1457 164.008 29.8505 164.212C29.5552 164.417 29.3529 164.73 29.2879 165.083L28.3947 170.01C28.3509 170.252 28.3738 170.502 28.461 170.733C28.5482 170.963 28.6963 171.166 28.8896 171.318L30.6703 172.712C30.7271 172.838 30.8137 172.949 30.9228 173.034C31.0318 173.119 31.1599 173.177 31.296 173.201C31.4583 173.23 31.6254 173.211 31.7769 173.146C31.9285 173.082 32.0579 172.974 32.1494 172.837L37.0646 165.573C37.6348 164.531 38.5189 163.695 39.5913 163.184C40.6636 162.674 41.8696 162.514 43.0379 162.728L55.5535 165.004C56.6134 165.198 57.5957 165.691 58.3849 166.425C59.1741 167.158 59.7371 168.102 60.0079 169.145L62.9433 180.398C63.0612 180.845 63.3041 181.25 63.6437 181.564C63.9832 181.879 64.4053 182.09 64.8605 182.173L105.178 189.511C105.632 189.594 106.101 189.545 106.53 189.371C106.958 189.196 107.327 188.904 107.595 188.527L114.308 179.027C114.933 178.151 115.795 177.472 116.793 177.069C117.79 176.666 118.882 176.555 119.94 176.751L132.456 179.027C133.625 179.238 134.698 179.813 135.522 180.671C136.345 181.528 136.877 182.623 137.041 183.8L138.259 192.441C138.277 192.564 138.339 192.676 138.433 192.757C138.527 192.838 138.646 192.882 138.771 192.882C138.895 192.882 139.014 192.838 139.108 192.757C139.202 192.676 139.264 192.564 139.283 192.441C139.283 192.441 139.772 185.99 140.506 180.677Z" fill="#FFCF08"/>
<path d="M128.105 179.726C128.105 179.726 129.516 180.142 129.932 179.652C129.932 179.652 132.207 182.628 133.538 183.02C133.538 183.02 135.188 187.037 135.899 187.406C135.899 187.406 135.74 191.036 136.605 191.844C136.605 191.844 134.818 194.688 134.67 196.696C134.67 196.696 134.039 196.639 134.016 197.885C134.016 197.885 133.681 197.026 132.987 196.867L133.18 193.334L134.084 189.693L133.874 188.226L131.462 183.982L129.346 181.814L128.105 179.726Z" fill="#263238"/>
<path opacity="0.4" d="M128.105 179.726C128.105 179.726 129.516 180.142 129.932 179.652C129.932 179.652 132.207 182.628 133.538 183.02C133.538 183.02 135.188 187.037 135.899 187.406C135.899 187.406 135.74 191.036 136.605 191.844C136.605 191.844 134.818 194.688 134.67 196.696C134.67 196.696 134.039 196.639 134.016 197.885C134.016 197.885 133.681 197.026 132.987 196.867L133.18 193.334L134.084 189.693L133.874 188.226L131.462 183.982L129.346 181.814L128.105 179.726Z" fill="white"/>
<path d="M134.639 195.415C137.173 189.187 134.179 182.084 127.951 179.55C121.723 177.016 114.62 180.011 112.086 186.239C109.552 192.466 112.547 199.569 118.775 202.103C125.002 204.637 132.105 201.643 134.639 195.415Z" fill="#263238"/>
<path opacity="0.6" d="M131.325 190.683C131.251 185.933 127.582 182.15 123.139 182.213C118.696 182.275 115.174 186.195 115.231 190.945C115.288 195.695 118.974 199.478 123.417 199.422C127.86 199.365 131.405 195.439 131.325 190.683ZM123.4 198.363C119.504 198.426 116.289 195.098 116.221 190.928C116.153 186.758 119.259 183.333 123.156 183.271C127.053 183.208 130.267 186.531 130.335 190.701C130.403 194.87 127.297 198.301 123.4 198.363Z" fill="white"/>
<path opacity="0.4" d="M130.294 191.588C130.325 191.293 130.338 190.997 130.334 190.7C130.329 190.405 130.306 190.111 130.266 189.819L127.598 189.472C127.494 189.087 127.343 188.716 127.148 188.368L128.741 186.053C128.392 185.598 127.991 185.186 127.547 184.824L125.436 186.599C125.108 186.405 124.756 186.255 124.389 186.155L123.985 183.311C123.71 183.28 123.432 183.267 123.155 183.271C122.878 183.273 122.603 183.296 122.33 183.339L122.011 186.183C121.649 186.296 121.303 186.455 120.982 186.656L118.814 184.949C118.389 185.328 118.007 185.753 117.676 186.218L119.337 188.493C119.156 188.855 119.019 189.237 118.928 189.631L116.271 190.063C116.209 190.652 116.218 191.246 116.3 191.832L118.968 192.174C119.071 192.559 119.222 192.93 119.417 193.277L117.83 195.593C118.174 196.05 118.574 196.463 119.019 196.822L121.129 195.052C121.457 195.246 121.809 195.396 122.176 195.496L122.586 198.341C122.86 198.373 123.135 198.388 123.411 198.386C123.687 198.378 123.962 198.355 124.236 198.318L124.554 195.473C124.917 195.361 125.264 195.2 125.584 194.995L127.751 196.702C128.181 196.327 128.563 195.901 128.889 195.434L127.228 193.158C127.411 192.797 127.549 192.415 127.638 192.02L130.294 191.588Z" fill="white"/>
<path opacity="0.3" d="M127.695 179.459C128.136 180.367 128.254 181.399 128.031 182.383C128.031 182.383 131.877 182.127 131.444 186.115C131.444 186.115 136.081 189.062 132.736 191.804C132.736 191.804 133.72 195.553 131.706 197.447C132.333 197.3 132.985 197.3 133.612 197.447C134.596 195.924 135.227 194.199 135.459 192.401C135.692 190.602 135.519 188.774 134.954 187.05C134.389 185.327 133.446 183.751 132.194 182.439C130.942 181.126 129.413 180.11 127.718 179.465L127.695 179.459Z" fill="white"/>
<path opacity="0.9" d="M128.469 179.789C129.036 180.938 129.796 181.981 130.716 182.872C133.173 185.364 134.863 188.18 134.05 190.672C133.338 192.868 132.912 196.025 133.765 197.157C134.657 195.693 135.228 194.056 135.443 192.355C135.657 190.654 135.509 188.926 135.009 187.286C134.509 185.646 133.668 184.13 132.541 182.838C131.413 181.546 130.026 180.507 128.469 179.789Z" fill="black"/>
<path opacity="0.6" d="M127.028 190.763C126.991 191.495 126.741 192.201 126.309 192.793C125.876 193.385 125.28 193.837 124.594 194.095C123.908 194.353 123.161 194.404 122.446 194.243C121.731 194.082 121.078 193.716 120.569 193.189C120.059 192.662 119.715 191.997 119.578 191.277C119.441 190.557 119.518 189.812 119.798 189.135C120.079 188.458 120.552 187.877 121.158 187.465C121.764 187.053 122.477 186.827 123.21 186.815C124.24 186.834 125.219 187.261 125.934 188.001C126.65 188.741 127.043 189.734 127.028 190.763Z" fill="white"/>
<path opacity="0.5" d="M125.213 190.763C125.193 191.14 125.063 191.504 124.839 191.809C124.616 192.113 124.308 192.346 123.954 192.478C123.6 192.61 123.215 192.636 122.846 192.552C122.477 192.468 122.141 192.279 121.879 192.007C121.617 191.734 121.44 191.392 121.37 191.02C121.299 190.649 121.339 190.265 121.484 189.916C121.63 189.567 121.873 189.268 122.186 189.055C122.499 188.843 122.867 188.727 123.245 188.721C123.776 188.731 124.282 188.952 124.651 189.335C125.02 189.718 125.222 190.231 125.213 190.763Z" fill="white"/>
<path d="M125.965 157.886L120.697 151.23L117.363 152.823V153.381L124.099 159.121L125.965 158.444V157.886Z" fill="#FFCF08"/>
<path d="M117.363 153.381L120.697 151.783L125.965 158.444L124.099 159.121L117.363 153.381Z" fill="#FFCF08"/>
<path opacity="0.6" d="M117.363 153.381L120.697 151.783L125.965 158.444L124.099 159.121L117.363 153.381Z" fill="white"/>
<path d="M115.502 154.94L114.78 149.877L112.555 149.678L112.385 149.968L114.148 155.003L115.332 155.23L115.502 154.94Z" fill="#FFCF08"/>
<path d="M112.385 149.968L114.609 150.167L115.332 155.23L114.148 155.002L112.385 149.968Z" fill="#FFCF08"/>
<path opacity="0.6" d="M112.385 149.968L114.609 150.167L115.332 155.23L114.148 155.002L112.385 149.968Z" fill="white"/>
<path d="M134.499 154.951L143.066 151.39L142.235 147.522L141.638 147.368L133.668 152.687L133.896 154.792L134.499 154.951Z" fill="#FFCF08"/>
<path d="M141.638 147.368L142.469 151.237L133.896 154.792L133.668 152.687L141.638 147.368Z" fill="#FFCF08"/>
<path opacity="0.4" d="M141.638 147.368L142.469 151.237L133.896 154.792L133.668 152.687L141.638 147.368Z" fill="white"/>
<path d="M131.124 136.161L129.656 131.223L127.438 131.394L127.312 131.712L129.804 136.451L130.999 136.48L131.124 136.161Z" fill="#FFCF08"/>
<path d="M127.312 131.712L129.531 131.536L130.999 136.479L129.804 136.451L127.312 131.712Z" fill="#FFCF08"/>
<path opacity="0.4" d="M127.312 131.712L129.531 131.536L130.999 136.479L129.804 136.451L127.312 131.712Z" fill="white"/>
</g>
<defs>
<clipPath id="clip0_2138_190268">
<rect width="284.444" height="224" fill="white" transform="translate(0.277344)"/>
</clipPath>
</defs>
</svg>
