<svg width="225" height="224" viewBox="0 0 225 224" fill="none" xmlns="http://www.w3.org/2000/svg">
<path d="M11.2832 96.5664L18.7693 116.144H40.2733C40.2733 116.144 34.1267 113.263 31.6314 110.575C29.136 107.887 17.815 96.5664 17.815 96.5664H11.2832Z" fill="#E0E0E0"/>
<path d="M14.1465 116.144H144.559C147.298 116.123 150.019 116.593 152.592 117.533C153.349 117.815 154.086 118.15 154.796 118.536C155.403 118.873 155.909 119.364 156.266 119.959C156.622 120.555 156.815 121.233 156.826 121.927C156.836 122.621 156.663 123.305 156.325 123.911C155.987 124.516 155.495 125.022 154.899 125.377C152.811 126.596 149.384 127.743 143.896 127.743C132.217 127.743 42.0031 126.04 42.0031 126.04C42.0031 126.04 15.4412 121.932 14.1465 116.144Z" fill="#EBEBEB"/>
<path d="M41.4473 119.168C41.4473 119.168 41.5682 120.145 42.957 120.225H71.4185V119.168H41.4473Z" fill="#E0E0E0"/>
<path d="M113.821 119.186H77.6543V120.248H113.821V119.186Z" fill="#E0E0E0"/>
<path d="M141.337 119.186H120.174V120.248H141.337V119.186Z" fill="#E0E0E0"/>
<path d="M149.684 118.841V120.033H156.18C155.73 119.446 155.183 118.94 154.562 118.536L149.684 118.841Z" fill="#E0E0E0"/>
<path d="M142.753 127.743H141.664V131.408H142.753V127.743Z" fill="#E0E0E0"/>
<path d="M142.752 127.886C142.752 127.886 141.856 124.23 130.755 124.23H41.2669C39.6451 123.98 27.7418 122.963 28.2749 116.001H13.9389C13.9389 116.001 13.0429 117.345 20.1258 120.741C23.8755 122.533 34.8112 125.669 39.3494 126.058C41.1414 126.211 42.3555 126.179 43.6099 126.202L142.752 127.886Z" fill="#E0E0E0"/>
<path d="M84.7235 122.362C84.7235 122.362 68.5955 121.681 68.6985 127.357C68.6985 127.357 67.9414 132.326 84.7235 131.349V122.362Z" fill="#EBEBEB"/>
<path d="M83.9434 125.776C83.9434 125.776 88.7997 125.592 89.6061 126.856C87.7615 127.382 85.8601 127.682 83.9434 127.752V125.776Z" fill="#EBEBEB"/>
<path d="M84.7238 131.349C84.7162 131.293 84.7162 131.236 84.7238 131.179C84.7238 131.049 84.7238 130.888 84.7238 130.695C84.7238 130.247 84.7238 129.625 84.6924 128.867C84.6924 127.273 84.67 125.073 84.6521 122.51L84.7551 122.618C83.335 122.551 81.7894 122.421 80.1721 122.385C79.2755 122.357 78.3782 122.38 77.4841 122.452C76.6239 122.537 75.7862 122.667 75.0022 122.81C73.6045 123.04 72.258 123.513 71.0239 124.208C69.9846 124.813 69.1916 125.44 68.9228 126.063C68.7917 126.385 68.7218 126.728 68.7167 127.075C68.6964 126.986 68.6873 126.894 68.6899 126.802C68.6854 126.536 68.7373 126.272 68.8422 126.027C69.0975 125.36 69.8995 124.683 70.9388 124.065C72.1839 123.338 73.5497 122.842 74.9708 122.6C75.7638 122.448 76.5926 122.318 77.4707 122.224C78.375 122.148 79.2829 122.124 80.19 122.152C81.8163 122.188 83.3663 122.322 84.782 122.403H84.8851V122.506C84.8851 125.068 84.8537 127.268 84.8403 128.863C84.8403 129.62 84.8403 130.234 84.8089 130.691C84.8089 130.883 84.8089 131.045 84.8089 131.175C84.8089 131.304 84.7238 131.349 84.7238 131.349Z" fill="#E0E0E0"/>
<path d="M82.0363 131.421C81.9182 129.919 81.8793 128.412 81.9198 126.905C81.8793 125.399 81.9182 123.892 82.0363 122.389C82.1517 123.892 82.1906 125.399 82.1528 126.905C82.1906 128.412 82.1517 129.919 82.0363 131.421Z" fill="#E0E0E0"/>
<path d="M80.777 131.475C80.6615 129.956 80.6227 128.432 80.6605 126.91C80.6227 125.387 80.6615 123.863 80.777 122.344C80.8924 123.863 80.9312 125.387 80.8934 126.91C80.9312 128.432 80.8924 129.956 80.777 131.475Z" fill="#E0E0E0"/>
<path d="M154.512 97.8614C154.512 97.9241 124.048 97.9778 86.4163 97.9778C48.7843 97.9778 18.3203 97.9241 18.3203 97.8614C18.3203 97.7986 48.7843 97.7449 86.4163 97.7449C124.048 97.7449 154.512 97.7986 154.512 97.8614Z" fill="#E0E0E0"/>
<path d="M162.456 34.5947C162.823 31.9335 159.069 29.7473 156.247 29.5188C154.903 29.4113 153.505 29.6129 152.215 29.1694C149.468 28.2241 148.366 24.6401 145.651 23.5022C143.64 22.6555 141.319 23.4126 139.379 24.3982C137.44 25.3838 135.495 26.6382 133.314 26.7591C131.418 26.8801 129.358 26.1767 127.696 27.1041C126.459 27.794 125.81 29.2187 124.672 30.0609C123.534 30.9031 122.1 31.0555 120.716 31.1316C119.331 31.2078 117.898 31.2212 116.634 31.7991C115.371 32.3771 114.332 33.7076 114.596 35.0695L162.456 34.5947Z" fill="#F5F5F5"/>
<path d="M77.2246 97.8612L93.1555 92.7002H99.9561L121.227 89.7614L145.63 87.5393L156.825 82.3962L186.783 87.9783L195.698 88.8071L200.501 91.8177L207.189 97.8612H77.2246Z" fill="#E0E0E0"/>
<path d="M120.035 69.3416C120.51 65.892 115.64 63.0696 111.971 62.7605C110.228 62.6216 108.418 62.8859 106.765 62.3125C103.181 61.0671 101.752 56.4392 98.2531 54.9653C95.6412 53.8632 92.6352 54.8443 90.0995 56.1211C87.5638 57.3979 85.064 58.9973 82.2371 59.181C79.7776 59.3378 77.103 58.4239 74.9481 59.629C73.3443 60.525 72.5065 62.3707 71.0281 63.4639C69.5497 64.557 67.6905 64.7541 65.8985 64.8527C64.1065 64.9512 62.2428 64.9691 60.6076 65.7173C58.9724 66.4655 57.6239 68.1947 57.9599 69.9599L120.035 69.3416Z" fill="#EBEBEB"/>
<path d="M215.473 87.5393H197.051V97.8612H215.473V87.5393Z" fill="#EBEBEB"/>
<path d="M213.703 89.3625H198.896V92.2611H213.703V89.3625Z" fill="#E0E0E0"/>
<path d="M200.254 61.0491V65.0811L203.627 67.9662V87.5393H210.02V67.9483L213.071 64.9735V61.0491H200.254Z" fill="#EBEBEB"/>
<path d="M202.503 56.7527H201.639V61.0445H202.503V56.7527Z" fill="#EBEBEB"/>
<path d="M204.357 58.8088H203.492V63.1007H204.357V58.8088Z" fill="#EBEBEB"/>
<path d="M212.395 62.5945H201.15V64.7718H212.395V62.5945Z" fill="#FAFAFA"/>
<path d="M209.954 202.85C209.954 202.913 164.706 202.966 108.921 202.966C53.1359 202.966 7.87891 202.913 7.87891 202.85C7.87891 202.787 53.1269 202.733 108.921 202.733C164.715 202.733 209.954 202.783 209.954 202.85Z" fill="#263238"/>
<path d="M53.8248 7.79541H50.1602V153.924H53.8248V7.79541Z" fill="#455A64"/>
<path d="M177.526 9.44873H173.861V155.577H177.526V9.44873Z" fill="#455A64"/>
<path d="M204.211 152.172H8.42578V155.676H204.211V152.172Z" fill="#455A64"/>
<path d="M126.751 47.8465C126.787 47.8957 115.869 56.2688 102.362 66.546C88.8549 76.8231 77.8699 85.1201 77.8341 85.0618C77.7982 85.0036 88.7115 76.6394 102.223 66.3578C115.735 56.0762 126.711 47.7927 126.751 47.8465Z" fill="#263238"/>
<path d="M131.517 37.9818C131.557 38.031 124.349 43.8058 115.389 50.8528C106.429 57.8998 99.1713 63.5894 99.131 63.5402C99.0907 63.4909 106.299 57.7162 115.259 50.6691C124.219 43.6221 131.477 37.9325 131.517 37.9818Z" fill="#263238"/>
<path d="M40.5016 81.9843C40.542 82.0335 32.4869 88.8342 22.5055 97.1715C12.524 105.509 4.4018 112.224 4.36148 112.175C4.32116 112.126 12.3762 105.325 22.3576 96.9833C32.3391 88.6415 40.4613 81.926 40.5016 81.9843Z" fill="#263238"/>
<path d="M44.8777 71.6312C44.918 71.6804 37.88 77.6568 29.1574 84.9771C20.4348 92.2974 13.3296 98.1976 13.2892 98.1483C13.2489 98.099 20.2825 92.1227 29.0096 84.7979C37.7366 77.4731 44.8508 71.5819 44.8777 71.6312Z" fill="#263238"/>
<path d="M213.873 107.265C213.913 107.314 205.858 114.115 195.877 122.452C185.895 130.789 177.773 137.509 177.733 137.46C177.692 137.411 185.747 130.615 195.729 122.273C205.71 113.931 213.832 107.216 213.873 107.265Z" fill="#263238"/>
<path d="M218.251 96.9207C218.291 96.97 211.253 102.946 202.53 110.267C193.808 117.587 186.703 123.487 186.662 123.438C186.622 123.389 193.656 117.412 202.383 110.087C211.11 102.763 218.228 96.8714 218.251 96.9207Z" fill="#263238"/>
<path d="M41.2148 116.148H18.2324V155.819H41.2148V116.148Z" fill="#263238"/>
<path d="M35.8916 121.077H23.3924C22.4077 121.077 21.6094 121.875 21.6094 122.86V125.503C21.6094 126.488 22.4077 127.286 23.3924 127.286H35.8916C36.8764 127.286 37.6747 126.488 37.6747 125.503V122.86C37.6747 121.875 36.8764 121.077 35.8916 121.077Z" fill="#455A64"/>
<path d="M41.3769 131.434C41.3769 131.502 36.2294 131.551 29.8857 131.551C23.542 131.551 18.3945 131.502 18.3945 131.434C18.3945 131.367 23.5376 131.318 29.8857 131.318C36.2339 131.318 41.3769 131.372 41.3769 131.434Z" fill="#455A64"/>
<path d="M41.3769 150.644C41.3769 150.712 36.2294 150.765 29.8857 150.765C23.542 150.765 18.3945 150.712 18.3945 150.644C18.3945 150.577 23.5376 150.528 29.8857 150.528C36.2339 150.528 41.3769 150.582 41.3769 150.644Z" fill="#455A64"/>
<path d="M114.772 76.7379C115.198 76.358 115.543 75.8975 115.789 75.383C116.036 74.8685 116.177 74.3103 116.206 73.7408C116.227 73.1705 116.11 72.6035 115.865 72.0885C115.619 71.5735 115.252 71.1258 114.795 70.784C114.329 70.4531 113.779 70.2618 113.208 70.2325C112.638 70.2031 112.071 70.3369 111.574 70.6182C110.718 71.1379 110.122 72.1324 109.141 72.3027C108.16 72.4729 107.179 71.8547 106.404 72.3654C105.956 72.6611 105.79 73.2256 105.4 73.5795C104.898 74.0275 104.155 74.0633 103.523 74.3187C103.081 74.5051 102.697 74.8044 102.407 75.1866C102.118 75.5688 101.934 76.0203 101.874 76.496C101.762 77.5129 102.228 78.4896 102.623 79.4304C103.017 80.3712 103.339 81.4508 102.954 82.3961" fill="#263238"/>
<path d="M104.302 95.3928L102.645 77.6116L103.115 77.1995C106.296 74.4264 107.765 72.8628 111.739 74.2875C112.634 74.6775 113.414 75.2911 114.004 76.0693C114.594 76.8475 114.974 77.7643 115.108 78.7316C115.43 81.0568 115.82 84.1076 115.914 86.0027C116.076 89.3492 112.151 90.0929 112.151 90.0929L112.778 95.9572L104.302 95.3928Z" fill="#FFBE9D"/>
<path d="M113.657 80.8055C113.583 80.7454 113.529 80.6647 113.5 80.5736C113.472 80.4825 113.471 80.3851 113.498 80.2936C113.525 80.2021 113.578 80.1206 113.651 80.0594C113.725 79.9981 113.814 79.9598 113.909 79.9492C114.004 79.9387 114.099 79.9564 114.184 80.0002C114.269 80.0439 114.339 80.1117 114.385 80.1951C114.432 80.2784 114.452 80.3736 114.445 80.4687C114.437 80.5637 114.402 80.6544 114.343 80.7294C114.303 80.7798 114.254 80.8218 114.197 80.853C114.141 80.8842 114.08 80.9039 114.016 80.911C113.952 80.9181 113.887 80.9124 113.826 80.8943C113.764 80.8762 113.707 80.846 113.657 80.8055Z" fill="#263238"/>
<path d="M114.991 79.9274C114.942 79.9857 114.597 79.7527 114.14 79.7796C113.683 79.8065 113.361 80.0663 113.302 80.0081C113.244 79.9498 113.325 79.8781 113.464 79.7572C113.65 79.6012 113.884 79.5114 114.127 79.5018C114.368 79.4901 114.607 79.556 114.808 79.69C114.96 79.7975 115.014 79.8961 114.991 79.9274Z" fill="#263238"/>
<path d="M109.365 80.64C109.45 80.6851 109.52 80.7546 109.566 80.8397C109.612 80.9247 109.632 81.0215 109.623 81.1178C109.614 81.2141 109.576 81.3054 109.515 81.3804C109.454 81.4553 109.372 81.5104 109.28 81.5387C109.187 81.5671 109.088 81.5673 108.996 81.5394C108.903 81.5115 108.821 81.4567 108.76 81.3821C108.698 81.3074 108.66 81.2162 108.651 81.1199C108.641 81.0237 108.661 80.9268 108.706 80.8416C108.767 80.7278 108.87 80.6427 108.994 80.6049C109.117 80.5671 109.251 80.5797 109.365 80.64Z" fill="#263238"/>
<path d="M110.162 80.5591C110.112 80.6218 109.772 80.3889 109.311 80.4158C108.849 80.4426 108.531 80.698 108.477 80.6442C108.424 80.5905 108.477 80.5098 108.634 80.3934C108.821 80.2374 109.054 80.1476 109.297 80.138C109.54 80.1243 109.781 80.1904 109.983 80.3262C110.13 80.4292 110.189 80.5322 110.162 80.5591Z" fill="#263238"/>
<path d="M112.138 84.3941C112.371 84.2849 112.621 84.2167 112.877 84.1925C112.994 84.1701 113.088 84.1387 113.092 84.0715C113.09 83.9501 113.053 83.8318 112.985 83.731C112.846 83.4354 112.707 83.1352 112.564 82.835C112.17 82.0652 111.855 81.2577 111.623 80.4248C112.093 81.1506 112.487 81.9221 112.801 82.7275L113.204 83.6504C113.292 83.8004 113.327 83.9756 113.303 84.1477C113.289 84.1952 113.264 84.2386 113.229 84.2744C113.195 84.3103 113.153 84.3374 113.106 84.3538C113.041 84.3747 112.973 84.3867 112.904 84.3896C112.651 84.4359 112.392 84.4374 112.138 84.3941Z" fill="#263238"/>
<path d="M112.141 90.0926C112.141 90.0926 110.654 90.3255 108.324 89.0532C108.324 89.0532 108.92 91.459 112.235 90.9572L112.141 90.0926Z" fill="#EB996E"/>
<path d="M112.903 78.9423C112.966 79.1707 113.316 79.2648 113.692 79.2648C113.861 79.2773 114.03 79.2529 114.189 79.1933C114.348 79.1338 114.491 79.0404 114.61 78.9199C114.763 78.7003 114.453 78.3867 113.862 78.3957C113.271 78.4047 112.836 78.7227 112.903 78.9423Z" fill="#263238"/>
<path d="M107.801 79.605C107.967 79.7842 108.442 79.717 108.912 79.6409C109.472 79.5154 109.965 79.4079 110.104 79.1929C110.212 79.0719 110.198 78.9196 110.019 78.8076C109.725 78.666 109.391 78.6312 109.074 78.709C108.698 78.7744 108.344 78.9279 108.039 79.157C107.806 79.3497 107.734 79.5154 107.801 79.605Z" fill="#263238"/>
<path d="M110.221 84.484C110.149 84.484 110.284 85.0529 110.835 85.4293C111.386 85.8056 111.95 85.7339 111.932 85.6622C111.914 85.5905 111.457 85.5278 110.991 85.2142C110.525 84.9006 110.297 84.4526 110.221 84.484Z" fill="#263238"/>
<path d="M114.771 76.7381C113.75 77.4818 111.926 77.3832 110.784 76.8411C109.978 76.4603 109.225 75.757 108.342 75.8869C107.527 76.0079 107.101 76.6261 106.895 77.4235C106.767 77.8523 106.477 78.2142 106.086 78.4325C105.696 78.6508 105.236 78.7083 104.803 78.5928C104.933 80.2235 105.171 81.4331 104.687 82.9384C104.602 83.2072 104.239 83.4178 104.019 83.6015C103.919 83.7 103.789 83.7626 103.65 83.7797C103.511 83.7967 103.369 83.7671 103.249 83.6955C103.153 83.597 103.079 83.4795 103.032 83.3506C102.985 83.2217 102.966 83.0843 102.975 82.9474C102.872 81.3301 102.527 79.6008 102.442 77.9835C102.429 77.3953 102.576 76.8144 102.868 76.3035C103.231 75.718 103.758 75.251 104.382 74.9595C105.521 74.2155 106.748 73.6137 108.033 73.1675C109.329 72.7257 110.742 72.7702 112.007 73.293C113.239 73.8664 114.695 74.9685 114.605 76.3215" fill="#263238"/>
<path d="M103.989 81.6972C103.931 81.6703 101.592 81.2985 101.848 83.5922C102.072 85.5769 104.218 85.0796 104.222 85.0124C104.226 84.9452 103.989 81.6972 103.989 81.6972Z" fill="#FFBE9D"/>
<path d="M103.429 84.1077C103.429 84.1077 103.398 84.1077 103.339 84.1615C103.257 84.1941 103.166 84.1941 103.084 84.1615C102.955 84.0846 102.85 83.9747 102.778 83.8431C102.706 83.7115 102.671 83.5631 102.676 83.4133C102.665 83.2465 102.692 83.0792 102.757 82.925C102.815 82.7772 102.905 82.6741 103.008 82.6562C103.047 82.645 103.088 82.6473 103.126 82.6628C103.163 82.6783 103.194 82.7059 103.214 82.7413C103.241 82.7951 103.214 82.8354 103.241 82.8399C103.268 82.8444 103.281 82.804 103.241 82.7234C103.226 82.6762 103.198 82.6343 103.16 82.6024C103.104 82.5636 103.035 82.5475 102.968 82.5576C102.888 82.5763 102.814 82.6149 102.753 82.6697C102.692 82.7245 102.645 82.7938 102.618 82.8712C102.541 83.0443 102.506 83.2331 102.515 83.4223C102.511 83.5967 102.558 83.7684 102.651 83.9165C102.743 84.0645 102.876 84.1823 103.035 84.2556C103.087 84.2687 103.142 84.2703 103.196 84.2603C103.249 84.2502 103.3 84.2288 103.344 84.1973C103.429 84.1525 103.438 84.1122 103.429 84.1077Z" fill="#EB996E"/>
<path d="M131.518 192.564L135.514 202.868L148.335 197.94C147.789 196.743 140.218 196.82 140.218 196.82L137.928 190.126L131.518 192.564Z" fill="#FFC300"/>
<g opacity="0.6">
<path d="M136.037 197.787C135.928 197.872 135.855 197.994 135.831 198.13C135.807 198.265 135.834 198.405 135.907 198.522C135.987 198.634 136.107 198.712 136.242 198.738C136.378 198.763 136.518 198.736 136.633 198.661C136.749 198.571 136.827 198.442 136.852 198.298C136.878 198.154 136.849 198.005 136.772 197.881C136.676 197.773 136.541 197.707 136.396 197.696C136.252 197.685 136.109 197.731 135.997 197.823" fill="white"/>
</g>
<g opacity="0.6">
<path d="M135.513 202.85L135.15 201.797L147.578 197.487C147.578 197.487 148.245 197.519 148.335 197.935L135.513 202.85Z" fill="white"/>
</g>
<path d="M140.402 196.672C140.402 196.735 140.12 196.883 139.887 197.205C139.654 197.528 139.596 197.85 139.529 197.846C139.461 197.841 139.417 197.447 139.703 197.066C139.99 196.685 140.393 196.618 140.402 196.672Z" fill="#263238"/>
<path d="M141.956 196.725C141.996 196.779 141.764 196.99 141.652 197.335C141.54 197.68 141.589 197.984 141.526 198.007C141.463 198.029 141.284 197.689 141.432 197.259C141.58 196.829 141.934 196.672 141.956 196.725Z" fill="#263238"/>
<path d="M143.337 198.043C143.288 198.074 143.077 197.797 143.109 197.393C143.14 196.99 143.377 196.739 143.427 196.78C143.476 196.82 143.36 197.075 143.342 197.407C143.324 197.738 143.413 198.016 143.337 198.043Z" fill="#263238"/>
<path d="M139.707 195.216C139.707 195.283 139.384 195.306 139.039 195.463C138.694 195.619 138.462 195.839 138.408 195.799C138.354 195.758 138.533 195.431 138.945 195.252C139.358 195.073 139.72 195.153 139.707 195.216Z" fill="#263238"/>
<path d="M138.821 193.809C138.821 193.836 138.602 193.97 138.181 194.051C137.933 194.099 137.68 194.116 137.428 194.1C137.277 194.095 137.127 194.077 136.98 194.047C136.893 194.035 136.808 194.009 136.729 193.97C136.671 193.941 136.624 193.894 136.596 193.836C136.568 193.777 136.559 193.711 136.572 193.648C136.587 193.593 136.615 193.541 136.653 193.499C136.691 193.456 136.738 193.423 136.792 193.402C136.873 193.369 136.96 193.35 137.047 193.343C137.196 193.328 137.346 193.328 137.495 193.343C137.748 193.36 137.997 193.414 138.234 193.505C138.638 193.666 138.826 193.863 138.812 193.885C138.799 193.908 138.57 193.773 138.181 193.661C137.954 193.598 137.721 193.563 137.486 193.558C137.348 193.556 137.21 193.565 137.074 193.585C136.922 193.585 136.81 193.643 136.796 193.72C136.783 193.796 136.796 193.755 136.837 193.787C136.895 193.812 136.957 193.831 137.02 193.841C137.158 193.871 137.297 193.893 137.437 193.908C137.674 193.928 137.912 193.928 138.149 193.908C138.37 193.857 138.595 193.824 138.821 193.809Z" fill="#263238"/>
<path d="M138.776 193.93C138.776 193.93 138.547 193.774 138.368 193.375C138.266 193.142 138.206 192.894 138.189 192.64C138.171 192.491 138.171 192.341 138.189 192.192C138.191 192.094 138.219 191.997 138.269 191.913C138.319 191.828 138.39 191.758 138.476 191.708C138.533 191.688 138.595 191.685 138.654 191.699C138.714 191.712 138.768 191.742 138.812 191.784C138.873 191.848 138.925 191.918 138.968 191.995C139.046 192.135 139.102 192.286 139.134 192.443C139.189 192.696 139.181 192.959 139.112 193.209C138.986 193.657 138.758 193.814 138.744 193.796C138.731 193.778 138.883 193.567 138.95 193.173C138.992 192.947 138.983 192.714 138.924 192.492C138.889 192.364 138.838 192.24 138.771 192.125C138.7 191.999 138.605 191.905 138.561 191.941C138.516 191.977 138.426 192.107 138.413 192.237C138.392 192.372 138.385 192.508 138.39 192.645C138.396 192.879 138.437 193.112 138.511 193.335C138.65 193.697 138.807 193.908 138.776 193.93Z" fill="#263238"/>
<path d="M88.0352 186.865C88.0352 186.466 104.961 162.382 104.961 162.382L114.31 165.966L92.9811 190.543L88.0352 186.865Z" fill="#FFBE9D"/>
<path d="M88.0358 186.865L87.8835 187.062L84.9805 190.848L81.3965 193.316L86.217 202.599H91.5213C91.5213 202.599 91.136 201.327 88.5869 200.664L88.4166 195.57L92.9997 190.534" fill="#FFC300"/>
<g opacity="0.6">
<path d="M81.377 193.321L86.1974 202.604L91.5018 202.608L90.9059 201.811L86.5917 201.569L82.143 192.797L81.377 193.321Z" fill="white"/>
</g>
<path d="M88.5324 198.339C88.4966 198.392 88.1875 198.218 87.7798 198.231C87.3721 198.245 87.0675 198.415 87.0271 198.361C86.9868 198.307 87.278 198.003 87.7753 197.998C88.2726 197.994 88.5817 198.298 88.5324 198.339Z" fill="#263238"/>
<path d="M88.4518 197.075C88.3981 197.116 88.1606 196.802 87.7395 196.717C87.3184 196.632 86.9779 196.829 86.9421 196.775C86.9062 196.721 86.9869 196.659 87.1347 196.578C87.3351 196.476 87.5643 196.444 87.7848 196.489C88.0053 196.534 88.2041 196.652 88.3488 196.824C88.4518 196.954 88.4742 197.062 88.4518 197.075Z" fill="#263238"/>
<path d="M88.4872 195.453C88.429 195.48 88.2453 195.175 87.8779 195.046C87.5106 194.916 87.1746 195.046 87.1477 194.978C87.1208 194.911 87.2015 194.88 87.3493 194.826C87.5448 194.756 87.7586 194.756 87.9541 194.826C88.1504 194.897 88.3175 195.031 88.429 195.207C88.5051 195.328 88.5141 195.44 88.4872 195.453Z" fill="#263238"/>
<path d="M89.9083 194.194C89.8456 194.194 89.6932 193.917 89.3662 193.702C89.0392 193.487 88.7076 193.455 88.7032 193.392C88.6987 193.33 89.0974 193.24 89.4961 193.509C89.8948 193.778 89.971 194.19 89.9083 194.194Z" fill="#263238"/>
<path d="M90.5985 193.088C90.5716 193.088 90.3969 192.891 90.1505 192.532L89.7025 191.896C89.5986 191.76 89.5155 191.609 89.4561 191.448C89.4259 191.34 89.4371 191.225 89.4874 191.126C89.5193 191.07 89.5667 191.024 89.624 190.995C89.6813 190.965 89.7459 190.953 89.81 190.96C89.9955 190.995 90.1667 191.084 90.3028 191.215C90.4269 191.322 90.5354 191.446 90.6253 191.583C90.7747 191.814 90.8696 192.076 90.9031 192.349C90.9589 192.597 90.9155 192.857 90.7821 193.074C90.7845 192.841 90.7711 192.607 90.7418 192.375C90.6659 191.99 90.4604 191.642 90.1594 191.39C90.0553 191.295 89.929 191.227 89.7921 191.193C89.773 191.188 89.753 191.191 89.7353 191.199C89.7175 191.207 89.7028 191.22 89.6935 191.238C89.6753 191.287 89.6753 191.341 89.6935 191.39C89.7485 191.52 89.8176 191.643 89.8996 191.757L90.3073 192.425C90.4397 192.629 90.538 192.852 90.5985 193.088Z" fill="#263238"/>
<path d="M90.7911 193.263C90.7642 193.263 90.7911 192.985 91.0734 192.667C91.2703 192.457 91.5293 192.316 91.8123 192.264C92.0954 192.213 92.3876 192.253 92.6458 192.38C92.6721 192.405 92.6929 192.435 92.7068 192.468C92.7207 192.501 92.7274 192.537 92.7265 192.573C92.7253 192.634 92.7031 192.692 92.6638 192.739C92.6091 192.805 92.544 192.863 92.4711 192.909C92.3548 192.992 92.2302 193.062 92.0993 193.119C91.8786 193.223 91.6425 193.289 91.4004 193.317C90.9882 193.361 90.7374 193.281 90.7463 193.254C90.7553 193.227 90.9972 193.254 91.3735 193.151C91.5932 193.105 91.8056 193.029 92.0052 192.927C92.1221 192.866 92.2343 192.798 92.3412 192.721C92.3927 192.689 92.4382 192.648 92.4756 192.6C92.5025 192.555 92.4756 192.568 92.4756 192.555C92.4268 192.527 92.3739 192.508 92.3188 192.497C92.2539 192.482 92.1881 192.471 92.1217 192.465C91.9956 192.458 91.8692 192.467 91.7454 192.492C91.5335 192.542 91.3367 192.641 91.1719 192.783C90.9031 193.034 90.827 193.281 90.7911 193.263Z" fill="#263238"/>
<g opacity="0.6">
<path d="M84.9846 193.792C85.331 193.792 85.6118 193.511 85.6118 193.164C85.6118 192.818 85.331 192.537 84.9846 192.537C84.6382 192.537 84.3574 192.818 84.3574 193.164C84.3574 193.511 84.6382 193.792 84.9846 193.792Z" fill="white"/>
</g>
<path d="M139.604 112.547H142.821C144.322 112.493 145.155 112.52 145.599 112.148C146.186 111.651 145.451 111.082 145.451 111.082C145.451 111.082 146.553 110.777 146.49 110.114C146.45 109.666 145.939 109.581 145.939 109.581C145.939 109.581 146.916 109.267 147.126 108.882C147.413 108.353 146.759 108.026 146.759 108.026C148.103 107.305 148.036 106.507 147.74 106.409C147.444 106.31 146.396 106.718 146.396 106.718C145.527 106.911 143.153 107.484 144.093 106.248C145.034 105.011 145.294 103.712 145.119 103.309C145.067 103.225 144.991 103.158 144.901 103.119C144.81 103.079 144.71 103.067 144.613 103.086C144.516 103.104 144.427 103.152 144.357 103.222C144.287 103.292 144.241 103.382 144.223 103.479C144.058 103.976 143.824 104.448 143.529 104.881C143.304 105.238 143.021 105.554 142.691 105.818C142.306 106.118 141.97 106.36 141.674 106.561L138.377 108.165L139.604 112.547Z" fill="#FFBE9D"/>
<path d="M141.32 105.114L143.036 113.635L147.229 113.205L147.35 104.496L141.32 105.114Z" fill="#E0E0E0"/>
<path d="M141.209 104.003C140.983 104.35 140.885 104.765 140.931 105.177L147.745 104.478C147.758 104.267 147.719 104.057 147.631 103.865C147.542 103.674 147.408 103.507 147.239 103.38L141.209 104.003Z" fill="#455A64"/>
<path d="M141.903 103.134L141.76 104.008L146.912 103.519L146.477 102.655L141.903 103.134Z" fill="#455A64"/>
<path d="M141.459 107.278C141.459 107.359 142.404 111.557 142.404 111.557L147.529 111.032L147.574 106.646L141.459 107.278Z" fill="#455A64"/>
<path d="M149.321 106.503C149.378 106.458 149.415 106.393 149.424 106.321C149.434 106.249 149.414 106.176 149.37 106.118C149.277 106.005 149.144 105.933 148.999 105.916C148.394 105.877 147.794 106.043 147.296 106.387C146.762 106.642 146.269 106.978 145.836 107.381C145.719 107.502 145.603 107.673 145.665 107.829C145.698 107.89 145.746 107.941 145.804 107.978C145.862 108.015 145.928 108.036 145.997 108.04C146.309 108.091 146.628 108.024 146.893 107.852C146.461 107.988 146.075 108.24 145.777 108.582C145.717 108.639 145.67 108.708 145.64 108.786C145.611 108.864 145.599 108.947 145.607 109.03C145.636 109.123 145.697 109.203 145.779 109.255C145.861 109.308 145.959 109.329 146.055 109.317C146.246 109.29 146.427 109.218 146.584 109.106C146.191 109.189 145.835 109.394 145.567 109.693C145.481 109.77 145.428 109.878 145.419 109.993C145.419 110.217 145.688 110.352 145.912 110.338C146.134 110.297 146.358 110.273 146.584 110.266C146.354 110.279 146.131 110.346 145.933 110.463C145.734 110.58 145.567 110.743 145.446 110.938C145.356 111.091 145.303 111.306 145.446 111.418C145.493 111.449 145.545 111.471 145.601 111.482C145.656 111.493 145.713 111.492 145.768 111.481L146.252 111.449C146.515 111.446 146.776 111.399 147.023 111.31C147.147 111.266 147.258 111.192 147.347 111.096C147.436 110.999 147.5 110.882 147.534 110.755C147.56 110.627 147.536 110.493 147.466 110.382C147.395 110.272 147.285 110.193 147.157 110.163C147.492 110.052 147.777 109.827 147.964 109.527C148.004 109.451 148.029 109.368 148.035 109.282C148.041 109.196 148.029 109.11 147.999 109.029C147.97 108.948 147.923 108.874 147.863 108.813C147.803 108.751 147.73 108.703 147.65 108.672C147.905 108.3 148.546 108.3 148.703 107.87C148.797 107.583 148.595 107.292 148.403 107.054C148.6 107.022 148.788 106.948 148.954 106.836C149.121 106.725 149.261 106.579 149.366 106.409" fill="#FFBE9D"/>
<path d="M148.533 107.072C148.301 107.253 148.047 107.403 147.776 107.52C147.486 107.668 147.187 107.796 146.88 107.905C146.698 107.967 146.512 108.019 146.325 108.062C146.215 108.082 146.103 108.082 145.993 108.062C145.927 108.052 145.865 108.027 145.81 107.99C145.755 107.953 145.709 107.904 145.675 107.847C145.623 107.735 145.61 107.609 145.636 107.488C145.663 107.367 145.729 107.259 145.823 107.179C145.972 107.054 146.134 106.944 146.307 106.852L147.136 106.373C147.38 106.209 147.643 106.075 147.92 105.974C147.704 106.175 147.465 106.35 147.207 106.494L146.405 107.013C146.247 107.103 146.097 107.207 145.957 107.323C145.891 107.374 145.845 107.446 145.824 107.527C145.804 107.609 145.812 107.694 145.845 107.771C145.912 107.901 146.105 107.914 146.293 107.878C146.472 107.84 146.649 107.793 146.822 107.735C147.126 107.639 147.426 107.527 147.718 107.399C147.978 107.262 148.251 107.152 148.533 107.072Z" fill="#EB996E"/>
<path d="M147.915 108.559C147.737 108.686 147.54 108.786 147.333 108.855L146.674 109.128L146.284 109.281C146.128 109.351 145.954 109.368 145.787 109.33C145.737 109.315 145.691 109.29 145.651 109.257C145.611 109.224 145.578 109.183 145.554 109.137C145.518 109.045 145.518 108.943 145.554 108.85C145.609 108.702 145.705 108.573 145.832 108.479C146.01 108.316 146.205 108.173 146.414 108.053C146.596 107.923 146.807 107.839 147.028 107.807C146.857 107.941 146.678 108.064 146.49 108.174C146.301 108.31 146.123 108.459 145.957 108.622C145.862 108.699 145.788 108.799 145.742 108.913C145.733 108.936 145.729 108.961 145.731 108.986C145.732 109.011 145.738 109.035 145.75 109.057C145.761 109.079 145.777 109.098 145.797 109.114C145.816 109.129 145.839 109.14 145.863 109.146C146.078 109.209 146.387 109.03 146.629 108.962L147.292 108.73C147.49 108.643 147.7 108.585 147.915 108.559Z" fill="#EB996E"/>
<path d="M147.364 109.917C147.186 110.091 146.965 110.216 146.724 110.28C146.469 110.37 146.204 110.426 145.935 110.445C145.845 110.456 145.754 110.449 145.667 110.423C145.58 110.398 145.499 110.355 145.429 110.298C145.349 110.228 145.297 110.133 145.281 110.029C145.274 109.973 145.278 109.917 145.293 109.863C145.308 109.809 145.335 109.758 145.371 109.715C145.496 109.579 145.649 109.471 145.819 109.397C145.957 109.316 146.096 109.245 146.231 109.178C146.495 109.043 146.741 108.931 146.952 108.846C147.171 108.737 147.405 108.661 147.646 108.622C147.449 108.765 147.235 108.883 147.01 108.976C146.809 109.075 146.562 109.2 146.316 109.339L145.917 109.567C145.78 109.635 145.656 109.726 145.55 109.836C145.531 109.859 145.516 109.885 145.508 109.914C145.499 109.942 145.496 109.972 145.499 110.002C145.502 110.031 145.51 110.06 145.525 110.086C145.539 110.112 145.558 110.136 145.581 110.154C145.684 110.234 145.814 110.272 145.944 110.262C146.2 110.251 146.454 110.211 146.701 110.141C147.104 110.024 147.351 109.89 147.364 109.917Z" fill="#EB996E"/>
<path d="M145.653 111.552C145.653 111.552 145.608 111.583 145.532 111.552C145.478 111.531 145.431 111.498 145.393 111.455C145.354 111.412 145.327 111.361 145.312 111.306C145.294 111.223 145.294 111.137 145.315 111.055C145.335 110.972 145.374 110.895 145.429 110.831C145.549 110.686 145.703 110.572 145.877 110.499C146.274 110.265 146.709 110.105 147.163 110.024C146.794 110.287 146.395 110.505 145.975 110.674C145.824 110.737 145.687 110.83 145.572 110.947C145.531 110.991 145.499 111.042 145.479 111.099C145.458 111.155 145.449 111.215 145.451 111.274C145.465 111.48 145.653 111.516 145.653 111.552Z" fill="#EB996E"/>
<path d="M85.1996 134.292L85.0517 135.372L82.3324 136.716C82.0269 136.81 81.7635 137.007 81.587 137.273C81.4105 137.539 81.3319 137.859 81.3647 138.177L81.5439 139.879C81.5739 140.19 81.6973 140.485 81.898 140.725C82.0987 140.965 82.3672 141.139 82.6684 141.223L86.7855 142.388C86.8837 142.416 86.9865 142.424 87.0879 142.411C87.1893 142.399 87.2872 142.367 87.376 142.316C87.4648 142.266 87.5427 142.198 87.6051 142.118C87.6676 142.037 87.7133 141.944 87.7397 141.846C87.785 141.667 87.7647 141.479 87.6825 141.314C87.6002 141.15 87.4615 141.02 87.2917 140.95L84.1288 139.668C84.0875 139.395 84.1469 139.115 84.296 138.882C84.4452 138.649 84.6739 138.478 84.9397 138.401L87.8607 137.536L88.2236 139.776C88.2514 139.974 88.3494 140.156 88.4998 140.289C88.6502 140.421 88.8431 140.495 89.0434 140.497C89.0977 140.502 89.1524 140.495 89.2038 140.476C89.2551 140.458 89.3021 140.429 89.3414 140.392C89.3808 140.354 89.4117 140.308 89.4322 140.258C89.4526 140.207 89.4621 140.153 89.4601 140.099C89.5228 139.332 89.8005 135.094 89.8005 135.094L85.1996 134.292Z" fill="#FFBE9D"/>
<path d="M72.2524 200.01C72.3734 200.436 72.3651 200.889 72.2286 201.311C72.092 201.732 71.8334 202.104 71.4855 202.379C71.1375 202.654 70.7159 202.819 70.274 202.854C69.832 202.889 69.3896 202.792 69.0029 202.575C68.6161 202.359 68.3023 202.032 68.1012 201.637C67.9001 201.242 67.8207 200.796 67.8732 200.356C67.9256 199.916 68.1075 199.501 68.3958 199.164C68.6841 198.827 69.0659 198.584 69.4927 198.464C70.0636 198.304 70.6747 198.377 71.192 198.667C71.7093 198.956 72.0906 199.439 72.2524 200.01Z" fill="#263238"/>
<path d="M70.5672 200.57L71.5439 197.613L70.7823 197.254L69.8594 200.332L70.5672 200.57Z" fill="#455A64"/>
<path d="M78.5059 164.667L83.9759 141.738L85.6694 142.325L80.4278 165.021L78.5059 164.667Z" fill="#263238"/>
<path d="M78.0628 159.342L80.1048 159.856C81.7894 160.28 83.2367 161.356 84.1282 162.846C85.0198 164.337 85.2826 166.121 84.8588 167.806L77.1811 198.327C77.1011 198.645 76.8981 198.918 76.6166 199.087C76.3352 199.255 75.9984 199.304 75.6804 199.224L63.3329 196.118C63.0148 196.038 62.7416 195.835 62.5733 195.554C62.405 195.272 62.3554 194.936 62.4354 194.618L70.1131 164.096C70.3229 163.262 70.695 162.478 71.2081 161.787C71.7211 161.097 72.3652 160.514 73.1034 160.073C73.8416 159.632 74.6595 159.34 75.5104 159.215C76.3614 159.089 77.2287 159.133 78.0628 159.342Z" fill="#FFC300"/>
<path d="M82.5742 147.621L84.3393 148.082L86.4315 139.776L84.532 139.225L82.5742 147.621Z" fill="#263238"/>
<path d="M77.145 198.804C77.145 198.804 77.145 198.737 77.1853 198.607C77.2257 198.477 77.2615 198.276 77.3153 198.029C77.4407 197.518 77.6154 196.775 77.8439 195.821C78.2919 193.894 78.9818 191.126 79.8151 187.703C80.6484 184.28 81.6519 180.194 82.7629 175.67C83.3185 173.403 83.9009 171.028 84.5101 168.564C84.6625 167.946 84.8148 167.328 84.9581 166.701C85.1195 166.084 85.1195 165.436 84.9581 164.819C84.7943 164.189 84.4635 163.615 84.0006 163.158C83.5378 162.7 82.96 162.376 82.3282 162.22C81.6965 162.063 81.0342 162.08 80.4113 162.269C79.7884 162.457 79.228 162.811 78.7892 163.291C78.3616 163.766 78.0638 164.343 77.9245 164.967C77.7677 165.594 77.6154 166.212 77.4765 166.83L75.7204 173.931C74.5959 178.456 73.5789 182.533 72.7277 185.956C71.8765 189.378 71.1821 192.138 70.6983 194.06L70.1383 196.26C70.0711 196.506 70.0218 196.708 69.986 196.833C69.9501 196.958 69.9277 197.026 69.9277 197.026C69.9277 197.026 69.9277 196.958 69.9681 196.829C70.0084 196.699 70.0442 196.497 70.098 196.251C70.2234 195.74 70.3981 194.996 70.6266 194.042C71.0746 192.116 71.7645 189.347 72.5978 185.924C73.4311 182.502 74.4346 178.42 75.5457 173.891C76.1012 171.624 76.6881 169.25 77.2929 166.786C77.4452 166.167 77.5945 165.545 77.7409 164.918C77.8848 164.265 78.1933 163.661 78.6369 163.161C79.0982 162.646 79.691 162.266 80.3518 162.062C81.0126 161.858 81.7165 161.837 82.388 162.003C83.0596 162.168 83.6736 162.513 84.1642 163C84.6548 163.487 85.0036 164.099 85.1732 164.77C85.3413 165.418 85.3413 166.098 85.1732 166.745C85.0164 167.373 84.8641 167.995 84.7252 168.609C84.1159 171.073 83.529 173.447 82.9645 175.71C81.8445 180.235 80.8276 184.311 79.9809 187.734C79.1341 191.157 78.4308 193.917 77.9469 195.838L77.3869 198.038C77.3197 198.285 77.2705 198.486 77.2346 198.612C77.1988 198.737 77.145 198.804 77.145 198.804Z" fill="#263238"/>
<path d="M75.0302 176.718C75.0302 176.803 73.3143 176.382 71.2356 175.773C69.1569 175.163 67.4769 174.603 67.4903 174.518C67.5038 174.433 69.2062 174.854 71.2894 175.464C73.3726 176.073 75.0481 176.633 75.0302 176.718Z" fill="#263238"/>
<path d="M83.9454 141.568C83.643 141.533 83.3498 141.441 83.0807 141.299C82.9387 141.238 82.8023 141.164 82.6731 141.08C82.5888 141.029 82.5156 140.962 82.458 140.882C82.4091 140.801 82.3671 140.716 82.3326 140.627C82.2086 140.241 82.1275 139.843 82.0907 139.44C82.0324 139.028 81.9831 138.638 81.9294 138.262C81.8981 138.084 81.8891 137.904 81.9025 137.724C81.908 137.63 81.9373 137.539 81.9876 137.46C82.0347 137.396 82.0905 137.338 82.1534 137.289C82.3801 137.079 82.6635 136.938 82.9687 136.886C82.9687 136.918 82.6641 137.056 82.2654 137.415C82.2152 137.456 82.1714 137.504 82.1355 137.558C82.1092 137.616 82.0954 137.679 82.0951 137.742C82.0933 137.907 82.1098 138.073 82.1444 138.235C82.1982 138.607 82.2564 138.996 82.3191 139.408C82.3565 139.795 82.4285 140.177 82.5342 140.551C82.5603 140.629 82.5949 140.704 82.6372 140.775C82.6771 140.833 82.7272 140.883 82.7851 140.923C82.9017 141.01 83.0262 141.087 83.1569 141.151C83.4289 141.272 83.6923 141.411 83.9454 141.568Z" fill="#EB996E"/>
<path d="M100.807 131.461C100.503 128.773 100.395 118.321 100.395 118.321C100.014 113.447 99.8306 108.134 99.5439 104.599C98.5627 92.6282 107.043 93.2151 107.043 93.2151L110.067 93.2554C113.651 93.5242 116.339 95.9434 116.864 99.2855L123.785 130.816L100.807 131.461Z" fill="#FFC300"/>
<path d="M103.432 94.3937L103.253 92.1089C103.242 91.9737 103.26 91.8377 103.306 91.7099C103.351 91.5821 103.423 91.4655 103.517 91.3677C103.611 91.2698 103.725 91.1931 103.851 91.1425C103.977 91.0918 104.112 91.0685 104.248 91.074L112.379 91.3921C112.626 91.4014 112.86 91.5058 113.032 91.6837C113.204 91.8615 113.301 92.099 113.302 92.3464V94.9985L103.432 94.3937Z" fill="#FFC300"/>
<path d="M94.9033 114.195L106.466 103.783C106.466 103.783 110.279 96.808 103.25 94.2141C103.25 94.2141 103.321 93.9812 97.5823 98.9271C94.1238 101.911 90.6428 104.939 88.4297 106.875C87.6801 107.527 87.0694 108.324 86.6338 109.218C86.1982 110.111 85.9467 111.083 85.894 112.076L84.6934 134.203L92.4303 135.547L94.9033 114.195Z" fill="#FFC300"/>
<path d="M119.22 98.188L125.25 109.536L139.196 107.117L140.943 114.424L124.677 118.657C123.929 118.893 123.132 118.923 122.369 118.742C121.644 118.57 120.975 118.214 120.427 117.71C119.878 117.206 119.467 116.569 119.233 115.862L113.297 100.428C112.755 99.0258 111.626 96.1362 112.737 95.1148L111.967 94.9132C113.772 93.2287 118.033 95.5 119.22 98.188Z" fill="#FFC300"/>
<path d="M124.175 114.325C124.017 114.112 123.913 113.865 123.87 113.604C123.728 112.983 123.728 112.339 123.87 111.718C124.009 111.096 124.284 110.513 124.676 110.011C124.985 109.635 125.236 109.464 125.254 109.487C125.118 109.704 124.969 109.912 124.806 110.11C124.469 110.614 124.227 111.175 124.094 111.767C123.969 112.357 123.953 112.964 124.045 113.559C124.105 113.811 124.148 114.067 124.175 114.325Z" fill="#263238"/>
<path d="M94.9035 114.294C94.6007 113.848 94.2668 113.425 93.9044 113.026C93.49 112.684 93.0513 112.373 92.5918 112.094C93.1463 112.203 93.6581 112.468 94.0675 112.858C94.4769 113.247 94.7669 113.746 94.9035 114.294Z" fill="#263238"/>
<path d="M121.201 101.324C121.201 101.387 115.328 101.44 108.093 101.44C100.858 101.44 94.9844 101.387 94.9844 101.324C94.9844 101.261 100.853 101.208 108.093 101.208C115.333 101.208 121.201 101.248 121.201 101.324Z" fill="#FAFAFA"/>
<path d="M96.7539 99.6395H120.175L115.995 97.3233L112.237 99.4199L107.497 97.1172L103.25 99.3214L99.9347 96.9111L96.7539 99.6395Z" fill="#FAFAFA"/>
<path d="M123.799 107.014C123.799 107.077 115.879 107.13 106.112 107.13C96.3458 107.13 88.4297 107.077 88.4297 107.014C88.4297 106.951 96.3458 106.897 106.112 106.897C115.879 106.897 123.799 106.951 123.799 107.014Z" fill="#FAFAFA"/>
<path d="M95.3145 105.329H119.497L115.318 103.013L111.559 105.114L106.824 102.812L102.572 105.011L98.9433 102.812L95.3145 105.329Z" fill="#FAFAFA"/>
<path d="M121.657 102.812L119.498 105.329H122.997L121.657 102.812Z" fill="#FAFAFA"/>
<path d="M95.4139 105.329L93.1874 102.731L90.1992 105.329H95.4139Z" fill="#FAFAFA"/>
<path d="M105.65 105.047C105.54 105.192 105.412 105.323 105.269 105.437L104.167 106.427C103.226 107.251 101.927 108.384 100.471 109.625C99.015 110.866 97.6934 111.973 96.7302 112.761L95.5789 113.693C95.4416 113.815 95.2913 113.922 95.1309 114.011C95.2407 113.866 95.3687 113.735 95.5117 113.622L96.6182 112.632C97.5545 111.807 98.8582 110.674 100.31 109.437C101.761 108.201 103.083 107.085 104.051 106.301L105.202 105.365C105.339 105.243 105.489 105.136 105.65 105.047Z" fill="#263238"/>
<path d="M113.961 94.2098L100.221 126.506L100.633 130.319L115.995 94.9983C115.773 94.6795 115.46 94.4341 115.098 94.2937C114.736 94.1532 114.34 94.124 113.961 94.2098Z" fill="#455A64"/>
<path d="M101.064 126.506H99.3567C98.7021 126.507 98.0724 126.758 97.5956 127.206C97.1188 127.655 96.8306 128.268 96.7896 128.921L95.925 142.728C95.9022 143.091 95.9567 143.455 96.0849 143.796C96.2131 144.136 96.412 144.445 96.6686 144.703C96.9252 144.961 97.2336 145.162 97.5734 145.292C97.9132 145.421 98.2767 145.478 98.6399 145.457C99.2951 145.419 99.9112 145.132 100.362 144.655C100.812 144.178 101.063 143.546 101.064 142.89V126.506Z" fill="#455A64"/>
<path d="M101.987 127.232C102.009 127.232 101.794 127.653 101.472 128.33C101.306 128.666 101.113 129.064 100.885 129.508C100.767 129.757 100.595 129.977 100.383 130.153C100.261 130.257 100.11 130.323 99.9502 130.34C99.7904 130.358 99.629 130.327 99.487 130.252C99.3552 130.166 99.2442 130.052 99.162 129.918C99.0799 129.784 99.0287 129.633 99.0121 129.477C98.993 129.2 99.0375 128.923 99.142 128.666C99.3302 128.191 99.5273 127.801 99.6841 127.456C99.8371 127.08 100.025 126.718 100.244 126.376C100.146 126.771 100.01 127.155 99.8364 127.523C99.702 127.868 99.5139 128.285 99.3481 128.737C99.2589 128.964 99.2221 129.207 99.2406 129.45C99.2543 129.571 99.2943 129.687 99.3578 129.791C99.4213 129.894 99.5066 129.983 99.608 130.05C99.7111 130.105 99.8286 130.127 99.9447 130.114C100.061 130.1 100.17 130.051 100.258 129.974C100.447 129.819 100.599 129.625 100.706 129.405L101.337 128.254C101.504 127.884 101.722 127.54 101.987 127.232Z" fill="#263238"/>
<path d="M99.8132 130.122C99.8494 130.327 99.8629 130.536 99.8536 130.744C99.8536 131.192 99.8536 131.761 99.8536 132.447C99.8536 133.885 99.8536 135.869 99.8222 138.065C99.8222 139.158 99.7908 140.202 99.7729 141.156C99.8099 142.007 99.7162 142.859 99.4952 143.683C99.3232 144.244 98.9762 144.735 98.5051 145.085C98.3779 145.174 98.2393 145.247 98.0929 145.3C98.0418 145.322 97.9873 145.336 97.9316 145.34C98.1109 145.239 98.2844 145.129 98.4513 145.009C98.883 144.652 99.1956 144.172 99.3473 143.633C99.5395 142.822 99.6134 141.988 99.5668 141.156C99.5668 140.197 99.5668 139.158 99.5982 138.06C99.6251 135.869 99.6609 133.885 99.7012 132.447C99.7236 131.761 99.7416 131.192 99.755 130.744C99.7576 130.535 99.7771 130.327 99.8132 130.122Z" fill="#263238"/>
<path d="M100.521 128.934C100.522 129.019 100.498 129.102 100.451 129.172C100.405 129.243 100.338 129.298 100.26 129.331C100.183 129.364 100.097 129.373 100.014 129.356C99.9306 129.34 99.8544 129.3 99.7946 129.24C99.7348 129.18 99.6942 129.104 99.6779 129.021C99.6616 128.938 99.6704 128.852 99.7032 128.774C99.7359 128.696 99.7912 128.629 99.8619 128.583C99.9325 128.537 100.015 128.512 100.1 128.513C100.212 128.513 100.319 128.558 100.398 128.637C100.477 128.716 100.521 128.823 100.521 128.934Z" fill="#263238"/>
<path d="M122.357 124.311C122.32 124.239 122.293 124.162 122.277 124.082C122.227 123.908 122.169 123.688 122.093 123.419C121.941 122.841 121.73 122.004 121.479 120.964C120.977 118.89 120.328 116.009 119.656 112.82C118.984 109.63 118.406 106.731 117.998 104.635C117.806 103.609 117.644 102.771 117.55 102.148C117.501 101.875 117.465 101.651 117.434 101.472C117.413 101.393 117.404 101.312 117.407 101.23C117.44 101.305 117.464 101.383 117.479 101.463L117.64 102.13C117.774 102.749 117.958 103.582 118.182 104.603C118.63 106.722 119.235 109.594 119.907 112.77C120.579 115.947 121.201 118.841 121.663 120.929L122.205 123.397L122.344 124.073C122.359 124.152 122.364 124.232 122.357 124.311Z" fill="#263238"/>
<path d="M113.316 94.2503C113.316 94.3175 111.098 94.3712 108.388 94.3712C105.678 94.3712 103.438 94.3175 103.438 94.2503C103.438 94.1831 105.655 94.1338 108.388 94.1338C111.121 94.1338 113.316 94.1876 113.316 94.2503Z" fill="#263238"/>
<path d="M105.077 94.2097C104.922 93.1971 104.922 92.1668 105.077 91.1543C105.233 92.1668 105.233 93.1971 105.077 94.2097Z" fill="#263238"/>
<path d="M107.304 94.2099C107.149 93.2184 107.149 92.2088 107.304 91.2173C107.459 92.2088 107.459 93.2184 107.304 94.2099Z" fill="#263238"/>
<path d="M109.271 94.1472C109.115 93.1947 109.115 92.2234 109.271 91.271C109.426 92.2234 109.426 93.1947 109.271 94.1472Z" fill="#263238"/>
<path d="M111.605 94.2948C111.449 93.3228 111.449 92.3323 111.605 91.3604C111.76 92.3323 111.76 93.3228 111.605 94.2948Z" fill="#263238"/>
<path d="M111.215 130.977L131.209 195.471L139.941 191.422L123.656 130.319L111.215 130.977Z" fill="#263238"/>
<path d="M100.808 131.461L101.848 165.039L85.6211 187.676L94.4064 193.321L113.697 169.94C114.67 168.765 115.198 167.285 115.189 165.76L115.023 130.816L100.808 131.461Z" fill="#263238"/>
<path d="M106.131 131.215C106.131 131.215 106.194 131.309 106.252 131.502C106.335 131.774 106.389 132.055 106.413 132.339C106.491 133.284 106.309 134.232 105.889 135.081C105.483 135.937 104.857 136.67 104.075 137.205C103.766 137.444 103.413 137.618 103.035 137.715C103.035 137.679 103.42 137.5 103.976 137.075C104.699 136.52 105.282 135.804 105.678 134.983C106.082 134.165 106.277 133.26 106.247 132.348C106.229 131.649 106.091 131.224 106.131 131.215Z" fill="#455A64"/>
<path d="M124.27 135.099C123.993 135.052 123.73 134.945 123.499 134.785C122.317 134.097 121.454 132.97 121.098 131.649C121.013 131.38 120.984 131.097 121.013 130.816C121.262 131.707 121.661 132.549 122.191 133.307C122.776 134.019 123.479 134.625 124.27 135.099Z" fill="#455A64"/>
<path d="M110.121 131.125C110.126 131.182 110.126 131.239 110.121 131.295C110.121 131.416 110.143 131.582 110.161 131.788C110.188 132.236 110.233 132.877 110.282 133.697C110.385 135.35 110.524 137.729 110.654 140.708C110.784 143.687 110.891 147.199 110.869 151.124C110.869 153.081 110.806 155.156 110.717 157.275C110.627 159.394 110.542 161.634 109.924 163.838C109.305 166.042 108.038 167.937 106.788 169.662C105.538 171.387 104.243 172.991 103.038 174.541C100.637 177.636 98.4414 180.401 96.5822 182.712C94.723 185.024 93.2043 186.879 92.147 188.155L90.9195 189.62L90.5969 189.997C90.5622 190.042 90.5232 190.084 90.4805 190.122C90.5104 190.074 90.5433 190.027 90.579 189.983L90.8837 189.589L92.0753 188.097C93.1192 186.793 94.611 184.921 96.4523 182.609C98.2936 180.297 100.484 177.511 102.868 174.411L106.604 169.528C107.872 167.825 109.126 165.97 109.718 163.798C110.309 161.625 110.421 159.412 110.511 157.284C110.6 155.156 110.658 153.099 110.676 151.142C110.712 147.226 110.623 143.696 110.511 140.735C110.399 137.773 110.287 135.39 110.215 133.723C110.179 132.904 110.157 132.263 110.134 131.815C110.134 131.604 110.134 131.443 110.134 131.318C110.123 131.254 110.119 131.189 110.121 131.125Z" fill="#455A64"/>
<path d="M135.823 192.81C135.761 192.81 131.868 178.922 127.128 161.723C122.388 144.525 118.616 130.587 118.661 130.569C118.705 130.551 122.616 144.457 127.356 161.661C132.096 178.864 135.886 192.792 135.823 192.81Z" fill="#455A64"/>
<path d="M206.078 134.57H181.191V137.989H206.078V134.57Z" fill="#263238"/>
<path d="M206.131 138.033H181.15V134.526H206.131V138.033ZM181.244 137.948H206.046V134.611H181.236L181.244 137.948Z" fill="#263238"/>
<path d="M183.498 136.851L187.082 154.524H200.338L203.801 137.989L183.498 136.851Z" fill="#263238"/>
<path d="M183.498 152.853L185.411 155.479H201.521L203.801 152.853H183.498Z" fill="#263238"/>
<path d="M192.691 137.366C192.642 137.366 192.579 129.181 192.552 119.083C192.525 108.985 192.552 100.796 192.588 100.796C192.624 100.796 192.7 108.981 192.731 119.083C192.762 129.186 192.749 137.366 192.691 137.366Z" fill="#263238"/>
<path d="M198.247 116.879C198.232 116.944 198.209 117.007 198.18 117.067L197.956 117.6L197.795 117.981C197.745 118.124 197.687 118.281 197.629 118.429C197.571 118.577 197.503 118.774 197.436 118.962C197.369 119.15 197.32 119.356 197.253 119.567C196.956 120.566 196.724 121.584 196.558 122.613C196.362 123.876 196.234 125.149 196.173 126.426C196.08 128.748 196.146 131.074 196.37 133.388C196.451 134.284 196.531 134.992 196.589 135.489C196.612 135.722 196.634 135.91 196.652 136.062C196.66 136.129 196.66 136.197 196.652 136.264C196.63 136.2 196.615 136.134 196.607 136.067C196.581 135.919 196.549 135.731 196.509 135.498C196.433 135.005 196.33 134.288 196.236 133.401C195.974 131.083 195.89 128.748 195.985 126.417C196.049 125.134 196.184 123.855 196.388 122.586C196.565 121.553 196.811 120.532 197.123 119.531C197.194 119.32 197.253 119.114 197.32 118.922C197.387 118.729 197.463 118.559 197.526 118.393L197.709 117.945C197.768 117.806 197.83 117.681 197.884 117.564L198.14 117.049C198.168 116.988 198.204 116.931 198.247 116.879Z" fill="#263238"/>
<path d="M197.62 110.257C197.599 110.349 197.572 110.439 197.539 110.526L197.279 111.288L197.091 111.834L196.89 112.497C196.746 112.972 196.576 113.51 196.442 114.115C196.365 114.419 196.28 114.733 196.195 115.06L195.962 116.099C195.787 116.812 195.662 117.582 195.514 118.393C195.241 120.019 194.999 121.816 194.833 123.711C194.667 125.606 194.605 127.425 194.582 129.087C194.56 130.749 194.582 132.223 194.667 133.468C194.69 134.091 194.726 134.655 194.762 135.153C194.797 135.65 194.82 136.071 194.851 136.421C194.883 136.77 194.896 137.021 194.914 137.222C194.919 137.316 194.919 137.411 194.914 137.505C194.889 137.414 194.874 137.321 194.869 137.227C194.842 137.025 194.811 136.779 194.775 136.425C194.739 136.071 194.69 135.654 194.654 135.157C194.618 134.66 194.56 134.1 194.533 133.477C194.448 132.227 194.412 130.74 194.412 129.087C194.412 127.434 194.488 125.615 194.645 123.711C194.802 121.807 195.062 120.006 195.344 118.375C195.51 117.569 195.64 116.794 195.823 116.077C195.904 115.718 195.989 115.373 196.065 115.042C196.141 114.71 196.244 114.397 196.325 114.097C196.486 113.492 196.661 112.954 196.818 112.479L197.033 111.821L197.239 111.279L197.53 110.526C197.552 110.434 197.582 110.344 197.62 110.257Z" fill="#263238"/>
<path d="M191.128 138.817C191.122 138.785 191.122 138.752 191.128 138.719L191.105 138.437C191.105 138.177 191.06 137.814 191.029 137.352C190.971 136.398 190.886 135.041 190.783 133.365C190.563 130.001 190.254 125.346 189.685 120.234C189.394 117.676 189.062 115.248 188.713 113.066C188.525 111.969 188.359 110.92 188.166 109.93C187.974 108.94 187.803 108.053 187.629 107.242C187.454 106.432 187.284 105.674 187.136 105.002C186.988 104.33 186.854 103.788 186.737 103.331C186.621 102.874 186.54 102.534 186.477 102.279C186.451 102.167 186.433 102.077 186.415 102.001C186.409 101.97 186.409 101.938 186.415 101.907C186.415 101.907 186.415 101.938 186.446 101.996L186.527 102.27C186.594 102.52 186.692 102.87 186.818 103.318C186.943 103.766 187.091 104.33 187.266 104.98C187.441 105.63 187.611 106.373 187.781 107.22C187.951 108.067 188.162 108.949 188.341 109.908C188.52 110.867 188.713 111.928 188.906 113.044C189.264 115.248 189.604 117.681 189.891 120.239C190.46 125.36 190.751 130.014 190.935 133.388C191.029 135.072 191.092 136.434 191.132 137.379C191.132 137.827 191.159 138.204 191.172 138.464C191.172 138.58 191.172 138.674 191.172 138.746C191.161 138.771 191.145 138.795 191.128 138.817Z" fill="#263238"/>
<path d="M192.499 104.734C192.391 103.574 191.217 102.695 190.053 102.687C189.469 102.712 188.899 102.87 188.386 103.148C187.873 103.427 187.43 103.819 187.091 104.295C186.42 105.25 185.935 106.323 185.662 107.458C184.81 110.18 184.505 113.044 184.766 115.885C185.044 118.746 186.28 121.43 188.274 123.501C188.416 123.684 188.6 123.83 188.811 123.926C189.021 124.023 189.252 124.067 189.484 124.056C189.726 123.98 189.944 123.845 190.12 123.662C192.11 121.848 193.689 119.629 194.751 117.154C195.813 114.679 196.332 112.005 196.275 109.312C196.311 108.232 196.046 107.164 195.509 106.226C194.913 105.33 193.529 104.38 192.517 104.743" fill="#FFC300"/>
<path d="M183.798 95.4242L182.158 98.3944C182.123 98.4616 182.069 98.5423 181.993 98.5468C181.917 98.5512 181.84 98.4751 181.796 98.3989L177.459 91.7596L178.458 91.1951L183.798 95.4242Z" fill="#FFC300"/>
<g opacity="0.2">
<path d="M183.798 95.4242L182.158 98.3944C182.123 98.4616 182.069 98.5423 181.993 98.5468C181.917 98.5512 181.84 98.4751 181.796 98.3989L177.459 91.7596L178.458 91.1951L183.798 95.4242Z" fill="black"/>
</g>
<path d="M192.596 100.8L177.812 92.0687C177.66 91.9791 177.494 91.8761 177.449 91.7058C177.405 91.5356 177.557 91.2578 177.714 91.11C178.731 90.0547 179.964 89.2312 181.329 88.6954C182.693 88.1597 184.157 87.9243 185.621 88.0053C187.087 88.1081 188.506 88.5665 189.755 89.3409C191.003 90.1152 192.045 91.1822 192.789 92.4495C194.214 95.0031 194.263 98.3765 192.623 100.8" fill="#FFC300"/>
<path d="M179.938 89.2774C179.938 89.2774 180 89.2774 180.13 89.2506C180.26 89.2237 180.444 89.2237 180.69 89.2237C181.378 89.217 182.064 89.2725 182.742 89.3894C183.751 89.5617 184.735 89.8629 185.667 90.2854C186.812 90.7993 187.869 91.4869 188.803 92.3238C190.49 93.8698 191.708 95.8582 192.32 98.0627C192.504 98.7267 192.627 99.406 192.688 100.092C192.714 100.334 192.71 100.54 192.714 100.648C192.722 100.713 192.722 100.779 192.714 100.845C192.67 100.597 192.639 100.347 192.62 100.097C192.536 99.4204 192.397 98.7522 192.204 98.0986C191.583 95.9258 190.366 93.9705 188.69 92.4541C187.015 90.9378 184.948 89.9211 182.724 89.5194C182.055 89.3929 181.376 89.321 180.695 89.3043C180.206 89.2819 179.938 89.2909 179.938 89.2774Z" fill="#263238"/>
<path d="M190.594 94.7703C190.359 94.9121 190.108 95.0263 189.846 95.1107C189.398 95.2944 188.717 95.5319 187.982 95.7648C187.248 95.9978 186.567 96.1859 186.074 96.3069C185.813 96.3923 185.542 96.4435 185.268 96.4592C185.517 96.3446 185.776 96.2531 186.043 96.1859L187.929 95.5991L189.806 94.9898C190.06 94.8885 190.324 94.8149 190.594 94.7703Z" fill="#263238"/>
<path d="M188.265 88.5115C188.469 89.602 188.498 90.7181 188.35 91.8177C188.277 91.2698 188.249 90.717 188.265 90.1646C188.222 89.6144 188.222 89.0617 188.265 88.5115Z" fill="#263238"/>
<path d="M177.674 91.8985C178.021 91.7423 178.38 91.6164 178.749 91.5221C179.421 91.3116 180.357 91.0741 181.401 90.8009C182.445 90.5276 183.395 90.3529 184.089 90.2319C184.461 90.1498 184.838 90.0989 185.218 90.0796C184.859 90.201 184.49 90.2938 184.116 90.3573C183.431 90.5097 182.481 90.7202 181.428 90.9711C180.375 91.222 179.448 91.4639 178.767 91.6431C178.409 91.7529 178.044 91.8382 177.674 91.8985Z" fill="#263238"/>
<path d="M185.773 101.987C184.501 101.02 183.157 100.831 181.562 100.894C179.963 101.001 178.398 101.405 176.948 102.086C174.452 103.179 172.109 104.774 170.617 107.068C169.125 109.361 168.61 112.363 169.721 114.849C169.809 115.109 169.989 115.328 170.228 115.463C170.504 115.54 170.799 115.518 171.061 115.4C173.897 114.473 176.755 113.537 179.367 112.09C181.979 110.643 184.349 108.622 185.751 105.988C186.112 105.366 186.34 104.677 186.423 103.963C186.461 103.606 186.423 103.245 186.31 102.904C186.197 102.563 186.013 102.251 185.769 101.987" fill="#FFC300"/>
<path d="M185.801 101.696C185.737 101.731 185.669 101.758 185.599 101.777L185.003 101.983L184.555 102.126L184.049 102.323C183.691 102.467 183.274 102.615 182.835 102.825L182.141 103.143C181.899 103.255 181.657 103.39 181.401 103.52C180.891 103.775 180.367 104.097 179.816 104.416C178.633 105.158 177.51 105.991 176.456 106.906C175.414 107.837 174.443 108.845 173.553 109.921C173.158 110.432 172.773 110.907 172.455 111.382C172.294 111.619 172.128 111.83 172.007 112.067C171.886 112.305 171.729 112.515 171.604 112.717C171.335 113.125 171.156 113.519 170.95 113.859C170.856 114.03 170.766 114.182 170.69 114.307L170.493 114.72C170.376 114.948 170.287 115.136 170.215 115.28C170.185 115.347 170.149 115.412 170.107 115.472C170.122 115.4 170.146 115.331 170.179 115.266C170.246 115.118 170.327 114.926 170.43 114.688C170.488 114.563 170.546 114.424 170.614 114.272C170.681 114.119 170.77 113.962 170.86 113.788C171.044 113.447 171.232 113.044 171.496 112.632C171.622 112.421 171.752 112.184 171.89 111.969C172.029 111.754 172.195 111.521 172.338 111.279C172.652 110.795 173.037 110.311 173.432 109.796C175.195 107.597 177.328 105.722 179.735 104.254C180.295 103.927 180.819 103.609 181.339 103.358C181.599 103.233 181.841 103.098 182.087 102.986L182.79 102.682C183.238 102.471 183.655 102.337 184.022 102.198L184.533 102.014L184.981 101.884L185.586 101.714C185.657 101.7 185.729 101.694 185.801 101.696Z" fill="#263238"/>
<path d="M175.861 107.072C174.849 107.464 173.815 107.798 172.765 108.071C171.735 108.404 170.688 108.68 169.629 108.9C170.642 108.511 171.675 108.177 172.725 107.901C173.755 107.571 174.802 107.294 175.861 107.072Z" fill="#263238"/>
<path d="M175.73 113.9C175.679 113.582 175.657 113.259 175.663 112.937C175.663 112.341 175.663 111.517 175.663 110.607C175.663 109.698 175.735 108.873 175.784 108.278C175.792 107.954 175.834 107.633 175.91 107.319C175.935 107.641 175.935 107.964 175.91 108.287C175.91 108.941 175.865 109.734 175.838 110.612C175.811 111.49 175.798 112.283 175.78 112.937C175.795 113.259 175.778 113.581 175.73 113.9Z" fill="#263238"/>
<path d="M181.585 110.92C181.536 110.92 181.379 109.249 181.236 107.18C181.093 105.11 181.016 103.43 181.066 103.425C181.115 103.421 181.272 105.096 181.415 107.166C181.559 109.236 181.635 110.916 181.585 110.92Z" fill="#263238"/>
<path d="M174.322 103.264C174.65 103.222 174.982 103.211 175.312 103.233C175.926 103.233 176.768 103.233 177.7 103.287C178.632 103.341 179.492 103.354 180.088 103.39C180.409 103.392 180.728 103.425 181.042 103.488C180.714 103.525 180.382 103.534 180.052 103.515C179.438 103.515 178.592 103.493 177.66 103.466C176.728 103.439 175.868 103.394 175.272 103.359C174.953 103.354 174.636 103.322 174.322 103.264Z" fill="#263238"/>
<path d="M188.927 124.28C188.91 124.214 188.902 124.146 188.905 124.078C188.905 123.926 188.905 123.733 188.878 123.496C188.855 122.994 188.851 122.259 188.878 121.359C188.905 120.458 188.954 119.379 189.062 118.187C189.169 116.995 189.344 115.692 189.581 114.334C189.819 112.977 190.123 111.691 190.423 110.535C190.724 109.379 191.051 108.349 191.346 107.498C191.642 106.647 191.902 105.957 192.095 105.491C192.189 105.271 192.26 105.096 192.319 104.953C192.341 104.89 192.371 104.83 192.408 104.774C192.399 104.84 192.381 104.905 192.354 104.967C192.301 105.11 192.238 105.294 192.162 105.518C191.983 105.988 191.745 106.678 191.467 107.538C191.19 108.398 190.885 109.424 190.571 110.576C190.258 111.727 189.989 113.013 189.743 114.366C189.496 115.719 189.335 117.018 189.209 118.205C189.084 119.392 189.021 120.445 188.99 121.341C188.959 122.237 188.941 122.972 188.945 123.478C188.945 123.715 188.945 123.926 188.945 124.06C188.946 124.134 188.94 124.207 188.927 124.28Z" fill="#263238"/>
<path d="M189.707 114.187C189.535 114.423 189.337 114.64 189.116 114.832C188.735 115.217 188.188 115.728 187.57 116.27C186.952 116.812 186.37 117.287 185.944 117.614C185.721 117.804 185.48 117.971 185.223 118.111C185.418 117.894 185.633 117.694 185.863 117.515L187.454 116.135L189.031 114.738C189.237 114.532 189.464 114.347 189.707 114.187Z" fill="#263238"/>
<path d="M194.389 117.959C194.158 117.683 193.949 117.391 193.762 117.085L192.301 114.953L190.809 112.843C190.587 112.56 190.386 112.26 190.209 111.947C190.465 112.199 190.699 112.474 190.908 112.766C191.32 113.286 191.867 114.021 192.445 114.854C193.022 115.687 193.52 116.453 193.869 117.018C194.071 117.315 194.245 117.629 194.389 117.959Z" fill="#263238"/>
<path d="M191.938 106.091C191.965 106.136 190.406 107.18 188.462 108.434C186.517 109.688 184.918 110.674 184.878 110.62C184.837 110.567 186.405 109.532 188.354 108.282C190.303 107.032 191.911 106.051 191.938 106.091Z" fill="#263238"/>
<path d="M196.324 110.826C195.499 110.148 194.714 109.422 193.972 108.654C193.183 107.929 192.435 107.16 191.732 106.351C192.557 107.032 193.342 107.759 194.084 108.528C194.875 109.25 195.623 110.018 196.324 110.826Z" fill="#263238"/>
<path d="M197.426 110.732L198.77 110.62C199.715 110.543 200.632 110.262 201.458 109.796C201.864 109.56 202.284 109.349 202.717 109.164C204.37 108.501 206.211 108.622 207.985 108.533C210.896 108.385 213.748 107.655 216.372 106.387C216.525 106.318 216.652 106.202 216.735 106.055C217.012 105.558 216.502 105.11 216.063 104.841C213.823 103.457 211.524 102.05 208.971 101.365C206.417 100.679 203.523 100.791 201.355 102.288C198.797 104.048 197.869 107.664 197.435 110.732" fill="#FFC300"/>
<path d="M216.768 105.894C216.69 105.865 216.615 105.829 216.544 105.787L215.907 105.455C215.361 105.168 214.563 104.738 213.569 104.263C212.408 103.69 211.198 103.223 209.953 102.866C208.43 102.431 206.836 102.302 205.263 102.485C203.687 102.663 202.199 103.302 200.985 104.322C200.033 105.204 199.271 106.271 198.745 107.458C198.381 108.253 198.058 109.067 197.777 109.895C197.678 110.173 197.598 110.397 197.539 110.567C197.514 110.647 197.482 110.724 197.445 110.8C197.457 110.718 197.477 110.637 197.504 110.558L197.71 109.872C197.967 109.033 198.276 108.21 198.633 107.408C199.147 106.197 199.91 105.108 200.873 104.21C202.104 103.158 203.622 102.499 205.232 102.319C206.828 102.132 208.446 102.267 209.989 102.718C211.242 103.084 212.458 103.566 213.623 104.156C214.617 104.653 215.415 105.097 215.939 105.406L216.557 105.764C216.633 105.798 216.703 105.842 216.768 105.894Z" fill="#263238"/>
<path d="M213.559 107.614C213.532 107.655 211.767 106.526 209.657 105.092C207.547 103.658 205.831 102.462 205.858 102.404C205.885 102.346 207.65 103.493 209.76 104.926C211.87 106.36 213.586 107.574 213.559 107.614Z" fill="#263238"/>
<path d="M211.883 102.256C211.453 102.419 210.999 102.511 210.539 102.529C210.078 102.602 209.609 102.595 209.15 102.507C209.604 102.417 210.064 102.365 210.526 102.35C210.975 102.278 211.429 102.247 211.883 102.256Z" fill="#263238"/>
<path d="M204.053 100.85C203.724 101.641 203.286 102.382 202.754 103.054C202.89 102.646 203.083 102.26 203.327 101.907C203.519 101.523 203.763 101.167 204.053 100.85Z" fill="#263238"/>
<path d="M205.616 108.645C205.321 108.525 205.038 108.375 204.774 108.197C204.272 107.892 203.587 107.444 202.861 106.915C202.135 106.387 201.49 105.885 201.028 105.518C200.768 105.333 200.525 105.125 200.303 104.895C200.584 105.047 200.853 105.222 201.105 105.419L202.964 106.763C203.69 107.287 204.357 107.753 204.841 108.085C205.115 108.249 205.374 108.436 205.616 108.645Z" fill="#263238"/>
<path d="M199.41 116.408C198.138 116.072 196.619 117.304 196.355 118.599C196.091 119.894 196.579 121.211 197.144 122.403C198.357 125.068 200.158 127.424 202.412 129.293C204.687 131.165 207.53 132.21 210.476 132.259C209.938 129.759 210.619 127.142 210.319 124.602C210.054 122.363 209.038 120.28 207.435 118.694C205.833 117.108 203.74 116.113 201.498 115.871C200.687 115.781 199.746 115.656 199.419 116.408" fill="#FFC300"/>
<path d="M210.449 132.259C210.386 132.238 210.326 132.21 210.27 132.174C210.101 132.082 209.941 131.976 209.791 131.856C209.257 131.39 208.828 130.815 208.532 130.171C208.33 129.777 208.084 129.351 207.882 128.877L207.197 127.362C206.951 126.804 206.669 126.263 206.355 125.741C206.01 125.187 205.622 124.661 205.194 124.168C204.325 123.142 203.402 122.255 202.578 121.408C201.844 120.668 201.176 119.866 200.58 119.012C200.181 118.432 199.853 117.806 199.603 117.148C199.522 116.915 199.464 116.731 199.433 116.601C199.413 116.539 199.4 116.474 199.393 116.409C199.393 116.409 199.482 116.669 199.666 117.125C199.94 117.765 200.281 118.373 200.683 118.94C201.286 119.78 201.959 120.568 202.694 121.296C203.51 122.134 204.45 123.017 205.329 124.052C205.763 124.552 206.156 125.087 206.502 125.651C206.819 126.18 207.1 126.729 207.345 127.295L208.017 128.814C208.227 129.289 208.465 129.71 208.644 130.117C208.925 130.753 209.33 131.326 209.835 131.802C210.207 132.125 210.458 132.241 210.449 132.259Z" fill="#263238"/>
<path d="M203.863 130.18C203.868 129.891 203.907 129.604 203.98 129.325C204.078 128.8 204.244 128.079 204.464 127.295C204.683 126.511 204.912 125.808 205.109 125.311C205.193 125.033 205.311 124.767 205.458 124.518C205.407 124.802 205.331 125.081 205.23 125.351C205.068 125.857 204.853 126.56 204.634 127.34C204.414 128.119 204.231 128.836 204.101 129.352C204.046 129.634 203.966 129.911 203.863 130.18Z" fill="#263238"/>
<path d="M210.208 124.042C209.904 123.999 209.605 123.93 209.312 123.836C208.761 123.693 208.004 123.496 207.162 123.303C206.32 123.111 205.549 122.967 204.994 122.855C204.689 122.818 204.389 122.752 204.098 122.658C204.406 122.651 204.714 122.676 205.016 122.734C205.581 122.806 206.36 122.936 207.207 123.128C208.053 123.321 208.811 123.536 209.353 123.711C209.649 123.789 209.936 123.901 210.208 124.042Z" fill="#263238"/>
<path d="M199.139 125.826C199.148 125.49 199.193 125.157 199.273 124.831C199.385 124.226 199.564 123.388 199.802 122.475C200.039 121.561 200.295 120.745 200.496 120.158C200.586 119.837 200.708 119.524 200.859 119.227C200.803 119.557 200.721 119.882 200.613 120.199C200.447 120.79 200.214 121.61 199.976 122.519C199.739 123.429 199.528 124.258 199.399 124.858C199.337 125.187 199.25 125.51 199.139 125.826Z" fill="#263238"/>
<path d="M207.287 118.689C207.287 118.738 205.692 118.608 203.734 118.402C201.776 118.196 200.195 117.985 200.199 117.954C201.388 117.988 202.573 118.084 203.752 118.241C205.71 118.433 207.291 118.64 207.287 118.689Z" fill="#263238"/>
<path d="M206.132 137.984C206.132 138.033 200.541 138.074 193.646 138.074C186.751 138.074 181.16 138.033 181.16 137.984C181.16 137.935 186.751 137.895 193.646 137.895C200.541 137.895 206.132 137.926 206.132 137.984Z" fill="#455A64"/>
<path d="M202.233 145.152C202.233 145.201 198.465 145.242 193.82 145.242C189.174 145.242 185.406 145.201 185.406 145.152C185.406 145.103 189.174 145.062 193.82 145.062C198.465 145.062 202.233 145.121 202.233 145.152Z" fill="#455A64"/>
<path d="M202.377 146.196C202.377 146.245 198.614 146.286 193.968 146.286C189.322 146.286 185.555 146.245 185.555 146.196C185.555 146.147 189.322 146.111 193.968 146.111C198.614 146.111 202.377 146.147 202.377 146.196Z" fill="#455A64"/>
<path d="M202.377 144.323C202.377 144.368 198.484 144.409 193.677 144.409C188.87 144.409 184.977 144.368 184.977 144.323C184.977 144.279 188.87 144.234 193.677 144.234C198.484 144.234 202.377 144.256 202.377 144.323Z" fill="#455A64"/>
<path d="M15.3557 164.73C16.1446 164.794 16.9125 165.016 17.6137 165.383C18.3149 165.75 18.935 166.255 19.437 166.867C20.4344 168.1 21.1363 169.545 21.4888 171.092C22.2549 174.053 21.7397 177.534 20.8706 180.464C17.6853 179.294 15.7455 175.867 14.8674 174.066C13.4831 171.221 12.708 165.241 15.3557 164.73Z" fill="#FFC300"/>
<path d="M25.4401 184.079C24.9667 183.331 24.6996 182.471 24.6658 181.587C24.6319 180.703 24.8326 179.825 25.2474 179.043C25.6741 178.27 26.2502 177.59 26.9425 177.041C27.6347 176.493 28.4291 176.088 29.2794 175.849C30.059 175.616 30.9684 175.522 31.6404 175.984C31.9428 176.218 32.1773 176.529 32.3198 176.884C32.4623 177.239 32.5077 177.626 32.4513 178.004C32.3245 178.76 32.0017 179.469 31.515 180.06C29.9425 182.153 28.034 183.886 25.4266 184.092" fill="#FFC300"/>
<g opacity="0.3">
<path d="M25.4401 184.079C24.9667 183.331 24.6996 182.471 24.6658 181.587C24.6319 180.703 24.8326 179.825 25.2474 179.043C25.6741 178.27 26.2502 177.59 26.9425 177.041C27.6347 176.493 28.4291 176.088 29.2794 175.849C30.059 175.616 30.9684 175.522 31.6404 175.984C31.9428 176.218 32.1773 176.529 32.3198 176.884C32.4623 177.239 32.5077 177.626 32.4513 178.004C32.3245 178.76 32.0017 179.469 31.515 180.06C29.9425 182.153 28.034 183.886 25.4266 184.092" fill="white"/>
</g>
<path d="M22.0389 187.215C21.0453 185.635 19.6896 184.314 18.0839 183.362C16.4782 182.41 14.6689 181.854 12.8056 181.74C11.8604 181.691 10.7269 181.875 10.3237 182.73C9.92053 183.586 10.5074 184.585 11.1615 185.271C12.5612 186.674 14.345 187.631 16.2879 188.022C18.2309 188.412 20.246 188.219 22.0792 187.466" fill="#FFC300"/>
<g opacity="0.3">
<path d="M22.0389 187.215C21.0453 185.635 19.6896 184.314 18.0839 183.362C16.4782 182.41 14.6689 181.854 12.8056 181.74C11.8604 181.691 10.7269 181.875 10.3237 182.73C9.92053 183.586 10.5074 184.585 11.1615 185.271C12.5612 186.674 14.345 187.631 16.2879 188.022C18.2309 188.412 20.246 188.219 22.0792 187.466" fill="white"/>
</g>
<path d="M25.466 194.231C25.4058 194.025 25.3623 193.816 25.3361 193.603C25.2644 193.2 25.1704 192.609 25.0718 191.879C24.7797 189.975 24.7361 188.041 24.9419 186.126C25.1668 184.196 25.903 182.36 27.0744 180.809C27.4359 180.349 27.851 179.934 28.3108 179.572C28.4357 179.473 28.5658 179.38 28.7006 179.294C28.7433 179.258 28.7918 179.229 28.844 179.209C28.2341 179.711 27.6799 180.278 27.1908 180.898C26.0685 182.445 25.362 184.255 25.139 186.153C24.9363 188.053 24.9604 189.971 25.2107 191.865C25.2913 192.569 25.3585 193.151 25.4078 193.595C25.4455 193.804 25.465 194.017 25.466 194.231Z" fill="#263238"/>
<path d="M16.3457 169.232C16.3951 169.31 16.437 169.393 16.4711 169.479L16.7937 170.196C17.067 170.814 17.4567 171.723 17.9271 172.843C18.8679 175.083 20.1313 178.219 21.4439 181.682C22.7566 185.145 23.8766 188.331 24.6561 190.642C25.0414 191.798 25.3505 192.735 25.5521 193.384C25.6462 193.693 25.7223 193.94 25.7851 194.132C25.8139 194.219 25.8364 194.307 25.8523 194.397C25.8059 194.318 25.7698 194.234 25.7447 194.146L25.4759 193.406C25.243 192.743 24.9159 191.821 24.5127 190.692C23.7019 188.398 22.5639 185.235 21.2513 181.758C19.9387 178.282 18.6977 175.159 17.7927 172.902C17.3447 171.791 16.9774 170.881 16.7175 170.214C16.5966 169.913 16.5025 169.671 16.4308 169.483C16.3939 169.403 16.3653 169.319 16.3457 169.232Z" fill="#263238"/>
<path d="M14.3204 184.191C14.5241 184.186 14.7279 184.198 14.9297 184.227C15.1691 184.243 15.4072 184.276 15.642 184.326C15.9566 184.375 16.2678 184.443 16.5738 184.532L17.1114 184.679C17.2951 184.733 17.4833 184.809 17.6759 184.877C18.0937 185.027 18.5034 185.199 18.9034 185.392C19.8115 185.849 20.6701 186.399 21.466 187.031C22.2498 187.679 22.9631 188.407 23.594 189.204C23.8633 189.556 24.1145 189.92 24.3466 190.297C24.4541 190.477 24.5706 190.642 24.6602 190.813L24.9111 191.305C25.0601 191.596 25.1917 191.895 25.3053 192.201C25.4019 192.421 25.4827 192.647 25.5473 192.878C25.6182 193.07 25.6721 193.268 25.7085 193.469C25.6637 193.469 25.4353 192.636 24.7857 191.395L24.5258 190.911C24.4317 190.745 24.3153 190.584 24.2077 190.409C23.9972 190.055 23.7194 189.71 23.4461 189.343C22.8158 188.564 22.1089 187.849 21.3361 187.211C20.5538 186.585 19.7103 186.04 18.8183 185.584C18.4284 185.376 18.0276 185.189 17.6177 185.024C17.425 184.953 17.2458 184.872 17.0621 184.818L16.538 184.657C15.1895 184.285 14.3114 184.236 14.3204 184.191Z" fill="#263238"/>
<path d="M19.4004 191.372H30.8782V197.344C30.8782 198.804 30.2981 200.205 29.2655 201.237C28.2329 202.27 26.8325 202.85 25.3722 202.85H24.9242C24.1997 202.852 23.4818 202.712 22.8117 202.436C22.1416 202.16 21.5325 201.755 21.0194 201.244C20.5062 200.732 20.099 200.124 19.8212 199.455C19.5434 198.786 19.4004 198.069 19.4004 197.344V191.372Z" fill="#FFC300"/>
<path opacity="0.3" d="M19.4004 191.372H30.8782V197.344C30.8782 198.804 30.2981 200.205 29.2655 201.237C28.2329 202.27 26.8325 202.85 25.3722 202.85H24.9242C24.1997 202.852 23.4818 202.712 22.8117 202.436C22.1416 202.16 21.5325 201.755 21.0194 201.244C20.5062 200.732 20.099 200.124 19.8212 199.455C19.5434 198.786 19.4004 198.069 19.4004 197.344V191.372Z" fill="black"/>
<path d="M27.1543 191.399C27.1309 191.519 27.0869 191.635 27.0243 191.74C26.8782 192.037 26.7074 192.322 26.5136 192.591C25.8746 193.49 25.0275 194.222 24.0446 194.724C23.0618 195.225 21.9722 195.482 20.8688 195.472C20.5384 195.472 20.2087 195.443 19.8832 195.386C19.7606 195.376 19.6407 195.345 19.5293 195.292C19.5293 195.256 20.0445 195.36 20.8733 195.333C21.9454 195.294 22.9966 195.025 23.9555 194.544C24.9091 194.05 25.7437 193.355 26.4016 192.506C26.9034 191.856 27.1229 191.386 27.1543 191.399Z" fill="#FAFAFA"/>
<path d="M30.7708 199.132C30.6435 199.123 30.5182 199.096 30.3989 199.051C30.0677 198.948 29.7503 198.805 29.4536 198.626C28.4515 198.039 27.692 197.113 27.3117 196.016C26.9314 194.918 26.9554 193.721 27.3794 192.64C27.5009 192.316 27.6619 192.007 27.8588 191.722C27.9247 191.613 28.0062 191.515 28.1007 191.431C27.8772 191.837 27.6812 192.257 27.5138 192.69C27.1373 193.744 27.1315 194.896 27.4971 195.955C27.8627 197.013 28.5781 197.916 29.5253 198.514C29.9264 198.747 30.3425 198.953 30.7708 199.132Z" fill="#FAFAFA"/>
<path d="M27.828 202.536C27.8187 201.963 27.7374 201.392 27.586 200.839C27.3987 200.249 27.109 199.697 26.7304 199.208C26.2643 198.611 25.6879 198.109 25.0324 197.729C23.8201 197.057 22.425 196.789 21.0497 196.963C20.4808 197.051 19.9181 197.175 19.3652 197.335C19.5037 197.247 19.6548 197.181 19.8132 197.138C20.2147 196.99 20.6306 196.885 21.0542 196.824C22.461 196.605 23.9007 196.867 25.14 197.568C25.8184 197.962 26.4122 198.485 26.8872 199.109C27.2739 199.618 27.5598 200.196 27.7294 200.812C27.8475 201.225 27.9019 201.654 27.8907 202.084C27.888 202.237 27.867 202.389 27.828 202.536Z" fill="#FAFAFA"/>
<path d="M156.273 55.7758C156.21 55.7758 156.156 46.3275 156.156 34.675C156.156 23.0225 156.21 13.5742 156.273 13.5742C156.335 13.5742 156.389 23.0181 156.389 34.675C156.389 46.332 156.34 55.7758 156.273 55.7758Z" fill="#263238"/>
<path d="M187.659 55.7758C187.597 55.7758 187.543 46.3275 187.543 34.675C187.543 23.0225 187.597 13.5742 187.659 13.5742C187.722 13.5742 187.776 23.0181 187.776 34.675C187.776 46.332 187.722 55.7758 187.659 55.7758Z" fill="#263238"/>
<path d="M191.262 45.5528H152.85C152.249 45.5528 151.653 45.4344 151.098 45.2043C150.542 44.9742 150.038 44.6369 149.613 44.2118C149.187 43.7866 148.85 43.2819 148.62 42.7264C148.39 42.1709 148.271 41.5755 148.271 40.9742V34.541C148.271 33.9397 148.39 33.3443 148.62 32.7888C148.85 32.2333 149.187 31.7286 149.613 31.3034C150.038 30.8783 150.542 30.541 151.098 30.3109C151.653 30.0808 152.249 29.9624 152.85 29.9624H191.503C192.718 29.9624 193.882 30.4448 194.741 31.3034C195.6 32.1621 196.082 33.3267 196.082 34.541V40.7323C196.082 42.0108 195.574 43.2369 194.67 44.1409C193.766 45.0449 192.54 45.5528 191.262 45.5528Z" fill="#FFC300"/>
<path d="M154.105 40.8173C154.296 40.8185 154.481 40.7438 154.617 40.6095C154.754 40.4752 154.832 40.2922 154.835 40.1005L154.871 35.5936L161.241 42.0672C161.377 42.2018 161.561 42.2773 161.752 42.2773C161.943 42.2773 162.127 42.2018 162.263 42.0672C162.33 42.0001 162.384 41.9202 162.421 41.8322C162.458 41.7441 162.477 41.6496 162.477 41.5542C162.477 41.4588 162.458 41.3643 162.421 41.2763C162.384 41.1882 162.33 41.1084 162.263 41.0413L155.906 34.5766L160.412 34.6125C160.604 34.6137 160.789 34.539 160.925 34.4047C161.062 34.2704 161.14 34.0874 161.143 33.8957C161.146 33.8002 161.13 33.7051 161.096 33.6159C161.061 33.5266 161.01 33.4451 160.944 33.3759C160.878 33.3067 160.799 33.2513 160.712 33.2128C160.624 33.1744 160.53 33.1537 160.435 33.152L153.455 33.0938L153.397 40.0736C153.394 40.1689 153.411 40.2638 153.445 40.3527C153.479 40.4417 153.531 40.523 153.597 40.5921C153.662 40.6612 153.741 40.7166 153.828 40.7552C153.915 40.7939 154.009 40.8149 154.105 40.8173Z" fill="#FAFAFA"/>
<path d="M170.739 41.1174V42.112H167.218V41.328L168.947 39.7465C169.31 39.4105 169.359 39.2044 169.359 39.0208C169.359 38.7296 169.167 38.5728 168.777 38.5728C168.615 38.5706 168.456 38.6108 168.314 38.6894C168.173 38.768 168.054 38.8822 167.971 39.0208L167.025 38.4921C167.224 38.1824 167.502 37.9314 167.831 37.7652C168.159 37.599 168.526 37.5236 168.894 37.5468C169.933 37.5468 170.65 38.0844 170.65 38.9222C170.65 39.3702 170.529 39.76 169.884 40.3558L169.032 41.1443L170.739 41.1174Z" fill="#FAFAFA"/>
<path d="M171.121 39.872C171.121 38.3802 171.959 37.52 173.115 37.52C174.271 37.52 175.104 38.3802 175.104 39.872C175.104 41.3639 174.262 42.2195 173.115 42.2195C171.968 42.2195 171.121 41.3594 171.121 39.872ZM173.809 39.872C173.809 38.9223 173.513 38.5683 173.106 38.5683C172.698 38.5683 172.398 38.9223 172.398 39.872C172.398 40.8218 172.694 41.1757 173.106 41.1757C173.518 41.1757 173.818 40.8173 173.818 39.872H173.809Z" fill="#FAFAFA"/>
<path d="M175.668 39.8184H177.55V40.7681H175.668V39.8184Z" fill="#FAFAFA"/>
<path d="M181.406 40.7143C181.406 41.4849 180.802 42.2196 179.44 42.2196C178.825 42.2271 178.219 42.0726 177.684 41.7716L178.132 40.8084C178.503 41.0527 178.937 41.1835 179.382 41.1847C179.83 41.1847 180.098 41.0145 180.098 40.7098C180.098 40.4052 179.897 40.2618 179.408 40.2618H178.871V39.4689L179.7 38.5998H177.908V37.6321H181.174V38.4295L180.246 39.4241C180.565 39.4574 180.86 39.6077 181.074 39.8461C181.289 40.0844 181.407 40.3938 181.406 40.7143Z" fill="#FAFAFA"/>
<path d="M185.308 40.6785C185.308 41.4849 184.699 42.2196 183.337 42.2196C182.725 42.2277 182.122 42.0731 181.59 41.7716L182.038 40.8084C182.41 41.0533 182.846 41.1841 183.292 41.1847C183.74 41.1847 184.014 41.01 184.014 40.7054C184.014 40.4007 183.825 40.2574 183.118 40.2574H181.939L182.168 37.6187H185.044V38.6043H183.225L183.167 39.2628H183.471C184.784 39.2583 185.308 39.8721 185.308 40.6785Z" fill="#FAFAFA"/>
<path d="M168.5 34.3975H168.733V35.065C168.549 35.2132 168.319 35.2911 168.083 35.2845C167.952 35.3127 167.817 35.3113 167.687 35.2804C167.557 35.2495 167.435 35.1899 167.331 35.1059C167.227 35.0219 167.143 34.9157 167.086 34.7951C167.028 34.6744 166.998 34.5424 166.998 34.4087C166.998 34.275 167.028 34.143 167.086 34.0223C167.143 33.9017 167.227 33.7955 167.331 33.7115C167.435 33.6275 167.557 33.5679 167.687 33.537C167.817 33.5061 167.952 33.5047 168.083 33.5329C168.205 33.5272 168.327 33.5479 168.441 33.5935C168.555 33.6391 168.657 33.7086 168.742 33.7972L168.594 33.9495C168.529 33.884 168.451 33.8323 168.366 33.7976C168.28 33.763 168.189 33.7461 168.096 33.7479C167.922 33.7479 167.754 33.8173 167.631 33.9408C167.507 34.0643 167.438 34.2318 167.438 34.4065C167.438 34.5811 167.507 34.7486 167.631 34.8721C167.754 34.9956 167.922 35.065 168.096 35.065C168.24 35.0636 168.379 35.0217 168.5 34.9441V34.3975Z" fill="#FAFAFA"/>
<path d="M170.291 34.8364H169.395L169.207 35.2844H168.947L169.727 33.5686H169.969L170.739 35.2665H170.484L170.291 34.8364ZM170.206 34.6393L169.843 33.8016L169.476 34.6393H170.206Z" fill="#FAFAFA"/>
<path d="M171.231 33.7658H170.645V33.5508H172.083V33.7658H171.496V35.2666H171.254L171.231 33.7658Z" fill="#FAFAFA"/>
<path d="M173.571 35.0516V35.2666H172.33V33.5508H173.54V33.7658H172.572V34.29H173.428V34.4961H172.568V35.0471L173.571 35.0516Z" fill="#FAFAFA"/>
<path d="M173.812 35.0693L173.902 34.8767C174.06 35.0087 174.26 35.0802 174.467 35.0783C174.762 35.0783 174.892 34.9618 174.892 34.814C174.892 34.3929 173.853 34.6572 173.853 34.021C173.853 33.7567 174.059 33.5327 174.507 33.5327C174.702 33.5285 174.893 33.5814 175.058 33.685L174.977 33.8777C174.843 33.7924 174.688 33.7445 174.529 33.7388C174.238 33.7388 174.113 33.8642 174.113 34.0121C174.113 34.4287 175.152 34.1689 175.152 34.7961C175.152 35.0604 174.941 35.2844 174.489 35.2844C174.245 35.2959 174.005 35.2196 173.812 35.0693Z" fill="#FAFAFA"/>
<path d="M192.525 66.0664H151.587C150.707 66.0664 149.864 65.7171 149.242 65.0954C148.621 64.4737 148.271 63.6304 148.271 62.7512V53.7912C148.271 53.356 148.357 52.9252 148.524 52.5232C148.691 52.1212 148.935 51.7561 149.243 51.4486C149.551 51.1411 149.916 50.8973 150.318 50.7312C150.721 50.5651 151.152 50.4799 151.587 50.4805H192.767C193.202 50.4799 193.633 50.5651 194.035 50.7312C194.437 50.8973 194.803 51.1411 195.111 51.4486C195.419 51.7561 195.663 52.1212 195.83 52.5232C195.996 52.9252 196.082 53.356 196.082 53.7912V62.5137C196.074 63.4542 195.696 64.3538 195.031 65.0184C194.365 65.683 193.465 66.0594 192.525 66.0664Z" fill="#FFC300"/>
<path d="M158.321 53.2626C158.188 53.4023 158.117 53.5888 158.122 53.7812C158.127 53.9736 158.208 54.1561 158.348 54.2886L161.605 57.3977L152.528 57.6127C152.337 57.6174 152.155 57.6978 152.022 57.8363C151.889 57.9748 151.817 58.1602 151.82 58.3519C151.822 58.4474 151.843 58.5416 151.881 58.6291C151.92 58.7165 151.975 58.7954 152.044 58.8613C152.114 58.9271 152.195 58.9786 152.284 59.0127C152.374 59.0467 152.469 59.0627 152.564 59.0598L161.641 58.8492L158.527 62.1106C158.462 62.1794 158.41 62.2604 158.376 62.349C158.342 62.4376 158.326 62.532 158.328 62.6269C158.331 62.7218 158.352 62.8153 158.391 62.902C158.429 62.9887 158.485 63.0669 158.554 63.1321C158.69 63.268 158.874 63.3444 159.067 63.3444C159.259 63.3444 159.444 63.268 159.58 63.1321L164.396 58.0831L159.347 53.2626C159.211 53.1267 159.026 53.0503 158.834 53.0503C158.642 53.0503 158.457 53.1267 158.321 53.2626Z" fill="#FAFAFA"/>
<path d="M170.739 61.2283C170.739 61.9989 170.129 62.7336 168.767 62.7336C168.154 62.7431 167.549 62.5884 167.016 62.2856L167.464 61.3269C167.838 61.5681 168.273 61.6972 168.718 61.6987C169.166 61.6987 169.435 61.533 169.435 61.2283C169.435 60.9237 169.233 60.7803 168.74 60.7803H168.207V59.9739L169.014 59.1048H167.222V58.1147H170.488V58.9167L169.551 59.9247C169.877 59.9528 170.18 60.1027 170.4 60.3443C170.62 60.5859 170.741 60.9016 170.739 61.2283Z" fill="#FAFAFA"/>
<path d="M175.017 61.1881C175.017 62.1333 174.228 62.7337 173.225 62.7337C171.957 62.7337 171.133 61.9721 171.133 60.4937C171.133 58.9167 172.109 58.0207 173.534 58.0207C174.004 58.0037 174.47 58.1185 174.878 58.3522L174.43 59.2482C174.184 59.0852 173.892 59.0037 173.597 59.0153C173.452 59.0042 173.305 59.0231 173.168 59.071C173.03 59.1188 172.904 59.1944 172.797 59.2932C172.689 59.3919 172.604 59.5117 172.545 59.645C172.486 59.7783 172.455 59.9223 172.454 60.0681C172.742 59.8345 173.106 59.7149 173.476 59.7321C173.674 59.7198 173.873 59.7484 174.06 59.8161C174.247 59.8838 174.418 59.9892 174.562 60.1257C174.707 60.2622 174.822 60.4269 174.9 60.6097C174.978 60.7924 175.018 60.9893 175.017 61.1881ZM173.776 61.2463C173.777 61.1672 173.761 61.0888 173.73 61.0162C173.699 60.9436 173.652 60.8785 173.594 60.8252C173.535 60.7719 173.466 60.7315 173.391 60.7068C173.316 60.6821 173.236 60.6736 173.158 60.6818C173.078 60.6743 172.998 60.6836 172.922 60.709C172.846 60.7344 172.776 60.7755 172.717 60.8295C172.658 60.8835 172.611 60.9493 172.579 61.0226C172.547 61.096 172.53 61.1752 172.531 61.2553C172.53 61.3356 172.547 61.415 172.579 61.4885C172.611 61.562 172.659 61.6277 172.719 61.6815C172.778 61.7352 172.849 61.7757 172.925 61.8003C173.002 61.8249 173.082 61.8331 173.162 61.8242C173.242 61.8319 173.322 61.8226 173.397 61.7968C173.473 61.7709 173.542 61.7293 173.6 61.6745C173.658 61.6198 173.704 61.5533 173.734 61.4794C173.765 61.4056 173.779 61.3261 173.776 61.2463Z" fill="#FAFAFA"/>
<path d="M175.461 60.332H177.347V61.2728H175.461V60.332Z" fill="#FAFAFA"/>
<path d="M182.149 61.7791H181.491V62.6437H180.245V61.7791H177.857V60.9279L179.882 58.1055H181.226L179.385 60.7442H180.281V59.9781H181.491V60.7442H182.163L182.149 61.7791Z" fill="#FAFAFA"/>
<path d="M185.837 58.1235V58.9255L184.242 62.6439H182.835L184.358 59.136H183.171V59.8349H182.078V58.1235H185.837Z" fill="#FAFAFA"/>
<path d="M168.498 54.9113H168.731V55.5788C168.547 55.725 168.317 55.8026 168.082 55.7983C167.932 55.7994 167.784 55.7628 167.652 55.692C167.52 55.6212 167.408 55.5185 167.326 55.3932C167.244 55.2678 167.195 55.1239 167.183 54.9746C167.171 54.8253 167.196 54.6753 167.257 54.5384C167.318 54.4016 167.412 54.2821 167.531 54.191C167.65 54.0999 167.79 54.0401 167.938 54.017C168.086 53.994 168.237 54.0084 168.378 54.0589C168.519 54.1095 168.645 54.1946 168.745 54.3065L168.597 54.4588C168.531 54.3947 168.453 54.3443 168.368 54.3104C168.283 54.2766 168.192 54.26 168.1 54.2617C167.925 54.2617 167.758 54.3311 167.634 54.4546C167.511 54.5781 167.441 54.7456 167.441 54.9202C167.441 55.0949 167.511 55.2624 167.634 55.3859C167.758 55.5094 167.925 55.5788 168.1 55.5788C168.242 55.5821 168.383 55.5432 168.503 55.4668L168.498 54.9113Z" fill="#FAFAFA"/>
<path d="M170.291 55.3503H169.395L169.207 55.7983H168.947L169.727 54.0869H169.969L170.739 55.7759H170.484L170.291 55.3503ZM170.206 55.1532L169.834 54.3154L169.467 55.1532H170.206Z" fill="#FAFAFA"/>
<path d="M171.231 54.275H170.645V54.0645H172.083V54.275H171.496V55.7758H171.254L171.231 54.275Z" fill="#FAFAFA"/>
<path d="M173.571 55.5521V55.7626H172.33V54.0513H173.54V54.2618H172.572V54.7905H173.428V54.9965H172.568V55.5521H173.571Z" fill="#FAFAFA"/>
<path d="M173.812 55.5834L173.902 55.3907C174.061 55.5211 174.261 55.591 174.467 55.5878C174.762 55.5878 174.892 55.4758 174.892 55.3235C174.892 54.9069 173.853 55.1712 173.853 54.535C173.853 54.2707 174.059 54.0422 174.507 54.0422C174.702 54.038 174.893 54.0909 175.058 54.1946L174.977 54.3917C174.843 54.3064 174.688 54.2585 174.529 54.2528C174.238 54.2528 174.113 54.3738 174.113 54.5261C174.113 54.9427 175.152 54.6829 175.152 55.3101C175.152 55.5699 174.941 55.7984 174.489 55.7984C174.245 55.8099 174.005 55.7336 173.812 55.5834Z" fill="#FAFAFA"/>
<path d="M26.8548 30.464C26.792 30.464 26.7383 26.6784 26.7383 22.0147C26.7383 17.351 26.792 13.5654 26.8548 13.5654C26.9175 13.5654 26.9712 17.3465 26.9712 22.0147C26.9712 26.6829 26.9309 30.464 26.8548 30.464Z" fill="#263238"/>
<path d="M83.7688 30.7192C83.7061 30.7192 83.6523 26.8798 83.6523 22.1489C83.6523 17.4181 83.7061 13.5742 83.7688 13.5742C83.8315 13.5742 83.8853 17.4091 83.8853 22.1489C83.8853 26.8888 83.8271 30.7192 83.7688 30.7192Z" fill="#263238"/>
<path d="M94.0329 29.9622H18.4866C16.6829 29.9622 15.2207 31.4244 15.2207 33.2281V46.8697C15.2207 48.6734 16.6829 50.1356 18.4866 50.1356H94.0329C95.8366 50.1356 97.2988 48.6734 97.2988 46.8697V33.2281C97.2988 31.4244 95.8366 29.9622 94.0329 29.9622Z" fill="#FFC300"/>
<path d="M40.8633 38.2456H42.5119C43.8111 38.2456 44.6847 39.0789 44.6847 40.2706C44.6847 41.4622 43.8111 42.3 42.5119 42.3H40.8633V38.2456ZM42.4895 41.9282C42.7142 41.9399 42.9388 41.9057 43.1498 41.8278C43.3608 41.7499 43.5538 41.6298 43.7169 41.475C43.88 41.3201 44.0099 41.1337 44.0987 40.927C44.1875 40.7203 44.2333 40.4977 44.2333 40.2728C44.2333 40.0479 44.1875 39.8253 44.0987 39.6186C44.0099 39.4119 43.88 39.2255 43.7169 39.0706C43.5538 38.9158 43.3608 38.7957 43.1498 38.7178C42.9388 38.6399 42.7142 38.6058 42.4895 38.6174H41.2889V41.9282H42.4895Z" fill="#FAFAFA"/>
<path d="M48.211 40.9025H45.6619C45.6803 41.2025 45.8172 41.4829 46.0423 41.682C46.2675 41.8811 46.5625 41.9826 46.8625 41.9642C47.0379 41.9695 47.2123 41.9361 47.3733 41.8664C47.5344 41.7967 47.6781 41.6925 47.7943 41.561L48.0273 41.8298C47.8085 42.06 47.5264 42.2202 47.2166 42.2902C46.9069 42.3603 46.5833 42.3371 46.2868 42.2235C45.9902 42.11 45.7339 41.9112 45.5501 41.6521C45.3663 41.3931 45.2634 41.0855 45.2542 40.7681C45.2431 40.5671 45.2735 40.366 45.3435 40.1774C45.4136 39.9887 45.5218 39.8165 45.6613 39.6714C45.8009 39.5264 45.9688 39.4117 46.1547 39.3345C46.3405 39.2572 46.5403 39.2191 46.7415 39.2225C46.9424 39.2183 47.1419 39.256 47.3275 39.3331C47.513 39.4102 47.6804 39.5252 47.819 39.6706C47.9577 39.816 48.0645 39.9886 48.1328 40.1776C48.201 40.3665 48.2292 40.5676 48.2155 40.7681C48.2155 40.8084 48.211 40.8577 48.211 40.9025ZM45.6619 40.5978H47.8212C47.8212 40.3115 47.7075 40.0369 47.505 39.8344C47.3025 39.6319 47.0279 39.5182 46.7415 39.5182C46.4552 39.5182 46.1806 39.6319 45.9781 39.8344C45.7756 40.0369 45.6619 40.3115 45.6619 40.5978Z" fill="#FAFAFA"/>
<path d="M52.1453 40.7678C52.1553 40.9714 52.1231 41.1748 52.0507 41.3652C51.9783 41.5557 51.8673 41.7292 51.7247 41.8748C51.5821 42.0203 51.4109 42.1348 51.222 42.2111C51.033 42.2873 50.8303 42.3237 50.6266 42.3179C50.3988 42.324 50.1733 42.2721 49.9711 42.1671C49.7689 42.0621 49.5967 41.9074 49.4708 41.7176V43.411H49.0586V39.2446H49.4528V39.8718C49.5777 39.6752 49.7516 39.5144 49.9574 39.4053C50.1631 39.2961 50.3938 39.2423 50.6266 39.2491C50.8277 39.2429 51.028 39.2779 51.2151 39.3521C51.4021 39.4262 51.572 39.5378 51.7143 39.6801C51.8566 39.8224 51.9682 39.9923 52.0424 40.1794C52.1165 40.3664 52.1515 40.5667 52.1453 40.7678ZM51.7332 40.7678C51.7235 40.5449 51.6485 40.3298 51.5176 40.1492C51.3866 39.9685 51.2054 39.8304 50.9966 39.7519C50.7877 39.6734 50.5604 39.6581 50.3429 39.7078C50.1254 39.7574 49.9273 39.87 49.7733 40.0313C49.6192 40.1927 49.516 40.3958 49.4764 40.6154C49.4369 40.8349 49.4627 41.0613 49.5508 41.2663C49.6389 41.4713 49.7852 41.6459 49.9717 41.7683C50.1582 41.8908 50.3766 41.9557 50.5997 41.955C50.7538 41.9572 50.9066 41.9275 51.0486 41.8679C51.1907 41.8082 51.3189 41.72 51.4253 41.6085C51.5316 41.4971 51.6139 41.3649 51.6669 41.2203C51.7198 41.0756 51.7424 40.9216 51.7332 40.7678Z" fill="#FAFAFA"/>
<path d="M55.2624 40.4095V42.3001H54.8681V41.8252C54.7535 41.9964 54.5947 42.1334 54.4086 42.2218C54.2225 42.3101 54.0159 42.3465 53.8108 42.327C53.1209 42.327 52.6953 41.9686 52.6953 41.431C52.6953 40.8934 53 40.5708 53.8736 40.5708H54.8412V40.3827C54.8412 39.863 54.5456 39.5807 53.9766 39.5807C53.6071 39.5753 53.2479 39.7025 52.9641 39.9391L52.7804 39.63C53.1328 39.3547 53.5699 39.2106 54.0169 39.2223C54.8188 39.2313 55.2624 39.6211 55.2624 40.4095ZM54.8547 41.3817V40.8844H53.896C53.3091 40.8844 53.1164 41.1174 53.1164 41.431C53.1164 41.7446 53.3987 42.0044 53.887 42.0044C54.0934 42.0164 54.2984 41.9626 54.4723 41.8507C54.6462 41.7388 54.7801 41.5746 54.8547 41.3817Z" fill="#FAFAFA"/>
<path d="M57.915 39.2313V39.63H57.8164C57.6701 39.6229 57.5241 39.6485 57.389 39.7049C57.2538 39.7613 57.1329 39.8471 57.0351 39.9561C56.9373 40.0651 56.865 40.1945 56.8234 40.3349C56.7819 40.4753 56.7722 40.6233 56.795 40.7679V42.3225H56.3828V39.2761H56.7771V39.8719C56.8785 39.6617 57.042 39.4875 57.2455 39.373C57.4489 39.2585 57.6826 39.209 57.915 39.2313Z" fill="#FAFAFA"/>
<path d="M60.3977 42.1122C60.2157 42.2596 59.9865 42.336 59.7525 42.3272C59.6314 42.3416 59.5086 42.3284 59.3933 42.2884C59.278 42.2485 59.1733 42.1829 59.0871 42.0967C59.0008 42.0104 58.9353 41.9057 58.8953 41.7905C58.8554 41.6752 58.8421 41.5524 58.8565 41.4312V39.5989H58.3145V39.2539H58.8565V38.5864H59.2687V39.2539H60.1961V39.5989H59.2687V41.4178C59.2582 41.4908 59.2644 41.5653 59.2869 41.6356C59.3093 41.7059 59.3474 41.7703 59.3983 41.8237C59.4492 41.8772 59.5115 41.9184 59.5806 41.9443C59.6498 41.9702 59.7238 41.9801 59.7973 41.9733C59.9611 41.9794 60.1211 41.9234 60.2453 41.8165L60.3977 42.1122Z" fill="#FAFAFA"/>
<path d="M63.8864 39.2539V42.3003H63.4922V41.7448C63.3794 41.9314 63.2182 42.084 63.0258 42.1865C62.8334 42.289 62.6168 42.3376 62.3991 42.3272C62.224 42.3444 62.0473 42.3222 61.8819 42.2622C61.7165 42.2022 61.5667 42.106 61.4434 41.9805C61.3201 41.8551 61.2264 41.7036 61.1693 41.5372C61.1122 41.3708 61.0931 41.1938 61.1133 41.019V39.2539H61.5255V40.9787C61.5065 41.1044 61.5159 41.2327 61.553 41.3543C61.5901 41.4759 61.6539 41.5876 61.7399 41.6813C61.8258 41.775 61.9316 41.8482 62.0496 41.8956C62.1675 41.9431 62.2946 41.9635 62.4215 41.9553C62.5656 41.9629 62.7096 41.9389 62.8435 41.8849C62.9774 41.8309 63.0978 41.7483 63.1964 41.6429C63.295 41.5375 63.3694 41.4118 63.4143 41.2746C63.4592 41.1374 63.4735 40.9921 63.4563 40.8488V39.2539H63.8864Z" fill="#FAFAFA"/>
<path d="M66.574 39.2314V39.6301H66.4754C66.3295 39.6236 66.184 39.6497 66.0494 39.7064C65.9148 39.7631 65.7945 39.849 65.6972 39.9579C65.5999 40.0668 65.528 40.196 65.4867 40.3361C65.4454 40.4762 65.4358 40.6237 65.4585 40.768V42.3226H65.0508V39.2762H65.4405V39.872C65.5428 39.6633 65.7057 39.4904 65.908 39.3761C66.1103 39.2617 66.3425 39.2113 66.574 39.2314Z" fill="#FAFAFA"/>
<path d="M69.9395 40.9024H67.3904C67.3995 41.0513 67.438 41.197 67.5035 41.3311C67.5691 41.4651 67.6605 41.5849 67.7724 41.6836C67.8844 41.7822 68.0147 41.8578 68.156 41.9059C68.2972 41.9541 68.4466 41.9739 68.5955 41.9642C68.7709 41.9694 68.9453 41.936 69.1063 41.8663C69.2674 41.7967 69.4111 41.6924 69.5273 41.561L69.7603 41.8298C69.5417 42.0614 69.2593 42.223 68.9488 42.2939C68.6383 42.3649 68.3137 42.3421 68.0162 42.2283C67.7187 42.1146 67.4617 41.9151 67.2777 41.6551C67.0937 41.3952 66.991 41.0864 66.9827 40.768C66.9716 40.567 67.002 40.3659 67.0721 40.1773C67.1421 39.9886 67.2503 39.8164 67.3898 39.6713C67.5294 39.5263 67.6973 39.4116 67.8832 39.3344C68.0691 39.2571 68.2688 39.219 68.4701 39.2224C68.6706 39.2188 68.8696 39.257 69.0546 39.3344C69.2395 39.4118 69.4064 39.5268 69.5446 39.6722C69.6827 39.8175 69.7892 39.9899 69.8572 40.1786C69.9252 40.3672 69.9532 40.5679 69.9395 40.768C69.9395 40.8083 69.9395 40.8576 69.9395 40.9024ZM67.3904 40.5978H69.5497C69.5497 40.3114 69.436 40.0368 69.2335 39.8343C69.031 39.6318 68.7564 39.5181 68.4701 39.5181C68.1837 39.5181 67.9091 39.6318 67.7066 39.8343C67.5041 40.0368 67.3904 40.3114 67.3904 40.5978Z" fill="#FAFAFA"/>
<path d="M70.3613 41.9507L70.5495 41.6281C70.8651 41.8513 71.2426 41.9704 71.6292 41.9686C72.2116 41.9686 72.449 41.7715 72.449 41.4713C72.449 40.6783 70.4733 41.3011 70.4733 40.0959C70.4733 39.5987 70.9213 39.2313 71.6784 39.2313C72.056 39.2244 72.4281 39.3221 72.7536 39.5135L72.5744 39.8451C72.3106 39.6658 71.9973 39.5734 71.6784 39.5807C71.1274 39.5807 70.8855 39.7958 70.8855 40.087C70.8855 40.9068 72.8612 40.2886 72.8612 41.4579C72.8612 41.9865 72.4132 42.327 71.6023 42.327C71.1587 42.3396 70.7231 42.2075 70.3613 41.9507Z" fill="#FAFAFA"/>
<path d="M83.3439 38.1829C83.2632 38.2665 83.218 38.3781 83.218 38.4943C83.218 38.6105 83.2632 38.7221 83.3439 38.8057L85.2614 40.741L79.7644 40.7141C79.6456 40.7141 79.5316 40.7613 79.4476 40.8454C79.3636 40.9294 79.3164 41.0433 79.3164 41.1621C79.3164 41.281 79.3636 41.3949 79.4476 41.4789C79.5316 41.5629 79.6456 41.6101 79.7644 41.6101L85.2614 41.637L83.3215 43.5545C83.2408 43.638 83.1956 43.7496 83.1956 43.8658C83.1956 43.982 83.2408 44.0937 83.3215 44.1772C83.4051 44.2579 83.5167 44.3031 83.6329 44.3031C83.7491 44.3031 83.8607 44.2579 83.9442 44.1772L86.9459 41.2069L83.9756 38.2053C83.8947 38.1189 83.7828 38.068 83.6644 38.0638C83.546 38.0596 83.4308 38.1024 83.3439 38.1829Z" fill="#FAFAFA"/>
<path d="M32.7906 43.6265H21.4473V44.4508H32.7906V43.6265Z" fill="#FAFAFA"/>
<path d="M34.0277 36.5433C33.9665 36.456 33.8889 36.3814 33.7992 36.3238C33.2211 36.1132 32.6192 35.9748 32.0072 35.9116C31.0951 35.9542 30.214 36.2557 29.467 36.7807L28.4545 37.3855L24.8705 36.7763C24.8155 36.7564 24.7553 36.7564 24.7003 36.7763L24.1358 37.0316C24.1055 37.0463 24.08 37.0692 24.0621 37.0977C24.0442 37.1263 24.0347 37.1592 24.0347 37.1929C24.0347 37.2266 24.0442 37.2595 24.0621 37.2881C24.08 37.3166 24.1055 37.3395 24.1358 37.3542L26.4833 38.5279C26.4833 38.5279 26.4833 38.5279 26.4833 38.5593L24.0373 40.0108H24.0014C23.5415 40.2786 22.9971 40.3618 22.4782 40.2438L21.2149 39.9571C21.1519 39.9392 21.0852 39.9392 21.0222 39.9571C20.9699 39.9752 20.9233 40.0068 20.8869 40.0485C20.8505 40.0903 20.8256 40.1408 20.8148 40.1951C20.8039 40.2494 20.8074 40.3056 20.8249 40.3582C20.8425 40.4107 20.8734 40.4578 20.9147 40.4947L22.3304 41.7939C22.4388 41.894 22.5735 41.9611 22.7188 41.9873C22.864 42.0135 23.0137 41.9977 23.1502 41.9417L23.8536 41.6639L27.8542 39.9795L33.508 37.6006C34.068 37.3766 34.283 36.9151 34.0277 36.5433Z" fill="#FAFAFA"/>
<path d="M28.9214 40.0469L27.2414 40.7682L26.9278 42.157C26.9229 42.1758 26.9225 42.1956 26.9266 42.2146C26.9307 42.2337 26.9391 42.2515 26.9513 42.2667C26.9635 42.282 26.979 42.2941 26.9967 42.3023C27.0144 42.3105 27.0338 42.3144 27.0533 42.3138H27.2145C27.3259 42.3137 27.4355 42.2858 27.5333 42.2326C27.6311 42.1794 27.714 42.1026 27.7745 42.0091L28.9214 40.0469Z" fill="#FAFAFA"/>
</svg>
