<svg width="225" height="224" viewBox="0 0 225 224" fill="none" xmlns="http://www.w3.org/2000/svg">
<path d="M175.477 187.071H191.229V182.058H175.477V187.071Z" fill="#EBEBEB"/>
<path d="M184.262 193.388C186.878 193.344 193.585 193.232 196.111 193.205L200.013 193.187L199.807 193.393L199.789 188.38L200.013 188.604C197.397 188.595 190.726 188.572 188.2 188.537L184.262 188.487L184.369 188.38L184.262 193.393V193.388ZM184.262 193.388L184.154 188.375V188.272H184.262C186.229 188.245 190.171 188.201 192.138 188.183L200.013 188.151H200.237V188.375L200.215 193.388V193.595H200.009L196.035 193.577C193.526 193.55 186.847 193.438 184.257 193.393L184.262 193.388Z" fill="#EBEBEB"/>
<path d="M124.793 106.431C127.409 106.387 134.116 106.275 136.643 106.248L140.545 106.23L140.339 106.436L140.321 101.423L140.545 101.647C137.928 101.638 131.258 101.615 128.731 101.58L124.793 101.53L124.901 101.423L124.793 106.436V106.431ZM124.793 106.431L124.686 101.418V101.315H124.793C126.76 101.288 130.702 101.244 132.669 101.226L140.545 101.194H140.769V101.418L140.746 106.431V106.638H140.54L136.567 106.62C134.058 106.593 127.378 106.481 124.789 106.436L124.793 106.431Z" fill="#EBEBEB"/>
<path d="M133.578 112.753C136.195 112.708 142.901 112.596 145.428 112.569L149.33 112.551L149.124 112.757L149.106 107.744L149.33 107.968C146.714 107.959 140.043 107.937 137.516 107.901L133.578 107.852L133.686 107.744L133.578 112.757V112.753ZM133.578 112.753L133.471 107.74V107.637H133.578C135.545 107.61 139.487 107.565 141.454 107.547L149.33 107.516H149.554V107.74L149.532 112.753V112.959H149.325L145.352 112.941C142.843 112.914 136.163 112.802 133.574 112.757L133.578 112.753Z" fill="#EBEBEB"/>
<path d="M142.328 106.431H158.08V101.418H142.328V106.431Z" fill="#EBEBEB"/>
<path d="M24.9886 193.393H40.7402V188.38H24.9886V193.393Z" fill="#EBEBEB"/>
<path d="M33.7737 25.1465L49.5254 25.1465V20.1334H33.7737V25.1465Z" fill="#EBEBEB"/>
<path d="M24.9884 31.4632C27.6047 31.4184 34.3113 31.3064 36.838 31.2795L40.7401 31.2616L40.534 31.4677L40.5161 26.4546L40.7401 26.6786C38.1237 26.6696 31.453 26.6472 28.9263 26.6114L24.9884 26.5621L25.0959 26.4546L24.9884 31.4677V31.4632ZM24.9884 31.4632L24.8809 26.4501V26.347H24.9884C26.9551 26.3202 30.8975 26.2754 32.8642 26.2574L40.7401 26.2261H40.9641V26.4501L40.9417 31.4632V31.6693H40.7356L36.7618 31.6514C34.253 31.6245 27.5733 31.5125 24.9839 31.4677L24.9884 31.4632Z" fill="#EBEBEB"/>
<path d="M175.477 25.1419C178.093 25.0971 184.8 24.9851 187.326 24.9582L191.228 24.9403L191.022 25.1464L191.004 20.1333L191.228 20.3573L183.353 20.3259C181.39 20.3125 177.439 20.2632 175.477 20.2408L175.584 20.1333L175.477 25.1464V25.1419ZM175.477 25.1419L175.369 20.1288V20.0257H175.477C177.443 19.9989 181.386 19.9541 183.353 19.9361L191.228 19.9048H191.452V20.1288L191.43 25.1419V25.348H191.224L187.25 25.3301C184.741 25.3032 178.062 25.1912 175.472 25.1464L175.477 25.1419Z" fill="#EBEBEB"/>
<path d="M79.796 38.8599H43.5215V82.8579H79.796V38.8599Z" fill="#EBEBEB"/>
<path d="M75.6481 42.8784H47.666V78.8483H75.6481V42.8784Z" fill="white"/>
<path d="M48.7591 42.8784H47.666V78.8483H48.7591V42.8784Z" fill="#DBDBDB"/>
<path d="M80.8841 38.8599H79.791V82.8579H80.8841V38.8599Z" fill="#DBDBDB"/>
<path d="M63.642 47.8379H57.043V67.4961H63.642V47.8379Z" fill="#DBDBDB"/>
<path d="M71.759 61.2195H54.166V70.8515H71.759V61.2195Z" stroke="#EBEBEB" stroke-miterlimit="10"/>
<path d="M180.39 38.8599H144.115V82.8579H180.39V38.8599Z" fill="#EBEBEB"/>
<path d="M176.242 42.8784H148.26V78.8483H176.242V42.8784Z" fill="white"/>
<path d="M149.353 42.8784H148.26V78.8483H149.353V42.8784Z" fill="#DBDBDB"/>
<path d="M181.484 38.8599H180.391V82.8579H181.484V38.8599Z" fill="#DBDBDB"/>
<path d="M164.236 47.8379H157.637V67.4961H164.236V47.8379Z" fill="#DBDBDB"/>
<path d="M172.353 61.2195H154.76V70.8515H172.353V61.2195Z" stroke="#EBEBEB" stroke-miterlimit="10"/>
<path d="M130.093 49.446H93.8184V93.4441H130.093V49.446Z" fill="#EBEBEB"/>
<path d="M125.945 53.4646H97.9629V89.4345H125.945V53.4646Z" fill="white"/>
<path d="M99.056 53.4646H97.9629V89.4345H99.056V53.4646Z" fill="#DBDBDB"/>
<path d="M131.187 49.446H130.094V93.4441H131.187V49.446Z" fill="#DBDBDB"/>
<path d="M114.896 62.7605H109.242V77.0517H114.896V62.7605Z" fill="#EBEBEB"/>
<path d="M120.851 71.4475H105.664V81.299H120.851V71.4475Z" stroke="#DBDBDB" stroke-miterlimit="10"/>
<path d="M171.722 170.487L169.043 176.185C167.887 178.64 165.181 179.617 162.731 178.461C160.45 177.391 159.299 174.6 160.455 172.144L164.742 163.028C164.783 162.938 164.872 162.978 164.912 162.893C164.883 162.807 164.881 162.735 164.908 162.678C165.979 160.398 168.944 159.332 171.225 160.402C176.749 163.001 183.276 160.716 185.834 155.282C188.432 149.758 185.977 143.36 180.458 140.767C176.865 139.078 172.802 139.521 169.778 141.631C167.56 143.159 164.603 142.621 163.076 140.408C161.638 138.231 162.13 135.359 164.348 133.832C170.06 129.88 177.752 129.002 184.499 132.174C194.669 136.954 199.122 149.108 194.342 159.278C190.26 167.956 180.794 172.386 171.736 170.482L171.722 170.487ZM162.695 189.684L161.951 191.261C160.795 193.716 158.089 194.688 155.639 193.536C153.359 192.466 152.207 189.675 153.363 187.224L154.107 185.647C155.218 183.282 158.143 182.301 160.424 183.371C162.879 184.527 163.81 187.318 162.699 189.688L162.695 189.684Z" fill="#EBEBEB"/>
<path d="M38.5979 146.501L36.0174 140.757C34.9064 138.284 35.9278 135.592 38.4008 134.485C40.699 133.455 43.5662 134.396 44.6773 136.873L48.8034 146.062C48.8437 146.151 48.7541 146.192 48.7944 146.277C48.881 146.31 48.9363 146.356 48.9601 146.416C49.9905 148.714 48.8705 151.657 46.5723 152.688C41.0037 155.187 38.4814 161.63 40.9409 167.109C43.4408 172.677 49.892 174.985 55.4561 172.485C59.0805 170.858 61.3877 167.485 61.7595 163.816C62.0462 161.141 64.3803 159.242 67.0549 159.529C69.6443 159.856 71.499 162.1 71.2168 164.775C70.4955 171.683 66.1499 178.089 59.3493 181.145C49.099 185.746 36.9761 181.207 32.3752 170.957C28.4462 162.208 31.2507 152.137 38.5979 146.505V146.501ZM29.9112 127.147L29.1989 125.557C28.0878 123.084 29.1093 120.396 31.5867 119.285C33.8849 118.254 36.7521 119.195 37.8587 121.668L38.571 123.258C39.6418 125.646 38.4814 128.5 36.1832 129.535C33.7102 130.646 30.9819 129.535 29.9112 127.147Z" fill="#EBEBEB"/>
<path d="M62.418 164.524C56.6119 172.386 50.555 181.516 49.081 191.377C49.0631 191.525 49.3006 191.574 49.3364 191.426C50.0084 188.72 50.8641 186.095 51.9034 183.528C55.7204 182.479 59.4657 181.615 61.4727 177.825C63.5156 173.932 63.2558 168.851 62.8705 164.609C62.8436 164.38 62.5345 164.371 62.418 164.519V164.524Z" fill="#FFC727"/>
<path d="M51.9625 183.456C54.5699 177.601 57.9209 171.723 62.1769 166.912C62.2038 166.88 62.2486 166.925 62.2217 166.956C59.4352 170.384 57.3161 174.12 55.2508 177.919C57.1728 175.966 59.2784 174.218 61.1017 172.149C61.1376 172.108 61.1958 172.167 61.16 172.207C59.35 174.375 57.3744 176.736 55.0224 178.34C54.3907 179.505 53.7545 180.674 53.1049 181.843C53.2617 181.754 53.4275 181.678 53.5888 181.597C53.6156 181.584 53.6425 181.624 53.6156 181.642C53.4364 181.731 53.2572 181.83 53.0736 181.906C52.7689 182.457 52.4643 183.013 52.1507 183.564C52.079 183.685 51.9088 183.577 51.967 183.456H51.9625Z" fill="#263238"/>
<path d="M53.9027 181.413C55.4573 180.522 56.9581 179.563 58.3603 178.439C58.3962 178.407 58.4544 178.461 58.4141 178.492C57.0388 179.657 55.5738 180.701 53.9655 181.521C53.8938 181.557 53.8311 181.454 53.9027 181.413Z" fill="#263238"/>
<path d="M48.4097 189.912C48.4231 190.033 48.6247 190.028 48.6202 189.903C48.6516 186.655 48.6202 183.393 48.674 180.132C49.5073 178.452 51.2903 177.525 52.5358 176.176C53.4318 175.204 54.1978 174.111 54.8519 172.951C56.3886 170.204 57.2174 167.113 57.5399 163.991C57.8849 160.519 56.5633 149.054 55.0983 149.453C54.3367 149.659 51.8817 155.335 51.2276 157.212C50.1614 160.299 49.4087 163.502 48.9159 166.728C47.7287 174.371 47.8273 182.22 48.4097 189.907V189.912Z" fill="#FFC727"/>
<path d="M48.3873 175.899L48.4007 175.885C48.5799 171.777 49.5028 167.624 50.3719 163.641C51.3038 159.349 52.3969 155.304 54.6055 151.474C54.6458 151.402 54.7534 151.465 54.713 151.536C53.2078 154.498 52.1326 157.643 51.3127 160.873C51.4606 160.64 51.6398 160.42 51.7921 160.205C51.8548 160.12 51.9937 160.201 51.9354 160.29C51.7204 160.613 51.5233 160.989 51.2455 161.267C51.2366 161.276 51.2276 161.276 51.2186 161.28C50.457 164.349 49.9105 167.49 49.4446 170.621C49.4804 170.581 49.5118 170.54 49.5476 170.5C49.57 170.473 49.6103 170.509 49.5969 170.536C49.5386 170.639 49.4759 170.742 49.4087 170.845C49.1713 172.435 48.9562 174.021 48.7367 175.594C51.5681 173.175 53.9828 170.325 55.3447 166.813C55.3492 166.795 55.3761 166.804 55.3716 166.822C54.0366 170.464 51.931 173.703 48.6919 175.916C48.6337 176.342 48.5754 176.763 48.5127 177.184C48.4993 177.274 48.3604 177.247 48.3604 177.162C48.3604 176.786 48.3783 176.414 48.3962 176.037C48.3559 176.002 48.338 175.943 48.3873 175.903V175.899Z" fill="#263238"/>
<path d="M49.7175 169.945C51.8813 166.719 53.9018 163.583 55.4832 160.012C55.5012 159.972 55.5684 159.999 55.5549 160.044C54.2199 163.587 52.3517 167.18 49.8295 170.03C49.7802 170.088 49.6772 170.012 49.722 169.945H49.7175Z" fill="#263238"/>
<path d="M52.5949 159.219C53.4909 157.633 54.4362 156.092 55.2784 154.475C55.3008 154.43 55.3636 154.471 55.3456 154.515C54.6378 156.169 53.7911 157.844 52.7338 159.3C52.6756 159.381 52.5456 159.309 52.5949 159.219Z" fill="#263238"/>
<path d="M52.2437 159.909C52.2437 159.909 52.2613 159.936 52.2437 159.936C52.2261 159.936 52.2261 159.909 52.2437 159.909Z" fill="#263238"/>
<path d="M46.2103 180.517C46.1566 182.668 45.9236 184.823 45.4532 186.915C45.4846 187.148 45.5204 187.376 45.5518 187.614C46.2282 185.284 46.5866 182.892 46.6942 180.482C46.73 180.414 46.7479 180.343 46.7031 180.262V180.253C46.8241 177.032 46.5284 173.775 45.9863 170.59C44.9828 164.622 42.7831 158.893 38.6212 154.421C38.4913 154.283 38.227 154.354 38.1598 154.516C36.4798 158.785 37.0666 163.883 38.4958 168.144C39.2753 170.437 40.3863 172.642 41.7975 174.617C43.2266 176.624 45.0455 178.322 46.2058 180.517H46.2103Z" fill="#FFC727"/>
<path d="M39.1179 156.424C43.0648 162.826 45.8065 170.419 46.1425 177.982C46.147 178.116 45.923 178.152 45.9051 178.013C45.811 177.332 45.708 176.66 45.6005 175.988C45.6005 175.988 45.596 175.988 45.5915 175.988C43.9608 174.424 42.2853 172.776 41.116 170.823C41.0936 170.787 41.1429 170.746 41.1742 170.778C42.5944 172.4 43.9205 174.062 45.5243 175.509C45.2421 173.838 44.9061 172.189 44.5118 170.567C44.4043 170.446 44.3013 170.321 44.1982 170.2C44.131 170.119 44.243 170.003 44.3147 170.083C44.3461 170.119 44.3774 170.155 44.4088 170.186C43.8488 167.96 43.1678 165.778 42.348 163.637C41.3445 162.44 40.22 161.406 39.4897 159.959C39.4718 159.923 39.5211 159.896 39.5435 159.927C40.1304 160.752 40.6994 161.585 41.3669 162.346C41.6312 162.651 41.9224 162.938 42.2002 163.233C41.3042 160.949 40.2379 158.704 38.9701 156.5C38.9118 156.401 39.0642 156.316 39.1224 156.41L39.1179 156.424Z" fill="#263238"/>
<path d="M39.9154 164.322C41.1922 166.038 42.6438 167.678 43.831 169.447C43.8668 169.496 43.7906 169.55 43.7503 169.51C42.2271 168.081 40.9369 166.132 39.8348 164.371C39.799 164.318 39.8841 164.273 39.9199 164.322H39.9154Z" fill="#263238"/>
<path d="M44.005 169.846L44.0588 169.899C44.0946 169.935 44.0364 169.998 44.0005 169.958L43.9468 169.904C43.9109 169.868 43.9692 169.81 44.005 169.846Z" fill="#263238"/>
<path d="M32.9355 168.731C33.2536 172.023 34.9874 175.961 37.0975 178.497C38.0338 179.621 39.1717 180.477 40.4754 181.131C41.9359 181.852 43.468 182.686 44.9823 183.282C45.6901 185.087 46.2322 186.978 46.5771 188.949C46.6264 188.783 46.6757 188.613 46.725 188.447C45.7528 180.105 40.3589 172.978 33.4552 168.404C33.2088 168.238 32.9131 168.448 32.94 168.731H32.9355Z" fill="#FFC727"/>
<path d="M35.3179 171.195C35.2687 171.15 35.3359 171.065 35.3896 171.105C39.0498 173.815 42.3426 177.767 44.1839 181.947C44.2331 182.059 44.0763 182.162 44.0136 182.045C43.6911 181.485 43.364 180.934 43.0325 180.401C43.0325 180.401 43.0325 180.401 43.028 180.401C41.4511 180.105 39.9592 178.994 38.7899 177.942C38.7586 177.915 38.8034 177.865 38.8347 177.897C39.444 178.434 40.1026 178.927 40.8283 179.299C41.469 179.626 42.1634 179.832 42.8309 180.092C42.2485 179.165 41.6392 178.278 41.0031 177.413C39.3096 176.835 37.6923 175.796 36.2677 174.752C36.2229 174.72 36.2632 174.644 36.3125 174.676C37.764 175.549 39.1976 176.32 40.7119 177.028C39.7576 175.764 38.7227 174.564 37.6027 173.403C37.0651 173.121 36.5231 172.834 36.0034 172.534C35.9631 172.507 35.9899 172.436 36.0392 172.454C36.4514 172.592 36.8725 172.807 37.2667 173.054C36.644 172.422 36.0034 171.804 35.3135 171.195H35.3179Z" fill="#263238"/>
<path d="M35.4657 174.075C35.5598 174.138 35.6449 174.192 35.73 174.263C35.7569 174.286 35.7211 174.317 35.6987 174.308C35.5956 174.263 35.515 174.21 35.4209 174.151C35.3716 174.12 35.4209 174.044 35.4657 174.075Z" fill="#263238"/>
<path d="M57.4946 207.008H38.5801L40.1033 189.782L40.4393 185.983H55.631L55.967 189.782L57.4946 207.008Z" fill="#455A64"/>
<path d="M55.9665 189.782L40.2148 188.532L40.4388 185.983H55.6305L55.9665 189.782Z" fill="#37474F"/>
<path d="M56.5368 183.326H39.5352V187.085H56.5368V183.326Z" fill="#455A64"/>
<path d="M152.717 207.007H109.78C107.917 199.678 105.04 188.397 102.536 178.573C102.536 178.568 102.536 178.559 102.532 178.555C102.379 177.95 102.227 177.354 102.079 176.767C101.985 176.4 101.891 176.037 101.801 175.683C99.3956 166.239 97.4916 158.767 97.4468 158.596C97.4199 158.489 97.3975 158.408 97.3796 158.345C97.3527 158.256 97.3438 158.207 97.3438 158.207H138.797L152.712 207.016L152.717 207.007Z" fill="#37474F"/>
<path d="M137.462 158.18V158.198C137.462 158.224 137.457 158.274 137.457 158.336C137.457 158.825 137.453 159.313 137.444 159.801C137.426 161.042 137.368 162.283 137.287 163.524C136.973 168.515 136.257 173.465 135.387 177.981C133.667 186.946 131.378 194.181 130.576 196.587C130.401 197.115 130.294 197.411 130.285 197.442C130.28 197.447 128.847 198.155 126.978 199.078C126.893 199.122 126.804 199.167 126.714 199.212C124.564 200.278 121.903 201.6 120.169 202.464C119.25 202.921 118.587 203.253 118.399 203.356C118.372 203.365 118.354 203.374 118.35 203.383C118.341 203.387 118.274 204.857 118.184 207.012H73.4111C74.3071 199.418 74.4281 198.415 74.4281 198.415C74.1638 196.95 72.9945 193.173 73.4111 188.787C74.3295 179.146 80.2476 159.784 80.7807 158.628C80.9062 158.345 80.9823 158.202 80.9823 158.202H92.3078L119.138 158.189H137.466L137.462 158.18Z" fill="#37474F"/>
<path d="M118.394 203.253V203.352C118.408 204.57 118.358 205.789 118.345 207.007H117.893C117.991 205.784 118.072 204.552 118.22 203.334C118.229 203.222 118.238 203.119 118.255 203.007C118.264 202.922 118.385 202.922 118.39 203.011C118.39 203.092 118.394 203.172 118.394 203.253Z" fill="#263238"/>
<path d="M113.023 205.601C114.927 204.279 116.979 203.172 118.995 202.035C121.056 200.87 123.148 199.754 125.294 198.755C129.483 196.802 133.909 195.395 138.317 194.029C138.429 193.993 138.506 194.177 138.394 194.221C134.146 196.045 130.029 198.137 125.805 200.01C123.681 200.95 121.54 201.855 119.412 202.792C117.284 203.728 115.21 204.79 113.068 205.686C113.01 205.708 112.97 205.636 113.023 205.605V205.601Z" fill="#263238"/>
<path d="M124.645 184.818C124.698 182.734 124.846 180.656 124.949 178.572C125.191 173.662 125.384 168.721 125.841 163.824C125.859 163.632 126.141 163.632 126.145 163.833C126.208 167.632 126.06 171.445 125.984 175.244C125.944 177.143 125.89 179.047 125.836 180.947C125.787 182.757 125.666 184.589 125.8 186.395C125.903 187.765 126.204 190.427 127.991 190.592C129.676 190.749 130.598 188.93 131.02 187.6C132.086 184.217 132.467 180.566 132.812 177.049C133.018 174.966 133.224 172.887 133.349 170.8C133.475 168.69 133.64 165.58 133.524 163.475C133.515 163.34 133.712 163.349 133.734 163.479C134.066 165.285 134.079 168.954 134.035 171.109C133.627 190.489 130.567 191.596 128.954 191.909C128.748 191.95 128.551 191.968 128.354 191.972C128.336 192.411 128.273 192.855 128.242 193.294C128.193 193.984 128.108 194.665 128.018 195.35C127.928 196.018 127.776 196.69 127.597 197.339C127.422 197.984 127.247 198.665 126.898 199.243C126.84 199.337 126.71 199.284 126.705 199.185C126.656 198.531 126.781 197.868 126.871 197.223C126.961 196.555 127.055 195.879 127.194 195.216C127.328 194.566 127.449 193.912 127.583 193.262C127.673 192.828 127.736 192.375 127.816 191.936C126.782 191.775 125.917 191.094 125.429 190.059C124.671 188.455 124.609 186.565 124.654 184.827L124.645 184.818Z" fill="#263238"/>
<path d="M85.5078 181.14C88.2138 181.328 90.8838 181.677 93.5987 181.355C96.1523 181.05 98.5984 180.176 100.641 178.595C105.103 175.136 107.057 169.474 108.266 164.16C108.293 164.039 108.468 164.066 108.454 164.187C107.948 168.793 106.958 173.555 103.983 177.264C102.689 178.882 101.098 180.244 99.239 181.175C97.3082 182.143 95.1085 182.47 92.967 182.466C90.4582 182.461 87.8867 182.085 85.4586 181.453C85.2659 181.404 85.2973 181.126 85.5034 181.14H85.5078Z" fill="#263238"/>
<path d="M144.544 180.064C143.791 179.979 143.052 180.042 142.29 179.487C141.574 178.962 140.875 177.932 140.279 176.288C138.975 172.695 138.335 167.332 137.913 162.364C137.904 162.252 137.855 162.256 137.86 162.373C138.075 166.633 138.433 171.082 139.325 174.756C139.714 176.359 140.18 177.757 140.713 178.783C141.269 179.849 141.887 180.365 142.488 180.566C143.186 180.804 143.899 180.705 144.566 180.36C144.62 180.333 144.607 180.078 144.548 180.069L144.544 180.064Z" fill="#263238"/>
<path d="M85.0275 159.519C83.576 167.48 81.8512 175.558 80.2608 183.496C79.8576 185.871 79.1453 188.218 79.2886 190.633C79.4589 193.065 79.9114 195.489 80.44 197.872C80.1846 199.405 79.9338 200.941 79.6605 202.469C79.3917 203.983 79.1363 205.497 78.8406 207.007C78.9795 205.475 79.1542 203.947 79.32 202.42C79.4768 200.892 79.665 199.364 79.8442 197.837C79.2931 196.058 78.6749 192.976 78.4778 190.687C78.4061 189.858 78.4061 188.984 78.536 188.16C79.0198 184.903 79.7008 181.718 80.3818 178.523C81.7706 172.148 83.2982 165.805 85.0275 159.51V159.519Z" fill="#263238"/>
<path d="M125.082 99.3843C143.799 116.337 157.11 130.946 156.93 137.585C156.532 152.468 148.687 155.68 147.289 155.205C132.528 150.196 123.147 122.098 116.942 105.123C110.782 88.2694 119.719 94.528 125.082 99.3843Z" fill="#D3766A"/>
<path d="M151.649 123.536L128.067 136.129C128.067 136.129 118.462 115.172 115.191 102.641C111.921 90.1106 116.943 90.5138 127.923 100.32C138.904 110.127 151.649 123.54 151.649 123.54V123.536Z" fill="#FFC727"/>
<path d="M122.633 107.757C121.889 107.757 121.28 108.367 121.28 109.11C121.28 109.854 121.889 110.477 122.633 110.477C123.377 110.477 123.999 109.858 123.999 109.11C123.999 108.362 123.395 107.757 122.633 107.757ZM122.633 110.244C122.019 110.244 121.513 109.737 121.513 109.11C121.513 108.483 122.019 107.99 122.633 107.99C123.247 107.99 123.766 108.496 123.766 109.11C123.766 109.724 123.26 110.244 122.633 110.244ZM137.672 109.446C137.529 109.908 137.099 110.244 136.588 110.244C135.974 110.244 135.468 109.737 135.468 109.11C135.468 108.622 135.786 108.205 136.225 108.053C136.167 107.99 136.104 107.932 136.042 107.874C135.567 108.084 135.235 108.559 135.235 109.11C135.235 109.858 135.845 110.477 136.588 110.477C137.166 110.477 137.65 110.123 137.852 109.625L137.672 109.446ZM115.658 96.6289C114.914 96.6289 114.305 97.2382 114.305 97.9819C114.305 98.7255 114.914 99.3483 115.658 99.3483C116.401 99.3483 117.024 98.73 117.024 97.9819C117.024 97.2337 116.419 96.6289 115.658 96.6289ZM115.658 99.1153C115.044 99.1153 114.538 98.6091 114.538 97.9819C114.538 97.3547 115.044 96.8619 115.658 96.8619C116.271 96.8619 116.791 97.3681 116.791 97.9819C116.791 98.5956 116.285 99.1153 115.658 99.1153ZM136.588 130.211C135.845 130.211 135.235 130.82 135.235 131.564C135.235 131.797 135.293 132.016 135.401 132.214L135.603 132.106C135.517 131.945 135.468 131.761 135.468 131.564C135.468 130.95 135.974 130.444 136.588 130.444C137.023 130.444 137.404 130.69 137.592 131.044L137.798 130.932C137.569 130.507 137.117 130.211 136.588 130.211ZM129.608 119.083C128.865 119.083 128.255 119.692 128.255 120.436C128.255 121.179 128.865 121.802 129.608 121.802C130.352 121.802 130.975 121.184 130.975 120.436C130.975 119.687 130.37 119.083 129.608 119.083ZM129.608 121.569C128.995 121.569 128.488 121.063 128.488 120.436C128.488 119.808 128.995 119.316 129.608 119.316C130.222 119.316 130.742 119.822 130.742 120.436C130.742 121.049 130.236 121.569 129.608 121.569ZM143.564 119.083C142.82 119.083 142.211 119.692 142.211 120.436C142.211 121.179 142.82 121.802 143.564 121.802C144.307 121.802 144.93 121.184 144.93 120.436C144.93 119.687 144.325 119.083 143.564 119.083ZM143.564 121.569C142.95 121.569 142.444 121.063 142.444 120.436C142.444 119.808 142.95 119.316 143.564 119.316C144.177 119.316 144.697 119.822 144.697 120.436C144.697 121.049 144.191 121.569 143.564 121.569Z" fill="white"/>
<path d="M146.842 119.902C137.739 125.959 128.931 129.879 127.166 130.878C127.081 130.928 127.013 130.784 127.103 130.744C128.886 129.852 138.572 123.925 146.77 119.755C146.864 119.705 146.927 119.844 146.842 119.902Z" fill="#263238"/>
<path opacity="0.1" d="M146.493 126.56L128.072 136.129C128.072 136.129 118.466 115.172 115.192 102.637C113.991 98.0179 113.91 95.1597 114.842 93.8784L146.498 126.56H146.493Z" fill="black"/>
<path d="M139.451 158.807L136.383 139.521C136.383 139.521 142.399 131.963 138.452 123.679C136.459 119.486 126.379 98.8647 119.135 93.7306C113.185 89.5149 103.087 91.7908 99.7227 97.6103C92.1067 110.777 84.54 126.255 80.1406 158.825L139.451 158.807Z" fill="#FFC727"/>
<path d="M94.7269 107.757C94.5432 107.757 94.3685 107.793 94.2117 107.861C93.7189 108.067 93.3739 108.55 93.3739 109.11C93.3739 109.24 93.3919 109.366 93.4322 109.487C93.5935 110.056 94.1131 110.477 94.7269 110.477C95.4885 110.477 96.0933 109.859 96.0933 109.11C96.0933 108.362 95.4885 107.757 94.7269 107.757ZM94.7269 110.244C94.1131 110.244 93.6114 109.742 93.6069 109.115C93.6069 108.765 93.7682 108.452 94.0191 108.25C94.0191 108.25 94.0205 108.249 94.0235 108.246C94.2117 108.085 94.4581 107.99 94.7269 107.99C95.3541 107.99 95.8603 108.497 95.8603 109.11C95.8603 109.724 95.3541 110.244 94.7269 110.244ZM108.682 107.757C107.938 107.757 107.329 108.367 107.329 109.11C107.329 109.854 107.938 110.477 108.682 110.477C109.426 110.477 110.048 109.859 110.048 109.11C110.048 108.362 109.444 107.757 108.682 107.757ZM108.682 110.244C108.068 110.244 107.562 109.738 107.562 109.11C107.562 108.483 108.068 107.99 108.682 107.99C109.296 107.99 109.816 108.497 109.816 109.11C109.816 109.724 109.309 110.244 108.682 110.244ZM122.633 107.757C121.889 107.757 121.28 108.367 121.28 109.11C121.28 109.854 121.889 110.477 122.633 110.477C123.376 110.477 123.999 109.859 123.999 109.11C123.999 108.362 123.394 107.757 122.633 107.757ZM122.633 110.244C122.019 110.244 121.513 109.738 121.513 109.11C121.513 108.483 122.019 107.99 122.633 107.99C123.247 107.99 123.766 108.497 123.766 109.11C123.766 109.724 123.26 110.244 122.633 110.244ZM101.707 96.6292C100.963 96.6292 100.354 97.2384 100.354 97.9821C100.354 98.7258 100.963 99.3485 101.707 99.3485C102.45 99.3485 103.073 98.7303 103.073 97.9821C103.073 97.234 102.468 96.6292 101.707 96.6292ZM101.707 99.1156C101.093 99.1156 100.587 98.6093 100.587 97.9821C100.587 97.3549 101.093 96.8621 101.707 96.8621C102.32 96.8621 102.84 97.3684 102.84 97.9821C102.84 98.5959 102.334 99.1156 101.707 99.1156ZM115.657 96.6292C114.914 96.6292 114.304 97.2384 114.304 97.9821C114.304 98.7258 114.914 99.3485 115.657 99.3485C116.401 99.3485 117.024 98.7303 117.024 97.9821C117.024 97.234 116.419 96.6292 115.657 96.6292ZM115.657 99.1156C115.044 99.1156 114.537 98.6093 114.537 97.9821C114.537 97.3549 115.044 96.8621 115.657 96.8621C116.271 96.8621 116.791 97.3684 116.791 97.9821C116.791 98.5959 116.285 99.1156 115.657 99.1156ZM94.7269 130.211C93.9832 130.211 93.3739 130.821 93.3739 131.564C93.3739 132.308 93.9832 132.931 94.7269 132.931C95.4706 132.931 96.0933 132.312 96.0933 131.564C96.0933 130.816 95.4885 130.211 94.7269 130.211ZM94.7269 132.698C94.1131 132.698 93.6069 132.191 93.6069 131.564C93.6069 130.937 94.1131 130.444 94.7269 130.444C95.3407 130.444 95.8603 130.95 95.8603 131.564C95.8603 132.178 95.3541 132.698 94.7269 132.698ZM108.682 130.211C107.938 130.211 107.329 130.821 107.329 131.564C107.329 132.308 107.938 132.931 108.682 132.931C109.426 132.931 110.048 132.312 110.048 131.564C110.048 130.816 109.444 130.211 108.682 130.211ZM108.682 132.698C108.068 132.698 107.562 132.191 107.562 131.564C107.562 130.937 108.068 130.444 108.682 130.444C109.296 130.444 109.816 130.95 109.816 131.564C109.816 132.178 109.309 132.698 108.682 132.698ZM122.633 130.211C121.889 130.211 121.28 130.821 121.28 131.564C121.28 132.308 121.889 132.931 122.633 132.931C123.376 132.931 123.999 132.312 123.999 131.564C123.999 130.816 123.394 130.211 122.633 130.211ZM122.633 132.698C122.019 132.698 121.513 132.191 121.513 131.564C121.513 130.937 122.019 130.444 122.633 130.444C123.247 130.444 123.766 130.95 123.766 131.564C123.766 132.178 123.26 132.698 122.633 132.698ZM136.588 130.211C135.844 130.211 135.235 130.821 135.235 131.564C135.235 132.308 135.844 132.931 136.588 132.931C137.332 132.931 137.954 132.312 137.954 131.564C137.954 130.816 137.35 130.211 136.588 130.211ZM136.588 132.698C135.974 132.698 135.468 132.191 135.468 131.564C135.468 130.937 135.974 130.444 136.588 130.444C137.202 130.444 137.721 130.95 137.721 131.564C137.721 132.178 137.215 132.698 136.588 132.698ZM89.0552 120.033C88.997 120.189 88.9387 120.351 88.8805 120.512C88.8671 120.732 88.7954 120.924 88.6789 121.09H88.6744C88.6162 121.256 88.5624 121.417 88.5042 121.578C88.876 121.332 89.1179 120.911 89.1179 120.436C89.1179 120.297 89.0955 120.163 89.0552 120.033ZM101.707 119.083C100.963 119.083 100.354 119.692 100.354 120.436C100.354 121.18 100.963 121.802 101.707 121.802C102.45 121.802 103.073 121.184 103.073 120.436C103.073 119.688 102.468 119.083 101.707 119.083ZM101.707 121.569C101.093 121.569 100.587 121.063 100.587 120.436C100.587 119.809 101.093 119.316 101.707 119.316C102.32 119.316 102.84 119.822 102.84 120.436C102.84 121.05 102.334 121.569 101.707 121.569ZM115.657 119.083C114.914 119.083 114.304 119.692 114.304 120.436C114.304 121.18 114.914 121.802 115.657 121.802C116.401 121.802 117.024 121.184 117.024 120.436C117.024 119.688 116.419 119.083 115.657 119.083ZM115.657 121.569C115.044 121.569 114.537 121.063 114.537 120.436C114.537 119.809 115.044 119.316 115.657 119.316C116.271 119.316 116.791 119.822 116.791 120.436C116.791 121.05 116.285 121.569 115.657 121.569ZM129.608 119.083C128.864 119.083 128.255 119.692 128.255 120.436C128.255 121.18 128.864 121.802 129.608 121.802C130.352 121.802 130.975 121.184 130.975 120.436C130.975 119.688 130.37 119.083 129.608 119.083ZM129.608 121.569C128.994 121.569 128.488 121.063 128.488 120.436C128.488 119.809 128.994 119.316 129.608 119.316C130.222 119.316 130.742 119.822 130.742 120.436C130.742 121.05 130.235 121.569 129.608 121.569ZM81.036 152.687C81.0271 152.764 81.0136 152.84 81.0002 152.92C81.5199 153.023 81.9096 153.48 81.9096 154.018C81.9096 154.645 81.4034 155.151 80.7762 155.151C80.7403 155.151 80.7045 155.151 80.6642 155.147C80.6552 155.223 80.6418 155.299 80.6328 155.375C80.6821 155.38 80.7314 155.384 80.7807 155.384C81.5423 155.384 82.1471 154.766 82.1471 154.018C82.1471 153.359 81.6767 152.808 81.0405 152.687H81.036ZM94.7269 152.665C93.9832 152.665 93.3739 153.274 93.3739 154.018C93.3739 154.762 93.9832 155.384 94.7269 155.384C95.4706 155.384 96.0933 154.766 96.0933 154.018C96.0933 153.27 95.4885 152.665 94.7269 152.665ZM94.7269 155.151C94.1131 155.151 93.6069 154.645 93.6069 154.018C93.6069 153.391 94.1131 152.898 94.7269 152.898C95.3407 152.898 95.8603 153.404 95.8603 154.018C95.8603 154.632 95.3541 155.151 94.7269 155.151ZM108.682 152.665C107.938 152.665 107.329 153.274 107.329 154.018C107.329 154.762 107.938 155.384 108.682 155.384C109.426 155.384 110.048 154.766 110.048 154.018C110.048 153.27 109.444 152.665 108.682 152.665ZM108.682 155.151C108.068 155.151 107.562 154.645 107.562 154.018C107.562 153.391 108.068 152.898 108.682 152.898C109.296 152.898 109.816 153.404 109.816 154.018C109.816 154.632 109.309 155.151 108.682 155.151ZM122.633 152.665C121.889 152.665 121.28 153.274 121.28 154.018C121.28 154.762 121.889 155.384 122.633 155.384C123.376 155.384 123.999 154.766 123.999 154.018C123.999 153.27 123.394 152.665 122.633 152.665ZM122.633 155.151C122.019 155.151 121.513 154.645 121.513 154.018C121.513 153.391 122.019 152.898 122.633 152.898C123.247 152.898 123.766 153.404 123.766 154.018C123.766 154.632 123.26 155.151 122.633 155.151ZM136.588 152.665C135.844 152.665 135.235 153.274 135.235 154.018C135.235 154.762 135.844 155.384 136.588 155.384C137.332 155.384 137.954 154.766 137.954 154.018C137.954 153.27 137.35 152.665 136.588 152.665ZM136.588 155.151C135.974 155.151 135.468 154.645 135.468 154.018C135.468 153.391 135.974 152.898 136.588 152.898C137.202 152.898 137.721 153.404 137.721 154.018C137.721 154.632 137.215 155.151 136.588 155.151ZM87.7515 141.537C87.0079 141.537 86.3986 142.146 86.3986 142.89C86.3986 143.633 87.0079 144.256 87.7515 144.256C88.4952 144.256 89.1179 143.638 89.1179 142.89C89.1179 142.141 88.5131 141.537 87.7515 141.537ZM87.7515 144.023C87.1378 144.023 86.6315 143.517 86.6315 142.89C86.6315 142.262 87.1378 141.77 87.7515 141.77C88.3653 141.77 88.885 142.276 88.885 142.89C88.885 143.503 88.3787 144.023 87.7515 144.023ZM101.707 141.537C100.963 141.537 100.354 142.146 100.354 142.89C100.354 143.633 100.963 144.256 101.707 144.256C102.45 144.256 103.073 143.638 103.073 142.89C103.073 142.141 102.468 141.537 101.707 141.537ZM101.707 144.023C101.093 144.023 100.587 143.517 100.587 142.89C100.587 142.262 101.093 141.77 101.707 141.77C102.32 141.77 102.84 142.276 102.84 142.89C102.84 143.503 102.334 144.023 101.707 144.023ZM115.657 141.537C114.914 141.537 114.304 142.146 114.304 142.89C114.304 143.633 114.914 144.256 115.657 144.256C116.401 144.256 117.024 143.638 117.024 142.89C117.024 142.141 116.419 141.537 115.657 141.537ZM115.657 144.023C115.044 144.023 114.537 143.517 114.537 142.89C114.537 142.262 115.044 141.77 115.657 141.77C116.271 141.77 116.791 142.276 116.791 142.89C116.791 143.503 116.285 144.023 115.657 144.023ZM129.608 141.537C128.864 141.537 128.255 142.146 128.255 142.89C128.255 143.633 128.864 144.256 129.608 144.256C130.352 144.256 130.975 143.638 130.975 142.89C130.975 142.141 130.37 141.537 129.608 141.537ZM129.608 144.023C128.994 144.023 128.488 143.517 128.488 142.89C128.488 142.262 128.994 141.77 129.608 141.77C130.222 141.77 130.742 142.276 130.742 142.89C130.742 143.503 130.235 144.023 129.608 144.023Z" fill="white"/>
<path d="M126.391 134.66C123.323 135.036 120.24 135.52 117.257 136.349C115.769 136.761 114.313 137.24 112.862 137.751C112.136 138.006 111.41 138.235 110.676 138.463C109.923 138.696 109.112 138.916 108.324 138.956C108.252 138.956 108.256 139.068 108.324 139.068C109.094 139.073 109.829 139.077 110.599 138.983C111.33 138.889 112.051 138.719 112.759 138.531C114.269 138.127 115.76 137.653 117.266 137.236C120.303 136.389 123.341 135.547 126.436 134.92C126.58 134.893 126.539 134.646 126.391 134.664V134.66Z" fill="#263238"/>
<path d="M134.078 137.24C131.543 137.034 128.958 136.945 126.413 137.025C125.132 137.066 123.864 137.182 122.596 137.33C121.987 137.402 121.382 137.482 120.777 137.572C120.11 137.67 119.46 137.859 118.793 137.948C118.725 137.957 118.725 138.065 118.793 138.06C119.424 137.997 120.069 138.033 120.701 138.006C121.337 137.979 121.973 137.944 122.61 137.917C123.886 137.859 125.159 137.818 126.435 137.751C128.985 137.612 131.529 137.505 134.083 137.455C134.222 137.455 134.208 137.258 134.074 137.245L134.078 137.24Z" fill="#263238"/>
<path d="M96.9366 99.38C79.0301 117.184 66.4144 131.502 66.8982 138.128C67.9869 152.974 76.4048 155.537 77.7801 154.999C92.2909 149.31 99.9248 121.982 105.337 104.734C110.708 87.6155 102.066 94.2818 96.9411 99.38H96.9366Z" fill="#D3766A"/>
<path d="M71.5215 123.85L95.6642 135.332C95.6642 135.332 104.284 114.845 106.967 102.175C109.651 89.506 104.651 90.1422 94.141 100.446C83.6309 110.755 71.5215 123.85 71.5215 123.85Z" fill="#FFC727"/>
<path d="M94.7283 107.758C93.9846 107.758 93.3753 108.367 93.3753 109.111C93.3753 109.854 93.9846 110.477 94.7283 110.477C95.472 110.477 96.0947 109.859 96.0947 109.111C96.0947 108.363 95.4899 107.758 94.7283 107.758ZM94.7283 110.244C94.1145 110.244 93.6083 109.738 93.6083 109.111C93.6083 108.483 94.1145 107.991 94.7283 107.991C95.3421 107.991 95.8617 108.497 95.8617 109.111C95.8617 109.724 95.3555 110.244 94.7283 110.244ZM101.708 96.6294C100.964 96.6294 100.355 97.2387 100.355 97.9824C100.355 98.726 100.964 99.3488 101.708 99.3488C102.452 99.3488 103.075 98.7305 103.075 97.9824C103.075 97.2342 102.47 96.6294 101.708 96.6294ZM101.708 99.1158C101.094 99.1158 100.588 98.6096 100.588 97.9824C100.588 97.3552 101.094 96.8624 101.708 96.8624C102.322 96.8624 102.842 97.3686 102.842 97.9824C102.842 98.5961 102.335 99.1158 101.708 99.1158ZM94.7283 130.211C93.9846 130.211 93.3753 130.821 93.3753 131.564C93.3753 132.308 93.9846 132.931 94.7283 132.931C95.472 132.931 96.0947 132.313 96.0947 131.564C96.0947 130.816 95.4899 130.211 94.7283 130.211ZM94.7283 132.698C94.1145 132.698 93.6083 132.192 93.6083 131.564C93.6083 130.937 94.1145 130.444 94.7283 130.444C95.3421 130.444 95.8617 130.951 95.8617 131.564C95.8617 132.178 95.3555 132.698 94.7283 132.698ZM75.1014 120.015C75.0387 120.082 74.976 120.149 74.9133 120.212C74.9267 120.284 74.9357 120.36 74.9357 120.436C74.9357 121.063 74.4294 121.57 73.8022 121.57C73.7529 121.57 73.7037 121.565 73.6544 121.561C73.5872 121.628 73.5289 121.695 73.4707 121.758C73.5782 121.789 73.6857 121.803 73.8022 121.803C74.5638 121.803 75.1686 121.184 75.1686 120.436C75.1686 120.288 75.1462 120.149 75.1014 120.015ZM87.7529 119.083C87.0093 119.083 86.4 119.692 86.4 120.436C86.4 121.18 87.0093 121.803 87.7529 121.803C88.4966 121.803 89.1193 121.184 89.1193 120.436C89.1193 119.688 88.5145 119.083 87.7529 119.083ZM87.7529 121.57C87.1392 121.57 86.6329 121.063 86.6329 120.436C86.6329 119.809 87.1392 119.316 87.7529 119.316C88.3667 119.316 88.8864 119.822 88.8864 120.436C88.8864 121.05 88.3801 121.57 87.7529 121.57ZM101.708 119.083C100.964 119.083 100.355 119.692 100.355 120.436C100.355 120.929 100.62 121.363 101.009 121.605C101.036 121.534 101.063 121.458 101.09 121.381C100.79 121.175 100.588 120.83 100.588 120.436C100.588 119.822 101.094 119.316 101.708 119.316C101.748 119.316 101.789 119.316 101.829 119.321C101.856 119.249 101.878 119.177 101.905 119.101C101.843 119.088 101.775 119.083 101.708 119.083Z" fill="white"/>
<path d="M76.1531 119.992C85.5297 125.619 94.5076 129.123 96.3175 130.041C96.4027 130.086 96.4654 129.942 96.3758 129.902C94.5524 129.096 84.6023 123.626 76.2158 119.84C76.1172 119.795 76.0635 119.939 76.1531 119.992Z" fill="#263238"/>
<path d="M94.106 134.53C94.2583 134.53 95.329 134.96 95.5486 135.054C97.457 130.462 97.1255 131.506 99.0788 126.932C100.038 124.688 100.996 122.448 101.95 120.203C102.941 117.869 103.805 115.45 104.921 113.174C104.952 113.107 105.046 113.147 105.028 113.219C104.441 115.405 103.59 117.542 102.793 119.665C102.981 119.334 103.156 118.993 103.362 118.666C103.823 117.941 104.276 117.215 104.679 116.458C104.742 116.341 104.934 116.417 104.871 116.538C104.486 117.264 104.155 118.003 103.828 118.756C103.501 119.509 103.129 120.234 102.748 120.96C102.381 121.664 101.968 122.336 101.552 123.008C101.502 123.088 101.453 123.173 101.399 123.258C100.884 124.589 100.387 125.924 99.8449 127.246C97.9364 131.865 95.889 135.534 95.8129 135.52C95.4993 135.462 94.1911 134.745 94.0612 134.665C93.994 134.62 94.0522 134.535 94.115 134.535L94.106 134.53Z" fill="#263238"/>
<path d="M101.218 71.8995C102.611 72.7104 104.408 72.7417 105.774 71.8368C107.118 70.9452 107.799 69.31 107.615 67.7331C109.161 68.5036 111.016 68.5126 112.31 67.1417C113.65 65.726 113.529 63.6921 112.378 62.2182C112.369 62.2092 112.351 62.2182 112.355 62.2316C113.26 63.6876 113.345 65.6275 112.091 66.9177C111.02 68.0198 109.667 68.1049 108.382 67.6883C109.658 67.639 110.931 67.191 111.782 66.2054C112.718 65.1212 112.96 63.5129 112.302 62.2451C113.766 61.5283 115.075 60.2515 115.361 58.5894C115.603 57.1916 115.043 55.7043 113.852 54.9427C115.137 53.9616 115.8 52.2278 115.366 50.6374C114.963 49.1456 113.686 48.03 112.198 47.7209C114.022 46.0992 113.542 43.0707 111.267 42.0985C111.818 41.4131 111.854 40.4364 111.45 39.6435C110.989 38.7251 110.044 38.2144 109.094 37.9052C109.166 37.0003 108.821 36.064 108.072 35.504C107.073 34.7558 105.738 34.9126 104.878 35.7324C103.915 34.4198 102.692 33.1251 101.043 32.7801C99.6903 32.4934 98.1447 32.91 97.3607 34.0883C95.3268 31.9692 91.922 32.0902 90.0404 34.3616C88.9876 33.7478 87.666 33.8016 86.6042 34.4153C85.538 35.0291 85.0093 35.7235 84.7898 36.0729C83.7997 35.5936 82.5946 35.8489 81.833 36.6419C81.0849 37.4259 80.9281 38.4294 81.0221 39.4419C80.8967 39.6883 80.7354 39.8988 80.4666 40.1094C79.2705 41.0592 78.6253 42.4435 78.7239 43.9667C77.0305 44.5715 76.242 46.7084 77.138 48.2675C75.6775 49.374 75.4177 51.6364 76.5735 53.0521C75.5252 54.0422 74.9204 55.4489 74.9921 56.9004C75.0458 58.016 75.5834 59.2345 76.6721 59.6064C76.0897 60.2649 76.3719 61.3222 76.9767 61.9225C77.2052 62.151 77.474 62.3347 77.7473 62.5094C78.0743 62.711 78.5447 62.8812 78.7777 63.1904C79.0285 63.5084 78.9927 63.9744 79.0778 64.3507C79.1405 64.6195 79.2301 64.8838 79.3466 65.1347C80.2381 67.0252 82.4871 68.087 84.4941 67.5539C84.8301 69.0009 86.2548 69.7715 87.6436 70.0313C88.1005 70.1164 88.5485 70.1254 89.0145 70.1299C89.4401 70.1299 89.8119 70.1612 90.1837 70.4076C90.4077 70.5555 90.5959 70.7571 90.8199 70.9094C91.5815 71.4201 92.4596 71.3395 93.3108 71.1648C94.3636 74.9952 99.2154 74.9504 101.218 71.9174V71.8995ZM81.7703 37.2377C82.4557 36.2611 83.5847 35.8937 84.7271 36.1715C84.6868 36.2476 84.6599 36.2969 84.6599 36.2969C84.6599 36.2969 84.2836 36.3059 84.1044 36.3283C83.7729 36.3776 83.4503 36.4761 83.1501 36.6195C82.5185 36.9152 81.9719 37.399 81.6135 37.9948C81.4522 38.2636 81.3447 38.5504 81.2551 38.8505C81.2417 38.8908 81.2282 38.9222 81.2193 38.958C81.2641 38.3532 81.3985 37.7753 81.7748 37.2377H81.7703ZM107.987 36.4179C107.208 35.6563 105.994 35.4412 105.026 35.9251C105.008 35.9027 104.99 35.8803 104.972 35.8534C105.895 35.2172 106.912 34.8902 107.942 35.6876C108.659 36.2432 108.852 37.0137 108.785 37.8067H108.767C108.637 37.287 108.386 36.8076 107.983 36.4179H107.987ZM93.4855 71.111C93.4855 71.111 93.5124 71.1065 93.5258 71.102C94.8833 73.3824 97.7191 74.023 99.874 72.8358C97.5892 74.3142 94.7533 74.2694 93.4855 71.111Z" fill="#263238"/>
<path d="M105.487 96.7815C105.85 97.9552 112.306 107.233 118.564 105.607C121.194 104.922 118.555 94.752 118.555 94.752L120.213 83.8343L106.128 76.2048C106.128 76.2048 105.339 96.2842 105.487 96.7815Z" fill="#D3766A"/>
<path d="M120.213 83.8298L118.605 94.4295C117.014 94.2861 109.914 93.072 105.846 83.7536C105.998 79.6679 106.132 76.2048 106.132 76.2048L120.213 83.8298Z" fill="#263238"/>
<path d="M132.994 67.1957C138.514 84.4213 128.823 89.6764 125.105 90.8591C121.732 91.9343 110.111 95.1733 102.839 78.6108C95.5684 62.0482 101.831 54.0335 109.416 51.1618C117.001 48.2901 127.475 49.9656 132.994 67.1912V67.1957Z" fill="#D3766A"/>
<path d="M127.049 62.5769C126.623 62.5724 126.225 62.6351 125.804 62.6754C125.324 62.7202 124.943 62.7023 124.554 63.0159C124.343 63.1862 124.307 63.5759 124.455 63.7954C124.791 64.3017 125.391 64.3958 125.965 64.3689C126.592 64.3375 127.067 64.1539 127.533 63.7372C127.985 63.334 127.618 62.5858 127.053 62.5769H127.049Z" fill="#263238"/>
<path d="M114.989 69.6822C115.249 69.3417 115.544 69.0729 115.835 68.7638C116.162 68.4144 116.386 68.1008 116.875 67.9888C117.135 67.9305 117.466 68.1411 117.551 68.392C117.744 68.9699 117.448 69.4985 117.072 69.9376C116.66 70.4125 116.225 70.6723 115.607 70.7798C115.011 70.8829 114.648 70.1347 114.989 69.6867V69.6822Z" fill="#263238"/>
<path d="M119.103 72.666C119.081 72.6212 119.027 72.7466 119.041 72.7959C119.399 73.9742 119.61 75.3854 118.642 76.0708C118.611 76.0932 118.633 76.1514 118.669 76.1335C119.932 75.5959 119.632 73.7233 119.103 72.666Z" fill="#263238"/>
<path d="M117.705 71.7116C115.752 72.0835 116.639 75.9587 118.449 75.6137C120.227 75.2777 119.345 71.398 117.705 71.7116Z" fill="#263238"/>
<path d="M116.987 72.0878C116.701 72.3835 116.454 72.8494 116.056 72.9794C115.594 73.1362 115.146 72.8091 114.747 72.491C114.707 72.4597 114.68 72.5 114.689 72.5493C114.846 73.293 115.307 73.9918 116.127 73.9202C116.875 73.8574 117.247 73.0779 117.261 72.2894C117.261 72.1416 117.095 71.9669 116.983 72.0878H116.987Z" fill="#263238"/>
<path d="M126.033 70.538C126.033 70.4888 126.141 70.5739 126.15 70.6232C126.378 71.8328 126.84 73.1812 128.018 73.3425C128.054 73.347 128.063 73.4097 128.022 73.4097C126.651 73.5172 126.056 71.7163 126.033 70.5336V70.538Z" fill="#263238"/>
<path d="M126.83 69.0461C128.734 68.4727 129.737 72.321 127.977 72.8496C126.243 73.3738 125.235 69.5255 126.83 69.0461Z" fill="#263238"/>
<path d="M127.699 69.0908C128.057 69.2163 128.451 69.5075 128.823 69.4358C129.253 69.3552 129.455 68.8579 129.616 68.3875C129.634 68.3382 129.67 68.3651 129.688 68.4144C129.898 69.1446 129.858 69.9734 129.186 70.3004C128.577 70.5961 127.936 70.0899 127.569 69.4044C127.502 69.279 127.551 69.0416 127.694 69.0953L127.699 69.0908Z" fill="#263238"/>
<path d="M119.671 82.867C120.012 83.1 120.375 83.436 120.818 83.3957C121.248 83.3553 121.705 83.0731 122.064 82.8536C122.099 82.8312 122.144 82.867 122.126 82.9073C121.898 83.4315 121.289 83.8392 120.706 83.8437C120.142 83.8437 119.783 83.4225 119.559 82.9432C119.528 82.876 119.617 82.8312 119.667 82.867H119.671Z" fill="#263238"/>
<path d="M121.67 80.416C123.543 79.3319 124.582 79.3812 125.823 79.1482C125.948 79.0855 126.222 78.8973 126.204 78.7629V78.754C126.186 78.7136 125.348 76.3348 125.348 76.3348C125.72 76.393 127.597 76.608 127.422 76.1556C125.98 72.4192 124.376 68.2663 122.154 64.857C122.087 64.7405 121.903 64.8301 121.952 64.9511C123.198 68.5933 125.07 71.9981 126.378 75.6359C125.792 75.6045 124.819 75.506 124.362 75.6628C124.25 75.7389 125.397 78.1805 125.482 78.5882C125.482 78.5882 123.525 78.418 121.455 80.2458C120.994 80.6535 120.985 80.8103 121.67 80.416Z" fill="#263238"/>
<path d="M118.731 52.8193C118.731 52.8193 119.855 55.346 119.264 57.3978C118.045 61.6225 113.176 61.3582 111.823 63.1726C110.555 64.8705 111.576 67.7959 110.452 69.4714C108.897 71.7921 106.2 71.4337 106.111 72.8404C106.021 74.2471 105.837 78.7047 104.207 79.5335C102.58 80.3623 89.9737 52.9761 112.58 50.1985C112.58 50.1985 115.456 48.4289 120.635 50.0641C126.351 51.8695 130.083 60.2158 130.083 60.2158C130.083 60.2158 129.953 60.1172 129.071 59.5617C127.83 58.7777 127.265 57.9578 126.365 57.465C124.958 56.69 124.331 57.1738 122.879 56.4346C120.662 55.3102 118.726 52.8193 118.726 52.8193H118.731Z" fill="#263238"/>
<path d="M118.185 51.6274C118.718 52.6937 119.139 53.8226 119.408 54.9695C119.686 56.1074 119.825 57.3215 119.48 58.4012C119.126 59.454 118.216 60.2828 117.235 60.8383C116.232 61.4073 115.071 61.7119 114.001 62.366C113.481 62.7065 112.979 63.1366 112.683 63.7503C112.397 64.3506 112.343 64.9958 112.307 65.5916C112.258 66.7878 112.204 67.9705 111.577 68.9202C110.963 69.87 109.933 70.5465 108.777 70.6854C107.643 70.8735 106.344 70.757 105.318 71.438C106.394 70.8422 107.612 71.0617 108.808 70.9586C110.036 70.8735 111.205 70.1881 111.931 69.1666C112.706 68.1273 112.742 66.7833 112.813 65.6274C112.854 65.0406 112.921 64.4626 113.158 63.9878C113.387 63.5218 113.826 63.141 114.296 62.8454C115.251 62.2406 116.424 61.9046 117.486 61.2908C118.019 60.9862 118.521 60.6054 118.942 60.1484C119.359 59.7004 119.748 59.1583 119.896 58.5356C120.223 57.3036 120.008 56.0537 119.677 54.9023C119.309 53.751 118.799 52.6578 118.185 51.6319V51.6274Z" fill="#263238"/>
<path d="M118.779 52.5864C119.174 53.6258 119.716 54.6069 120.379 55.5208C121.033 56.4347 121.942 57.2322 123.04 57.6399C123.591 57.8504 124.187 57.9042 124.693 57.9938C125.181 58.0834 125.714 58.2939 126.041 58.612C126.4 58.9794 126.763 59.4587 127.238 59.7858C127.712 60.1083 128.255 60.3099 128.801 60.3861C128.286 60.1845 127.793 59.9381 127.408 59.5663C126.996 59.2168 126.722 58.7733 126.359 58.3163C125.934 57.8191 125.369 57.6264 124.8 57.4741C124.227 57.3576 123.716 57.3128 123.237 57.1157C122.26 56.7483 121.431 56.0629 120.733 55.2386C120.02 54.4232 119.393 53.5138 118.779 52.5909V52.5864Z" fill="#263238"/>
<path d="M107.63 77.0919C107.63 77.0919 102.527 72.4596 100.341 74.4039C98.1546 76.3437 102.863 83.6685 106.044 84.0941C109.225 84.5197 109.677 81.5809 109.677 81.5809L107.63 77.0919Z" fill="#D3766A"/>
<path d="M101.749 76.4691C101.699 76.4736 101.708 76.5452 101.749 76.5497C103.993 76.9171 105.512 78.5747 106.717 80.3801C105.933 79.7574 105.005 79.5289 104.15 80.4921C104.105 80.5414 104.177 80.6131 104.23 80.5907C105.032 80.2188 105.673 80.2278 106.394 80.7699C106.905 81.1551 107.317 81.6972 107.734 82.1855C107.873 82.3468 108.182 82.1721 108.065 81.9795C108.056 81.966 108.047 81.9481 108.038 81.9347C107.492 79.3004 104.62 76.0972 101.744 76.4691H101.749Z" fill="#263238"/>
<path d="M104.583 83.6688C104.794 84.4572 101.855 82.2979 101.644 81.9216C101.438 81.5452 99.588 80.7344 99.0011 80.04C98.4142 79.3456 97.0926 77.231 96.8999 76.6889C96.7118 76.1513 95.3812 74.9955 95.1662 74.0188C94.9512 73.0422 93.3876 64.2524 97.9169 57.1068C102.446 49.9612 107.553 48.4201 107.553 48.4201C107.553 48.4201 111.039 46.9686 115.367 46.31C119.699 45.6515 128.067 54.2755 128.135 54.4905C128.202 54.7056 128.063 55.4448 128.399 56.0048C128.735 56.5603 129.523 57.0396 129.322 57.6848C129.116 58.3344 130.307 59.6246 130.433 60.2428C130.558 60.8611 130.433 61.0537 130.634 61.4524C130.836 61.8467 126.419 51.4576 112.522 50.6108C112.522 50.6108 100.036 66.7164 104.583 83.6688Z" fill="#FFC727"/>
<path d="M130.59 61.3406C130.599 61.3764 130.617 61.4123 130.639 61.4526C130.657 61.4839 130.639 61.4436 130.59 61.3406Z" fill="#FFC727"/>
<path d="M130.59 61.3406C130.599 61.3764 130.617 61.4167 130.639 61.4526C130.657 61.4839 130.639 61.4436 130.59 61.3406Z" fill="#FFC727"/>
<path opacity="0.3" d="M122.544 49.9209C122.687 49.8448 122.84 49.8 122.992 49.7865C123.413 50.118 123.825 50.4496 124.215 50.7766C124.273 51.2246 124.058 51.6816 123.637 51.9145C123.086 52.2192 122.396 52.0176 122.092 51.4665C121.791 50.9155 121.989 50.2256 122.544 49.9209ZM116.25 51.0992C117.016 51.256 117.746 51.4441 118.445 51.6592C118.548 51.368 118.525 51.0364 118.364 50.7452C118.064 50.1942 117.374 49.9926 116.819 50.2972C116.505 50.472 116.303 50.7721 116.245 51.0992H116.25ZM125.004 54.943C125.626 55.4044 126.186 55.8748 126.697 56.3452C127.158 56.0137 127.306 55.3865 127.029 54.8758C126.724 54.3248 126.034 54.1232 125.483 54.4233C125.263 54.5443 125.102 54.728 125.004 54.943ZM99.938 54.3068C100.274 54.7324 100.883 54.8668 101.376 54.5936C101.927 54.2934 102.129 53.6035 101.824 53.0524C101.725 52.8777 101.591 52.7344 101.43 52.6358C100.941 53.1376 100.435 53.6886 99.9335 54.3068H99.938ZM102.259 63.6297C102.559 64.1808 103.253 64.3824 103.804 64.0822C104.355 63.782 104.557 63.0876 104.257 62.5366C103.957 61.9856 103.262 61.784 102.711 62.0841C102.16 62.3843 101.958 63.0787 102.259 63.6297ZM112.657 47.5286C112.957 48.0796 113.651 48.2812 114.202 47.9811C114.753 47.6809 114.95 46.9865 114.65 46.4355V46.4265C113.907 46.5564 113.194 46.7088 112.527 46.8656C112.504 47.0896 112.545 47.318 112.661 47.5241L112.657 47.5286ZM107.218 51.3904C107.518 51.9414 108.213 52.143 108.764 51.8428C109.315 51.5427 109.516 50.8483 109.216 50.2972C108.916 49.7462 108.221 49.5446 107.67 49.8448C107.119 50.1449 106.918 50.8393 107.218 51.3904ZM105.251 57.4518C105.551 58.0028 106.246 58.2044 106.797 57.9043C107.348 57.6041 107.549 56.9097 107.249 56.3587C106.949 55.8076 106.255 55.606 105.704 55.9062C105.153 56.2064 104.951 56.9008 105.251 57.4518ZM97.2186 60.5564C97.5188 61.1075 98.2132 61.3091 98.7642 61.0089C99.3152 60.7087 99.5168 60.0144 99.2167 59.4633C98.9165 58.9123 98.2221 58.7107 97.6711 59.0108C97.12 59.311 96.9184 60.0054 97.2186 60.5564ZM99.0375 69.0147C99.3376 69.5657 100.032 69.7673 100.583 69.4672C101.134 69.167 101.336 68.4726 101.036 67.9216C100.735 67.3705 100.041 67.1689 99.49 67.4691C98.9389 67.7692 98.7373 68.4636 99.0375 69.0147ZM102.733 81.3167C103.011 81.8275 103.625 82.0336 104.154 81.823C104.006 81.0928 103.885 80.3625 103.8 79.6323C103.594 79.6188 103.379 79.6592 103.181 79.7667C102.63 80.0668 102.429 80.7568 102.733 81.3123V81.3167ZM103.383 71.8057C103.482 71.9849 103.621 72.1283 103.791 72.2268C103.867 71.5324 103.965 70.8425 104.082 70.1616C103.997 70.184 103.916 70.2153 103.836 70.2601C103.285 70.5603 103.083 71.2502 103.388 71.8012L103.383 71.8057ZM94.7949 67.2988C95.0861 67.3974 95.4132 67.375 95.6999 67.2182C96.2509 66.918 96.4525 66.2281 96.1479 65.6771C95.9194 65.2649 95.4714 65.0454 95.0324 65.0902C94.9204 65.8518 94.8397 66.5955 94.7949 67.2988ZM99.0599 75.7123C99.36 76.2633 100.054 76.4649 100.605 76.1647C101.157 75.8646 101.358 75.1702 101.058 74.6192C100.758 74.0681 100.063 73.8665 99.5124 74.1667C98.9613 74.4668 98.7597 75.1612 99.0599 75.7123ZM97.4381 77.7104C97.7248 78.1897 98.0788 78.7497 98.3968 79.2201C98.5044 78.9289 98.4864 78.5884 98.3252 78.2972C98.137 77.9568 97.801 77.7462 97.4381 77.7148V77.7104ZM95.0861 73.5932C95.2832 73.6022 95.4848 73.5574 95.673 73.4544C96.224 73.1542 96.4256 72.4643 96.121 71.9088C95.8612 71.4339 95.3146 71.2188 94.8173 71.3622C94.8935 72.3523 95.0055 73.1228 95.0906 73.5932H95.0861Z" fill="white"/>
<path opacity="0.1" d="M101.649 81.9214C101.348 81.1733 101.219 80.3714 101.075 79.5784C100.932 78.7854 100.811 77.988 100.699 77.1906C100.479 75.5957 100.269 73.9918 100.13 72.388C100.094 71.9893 100.054 71.5861 100.045 71.1918C100.049 70.811 100.143 70.4213 100.237 70.036C100.435 69.261 100.69 68.4949 100.927 67.7243C101.174 66.9582 101.434 66.1922 101.702 65.4306L102.5 63.1458C101.859 64.6286 101.263 66.1294 100.721 67.6526C100.448 68.4142 100.197 69.1848 99.9865 69.9688C99.8835 70.363 99.7849 70.7618 99.7715 71.1918C99.7715 71.6085 99.8118 72.0072 99.8432 72.4104C100.004 74.0232 100.215 75.6226 100.479 77.2174C100.618 78.0149 100.757 78.8078 100.932 79.6008C101.021 79.995 101.115 80.3893 101.223 80.779C101.331 81.1688 101.451 81.5586 101.64 81.917L101.649 81.9214Z" fill="#050400"/>
<path opacity="0.1" d="M98.7762 65.5425C98.3058 66.3847 97.9295 67.2762 97.589 68.1767C97.2485 69.0817 96.9663 70.009 96.7647 70.9543C96.572 71.9041 96.4152 72.8628 96.4242 73.8394C96.4287 74.8071 96.5496 75.7882 96.9036 76.6887C96.8588 76.4513 96.8095 76.2183 96.7557 75.9854C96.7244 75.8689 96.7154 75.7524 96.7064 75.6314L96.6751 75.273C96.6661 75.1566 96.6482 75.0356 96.6392 74.9191V74.5607C96.6392 74.3233 96.6168 74.0858 96.6482 73.8484L96.6975 73.1361L96.7916 72.4282C96.8184 72.1908 96.8632 71.9578 96.908 71.7249C96.9528 71.4919 96.9887 71.2545 97.0469 71.0215C97.2396 70.0852 97.5128 69.1668 97.7996 68.2529C97.9429 67.7959 98.0997 67.3434 98.27 66.8954C98.4268 66.443 98.606 65.995 98.7852 65.547L98.7762 65.5425Z" fill="#050400"/>
<path opacity="0.1" d="M128.151 55.5432C127.573 54.8264 126.852 54.244 126.157 53.6526C125.454 53.0657 124.728 52.5057 123.998 51.9547C123.254 51.4171 122.533 50.8616 121.726 50.3957C120.916 49.9477 120.046 49.6161 119.15 49.428C119.58 49.5803 120.006 49.7461 120.418 49.9432C120.83 50.1313 121.234 50.3419 121.614 50.5838C121.995 50.8257 122.358 51.099 122.725 51.3678L123.828 52.1832L126.023 53.8229C126.39 54.0961 126.748 54.3739 127.107 54.6561C127.47 54.9339 127.824 55.2206 128.151 55.5432Z" fill="#050400"/>
<path opacity="0.1" d="M129.338 58.1056C128.962 57.5591 128.523 57.0663 128.075 56.5779C127.627 56.0896 127.157 55.6282 126.659 55.1891C126.408 54.9741 126.149 54.7591 125.871 54.5754C125.593 54.4007 125.315 54.217 125.033 54.0467L124.186 53.5315C123.9 53.3703 123.617 53.1955 123.326 53.0432C123.582 53.2538 123.85 53.4464 124.11 53.648L124.908 54.2259C125.172 54.4231 125.445 54.6023 125.714 54.7904C125.978 54.9741 126.225 55.1847 126.471 55.3997C126.964 55.8253 127.439 56.2778 127.918 56.7258C128.156 56.9498 128.393 57.1783 128.63 57.4067C128.872 57.6307 129.101 57.8637 129.334 58.1011L129.338 58.1056Z" fill="#050400"/>
<path opacity="0.1" d="M98.8795 55.6913C101.276 56.1438 106.755 57.1115 107.88 56.771C108.144 56.6904 108.52 56.5201 108.977 56.2916C110.863 52.7524 112.521 50.6155 112.521 50.6155C114.259 50.723 115.854 50.9784 117.306 51.3457C118.506 50.1944 119.716 48.4651 120.151 47.8244C118.412 46.7851 116.701 46.1086 115.366 46.3102C111.034 46.9688 107.553 48.4203 107.553 48.4203C107.553 48.4203 103.14 49.7508 98.875 55.6913H98.8795Z" fill="#050400"/>
<path d="M111.221 48.3797C111.221 48.3797 114.393 41.7583 120.629 40.3784C120.629 40.3784 121.041 46.6594 119.043 48.9576C118.048 50.1 113.152 51.0498 112.484 50.2927C111.817 49.5311 111.221 48.3842 111.221 48.3842V48.3797Z" fill="#FFC727"/>
<path opacity="0.3" d="M117.21 41.7671C117.336 42.2554 117.121 42.7885 116.655 43.0439C116.278 43.25 115.835 43.2186 115.499 43.0036C116.023 42.56 116.592 42.1434 117.215 41.7716L117.21 41.7671ZM119.276 46.4128C119.441 46.713 119.724 46.9101 120.037 46.9773C120.248 46.274 120.396 45.5034 120.485 44.7508C120.234 44.7015 119.965 44.7373 119.728 44.8717C119.177 45.1719 118.98 45.8663 119.28 46.4173L119.276 46.4128ZM112.659 47.5284C112.959 48.0794 113.653 48.281 114.204 47.9808C114.755 47.6807 114.957 46.9863 114.657 46.4352C114.357 45.8842 113.662 45.6826 113.111 45.9828C112.56 46.2829 112.358 46.9773 112.659 47.5284Z" fill="white"/>
<path opacity="0.1" d="M111.221 48.3843C111.221 48.3843 111.822 49.5267 112.48 50.2838C112.503 50.3151 112.538 50.3465 112.588 50.3689C112.624 50.4003 112.673 50.4227 112.74 50.4451C112.78 50.4495 112.816 50.4719 112.87 50.4809C113.457 50.6422 114.519 50.5615 115.616 50.3331C115.392 49.5087 115.038 48.447 114.648 47.6899C114.312 47.0403 113.439 46.534 112.583 46.1711C111.665 47.43 111.217 48.3843 111.217 48.3843H111.221Z" fill="#050400"/>
<path d="M109.775 49.4009C109.775 49.4009 100.846 48.9753 96.8184 51.3273C96.8184 51.3273 99.6049 55.6639 104.125 56.3315C106.15 56.6316 111.54 52.4383 111.119 51.4393C110.697 50.4403 109.775 49.4054 109.775 49.4054V49.4009Z" fill="#FFC727"/>
<path opacity="0.3" d="M100.287 52.5996C100.838 52.2994 101.528 52.501 101.832 53.0521C102.133 53.6031 101.931 54.293 101.38 54.5977C100.829 54.8978 100.139 54.6962 99.8344 54.1452C99.5342 53.5941 99.7358 52.9042 100.287 52.5996ZM107.226 51.39C107.527 51.941 108.221 52.1426 108.772 51.8425C109.323 51.5423 109.525 50.8479 109.224 50.2969C108.924 49.7458 108.23 49.5442 107.679 49.8444C107.128 50.1445 106.926 50.8389 107.226 51.39ZM105.439 56.1164C105.703 56.0268 105.976 55.9058 106.263 55.7714C106.075 55.7714 105.887 55.8117 105.712 55.9103C105.609 55.9685 105.515 56.0357 105.439 56.1164Z" fill="white"/>
<path opacity="0.1" d="M107.745 49.3697C107.669 50.203 107.705 51.3812 108.211 52.2593C108.489 52.7521 108.977 53.1956 109.519 53.5809C110.572 52.6804 111.276 51.8247 111.119 51.4305C110.702 50.4404 109.775 49.3966 109.775 49.3966C109.775 49.3966 108.977 49.3562 107.75 49.3697H107.745Z" fill="#050400"/>
<path d="M109.062 51.4887C109.944 52.8282 111.75 53.1956 113.085 52.3085C114.424 51.426 114.792 49.6205 113.905 48.2855C113.022 46.946 111.217 46.5786 109.882 47.4657C108.542 48.3482 108.175 50.1537 109.062 51.4887Z" fill="#FFC727"/>
<path d="M78.3447 154.273C81.5837 148.418 83.8954 135.251 77.0231 109.63C76.0733 106.086 50.0624 111.072 50.8823 114.907C51.9171 119.741 56.9751 138.279 57.5127 139.588C62.0778 150.626 76.145 158.242 78.3402 154.269L78.3447 154.273Z" fill="#D3766A"/>
<path d="M80.5256 149.439C81.2334 147.544 81.6725 145.555 81.9682 143.552C82.107 142.549 82.2235 141.541 82.2862 140.533C82.3579 139.507 82.331 138.49 82.2773 137.478C82.1742 135.453 81.9547 133.446 81.6501 131.452C81.3454 129.458 80.9512 127.469 80.3867 125.534C80.7003 127.523 80.9198 129.521 81.117 131.519C81.3096 133.517 81.4709 135.515 81.5605 137.513C81.5963 138.513 81.6277 139.507 81.5739 140.493C81.5157 141.492 81.4485 142.486 81.3499 143.481C81.1573 145.47 80.9154 147.459 80.5256 149.439Z" fill="#263238"/>
<path d="M64.2679 120.584C61.2753 120.508 45.1741 119.276 41.4109 118.151C34.9687 116.225 29.4225 113.501 30.4484 110.656C31.3892 108.04 38.5527 110.481 38.5527 110.481C38.5527 110.481 28.625 104.639 29.8346 100.715C30.7351 97.7939 35.1569 100.482 35.1569 100.482C35.1569 100.482 30.5559 96.6963 32.5002 94.3398C34.113 92.3866 43.5882 98.3718 43.5882 98.3718C43.5882 98.3718 34.6909 91.6339 38.1764 89.1386C40.4657 87.4989 44.6724 92.7046 49.9633 94.1965C50.4292 94.3264 55.0033 95.2627 59.5415 96.1766C64.2634 97.1309 77.1972 110.284 77.1972 110.284L64.2634 120.584H64.2679Z" fill="#D3766A"/>
<path d="M43.7278 98.3361C46.8593 100.092 49.1934 100.675 51.29 101.235C51.3528 101.253 51.3348 101.427 51.2632 101.418C47.5313 100.984 46.4561 100.603 43.6024 98.4929C43.4456 98.3764 43.5755 98.251 43.7278 98.3361Z" fill="#263238"/>
<path d="M35.372 100.455C40.6897 104.187 43.7003 105.222 50.0036 106.557C50.0932 106.575 50.0708 106.727 49.9768 106.718C43.6824 105.925 40.0491 105.181 35.2241 100.755C35.0046 100.554 35.1256 100.285 35.372 100.459V100.455Z" fill="#263238"/>
<path d="M38.6734 110.374C42.2037 111.4 43.2206 111.543 47.0286 112.287C47.1272 112.305 47.1317 112.52 47.0286 112.515C43.1848 112.331 41.787 112.197 38.6241 110.562C38.3822 110.436 38.4181 110.302 38.6734 110.378V110.374Z" fill="#263238"/>
<path d="M77.2009 110.284C77.2009 110.284 74.2575 97.9596 68.774 93.5961C66.0233 91.4098 53.0851 85.1737 51.5484 87.7721C49.5638 91.1276 55.9881 96.2348 59.4601 98.3269C59.4601 98.3269 54.8636 106.082 58.6806 110.746C62.4975 115.409 77.2009 110.284 77.2009 110.284Z" fill="#D3766A"/>
<path d="M51.3068 88.8694C51.7055 93.233 56.4408 95.6835 59.6575 97.9683C59.9039 98.143 59.8501 98.3984 59.6799 98.5597C57.9685 101.938 56.5394 107.202 58.4344 110.723C58.4882 110.826 58.3493 110.92 58.2821 110.821C55.7375 107.323 56.7186 102.036 58.8287 98.4566C55.4911 96.1674 50.8498 93.5018 51.2664 88.8739C51.2664 88.847 51.3068 88.8426 51.3068 88.8739V88.8694Z" fill="#263238"/>
<path d="M146.144 154.184C142.905 148.328 140.593 135.162 147.465 109.54C148.415 105.997 174.426 110.983 173.606 114.818C172.571 119.652 167.513 138.19 166.976 139.498C162.411 150.537 148.344 158.153 146.148 154.179L146.144 154.184Z" fill="#D3766A"/>
<path d="M143.966 149.35C143.258 147.455 142.819 145.466 142.524 143.463C142.385 142.46 142.268 141.452 142.206 140.444C142.134 139.418 142.161 138.401 142.215 137.388C142.318 135.363 142.537 133.356 142.842 131.363C143.146 129.369 143.541 127.38 144.105 125.445C143.792 127.434 143.572 129.432 143.375 131.43C143.182 133.428 143.021 135.426 142.931 137.424C142.896 138.423 142.864 139.418 142.918 140.403C142.976 141.402 143.043 142.397 143.142 143.391C143.335 145.381 143.576 147.37 143.966 149.35Z" fill="#263238"/>
<path d="M160.218 120.494C163.211 120.418 179.312 119.186 183.075 118.062C189.518 116.135 195.064 113.411 194.038 110.567C193.097 107.95 185.934 110.392 185.934 110.392C185.934 110.392 195.861 104.55 194.652 100.626C193.751 97.7046 189.329 100.393 189.329 100.393C189.329 100.393 193.93 96.607 191.986 94.2505C190.373 92.2972 180.898 98.2825 180.898 98.2825C180.898 98.2825 189.795 91.5446 186.31 89.0492C184.021 87.4095 179.814 92.6153 174.523 94.1071C174.057 94.237 169.483 95.1734 164.945 96.0873C160.223 97.0415 147.289 110.195 147.289 110.195L160.223 120.494H160.218Z" fill="#D3766A"/>
<path d="M180.759 98.2467C177.627 100.003 175.293 100.585 173.197 101.145C173.134 101.163 173.152 101.338 173.223 101.329C176.955 100.894 178.03 100.514 180.884 98.4035C181.041 98.2871 180.911 98.1616 180.759 98.2467Z" fill="#263238"/>
<path d="M189.114 100.361C183.796 104.093 180.786 105.128 174.482 106.463C174.393 106.481 174.415 106.633 174.509 106.624C180.804 105.831 184.437 105.088 189.262 100.661C189.481 100.46 189.361 100.191 189.114 100.366V100.361Z" fill="#263238"/>
<path d="M185.812 110.284C182.281 111.31 181.264 111.454 177.456 112.197C177.358 112.215 177.353 112.43 177.456 112.426C181.3 112.242 182.698 112.108 185.861 110.472C186.103 110.347 186.067 110.213 185.812 110.289V110.284Z" fill="#263238"/>
<path d="M147.285 110.195C147.285 110.195 150.229 97.8702 155.712 93.5067C158.463 91.3205 171.401 85.0843 172.938 87.6827C174.922 91.0382 168.498 96.1454 165.026 98.2376C165.026 98.2376 169.622 105.992 165.805 110.656C161.989 115.32 147.285 110.195 147.285 110.195Z" fill="#D3766A"/>
<path d="M173.184 88.7801C172.786 93.1436 168.05 95.5942 164.834 97.879C164.587 98.0537 164.641 98.3091 164.811 98.4703C166.523 101.848 167.952 107.112 166.057 110.634C166.003 110.737 166.142 110.831 166.209 110.732C168.754 107.233 167.773 101.947 165.662 98.3673C169 96.078 173.641 93.4124 173.225 88.7846C173.225 88.7577 173.184 88.7532 173.184 88.7846V88.7801Z" fill="#263238"/>
<path d="M24.3867 207.007C80.8347 206.734 144.16 206.73 200.608 207.007C144.16 207.285 80.8347 207.281 24.3867 207.007Z" fill="#263238"/>
<path d="M141.512 43.7697L140.786 48.0302C140.473 49.867 138.865 51.0094 137.028 50.6958C135.325 50.4046 134.053 48.7739 134.362 46.9371L135.522 40.123C135.531 40.0558 135.599 40.0692 135.612 40.002C135.576 39.9513 135.561 39.9035 135.567 39.8587C135.858 38.1563 137.624 36.9064 139.326 37.1931C143.452 37.8964 147.354 35.1905 148.049 31.1272C148.752 26.9966 145.956 23.22 141.83 22.5166C139.142 22.0596 136.539 23.099 134.927 25.0478C133.739 26.4635 131.688 26.6516 130.267 25.4689C128.914 24.2951 128.717 22.306 129.9 20.8859C132.951 17.2257 137.879 15.2321 142.923 16.0923C150.526 17.387 155.7 24.6088 154.406 32.2113C153.299 38.6984 147.851 43.3665 141.512 43.7697ZM139.066 58.1191L138.865 59.2974C138.551 61.1342 136.943 62.2721 135.106 61.963C133.403 61.6718 132.127 60.0411 132.44 58.2043L132.642 57.026C132.942 55.2564 134.698 54.0737 136.401 54.3604C138.237 54.674 139.366 56.3495 139.066 58.1191Z" fill="#455A64"/>
</svg>
