<svg width="261" height="260" viewBox="0 0 261 260" fill="none" xmlns="http://www.w3.org/2000/svg">
<path d="M51.7261 190.84C48.7413 190.892 41.2169 191.022 38.3309 191.053H33.8069H33.5729V190.84L33.5469 185.021V184.761H33.8069L42.7665 184.798C44.9973 184.798 49.4953 184.865 51.7261 184.896H51.8561V185.021L51.7261 190.84ZM51.7261 190.84L51.6013 185.021L51.7261 185.146C49.4901 185.177 45.0025 185.224 42.7665 185.245L33.8069 185.281L34.0669 185.021V190.84L33.8277 190.601L38.2685 190.627C41.1077 190.658 48.8089 190.788 51.7469 190.84H51.7261Z" fill="#EBEBEB"/>
<path d="M41.7313 198.198C38.7465 198.25 31.2169 198.38 28.3309 198.412H23.8121H23.5781V198.172V192.354V192.094H23.8381L32.7977 192.13C35.0285 192.13 39.5265 192.198 41.7573 192.229H41.8873V192.4L41.7625 198.219L41.7313 198.198ZM41.7313 198.198L41.6065 192.4L41.7313 192.525C39.4953 192.556 35.0077 192.603 32.7717 192.624L23.8121 192.66L24.0721 192.4V198.219L23.8381 197.98L28.2789 198.006C31.1181 198.037 38.8193 198.167 41.7573 198.219L41.7313 198.198Z" fill="#EBEBEB"/>
<path d="M221.948 100.677H204.029V106.496H221.948V100.677Z" fill="#EBEBEB"/>
<path d="M211.949 113.833C208.964 113.885 201.44 114.015 198.554 114.046L194.03 114.072H193.796V113.833L193.77 108.014V107.754H194.03L202.989 107.791C205.22 107.791 209.718 107.858 211.949 107.89H212.079V108.014L211.954 113.833H211.949ZM211.949 113.833L211.824 108.014L211.949 108.139C209.713 108.17 205.225 108.217 202.989 108.238L194.03 108.274L194.29 108.014V113.833L194.05 113.599H198.491C201.33 113.63 209.032 113.76 211.97 113.812L211.949 113.833Z" fill="#EBEBEB"/>
<path d="M41.7313 34.1902C38.7465 34.2422 31.2169 34.3723 28.3309 34.4035H23.8121H23.5781V34.1642V28.3454V28.0854H23.8381L32.7977 28.1219C35.0285 28.1219 39.5265 28.1895 41.7573 28.2207H41.8873V28.3454L41.7625 34.1642L41.7313 34.1902ZM41.7313 34.1902L41.6065 28.3715L41.7313 28.4962C39.4953 28.5274 35.0077 28.5743 32.7717 28.5951L23.8121 28.6315L24.0721 28.3715V34.1902L23.8381 33.9563H28.2789C31.1181 33.9875 38.8193 34.1174 41.7573 34.1694L41.7313 34.1902Z" fill="#EBEBEB"/>
<path d="M139.46 55.1203C136.475 55.1723 128.945 55.3023 126.059 55.3335H121.541H121.307V55.1203V49.3015V49.0415H121.567L130.526 49.0779C132.757 49.0779 137.255 49.1455 139.486 49.1767H139.616V49.3015L139.46 55.1203ZM139.46 55.1203L139.34 49.2807L139.465 49.4055C137.229 49.4367 132.741 49.4835 130.505 49.5043L121.546 49.5407L121.806 49.2807L121.775 55.1203L121.541 54.8811H125.981C128.821 54.9123 136.522 55.0423 139.46 55.0943V55.1203Z" fill="#EBEBEB"/>
<path d="M129.461 62.4368C126.476 62.4888 118.947 62.6188 116.061 62.65H111.542H111.303V62.4108V56.592V56.332H111.563L120.522 56.3684C122.753 56.3684 127.251 56.436 129.482 56.4672H129.607V56.592L129.461 62.4368ZM129.461 62.4368L129.336 56.618L129.461 56.7428C127.225 56.774 122.732 56.8208 120.502 56.8416L111.542 56.878L111.802 56.618L111.781 62.4368L111.547 62.1976H115.983C118.827 62.2288 126.528 62.3588 129.466 62.4108L129.461 62.4368Z" fill="#EBEBEB"/>
<path d="M149.454 56.6179H131.535V62.4367H149.454V56.6179Z" fill="#EBEBEB"/>
<path d="M237.189 141.815H219.27V147.633H237.189V141.815Z" fill="#EBEBEB"/>
<path d="M237.189 28.3713H219.27V34.1901H237.189V28.3713Z" fill="#EBEBEB"/>
<path d="M214.617 139.184H153.771V246.777H214.617V139.184Z" fill="#EBEBEB"/>
<path d="M235.228 139.184H214.615V246.777H235.228V139.184Z" fill="#DBDBDB"/>
<path d="M208.115 166.624H160.275V145.642H208.115V166.624ZM160.53 166.364H207.85V145.902H160.53V166.364Z" fill="#C7C7C7"/>
<path d="M191.58 149.615H176.807V154.149H191.58V149.615Z" fill="white"/>
<path d="M208.115 197.22H160.275V170.394H208.115V197.22ZM160.53 196.96H207.85V170.654H160.53V196.96Z" fill="#C7C7C7"/>
<path d="M191.58 174.367H176.807V178.901H191.58V174.367Z" fill="white"/>
<path d="M208.115 227.823H160.275V200.991H208.115V227.823ZM160.53 227.563H207.85V201.24H160.53V227.563Z" fill="#C7C7C7"/>
<path d="M191.58 204.963H176.807V209.498H191.58V204.963Z" fill="white"/>
<path d="M224.398 250.869H231.371V246.777H224.398V250.869Z" fill="#DBDBDB"/>
<path d="M224.397 246.777H218.484V250.869H224.397V246.777Z" fill="#EBEBEB"/>
<path d="M202.572 250.869H209.545V246.777H202.572V250.869Z" fill="#DBDBDB"/>
<path d="M202.573 246.777H196.66V250.869H202.573V246.777Z" fill="#EBEBEB"/>
<path d="M164.753 250.869H171.727V246.777H164.753V250.869Z" fill="#DBDBDB"/>
<path d="M164.752 246.776H158.84V250.869H164.752V246.776Z" fill="#EBEBEB"/>
<path d="M216.004 62.754C226.621 62.754 235.228 54.1469 235.228 43.5296C235.228 32.9122 226.621 24.3052 216.004 24.3052C205.386 24.3052 196.779 32.9122 196.779 43.5296C196.779 54.1469 205.386 62.754 216.004 62.754Z" fill="#EBEBEB"/>
<path d="M235.139 45.808C236.16 35.7276 228.815 26.7285 218.735 25.7081C208.654 24.6878 199.655 32.0324 198.635 42.1129C197.614 52.1934 204.959 61.1924 215.039 62.2128C225.12 63.2332 234.119 55.8885 235.139 45.808Z" fill="#DBDBDB"/>
<path d="M234.011 45.4021C234.808 35.9441 227.788 27.6303 218.33 26.8328C208.872 26.0352 200.558 33.0559 199.76 42.5139C198.963 51.9719 205.984 60.2857 215.442 61.0832C224.9 61.8808 233.213 54.8601 234.011 45.4021Z" fill="white"/>
<path opacity="0.5" d="M233.678 40.3107C225.852 45.0531 212.993 52.8323 205.801 57.0963C203.775 55.3791 202.173 53.2168 201.121 50.7783L224.901 28.7407C227.119 29.9128 229.054 31.5557 230.57 33.5543C232.086 35.5529 233.147 37.8589 233.678 40.3107Z" fill="#EBEBEB"/>
<path opacity="0.5" d="M234.059 44.5591C234.002 46.4702 233.624 48.3582 232.941 50.1439L211.507 60.2787C210.573 59.9699 209.668 59.5801 208.803 59.1139C215.261 55.3751 227.086 48.5683 234.059 44.5591Z" fill="#EBEBEB"/>
<path d="M217.05 28.0176H216.717V30.6228H217.05V28.0176Z" fill="#C7C7C7"/>
<path d="M209.056 30.0621L208.768 30.2285L210.07 32.4847L210.358 32.3183L209.056 30.0621Z" fill="#C7C7C7"/>
<path d="M203.295 35.0244L203.129 35.314L205.395 36.6166L205.562 36.327L203.295 35.0244Z" fill="#C7C7C7"/>
<path d="M203.551 43.7896H200.945V44.1224H203.551V43.7896Z" fill="#C7C7C7"/>
<path d="M206.073 50.6935L203.807 51.9961L203.973 52.2856L206.24 50.983L206.073 50.6935Z" fill="#C7C7C7"/>
<path d="M210.083 55.4316L208.781 57.6885L209.07 57.8547L210.371 55.5979L210.083 55.4316Z" fill="#C7C7C7"/>
<path d="M217.05 57.2886H216.717V59.8938H217.05V57.2886Z" fill="#C7C7C7"/>
<path d="M223.691 55.422L223.402 55.5884L224.705 57.8445L224.993 57.6781L223.691 55.422Z" fill="#C7C7C7"/>
<path d="M228.705 49.5596L228.539 49.8491L230.806 51.1517L230.972 50.8622L228.705 49.5596Z" fill="#C7C7C7"/>
<path d="M232.82 43.7896H230.215V44.1224H232.82V43.7896Z" fill="#C7C7C7"/>
<path d="M230.606 35.8507L228.35 37.1533L228.516 37.4415L230.772 36.1389L230.606 35.8507Z" fill="#C7C7C7"/>
<path d="M224.716 30.0754L223.414 32.332L223.702 32.4983L225.004 30.2417L224.716 30.0754Z" fill="#C7C7C7"/>
<path d="M217.132 29.1983L217.699 45.1155L216.066 45.0947L216.69 29.1931L217.132 29.1983Z" fill="#C7C7C7"/>
<path d="M227.049 38.4076L216.337 45.2404L215.562 43.8104L226.836 38.0176L227.049 38.4076Z" fill="#A6A6A6"/>
<path d="M217.439 43.9558C217.439 44.0659 217.406 44.1734 217.345 44.2649C217.284 44.3564 217.197 44.4278 217.096 44.4699C216.994 44.512 216.882 44.523 216.774 44.5015C216.666 44.4801 216.567 44.4271 216.489 44.3492C216.411 44.2714 216.358 44.1723 216.337 44.0644C216.315 43.9564 216.326 43.8446 216.369 43.7429C216.411 43.6412 216.482 43.5543 216.573 43.4932C216.665 43.432 216.773 43.3994 216.883 43.3994C217.03 43.3994 217.172 43.458 217.276 43.5624C217.38 43.6667 217.439 43.8082 217.439 43.9558Z" fill="#C7C7C7"/>
<path d="M99.9246 61.7761H69.9258V102.648H99.9246V61.7761Z" fill="white"/>
<path d="M94.7667 64.3452H86.9355V97.8488H94.7667V64.3452Z" fill="#C7C7C7"/>
<path d="M101.484 104.208V60.2163H68.3652V104.208H101.484ZM69.9252 61.7763H99.924V102.648H69.9252V61.7763Z" fill="#EBEBEB"/>
<path d="M90.9183 70.7827H78.9375V93.6367H90.9183V70.7827Z" fill="#EBEBEB"/>
<path d="M67.0821 104.213H68.3613V60.2162H67.0821V104.213Z" fill="#DBDBDB"/>
<path d="M58.6101 27.0244H28.6113V67.8964H58.6101V27.0244Z" fill="white"/>
<path d="M55.2822 53.9658H38.8242V63.8094H55.2822V53.9658Z" fill="#EBEBEB"/>
<path d="M60.1696 69.4564V25.48H27.0508V69.472L60.1696 69.4564ZM28.6108 27.04H58.6096V67.912H28.6108V27.04Z" fill="#EBEBEB"/>
<path d="M49.5986 36.0361H37.623V58.8901H49.5986V36.0361Z" fill="#C7C7C7"/>
<path d="M25.7716 69.4619H27.0508L27.0508 25.4647H25.7716L25.7716 69.4619Z" fill="#DBDBDB"/>
<path d="M25.7715 250.869C92.8515 250.552 168.132 250.546 235.227 250.869C168.147 251.191 92.8671 251.186 25.7715 250.869Z" fill="#263238"/>
<path d="M64.9063 171.366C64.7383 168.447 64.3261 165.548 63.6739 162.698C63.0655 160.134 62.1971 157.498 60.5799 155.386C59.1031 153.452 56.9763 151.908 54.5115 151.606C52.1351 151.32 49.8991 152.36 48.1207 153.873C45.9159 155.724 44.2311 158.184 42.6451 160.566C40.918 163.232 39.3467 165.996 37.9391 168.844C37.8923 168.938 38.0327 169.016 38.0795 168.922C39.304 166.504 40.7194 164.188 42.3123 161.996C43.7564 159.889 45.3852 157.916 47.1795 156.099C48.8123 154.508 50.8871 153.015 53.2531 152.942C55.6191 152.87 57.7719 154.185 59.1915 156C60.7515 158.028 61.5783 160.56 62.1815 163.025C62.8064 165.739 63.215 168.499 63.4035 171.278C63.8663 176.998 63.9911 182.718 64.1211 188.438C64.1939 191.675 64.2424 194.915 64.2667 198.156C64.2667 199.8 64.2806 201.441 64.3083 203.081C64.2447 204.668 64.3091 206.257 64.5007 207.834C64.5527 208.151 65.0727 208.12 65.1299 207.834C65.3207 206.341 65.392 204.835 65.3431 203.33C65.3431 201.77 65.3847 200.21 65.4003 198.65C65.428 195.631 65.4402 192.606 65.4367 189.576C65.3951 183.518 65.3223 177.424 64.9063 171.366Z" fill="#263238"/>
<path d="M46.2595 156.379C45.7395 156.582 46.4467 150.498 44.0495 149.723C40.6591 148.621 32.8903 150.607 28.5847 156.379C27.7437 157.555 27.1089 158.865 26.7075 160.253C28.8447 159.213 35.9167 155.948 37.6899 156.951C39.3019 157.867 29.1723 161.044 26.0523 163.087C25.9145 163.933 25.8208 164.785 25.7715 165.641C27.5967 164.382 32.5679 161.127 34.7883 161.127C37.2531 161.127 29.0683 165.459 25.7559 168.563C25.8869 171.572 26.5397 174.535 27.6851 177.32C28.5327 175.718 30.3995 172.593 32.8123 170.908C36.1559 168.568 37.6223 172.328 33.4051 175.302C31.1587 176.862 29.5415 178.199 28.5171 179.083C29.4644 180.909 30.7326 182.551 32.2611 183.929C33.758 182.246 35.6455 180.957 37.7575 180.175C38.5739 179.889 39.9103 179.519 41.5171 178.979C41.7979 177.939 42.5883 174.772 42.6559 172.739C42.7495 170.263 45.6823 171.636 44.4915 176.03C44.2679 176.857 44.0599 177.538 43.8675 178.11C45.1303 177.674 46.3352 177.086 47.4555 176.358C47.6115 174.917 47.3723 171.605 46.7847 168.48C46.0515 164.585 49.0155 164.32 49.6603 169.213C49.9567 171.475 49.5251 173.825 49.3847 175.349C52.7387 173.394 55.5155 169.426 55.5155 169.426C55.2084 167.234 54.4161 165.138 53.1963 163.29C51.5427 160.799 53.3315 159.822 54.9799 162.068C55.9003 163.321 56.4463 165.427 56.7479 167.039C60.2995 155.241 55.9107 152.5 46.2595 156.379ZM30.2019 169.322C29.2867 167.996 32.4483 165.568 33.1295 166.395C34.0135 167.44 31.1171 170.653 30.2019 169.322ZM51.3347 163.878C50.0503 164.809 48.8231 161.73 49.6551 161.205C50.4871 160.68 52.4267 163.082 51.3347 163.878Z" fill="#FFC300"/>
<path d="M48.3911 162.146C47.9595 161.288 47.5019 160.43 47.0079 159.604C46.5493 158.787 46.0166 158.014 45.4167 157.295C45.5519 157.128 45.6871 156.957 45.8275 156.775C45.8847 156.707 45.7859 156.608 45.7287 156.676L45.2555 157.238C45.2393 157.245 45.2249 157.256 45.2132 157.269C45.2016 157.283 45.1929 157.299 45.1879 157.316C44.5899 158.028 44.0335 158.766 43.4979 159.515C42.5503 159.731 41.6162 160.002 40.7003 160.326C39.7539 160.644 38.8179 160.971 37.8975 161.366C37.8039 161.408 37.8507 161.569 37.9443 161.522C38.8543 161.122 39.7799 160.732 40.7211 160.415C41.6623 160.098 42.5203 159.895 43.4251 159.624C43.1287 160.04 42.8427 160.456 42.5671 160.883C40.8655 161.421 39.21 162.096 37.6167 162.9C35.9475 163.696 34.3355 164.616 32.7339 165.547C32.6455 165.599 32.7339 165.74 32.8223 165.682C34.3974 164.763 36.0184 163.925 37.6791 163.171C39.2391 162.443 40.8303 161.85 42.3903 161.158C38.4591 167.305 36.0983 174.387 32.9419 180.96C32.9003 181.054 33.0459 181.132 33.0875 181.038C34.0495 178.734 35.1675 176.493 36.2075 174.231C37.1487 172.203 38.0691 170.16 39.0103 168.126C39.2859 167.534 39.5719 166.941 39.8579 166.348C39.6863 169.624 39.7591 172.962 39.2183 176.202C39.2151 176.214 39.2148 176.227 39.2174 176.24C39.22 176.252 39.2254 176.264 39.2332 176.274C39.2409 176.284 39.2509 176.292 39.2623 176.297C39.2737 176.303 39.2862 176.306 39.2989 176.306C39.3116 176.306 39.3241 176.303 39.3355 176.297C39.3469 176.292 39.3568 176.284 39.3646 176.274C39.3724 176.264 39.3778 176.252 39.3803 176.24C39.3829 176.227 39.3826 176.214 39.3795 176.202C39.6083 172.697 40.2271 169.244 40.2011 165.724C40.2011 165.724 40.2011 165.693 40.2011 165.677C40.8719 164.336 41.5791 163.015 42.3487 161.73C43.6539 164.798 45.0215 167.913 45.6299 171.21C45.6299 171.309 45.8171 171.267 45.7859 171.163C44.9019 167.856 44.0803 164.549 42.4891 161.496C43.3118 160.111 44.2237 158.78 45.2191 157.513C45.6559 158.33 46.2175 159.073 46.7115 159.879C47.2055 160.685 47.6735 161.408 48.1259 162.193C49.0925 163.853 49.9154 165.593 50.5855 167.393C50.6219 167.492 50.7831 167.44 50.7415 167.346C50.0135 165.599 49.2543 163.842 48.3911 162.146Z" fill="#263238"/>
<path d="M79.4087 169.613C76.8815 167.081 73.9487 163.753 70.0487 163.763C66.2839 163.763 63.5123 166.8 61.9211 169.93C60.2571 173.201 59.6591 176.904 59.1859 180.507C58.6354 184.821 58.3021 189.16 58.1875 193.507C58.1199 195.92 58.1303 198.338 58.1875 200.751C58.1831 203.204 58.3674 205.653 58.7387 208.078C58.7532 208.162 58.7971 208.239 58.8628 208.295C58.9285 208.35 59.0116 208.38 59.0975 208.38C59.1834 208.38 59.2666 208.35 59.3322 208.295C59.3979 208.239 59.4418 208.162 59.4563 208.078C59.5707 206.044 59.4875 204.001 59.4563 201.968C59.4251 199.934 59.4563 197.958 59.5499 195.956C59.7007 191.906 59.9919 187.86 60.4703 183.83C60.8863 180.315 61.2139 176.696 62.2695 173.3C63.2159 170.232 64.9995 166.727 68.1039 165.38C72.3419 163.545 76.4863 166.899 79.2579 169.738C79.3515 169.79 79.4815 169.686 79.4087 169.613Z" fill="#263238"/>
<path d="M87.089 173.571C83.7038 173.227 84.6346 171.387 87.7182 172.193C89.3714 172.643 90.9291 173.39 92.315 174.397C92.315 171.61 91.9926 168.776 90.9526 166.379C88.1238 165.672 85.555 166.899 82.9134 168.152C80.2718 169.405 78.5142 166.181 81.6134 164.642C82.9122 164.001 84.3368 163.655 85.7851 163.629C87.2333 163.603 88.6695 163.897 89.9906 164.491C89.7598 164.084 89.5081 163.688 89.2366 163.306C88.505 162.238 87.6302 161.276 86.6366 160.446C84.3278 160.633 83.0486 162.053 82.3622 162.526C81.3898 163.165 79.861 162.417 80.8022 161.033C81.5614 159.947 83.449 159.473 85.0142 159.323C82.227 157.685 79.4554 157.679 77.8798 158.392C75.1498 159.635 75.9194 166.826 75.9194 166.826C75.9194 166.826 68.7642 162.999 66.419 166.01C65.693 167.063 65.2018 168.26 64.9786 169.52C67.511 168.584 70.6206 168.36 70.9118 169.879C71.203 171.397 66.9442 171.007 64.7186 171.267C64.4534 174.47 65.197 178.214 67.7554 180.866C69.929 176.706 74.7546 173.513 75.4462 175.817C76.1378 178.121 70.943 178.708 68.8214 181.828C69.7422 182.499 70.741 183.056 71.7958 183.487C72.9554 181.745 74.9158 179.353 75.8206 180.081C76.7254 180.809 74.3178 182.504 72.737 183.867C74.9797 184.68 77.2836 185.313 79.627 185.759C80.199 183.352 81.3066 181.079 82.3622 181.308C83.4178 181.537 81.369 184.033 80.4798 185.936C83.6049 186.552 86.7688 186.952 89.949 187.132C90.1414 187.08 91.4414 183.274 92.029 178.542C90.464 177.913 88.7961 177.58 87.1098 177.559C84.7178 177.445 84.5098 174.72 88.0718 175.099C89.5795 175.317 91.0092 175.907 92.2318 176.815C92.263 176.295 92.2942 175.801 92.315 175.287C90.7089 174.363 88.9301 173.778 87.089 173.571ZM86.1998 169.842C86.5638 169.036 88.753 169.322 88.5398 170.321C88.3266 171.319 85.8982 170.56 86.1998 169.842ZM68.291 176.602C68.161 175.921 69.6222 175.302 69.851 175.848C70.0798 176.394 68.473 177.512 68.291 176.607V176.602ZM78.587 182.182C77.4274 181.573 79.107 178.927 80.147 179.353C81.031 179.707 79.7518 182.795 78.587 182.187V182.182Z" fill="#FFC300"/>
<path d="M89.5235 186.576C87.9167 183.887 86.3307 181.189 84.6407 178.547C83.8572 177.32 83.0356 176.117 82.1759 174.938C82.3059 174.912 82.4359 174.871 82.5607 174.845L83.1795 174.72C83.6995 174.637 84.1727 174.564 84.6667 174.517C85.1607 174.47 85.6079 174.444 86.0811 174.434C86.5853 174.407 87.0909 174.435 87.5891 174.517C87.6463 174.517 87.6567 174.434 87.5891 174.434C87.0691 174.434 86.5751 174.387 86.0707 174.382C85.5663 174.377 85.0931 174.382 84.6095 174.418C84.1259 174.455 83.6943 174.491 83.2419 174.559L82.4931 174.689C82.3406 174.714 82.1896 174.747 82.0407 174.787C81.1671 173.591 80.2675 172.416 79.3315 171.267C82.114 169.913 85.0773 168.967 88.1299 168.459C88.1819 168.459 88.1611 168.371 88.1299 168.381C85.0324 168.81 82.0213 169.723 79.2067 171.085L77.6467 169.203C77.0643 168.506 76.4403 167.825 75.9151 167.081C75.8839 167.029 75.8111 167.081 75.8527 167.128C76.5742 167.925 77.2545 168.758 77.8911 169.624C76.7428 170.424 75.65 171.302 74.6203 172.25C73.5543 173.196 72.5091 174.174 71.5003 175.183C71.4954 175.191 71.4933 175.2 71.4944 175.209C71.4955 175.218 71.4997 175.227 71.5063 175.234C71.5129 175.24 71.5216 175.245 71.5308 175.246C71.5401 175.247 71.5495 175.245 71.5575 175.24C72.5559 174.248 73.5959 173.298 74.6775 172.39C75.7643 171.491 76.9083 170.664 78.0003 169.79L78.7491 170.773C78.8791 170.934 79.0039 171.101 79.1287 171.267C79.1287 171.267 79.1287 171.267 79.1547 171.303C79.5776 171.844 79.9936 172.39 80.4027 172.941C79.918 173.645 79.5019 174.394 79.1599 175.177C78.8011 175.937 78.4891 176.737 78.1979 177.507C77.6233 179.15 77.1748 180.835 76.8563 182.546C76.8563 182.593 76.9291 182.619 76.9343 182.546C77.2763 180.861 77.767 179.209 78.4007 177.611C78.7127 176.789 79.0663 175.989 79.4407 175.188C79.8151 174.387 80.1791 173.763 80.4807 173.03C80.8395 173.508 81.1983 173.987 81.5519 174.475C81.6559 174.616 81.7495 174.761 81.8535 174.902C81.8535 174.933 81.8535 174.975 81.8899 174.975C82.9923 176.535 84.0427 178.095 85.0671 179.691C85.0035 179.8 84.9562 179.917 84.9267 180.039C84.8591 180.232 84.7967 180.429 84.7395 180.622C84.6273 181.016 84.5354 181.415 84.4639 181.818C84.3911 182.197 84.3391 182.582 84.3027 182.962C84.2986 183.399 84.2656 183.835 84.2039 184.267C84.2039 184.329 84.2975 184.335 84.2819 184.267C84.2531 183.859 84.2846 183.449 84.3755 183.05C84.4327 182.639 84.5107 182.223 84.6043 181.818C84.6979 181.412 84.7915 181.079 84.9007 180.715C84.9579 180.533 85.0151 180.357 85.0775 180.195C85.1087 180.102 85.1555 179.998 85.1867 179.899C85.6651 180.648 86.1383 181.402 86.6063 182.161C87.5319 183.664 88.4471 185.172 89.3727 186.675C89.4507 186.716 89.5703 186.68 89.5235 186.576Z" fill="#263238"/>
<path d="M64.7409 207.209C64.6993 205.686 64.4601 204.152 64.2937 202.639C64.1273 201.125 63.9557 199.597 63.7737 198.073C63.4617 195.14 63.2849 192.145 62.5985 189.269C62.0883 186.767 60.8404 184.474 59.0157 182.686C58.0705 181.741 56.8298 181.148 55.5005 181.007C54.1644 180.97 52.8536 181.376 51.7721 182.161C50.5448 183.068 49.4884 184.186 48.6521 185.463C47.7401 186.725 46.9232 188.053 46.2081 189.436C46.1769 189.488 46.2601 189.519 46.2913 189.472C47.6482 187.171 49.4473 185.162 51.5849 183.56C52.5356 182.776 53.6973 182.291 54.9233 182.166C55.5207 182.158 56.114 182.267 56.669 182.489C57.2241 182.71 57.7299 183.039 58.1577 183.456C59.9309 185.016 60.9605 187.273 61.5689 189.503C62.2969 192.145 62.5309 194.927 62.8949 197.636C63.1098 199.241 63.3195 200.852 63.5241 202.467C63.7373 204.069 63.8725 205.717 64.2105 207.293C64.2215 207.363 64.26 207.426 64.3175 207.468C64.3751 207.51 64.4469 207.527 64.5173 207.516C64.5876 207.505 64.6507 207.467 64.6926 207.409C64.7345 207.352 64.7519 207.28 64.7409 207.209Z" fill="#263238"/>
<path d="M55.282 184.314C51.7824 184.246 48.08 186.857 48.08 186.857C48.08 186.857 50.0456 180.05 44.5752 180.268C41.32 180.398 37.264 183.81 36.4476 189.108C37.7008 188.443 40.3476 187.164 42.438 187.122C45.272 187.07 45.4644 189.29 41.554 189.628C39.7805 189.727 38.023 190.018 36.3124 190.497C36.2521 192.16 36.4754 193.822 36.9728 195.411C39.1516 194.085 42.88 192.681 42.9892 194.506C43.0672 195.863 39.2244 195.972 37.3264 196.446C38.1213 198.54 39.2199 200.505 40.5868 202.28C43.2563 201.891 45.8919 201.296 48.47 200.502C48.4787 199.546 48.3969 198.592 48.2256 197.652C47.7576 195.224 49.5464 195.182 49.7856 197.512C49.8624 198.382 49.8062 199.258 49.6192 200.112C51.394 199.522 53.0911 198.721 54.6736 197.725C54.6206 195.879 54.2366 194.058 53.54 192.348C52.8432 190.45 54.2264 189.358 55.386 191.542C56.14 192.946 55.8332 195.588 55.5836 197.075C56.2128 196.592 56.7712 196.023 57.2424 195.385C60.9916 190.18 58.7712 184.392 55.282 184.314ZM40.202 185.572C40.3268 184.59 42.7708 184.777 42.646 185.541C42.5212 186.306 40.0512 186.68 40.1968 185.572H40.202ZM37.472 193.57C37.7112 192.941 38.7616 193.05 38.7148 193.528C38.668 194.007 37.3108 193.96 37.472 193.57ZM51.98 197.002C50.5604 197.059 51.0284 194.111 51.8552 193.996C52.5468 193.892 53.0564 196.955 51.98 197.002Z" fill="#FFC300"/>
<path d="M50.7051 197.267C50.5699 196.903 50.4503 196.529 50.3359 196.154C50.4399 196.534 50.5335 196.913 50.6063 197.293C50.6219 197.371 50.7363 197.34 50.7051 197.267Z" fill="#263238"/>
<path d="M49.2658 192.53C49.0058 191.776 48.7458 191.027 48.4286 190.283C48.2674 189.888 48.1062 189.498 47.9086 189.108C47.7837 188.761 47.6197 188.43 47.4198 188.12C47.5892 187.812 47.7369 187.492 47.8618 187.163C47.8653 187.157 47.8661 187.15 47.8642 187.143C47.8622 187.136 47.8576 187.13 47.8514 187.127C47.8452 187.123 47.8379 187.123 47.8311 187.125C47.8243 187.127 47.8185 187.131 47.815 187.137C47.4198 187.655 47.0734 188.209 46.7802 188.791C46.6242 189.046 46.4838 189.311 46.333 189.571C46.0234 189.597 45.7159 189.644 45.4126 189.711C45.085 189.774 44.7574 189.836 44.4298 189.914L43.4574 190.138C43.135 190.216 42.8126 190.32 42.485 190.372C42.4122 190.372 42.4434 190.502 42.5162 190.476C42.8544 190.356 43.2024 190.265 43.5562 190.205C43.8682 190.138 44.1802 190.086 44.5026 190.039C44.825 189.992 45.137 189.956 45.4542 189.919L46.1822 189.862L45.787 190.549L45.7298 190.663C45.465 190.658 45.2008 190.689 44.9446 190.757C44.6586 190.803 44.3778 190.861 44.097 190.918C43.5302 191.048 42.9582 191.183 42.3966 191.339C41.211 191.667 40.0462 192.046 38.8762 192.431C38.8086 192.431 38.8502 192.551 38.9178 192.525C40.0776 192.134 41.2581 191.808 42.4538 191.547C43.0102 191.417 43.5718 191.292 44.1334 191.173L44.9758 190.996C45.197 190.961 45.4158 190.912 45.631 190.85C45.0278 191.963 44.461 193.091 43.941 194.246C42.8074 196.757 41.861 199.342 40.8782 201.916C40.8727 201.929 40.8726 201.944 40.878 201.957C40.8834 201.97 40.8937 201.98 40.9068 201.986C40.9199 201.991 40.9347 201.992 40.9479 201.986C40.961 201.981 40.9715 201.97 40.977 201.957C41.9098 199.404 42.9898 196.908 44.2114 194.48C44.4298 194.033 44.6586 193.591 44.877 193.149C44.877 193.237 44.9186 193.331 44.9342 193.419C44.9914 193.726 45.0486 194.027 45.0954 194.334C45.1994 194.943 45.3034 195.551 45.397 196.165C45.6563 197.416 45.8025 198.688 45.8338 199.966C45.8338 200.044 45.9534 200.044 45.943 199.966C45.8442 199.363 45.8442 198.728 45.8026 198.115C45.761 197.501 45.7194 196.835 45.6414 196.196C45.5634 195.556 45.4958 194.969 45.3918 194.36C45.3398 194.053 45.2878 193.752 45.2306 193.445C45.2174 193.216 45.1591 192.991 45.059 192.785C45.3814 192.14 45.6986 191.495 46.021 190.855C46.3434 190.216 46.6346 189.654 46.9466 189.056C47.0766 188.807 47.2222 188.536 47.3626 188.292C47.46 188.607 47.5817 188.915 47.7266 189.212L48.1478 190.252C48.4598 191.017 48.751 191.786 49.0422 192.561C49.4582 193.653 49.9158 194.776 50.2538 195.915C49.9002 194.771 49.6402 193.632 49.2658 192.53Z" fill="#263238"/>
<path d="M50.3371 196.154C50.3371 196.066 50.2799 195.978 50.2539 195.889C50.2799 195.978 50.3059 196.066 50.3371 196.154Z" fill="#263238"/>
<path d="M73.888 207.891L73.5032 216.034L72.5152 247.421H50.8624L49.8692 216.034L49.4844 207.891H73.888Z" fill="#455A64"/>
<path d="M73.888 207.891L73.6436 213.044L49.7548 213.621L49.4844 207.891H73.888Z" fill="#37474F"/>
<path d="M75.4254 204.599H47.9434V211.182H75.4254V204.599Z" fill="#455A64"/>
<path d="M56.4145 247.421H52.6133V250.869H56.4145V247.421Z" fill="#455A64"/>
<path d="M56.4145 247.421H52.6133V249.142H56.4145V247.421Z" fill="#37474F"/>
<path d="M70.7569 247.421H66.9609V250.869H70.7569V247.421Z" fill="#455A64"/>
<path d="M70.7569 247.421H66.9609V249.142H70.7569V247.421Z" fill="#37474F"/>
<path d="M133.421 250.692C134.788 251.118 174.698 250.26 176.154 249.288C176.716 248.924 173.294 211.12 173.294 211.12L147.986 211.603L150.862 236.891C150.862 236.891 136.135 243.88 134.658 245.107C133.182 246.334 132.058 250.27 133.421 250.692Z" fill="#EB9481"/>
<path d="M133.421 250.692C134.783 251.118 174.698 250.255 176.154 249.283C176.331 249.174 176.383 245.336 175.749 240.333C168.51 241.55 142.677 245.533 140.664 244.332C139.265 243.505 140.503 242.221 141.652 241.353C138.356 242.996 135.277 244.577 134.643 245.107C133.166 246.339 132.058 250.276 133.421 250.692Z" fill="#263238"/>
<path opacity="0.2" d="M176.155 249.283C175.505 249.72 167.097 250.136 157.908 250.416L175.006 230.823C175.739 240.063 176.425 249.106 176.155 249.283Z" fill="black"/>
<path d="M150.15 230.828L175.001 230.479C175.001 230.479 170.077 170.96 170.279 169.816C170.545 168.35 188.173 99.2209 188.173 99.2209H164.461C164.461 99.2209 145.741 163.654 145.085 169.863C144.019 179.889 150.15 230.828 150.15 230.828Z" fill="#263238"/>
<path d="M172.765 224.869C171.299 224.765 169.811 224.78 168.34 224.765C166.868 224.749 165.397 224.739 163.92 224.765C160.971 224.765 158.028 224.837 155.08 224.921C154.274 224.921 153.468 224.967 152.662 225.004C151.856 225.04 150.946 225.191 150.062 225.222C150.048 225.222 150.035 225.228 150.025 225.237C150.015 225.247 150.01 225.26 150.01 225.274C150.01 225.288 150.015 225.301 150.025 225.311C150.035 225.321 150.048 225.326 150.062 225.326C150.785 225.326 151.507 225.441 152.23 225.461C152.953 225.482 153.733 225.493 154.487 225.493C155.957 225.493 157.43 225.493 158.907 225.493C161.85 225.493 164.799 225.43 167.747 225.311C169.406 225.238 171.085 225.217 172.744 225.051C172.768 225.053 172.793 225.046 172.812 225.031C172.831 225.016 172.843 224.994 172.846 224.97C172.848 224.946 172.841 224.922 172.826 224.903C172.811 224.884 172.789 224.871 172.765 224.869Z" fill="#37474F"/>
<path d="M182.956 104.806C180.835 112.32 178.895 119.886 176.992 127.473C175.089 135.06 173.196 142.631 171.313 150.212C170.367 154.005 169.424 157.796 168.485 161.585C167.564 165.277 166.498 168.984 166.269 172.801C166.041 176.618 166.535 180.601 166.857 184.449C167.179 188.297 167.512 192.208 167.85 196.087C168.531 203.84 169.187 211.64 170.019 219.362C170.123 220.329 170.227 221.302 170.325 222.269C170.325 222.352 170.461 222.352 170.455 222.269C169.935 214.5 169.415 206.736 168.786 198.978C168.474 195.099 168.159 191.22 167.84 187.34C167.517 183.466 167.07 179.582 166.945 175.698C166.821 171.813 167.538 168.022 168.505 164.232C169.431 160.526 170.36 156.816 171.293 153.104C173.189 145.529 175.082 137.949 176.971 130.364C179.051 121.878 181.178 113.37 183.039 104.822C183.042 104.811 183.039 104.799 183.033 104.79C183.026 104.781 183.017 104.774 183.006 104.772C182.995 104.77 182.983 104.773 182.974 104.779C182.965 104.785 182.958 104.795 182.956 104.806Z" fill="#37474F"/>
<path d="M188.177 99.2212C188.177 99.2212 180.611 128.861 175.318 149.755L165.225 99.2212H188.177Z" fill="#37474F"/>
<path d="M163.229 250.785C164.591 251.212 204.507 250.349 205.963 249.376C206.524 249.017 204.002 211.588 204.002 211.588L179.458 211.676L180.67 236.985C180.67 236.985 165.943 243.963 164.451 245.201C162.959 246.438 161.861 250.364 163.229 250.785Z" fill="#EB9481"/>
<path d="M163.222 250.785C164.59 251.212 204.505 250.349 205.961 249.376C206.138 249.267 206.096 245.528 205.961 240.422C198.722 241.639 172.488 245.622 170.476 244.426C169.077 243.599 170.315 242.309 171.464 241.446C168.167 243.089 165.089 244.67 164.454 245.201C162.972 246.433 161.86 250.364 163.222 250.785Z" fill="#263238"/>
<path d="M165.225 99.2104C165.225 99.2104 166.566 115.98 169.327 120.192C171.72 121.122 174.023 122.269 176.207 123.619C176.207 123.619 177.918 168.474 177.887 171.168C177.772 181.246 180.351 230.328 180.351 230.328L205.405 230.094C205.405 230.094 198.921 144.814 197.407 125.273C197.407 125.273 198.551 119.033 198.307 115.913C197.709 108.274 194.828 99.2469 194.828 99.2469L165.225 99.2104Z" fill="#263238"/>
<path d="M174.045 115.159C173.951 114.53 173.852 113.901 173.759 113.277C173.582 112.128 173.348 110.984 173.145 109.84C172.688 107.24 172.214 104.64 171.637 102.04C171.637 102.024 171.631 102.01 171.62 101.999C171.61 101.988 171.595 101.982 171.58 101.982C171.565 101.982 171.55 101.988 171.539 101.999C171.529 102.01 171.523 102.024 171.523 102.04C171.627 103.08 171.746 104.12 171.892 105.16C172.037 106.2 172.141 107.24 172.287 108.28C172.578 110.334 172.864 112.388 173.213 114.431C173.348 115.222 173.837 116.631 172.693 116.875C171.798 117.068 171.133 116.189 170.873 115.45C170.599 114.521 170.397 113.572 170.27 112.611C170.088 111.571 169.926 110.531 169.775 109.491C169.458 107.219 169.105 104.957 168.735 102.695C168.735 102.632 168.621 102.648 168.621 102.695C168.677 105.02 168.851 107.34 169.141 109.647C169.287 110.75 169.46 111.85 169.661 112.949C169.773 114.005 170.029 115.041 170.42 116.028C170.581 116.417 170.837 116.759 171.165 117.022C171.494 117.286 171.883 117.463 172.297 117.536H172.35C172.338 117.543 172.329 117.553 172.323 117.565C172.317 117.577 172.313 117.59 172.313 117.603C172.313 117.972 172.313 118.342 172.36 118.711C172.407 119.08 172.469 119.434 172.537 119.792C172.606 120.159 172.7 120.52 172.817 120.874C172.88 121.04 172.942 121.207 173.02 121.394C173.106 121.553 173.204 121.706 173.311 121.852C173.353 121.914 173.426 121.852 173.431 121.815C173.431 121.753 173.431 121.696 173.431 121.633V121.602C173.431 121.493 173.431 121.389 173.431 121.28C173.431 121.17 173.363 120.926 173.327 120.76C173.249 120.406 173.15 120.058 173.057 119.72C172.963 119.382 172.89 119.023 172.802 118.68C172.713 118.336 172.594 117.972 172.511 117.608C172.511 117.608 172.511 117.608 172.485 117.577C172.815 117.59 173.141 117.501 173.419 117.324C173.698 117.146 173.916 116.888 174.045 116.584C174.168 116.117 174.168 115.626 174.045 115.159Z" fill="#37474F"/>
<path d="M178.236 124.165C177.488 123.591 176.701 123.07 175.88 122.605C175.014 122.086 174.116 121.622 173.192 121.217C171.377 120.426 169.51 119.891 167.638 119.272C167.586 119.272 167.545 119.345 167.602 119.371C169.411 120.088 171.148 121.045 172.901 121.903C173.764 122.324 174.632 122.725 175.501 123.115C176.369 123.505 177.253 123.957 178.158 124.285C178.236 124.316 178.288 124.212 178.236 124.165Z" fill="#37474F"/>
<path d="M190.211 110.167C188.931 110.167 184.522 109.845 183.217 108.384C182.492 107.515 181.94 106.516 181.589 105.44C181.18 104.272 180.849 103.079 180.596 101.868C180.596 101.806 180.497 101.826 180.497 101.868C180.469 103.238 180.645 104.605 181.017 105.924C181.329 107.042 181.74 108.29 182.645 109.075C183.649 109.83 184.854 110.271 186.108 110.344C187.476 110.502 188.858 110.483 190.221 110.287C190.231 110.28 190.24 110.271 190.245 110.26C190.251 110.249 190.253 110.236 190.252 110.224C190.251 110.211 190.247 110.2 190.239 110.19C190.232 110.18 190.222 110.172 190.211 110.167Z" fill="#37474F"/>
<path d="M162.22 110.51C162.855 110.299 163.431 109.943 163.905 109.47C164.867 108.014 165.101 103.402 165.184 102.19C165.184 102.128 165.215 102.149 165.215 102.19C165.215 103.547 165.168 104.936 165.059 106.246C165.002 107.313 164.828 108.369 164.539 109.397C164.248 110.224 162.626 110.796 162.199 110.609C162.22 110.635 162.22 110.51 162.22 110.51Z" fill="#37474F"/>
<path d="M204.297 225.238C202.83 225.134 201.348 225.149 199.877 225.128C198.405 225.108 196.928 225.128 195.452 225.128C192.508 225.16 189.56 225.206 186.612 225.29C185.8 225.29 185 225.336 184.194 225.373C183.388 225.409 182.472 225.56 181.594 225.591C181.526 225.591 181.531 225.695 181.594 225.695C182.316 225.695 183.039 225.81 183.767 225.83C184.495 225.851 185.265 225.856 186.019 225.856C187.49 225.856 188.967 225.856 190.439 225.856C193.387 225.83 196.336 225.794 199.279 225.669C200.943 225.602 202.622 225.581 204.276 225.414C204.3 225.417 204.323 225.41 204.342 225.396C204.36 225.381 204.372 225.36 204.375 225.336C204.378 225.313 204.371 225.289 204.356 225.271C204.342 225.252 204.32 225.24 204.297 225.238Z" fill="#37474F"/>
<path d="M201.219 221.972C201.259 221.971 201.299 221.961 201.335 221.945C201.372 221.928 201.404 221.904 201.431 221.875C201.458 221.845 201.479 221.81 201.493 221.773C201.507 221.735 201.512 221.695 201.51 221.655L193.721 124.524C193.788 124.098 195.385 118.674 195.525 115.902C195.676 112.97 192.65 101.556 192.52 101.067C192.498 100.988 192.446 100.921 192.376 100.881C192.305 100.84 192.221 100.83 192.143 100.851C192.064 100.872 191.997 100.924 191.957 100.995C191.916 101.066 191.905 101.149 191.927 101.228C191.958 101.342 195.047 113.037 194.917 115.871C194.787 118.705 193.118 124.41 193.112 124.456C193.107 124.503 200.912 221.697 200.912 221.697C200.919 221.773 200.954 221.844 201.011 221.895C201.068 221.946 201.143 221.974 201.219 221.972Z" fill="#37474F"/>
<path d="M177.996 64.6462C177.923 66.7262 178.974 67.4438 179 68.5514C179 68.5514 174.221 70.6314 166.255 70.335C158.288 70.0386 153.66 67.683 153.66 67.683C153.759 66.5806 154.856 65.9202 154.929 63.861C155.007 61.4794 153.421 61.261 153.92 57.6522C154.295 54.969 156.323 54.709 156.822 49.4414C157.342 43.9918 159.489 41.865 161.133 40.6794C162.901 39.3269 165.107 38.6768 167.326 38.8542C167.326 38.8542 170.196 38.381 173.228 40.8978C174.788 42.1874 176.941 44.6574 177.086 50.133C177.227 55.4214 179.234 55.8218 179.421 58.5206C179.676 62.145 178.074 62.2646 177.996 64.6462Z" fill="#263238"/>
<path d="M156.614 52.3792C157.352 50.892 157.389 49.0928 157.316 47.4496C157.316 47.3664 157.202 47.3612 157.202 47.4496C157.129 49.0096 157.144 50.6528 156.463 52.0932C155.881 53.3412 154.83 54.2096 154.019 55.26C153.241 56.2285 152.799 57.4241 152.761 58.666C152.743 59.3089 152.84 59.9499 153.047 60.5588C153.3 61.1609 153.601 61.7417 153.946 62.2956C154.862 64.074 153.619 65.8992 152.615 67.246C153.442 66.232 154.331 65.114 154.456 63.6996C154.5 63.0321 154.337 62.3673 153.988 61.7964C153.587 61.1736 153.299 60.4855 153.135 59.7632C153.001 59.0313 153.022 58.2793 153.195 57.5557C153.369 56.8321 153.692 56.1529 154.144 55.5616C154.966 54.4956 155.98 53.622 156.614 52.3792Z" fill="#263238"/>
<path d="M180.216 58.3853C179.987 56.8253 179.223 55.6709 178.443 54.4177C178.044 53.8118 177.72 53.1607 177.475 52.4781C177.234 51.6854 177.076 50.8698 177.002 50.0445C176.898 49.1397 176.815 48.2349 176.623 47.3457C176.423 46.4579 176.15 45.5882 175.806 44.7457C175.806 44.7093 175.739 44.7457 175.754 44.7769C176.333 46.3785 176.683 48.0538 176.794 49.7533C176.858 51.2508 177.253 52.7158 177.949 54.0433C178.682 55.3069 179.587 56.4405 179.909 57.9381C180.247 59.5293 180.299 61.5001 179.451 62.9145C178.755 64.0741 177.429 65.4053 178.063 66.9289C178.067 66.9392 178.075 66.9475 178.086 66.9519C178.096 66.9563 178.107 66.9564 178.118 66.9523C178.128 66.9481 178.136 66.9401 178.141 66.9298C178.145 66.9196 178.145 66.908 178.141 66.8977C177.621 65.1661 179.181 63.9909 179.836 62.6493C180.491 61.3077 180.419 59.7685 180.216 58.3853Z" fill="#263238"/>
<path d="M170.644 69.8931C168.304 83.7147 164.378 97.4531 162.038 99.5747C158.398 102.84 138.638 106.98 132.32 107.089C130.24 107.125 128.898 93.0487 130.614 91.6499C132.33 90.2511 153.494 87.2871 154.669 86.6215C155.299 86.2627 160.764 75.7431 164.934 68.7179C168.813 62.1867 171.351 65.6967 170.644 69.8931Z" fill="#EB9481"/>
<path d="M137.623 106.537C135.808 107.224 126.022 111.061 123.479 111.217C120.936 111.373 113.599 111.217 113.272 109.293C112.944 107.369 115.123 107.213 115.123 107.213C115.123 107.213 112.003 106.693 111.899 104.686C111.795 102.679 115.128 102.606 115.128 102.606C115.128 102.606 112.008 101.816 112.008 99.8345C112.008 97.8533 115.414 98.3161 115.414 98.3161C115.414 98.3161 112.507 97.7233 113.204 96.0957C114.046 94.1353 119.278 95.8253 122.075 95.4613C122.71 95.3781 134.836 92.8613 134.836 92.8613L137.623 106.537Z" fill="#EB9481"/>
<path d="M115.117 98.2798C118.965 99.5174 120.863 99.3926 124.716 98.3942C124.794 98.3942 124.841 98.4826 124.763 98.5138C121.076 99.8294 118.721 100.329 115.044 98.4618C114.867 98.3682 114.93 98.2174 115.117 98.2798Z" fill="#263238"/>
<path d="M114.826 102.497C118.934 103.433 120.993 103.314 125.106 102.57C125.164 102.57 125.19 102.658 125.132 102.674C121.16 103.74 118.794 104.187 114.81 102.716C114.628 102.648 114.634 102.44 114.826 102.497Z" fill="#263238"/>
<path d="M115.33 107.161C119.376 107.78 121.643 107.744 125.543 106.511C125.562 106.505 125.582 106.505 125.6 106.514C125.619 106.522 125.633 106.537 125.639 106.556C125.646 106.574 125.646 106.595 125.637 106.613C125.629 106.631 125.614 106.645 125.595 106.652C121.742 108.3 118.913 108.357 115.325 107.286C115.081 107.213 115.076 107.12 115.33 107.161Z" fill="#263238"/>
<path d="M136.874 90.3707C136.874 90.3707 132.142 88.5559 129.89 88.2179C127.639 87.8799 118.768 89.7051 119.054 91.6395C119.423 94.1407 124.748 94.0939 127.374 93.7195C127.374 93.7195 128.226 99.5071 132.054 100.303C135.881 101.098 136.874 90.3707 136.874 90.3707Z" fill="#EB9481"/>
<path d="M119.381 92.2947C121.362 94.3331 124.753 93.6363 127.306 93.4699C127.343 93.4665 127.381 93.472 127.416 93.486C127.451 93.5001 127.483 93.5222 127.507 93.5506C127.532 93.579 127.55 93.6129 127.559 93.6494C127.569 93.686 127.569 93.7243 127.561 93.7611C128.081 96.1635 129.505 99.3979 131.897 100.401C131.912 100.406 131.924 100.417 131.931 100.43C131.938 100.444 131.939 100.46 131.934 100.474C131.929 100.489 131.919 100.501 131.905 100.508C131.891 100.514 131.876 100.515 131.861 100.511C129.152 99.7879 127.488 96.7199 127.087 94.0575C124.487 94.2655 121.045 94.8167 119.36 92.3103C119.35 92.2999 119.371 92.2791 119.381 92.2947Z" fill="#263238"/>
<path d="M139.619 108.332L136.988 89.0916C136.988 89.0916 152.536 86.2836 154.351 85.7792C155.121 85.5608 161.948 72.5764 165.209 67.0176C167.356 63.3776 171.553 62.296 171.095 70.4704C170.825 75.2544 166.243 97.63 162.411 100.63C159.364 102.996 139.619 108.332 139.619 108.332Z" fill="#EBEBEB"/>
<path d="M143.353 105.399C143.41 104.109 142.781 98.8103 142.609 97.4895C142.438 96.1687 141.569 90.9115 141.387 89.5595C141.387 89.4815 141.268 89.4763 141.278 89.5595C141.434 90.9063 141.892 96.2415 142.048 97.5623C142.204 98.8831 142.906 104.161 143.28 105.414C143.282 105.424 143.288 105.432 143.296 105.438C143.304 105.443 143.315 105.445 143.324 105.443C143.334 105.441 143.342 105.435 143.348 105.427C143.353 105.418 143.355 105.408 143.353 105.399Z" fill="#263238"/>
<path opacity="0.1" d="M171.096 70.4704C170.831 75.2596 166.244 97.6352 162.412 100.63C160.639 102.008 153.229 104.39 147.332 106.142L167.123 64.8648C169.182 63.44 171.434 64.3656 171.096 70.4704Z" fill="black"/>
<path d="M163.26 91.4835V101.337L194.84 99.2211C194.84 99.2211 184.663 69.7943 178.48 65.1143C173.561 61.4015 168.798 62.6079 166.286 66.2843C165.652 67.2151 159.89 79.9915 159.76 84.8587C159.646 89.1487 163.26 91.4835 163.26 91.4835Z" fill="#FFC300"/>
<g opacity="0.1">
<path d="M170.139 89.2007C169.048 89.3479 167.979 89.6309 166.957 90.0431C166.424 90.2713 165.904 90.5264 165.397 90.8075C165.142 90.9531 164.877 91.0779 164.622 91.2027C164.368 91.3413 164.089 91.4263 163.801 91.4523C163.801 91.4523 163.775 91.5199 163.801 91.5199C164.06 91.5511 164.322 91.5511 164.581 91.5199C164.84 91.4721 165.093 91.3935 165.335 91.2859C165.855 91.0727 166.375 90.8127 166.921 90.5839C167.97 90.1144 169.044 89.7047 170.139 89.3567C170.197 89.3463 170.191 89.1903 170.139 89.2007Z" fill="#020100"/>
<path d="M175.303 89.7622C173.911 89.7682 172.522 89.8655 171.143 90.0534C170.456 90.147 169.78 90.2874 169.099 90.4486L168.132 90.6982C167.778 90.797 167.44 90.9478 167.092 91.0362C167.056 91.0362 167.066 91.1142 167.092 91.1038C167.43 91.031 167.784 91.0206 168.132 90.9686L169.172 90.8074C169.853 90.7034 170.54 90.6098 171.226 90.4954C172.599 90.2718 173.966 90.0638 175.344 89.8922C175.396 89.8818 175.376 89.7622 175.303 89.7622Z" fill="#020100"/>
</g>
<path d="M173.222 62.8574C173.222 62.8574 172.426 84.6974 172.515 86.3926C172.603 88.0878 173.763 130.015 183.809 138.866C189.357 143.749 207.771 143.801 207.771 143.801C207.771 143.801 200.465 112.814 198.177 104.801C195.993 97.1202 189.409 77.2146 181.1 67.3606C178.094 63.7726 175.661 62.9874 173.222 62.8574Z" fill="#EBEBEB"/>
<path d="M173.295 64.792C173.612 65.6448 173.945 66.4976 174.278 67.3452C174.611 68.1928 174.943 69.0508 175.287 69.8984C175.98 71.5936 176.673 73.2871 177.367 74.9788L177.481 74.6824C176.477 75.2024 175.484 75.7224 174.491 76.2424L174.257 76.3724L174.371 76.5908L176.363 80.4232V80.2412C175.801 82.2432 175.266 84.2556 174.751 86.2628C174.496 87.2716 174.231 88.2804 174.002 89.2892C173.773 90.298 173.519 91.3068 173.305 92.3208C173.659 91.338 173.976 90.3448 174.309 89.3568C174.642 88.3688 174.954 87.3704 175.261 86.3772C175.879 84.3908 176.483 82.394 177.055 80.3972L177.081 80.3088L177.034 80.2152L175.047 76.388L174.923 76.7364C175.911 76.2164 176.893 75.6548 177.871 75.1036L178.069 74.9944L177.985 74.8072C177.237 73.1293 176.474 71.4532 175.697 69.7788C175.313 68.9416 174.912 68.1096 174.512 67.2724C174.111 66.4352 173.711 65.6188 173.295 64.792Z" fill="#DBDBDB"/>
<path d="M183.43 119.673C183.784 123.037 184.47 126.807 185.261 127.405C186.774 128.534 190.315 127.925 191.428 127.774C192.541 127.624 196.524 127.067 197.179 124.888C197.47 123.926 196.945 119.236 196.706 117.608C196.612 116.938 196.009 113.646 195.91 113.287C195.884 113.199 195.65 113.24 195.65 113.287C195.65 113.677 195.869 115.045 195.884 115.31C189.582 117.005 185.521 116.87 183.404 116.74C183.321 116.121 183.254 115.638 183.16 115.024C185.214 115.116 187.272 115.031 189.312 114.769C191.534 114.412 193.736 113.942 195.91 113.36C195.962 113.36 195.91 113.105 195.812 113.116C194.98 113.24 192.125 113.922 189.208 114.317C187.116 114.56 185.011 114.681 182.905 114.681C182.812 114.738 183.264 118.04 183.43 119.673ZM185.599 126.953C184.777 126.235 184.372 123.906 184.184 122.507C183.924 120.583 183.722 119.038 183.467 117.109C187.675 117.395 191.9 116.878 195.916 115.586C195.916 115.669 196.519 119.746 196.654 121.03C196.831 122.694 196.982 124.197 196.467 125.143C196.02 125.954 194.584 126.901 191.054 127.379C188.495 127.743 186.28 127.572 185.62 126.974L185.599 126.953Z" fill="#DBDBDB"/>
<path d="M166.276 66.2842C166.276 66.2842 163.057 78.8682 162.969 82.6642C162.997 85.6123 163.279 88.5524 163.811 91.4522C163.811 91.4522 164.331 129.714 163.723 132.964C163.114 136.214 151.492 141.284 151.492 141.284C151.492 141.284 160.499 111.893 161.778 101.764C162.1 99.2314 161.747 91.5562 161.747 91.5562C161.747 91.5562 159.401 89.4762 159.308 85.3162C159.214 81.1562 164.3 69.737 166.276 66.2842Z" fill="#EBEBEB"/>
<path d="M165.403 69.3364C165.122 70.0904 161.721 77.3444 161.113 78.8264L161.05 78.5456C161.705 79.1176 162.355 79.7 163 80.2824L163.151 80.4228L163.057 80.6152L161.404 83.938L161.43 83.7768C161.669 85.6696 163.801 93.7504 163.879 94.6968C163.707 93.7608 161.191 85.7372 160.941 83.8444V83.756L160.977 83.6832L162.626 80.3552L162.688 80.688C162.043 80.1022 161.405 79.5076 160.775 78.9044L160.645 78.7848L160.712 78.6236C161.341 77.1572 165.059 70.054 165.403 69.3364Z" fill="#DBDBDB"/>
<path d="M166.484 65.9878C166.125 66.7366 164.685 73.6578 165.147 73.949C165.61 74.2402 171.533 73.7358 172.084 73.2574C172.635 72.779 173.124 64.615 173.041 64.1054C172.958 63.5958 166.484 65.9878 166.484 65.9878Z" fill="#EB9481"/>
<path d="M173.04 64.1054C173.04 64.7398 171.111 69.3366 168.329 69.867C167.419 70.0386 166.249 65.135 166.249 65.135L166.083 64.7918L163.732 59.9922L168.766 54.7454L169.51 54.033C169.51 54.033 170.066 55.385 170.742 57.0802L170.836 57.3194C170.877 57.4182 170.919 57.5066 170.95 57.595C171.054 57.8498 171.158 58.115 171.257 58.3646C171.356 58.6142 171.413 58.7494 171.486 58.9626L171.714 59.5814C172.259 61.0575 172.702 62.569 173.04 64.1054Z" fill="#EB9481"/>
<path d="M170.757 57.0804C170.584 58.6287 170.076 60.1207 169.268 61.4526C168.46 62.7844 167.371 63.924 166.077 64.792L163.727 59.9924L168.76 54.7456L169.504 54.0332C169.504 54.0332 170.081 55.3852 170.757 57.0804Z" fill="#263238"/>
<path d="M155.496 51.1261C154.456 60.4393 159.905 62.1241 161.913 62.3477C163.738 62.5505 169.973 63.0133 171.98 53.8561C173.987 44.6989 170.019 41.2669 165.859 40.5597C161.699 39.8525 156.551 41.8129 155.496 51.1261Z" fill="#EB9481"/>
<path d="M157.02 50.4813C157.235 50.458 157.448 50.4216 157.659 50.3721C157.888 50.3673 158.11 50.2869 158.288 50.1433C158.335 50.0851 158.361 50.0127 158.361 49.9379C158.361 49.8632 158.335 49.7907 158.288 49.7325C158.186 49.627 158.057 49.5506 157.916 49.5113C157.774 49.472 157.624 49.4712 157.482 49.5089C157.182 49.5385 156.904 49.6795 156.702 49.9041C156.659 49.9594 156.634 50.0261 156.628 50.0959C156.623 50.1657 156.638 50.2356 156.671 50.2969C156.705 50.3583 156.756 50.4084 156.818 50.4412C156.88 50.474 156.95 50.4879 157.02 50.4813Z" fill="#263238"/>
<path d="M163.306 50.5178C163.088 50.4814 162.89 50.4138 162.677 50.3566C162.448 50.3312 162.234 50.2306 162.068 50.0706C162.023 50.0128 161.998 49.9414 161.998 49.8678C161.998 49.7942 162.023 49.7228 162.068 49.665C162.179 49.5678 162.313 49.5021 162.458 49.4746C162.602 49.4472 162.752 49.459 162.89 49.509C163.186 49.5628 163.452 49.7262 163.634 49.9666C163.669 50.0226 163.689 50.0875 163.69 50.154C163.691 50.2205 163.674 50.286 163.64 50.3432C163.606 50.4004 163.557 50.447 163.498 50.4778C163.439 50.5086 163.372 50.5225 163.306 50.5178Z" fill="#263238"/>
<path d="M158.334 52.0728C158.334 52.0728 158.282 52.104 158.282 52.13C158.282 52.7696 158.194 53.5028 157.611 53.69C157.611 53.69 157.611 53.7316 157.611 53.7264C158.324 53.6536 158.443 52.676 158.334 52.0728Z" fill="#263238"/>
<path d="M157.778 51.3965C156.738 51.2977 156.634 53.3569 157.58 53.4453C158.526 53.5337 158.636 51.4797 157.778 51.3965Z" fill="#263238"/>
<path d="M157.341 51.5059C157.175 51.6047 156.998 51.7971 156.821 51.7971C156.645 51.7971 156.442 51.5683 156.301 51.3447C156.301 51.3447 156.27 51.3447 156.265 51.3447C156.234 51.7399 156.338 52.1559 156.712 52.2495C157.087 52.3431 157.326 52.0207 157.44 51.6307C157.461 51.5839 157.409 51.4799 157.341 51.5059Z" fill="#263238"/>
<path d="M162.068 52.312C162.068 52.312 162.12 52.3432 162.115 52.3692C162.073 53.0088 162.115 53.742 162.692 53.9812C162.692 53.9812 162.692 54.0176 162.692 54.0124C161.985 53.8876 161.922 52.9048 162.068 52.312Z" fill="#263238"/>
<path d="M162.666 51.667C163.706 51.6306 163.706 53.695 162.739 53.747C161.771 53.799 161.803 51.6982 162.666 51.667Z" fill="#263238"/>
<path d="M163.097 51.8024C163.259 51.9168 163.42 52.1144 163.617 52.1248C163.815 52.1352 164.013 51.9168 164.137 51.7036H164.169C164.169 52.0936 164.044 52.5044 163.649 52.5824C163.253 52.6604 163.051 52.312 162.957 51.9168C162.973 51.87 163.03 51.7608 163.097 51.8024Z" fill="#263238"/>
<path d="M159.261 55.2706C159.261 55.2706 159.167 56.2326 159.183 56.6798C159.183 56.7214 159.292 56.737 159.448 56.7422C159.836 56.798 160.232 56.746 160.592 56.5919C160.953 56.4379 161.264 56.1876 161.492 55.8686C161.497 55.8594 161.5 55.8484 161.498 55.8376C161.497 55.8267 161.492 55.8168 161.484 55.8094C161.476 55.802 161.465 55.7976 161.454 55.797C161.444 55.7964 161.433 55.7997 161.424 55.8062C160.866 56.2191 160.189 56.4399 159.495 56.4354C159.458 56.3158 159.713 54.8026 159.64 54.8026C159.294 54.8446 158.954 54.9338 158.632 55.0678C158.772 53.071 159.235 51.1106 159.349 49.1138C159.349 49.041 159.245 49.0254 159.23 49.1138C158.67 51.2022 158.322 53.3415 158.19 55.4994C158.174 55.7282 159.1 55.3538 159.261 55.2706Z" fill="#263238"/>
<path d="M159.484 56.576C159.754 56.9351 160.113 57.2181 160.524 57.3976C160.747 57.4943 160.995 57.5162 161.232 57.46C161.752 57.3352 161.752 56.8672 161.684 56.4668C161.634 56.2514 161.561 56.0422 161.466 55.8428C160.901 56.2935 160.206 56.5506 159.484 56.576Z" fill="#263238"/>
<path d="M160.504 57.3976C160.727 57.4943 160.975 57.5162 161.211 57.46C161.731 57.3352 161.731 56.8672 161.663 56.4668C161.394 56.4683 161.132 56.5611 160.921 56.7301C160.711 56.8991 160.564 57.1343 160.504 57.3976Z" fill="#FF9ABB"/>
<path d="M171.963 54.3656C171.35 54.0951 170.817 53.6695 170.417 53.1306C170.018 52.5918 169.766 51.9583 169.686 51.2924C168.017 50.6308 166.555 49.538 165.448 48.1256C165.521 48.318 166.025 49.6856 166.301 50.3928C160.305 49.4932 158.293 45.0004 158.293 45.0004C157.189 46.09 156.348 47.4166 155.833 48.8796C155.833 48.8796 155.656 45.2396 157.45 42.7124C158.028 41.8384 158.828 41.1344 159.769 40.6728C160.709 40.2112 161.756 40.0088 162.801 40.0864C164.261 39.6769 165.804 39.6685 167.268 40.062C168.732 40.4555 170.063 41.2363 171.121 42.3224C175.141 46.394 171.963 54.3656 171.963 54.3656Z" fill="#263238"/>
<path d="M161.737 49.5714C162.72 50.0701 163.771 50.4206 164.857 50.6114C163.165 50.2119 161.619 49.3494 160.39 48.1206C159.865 47.5977 159.41 47.0086 159.038 46.3682C158.602 45.6857 158.305 44.9242 158.164 44.127C158.164 44.0698 158.065 44.0802 158.071 44.127C158.124 44.9315 158.314 45.721 158.632 46.4618C158.975 47.1832 159.447 47.8354 160.026 48.3858C160.543 48.8702 161.126 49.2798 161.757 49.6026" fill="#263238"/>
<path d="M170.419 54.4074C170.419 54.4074 172.541 51.5318 173.851 52.2962C175.161 53.0606 173.513 57.2623 171.937 57.8031C171.741 57.8826 171.531 57.922 171.32 57.9192C171.108 57.9163 170.899 57.8711 170.706 57.7863C170.512 57.7015 170.337 57.5788 170.191 57.4254C170.046 57.272 169.932 57.091 169.857 56.8931L170.419 54.4074Z" fill="#EB9481"/>
<path d="M173.347 53.4871V53.5339C172.24 53.9447 171.642 54.9431 171.21 55.9831C171.276 55.8752 171.365 55.7831 171.471 55.7131C171.576 55.6431 171.696 55.5968 171.821 55.5775C171.946 55.5582 172.074 55.5664 172.195 55.6014C172.317 55.6364 172.43 55.6974 172.526 55.7803C172.552 55.7803 172.526 55.8427 172.494 55.8375C172.304 55.7701 172.097 55.7639 171.903 55.8199C171.71 55.8758 171.538 55.9911 171.413 56.1495C171.209 56.4144 171.035 56.7003 170.893 57.0023C170.836 57.1011 170.664 57.0439 170.7 56.9295C170.716 55.5099 171.85 53.5911 173.347 53.4871Z" fill="#263238"/>
<path d="M181.049 67.8908C188.371 75.5816 198.022 89.4396 197.263 92.7208C195.359 100.947 188.308 110.921 184.751 114.514C182.671 116.594 171.034 106.194 172.791 104.249C175.553 101.16 182.328 91.2492 183.113 89.944C183.535 89.2472 178.881 78.868 176.463 71.8168C173.831 64.152 177.482 64.1364 181.049 67.8908Z" fill="#EB9481"/>
<path d="M168.559 113.126C168.855 112.153 168.345 111.992 166.863 113.022C165.381 114.051 160.379 119.407 158.663 117.504C156.947 115.601 164.102 108.144 166.707 106.626C169.313 105.107 174.055 103.506 174.055 103.506C172.953 105.258 170.68 109.72 168.559 113.126Z" fill="#EB9481"/>
<path d="M185.817 112.996C182.536 117.754 178.735 123.874 172.817 126.614C172.173 126.933 171.441 127.028 170.737 126.885C168.111 128.159 166.718 127.301 166.718 127.301C163.905 127.743 162.599 126.666 162.599 126.666C162.599 126.666 159.479 128.133 158.299 126.406C156.952 124.472 161.57 122.766 163.551 120.312C168.08 114.634 172.911 105.294 174.071 103.526L185.817 112.996Z" fill="#EB9481"/>
<path d="M172.464 117.697C171.158 119.374 169.738 120.96 168.216 122.444C166.451 123.97 164.573 125.36 162.6 126.604C162.588 126.612 162.579 126.625 162.576 126.639C162.572 126.653 162.575 126.668 162.582 126.68C162.589 126.693 162.601 126.702 162.615 126.707C162.629 126.711 162.644 126.709 162.657 126.703C166.706 124.689 170.124 121.6 172.537 117.775C172.62 117.671 172.532 117.613 172.464 117.697Z" fill="#263238"/>
<path d="M176.286 119.932C174.866 121.461 172.36 124.129 166.666 127.244C166.666 127.244 166.666 127.285 166.666 127.28C170.504 125.797 173.855 123.277 176.343 120C176.442 119.896 176.38 119.834 176.286 119.932Z" fill="#263238"/>
<path d="M178.34 121.16C175.828 123.661 173.93 124.925 170.748 126.849C170.748 126.849 170.748 126.89 170.748 126.88C174.596 125.075 175.787 123.983 178.423 121.233C178.506 121.16 178.418 121.077 178.34 121.16Z" fill="#263238"/>
<path d="M188.157 114.327L173.223 102.154L182.343 89.9233C180.035 84.2397 175.427 72.8829 174.419 68.7177C173.243 63.8245 176.561 62.6909 180.326 66.1645C188.932 74.1153 199.477 89.9025 199.779 92.8145C200.221 96.9901 188.157 114.327 188.157 114.327Z" fill="#EBEBEB"/>
<path d="M188.298 110.39C187.518 109.47 183.707 106.23 182.75 105.456C181.793 104.681 177.841 101.618 176.853 100.812C176.801 100.765 176.723 100.812 176.775 100.874C177.737 101.691 181.455 105.034 182.407 105.851C183.358 106.667 187.196 109.818 188.251 110.437C188.258 110.443 188.266 110.447 188.275 110.447C188.284 110.447 188.292 110.443 188.298 110.437C188.304 110.431 188.308 110.423 188.308 110.414C188.308 110.405 188.304 110.397 188.298 110.39Z" fill="#263238"/>
<path d="M177.071 76.2891C178.631 80.1059 180.565 84.5103 182.063 88.3739C182.261 88.8553 182.434 89.3464 182.583 89.8455C182.606 89.9329 182.595 90.0261 182.551 90.1055C180.529 93.2255 177.897 96.3195 175.604 99.2575L173.228 102.143V102.107L173.607 102.461L173.191 102.149L175.401 99.1379C177.549 96.1583 180.113 92.9811 182.094 89.9339C182.094 89.9339 182.094 90.0431 182.094 89.9859C182.047 89.8195 181.985 89.6531 181.917 89.4659C180.331 85.1811 178.428 80.6935 177.081 76.3307L177.071 76.2891Z" fill="#263238"/>
<path d="M176.92 77.1938C177.352 77.745 177.684 78.395 178.08 78.967C177.57 78.4666 177.174 77.8617 176.92 77.1938Z" fill="#263238"/>
<path d="M186.291 112.808C186.946 113.276 187.586 113.76 188.231 114.238H188.064C190.732 110.234 193.358 106.194 195.828 102.065C196.639 100.682 197.429 99.2884 198.178 97.8584C197.587 99.3592 196.91 100.825 196.15 102.247C193.86 106.511 191.218 110.576 188.251 114.4L188.173 114.498C187.544 113.937 186.91 113.386 186.291 112.814V112.808Z" fill="#263238"/>
<path d="M108.035 62.3482C107.229 73.1902 108.628 90.8338 109.216 93.7978C109.855 97.0426 111.925 104.905 114.759 110.277C115.83 112.299 130.718 106.08 129.61 103.901C127.946 100.625 122.876 90.1942 122.595 89.4714C122.314 88.7486 116.808 71.0738 114.899 62.655C113.194 55.0214 108.467 56.6282 108.035 62.3482Z" fill="#AD6359"/>
<path d="M116.74 119.205C114.754 116.189 113.137 108.456 113.475 106.444C113.813 104.432 127.083 101.291 128.742 102.601C130.401 103.912 136.297 114.561 135.923 118.227C135.549 121.893 118.799 122.33 116.74 119.205Z" fill="#AD6359"/>
<path d="M130.068 104.245C130.068 104.245 131.899 106.288 135.944 107.365C139.413 108.269 143.479 108.888 143.011 110.698C142.054 114.405 132.226 113.053 132.226 113.053C132.226 113.053 126.782 110.973 127.401 107.214C127.527 106.521 127.844 105.876 128.315 105.352C128.786 104.828 129.393 104.445 130.068 104.245Z" fill="#AD6359"/>
<path d="M108.41 93.6001C110.313 100.667 113.371 109.632 113.371 109.632L130.011 102.17C130.011 102.17 122.7 87.8801 122.486 87.1781C122.003 85.7741 116.621 69.0665 114.629 60.9025C113.007 54.2829 107.973 54.7093 107.542 64.0641C107.157 72.3113 107.843 91.5201 108.41 93.6001Z" fill="#FFC300"/>
<path d="M126.718 99.1016C125.585 99.4136 121.253 101.301 120.161 101.785C119.069 102.268 114.795 104.385 113.729 104.905C113.677 104.931 113.729 105.009 113.781 104.988C114.893 104.541 125.741 99.788 126.744 99.1484C126.765 99.138 126.749 99.0912 126.718 99.1016Z" fill="#263238"/>
<path opacity="0.1" d="M126.038 104L113.371 109.663C113.371 109.663 110.313 100.703 108.41 93.6364C107.843 91.5304 107.157 72.3164 107.542 64.09C107.838 57.6316 110.329 55.432 112.378 56.8568C114.312 63.7208 122.57 92.0764 126.038 104Z" fill="black"/>
<path d="M134.253 245.092L131.112 245.284L126.599 170.222L117.093 156.593L112.559 81.1411L115.699 80.9487L120.182 155.517L129.687 169.151L134.253 245.092Z" fill="#A6A6A6"/>
<path d="M134.253 245.092L131.112 245.284L126.547 169.338L134.352 154.669L129.875 80.1011L133.016 79.9087L137.55 155.361L129.74 170.035L134.253 245.092Z" fill="#A6A6A6"/>
<path d="M133.908 115.841L116.592 116.882L116.781 120.022L134.097 118.981L133.908 115.841Z" fill="#A6A6A6"/>
<path d="M135.248 73.0757L109.523 74.6221L109.926 81.318L135.651 79.7716L135.248 73.0757Z" fill="#FFC300"/>
<path opacity="0.3" d="M135.248 73.0757L109.523 74.6221L109.926 81.318L135.651 79.7716L135.248 73.0757Z" fill="black"/>
<path d="M136.214 249.569L129.844 249.954L130.047 242.357L135.101 242.05L136.214 249.569Z" fill="#FFC300"/>
<path opacity="0.3" d="M136.214 249.569L129.844 249.954L130.047 242.357L135.101 242.05L136.214 249.569Z" fill="black"/>
<path d="M134.425 112.648C132.751 111.836 132.756 114.275 132.756 114.275C132.756 114.275 131.908 110.765 129.859 110.599C127.811 110.432 127.987 113.381 127.993 113.594C127.946 113.407 127.083 110.209 125.008 110.25C122.85 110.297 123.448 113.23 123.505 113.422C123.406 113.261 122.065 111.155 120.494 111.545C117.795 112.216 121.082 117.697 120.442 119.865L118.045 119.959C118.045 119.959 119.563 124.483 122.522 125.159C122.95 125.267 123.403 125.227 123.805 125.043C124.206 124.86 124.534 124.545 124.732 124.15C124.732 124.15 125.517 125.96 127.15 125.975C127.993 125.975 128.752 124.644 128.752 124.644C128.752 124.644 129.438 126.069 130.894 125.996C132.054 125.939 132.636 124.608 132.636 124.608C132.636 124.608 133.931 125.648 135.101 125.221C137.457 124.348 138.008 114.4 134.425 112.648Z" fill="#AD6359"/>
<path d="M132.762 124.421C132.762 124.427 132.764 124.434 132.769 124.439C132.774 124.444 132.781 124.447 132.788 124.447C132.795 124.447 132.801 124.444 132.806 124.439C132.811 124.434 132.814 124.427 132.814 124.421C133.844 121.065 133.827 117.476 132.767 114.13C132.731 114.026 132.543 114.041 132.564 114.161C133.127 117.553 133.194 121.009 132.762 124.421Z" fill="#263238"/>
<path d="M128.768 124.707C128.768 124.748 128.826 124.753 128.841 124.707C129.829 121.368 129.808 117.031 128.092 113.48C128.035 113.36 127.858 113.308 127.916 113.454C128.878 115.913 129.221 121.514 128.768 124.707Z" fill="#263238"/>
<path d="M123.302 113.214C124.81 116.683 125.06 120.286 124.784 124.025C124.784 124.072 124.846 124.072 124.862 124.025C125.496 122.236 125.424 119.834 125.21 117.972C125.046 116.239 124.429 114.578 123.422 113.157C123.38 113.105 123.266 113.142 123.302 113.214Z" fill="#263238"/>
<path d="M132.793 114.223C132.746 114.093 132.611 114.296 132.564 114.171C132.361 113.651 130.879 110.589 129.683 110.771C128.721 110.916 128.253 112.331 128.284 112.913L128.357 114.437L127.759 113.033C127.499 112.406 127.137 111.826 126.688 111.317C126.494 111.07 126.25 110.866 125.973 110.72C125.695 110.574 125.389 110.489 125.076 110.469C124.784 110.453 124.496 110.538 124.259 110.709C124.022 110.881 123.852 111.128 123.776 111.41C123.612 112.043 123.612 112.707 123.776 113.339L124.187 115.097L123.225 113.579C122.959 113.155 122.641 112.768 122.278 112.424C121.944 112.085 121.517 111.852 121.051 111.753C120.84 111.721 120.625 111.747 120.427 111.828C120.23 111.91 120.059 112.044 119.933 112.216C119.712 112.645 119.618 113.129 119.663 113.61C119.74 114.661 119.9 115.704 120.141 116.73C120.245 117.25 120.349 117.77 120.427 118.29C120.542 118.812 120.542 119.353 120.427 119.876C120.481 119.352 120.435 118.823 120.292 118.316C120.172 117.796 120.027 117.276 119.886 116.787C119.57 115.77 119.351 114.725 119.231 113.667C119.157 113.092 119.253 112.508 119.507 111.987C119.675 111.718 119.918 111.505 120.207 111.372C120.495 111.24 120.816 111.196 121.129 111.244C121.717 111.34 122.262 111.614 122.689 112.029C123.103 112.404 123.466 112.83 123.771 113.298L123.22 113.537C123.006 112.793 122.99 112.006 123.173 111.254C123.284 110.834 123.54 110.465 123.896 110.214C124.247 109.982 124.66 109.863 125.081 109.871C125.479 109.896 125.866 110.005 126.218 110.19C126.571 110.376 126.879 110.634 127.125 110.947C127.611 111.512 127.998 112.156 128.269 112.851L127.749 112.97C127.749 112.201 128.087 110.583 129.548 110.173C131.54 109.897 132.637 113.542 132.793 114.223Z" fill="#263238"/>
<path d="M132.756 114.276C132.829 113.899 132.959 113.536 133.141 113.199C133.212 113.063 133.317 112.948 133.447 112.865C133.577 112.783 133.726 112.737 133.879 112.731C134.218 112.768 134.54 112.902 134.805 113.116C135.107 113.334 135.413 113.584 135.72 113.854C135.576 113.467 135.355 113.113 135.07 112.814C134.768 112.465 134.34 112.251 133.879 112.216C133.628 112.222 133.385 112.306 133.183 112.456C132.996 112.606 132.855 112.806 132.777 113.033C132.637 113.434 132.629 113.87 132.756 114.276Z" fill="#263238"/>
<path d="M110.48 55.396C111.424 55.8495 112.256 56.5075 112.914 57.3224C113.573 58.1373 114.041 59.0886 114.286 60.1072C115.326 63.7472 117.053 82.02 117.926 85.7484C118.8 89.4768 123.833 106.678 123.833 106.678C123.833 106.678 118.269 111.655 116.689 112.643C114.484 114.016 106.809 115.882 106.809 115.882C106.809 115.882 107.802 90.47 107.448 87.7348C107.095 84.9996 110.48 55.396 110.48 55.396Z" fill="#FFC300"/>
<path d="M101.051 209.186C101.051 209.186 100.791 235.508 100.791 235.529C100.931 240.563 101.139 244.978 101.462 247.25C101.458 247.262 101.458 247.275 101.462 247.286C101.477 247.831 101.618 248.365 101.873 248.846C101.873 248.846 101.873 248.872 101.904 248.878C103.433 249.85 143.701 249.918 145.105 249.439C146.509 248.961 145.282 244.926 143.722 243.678C142.162 242.43 126.744 235.508 126.744 235.508V209.202L101.051 209.186Z" fill="#AD6359"/>
<path d="M100.859 230.126C100.859 230.126 100.807 235.508 100.807 235.529C100.947 240.563 101.155 244.978 101.477 247.25C101.473 247.262 101.473 247.275 101.477 247.286C101.553 247.821 101.691 248.344 101.888 248.846C101.888 248.846 101.888 248.872 101.919 248.878C103.448 249.85 143.717 249.918 145.121 249.439C146.525 248.961 145.298 244.926 143.738 243.678C142.178 242.43 126.76 235.508 126.76 235.508V230.007L100.859 230.126Z" fill="#EBEBEB"/>
<path d="M145.136 249.377C143.712 249.829 103.12 249.111 101.597 248.103C101.009 247.728 100.77 241.811 100.682 234.65V234.421L126.874 234.593V235.035C126.874 235.035 142.292 242.258 143.852 243.547C145.412 244.837 146.566 248.929 145.136 249.377Z" fill="#FFC300"/>
<path d="M144.705 247.791C137.867 247.505 110.255 246.985 103.475 247.219C103.417 247.219 103.417 247.26 103.475 247.265C110.235 247.697 137.862 247.993 144.705 247.905C144.851 247.905 144.851 247.801 144.705 247.791Z" fill="white"/>
<path d="M129.054 235.154C126.371 234.603 123.069 234.957 120.979 236.839C120.901 236.912 121.005 237.026 121.093 237C123.68 236.215 126.344 235.709 129.039 235.492C129.079 235.488 129.116 235.469 129.144 235.439C129.171 235.409 129.187 235.371 129.189 235.33C129.191 235.29 129.179 235.25 129.154 235.218C129.129 235.185 129.094 235.163 129.054 235.154Z" fill="#263238"/>
<path d="M130.978 236.361C128.295 235.81 124.993 236.163 122.903 238.046C122.82 238.119 122.929 238.233 123.017 238.207C125.604 237.421 128.268 236.916 130.963 236.699C131.003 236.694 131.04 236.675 131.068 236.645C131.095 236.616 131.111 236.577 131.113 236.537C131.115 236.496 131.103 236.456 131.078 236.424C131.053 236.392 131.018 236.37 130.978 236.361Z" fill="#263238"/>
<path d="M132.902 237.562C130.219 237.016 126.917 237.37 124.827 239.252C124.744 239.325 124.827 239.44 124.936 239.414C127.525 238.628 130.19 238.123 132.887 237.906C132.926 237.898 132.961 237.878 132.987 237.847C133.013 237.817 133.028 237.78 133.029 237.74C133.031 237.701 133.02 237.662 132.997 237.629C132.974 237.597 132.94 237.573 132.902 237.562Z" fill="#263238"/>
<path d="M145.782 247.931C146.505 248.222 146.302 250.661 145.782 250.848C145.262 251.035 101.005 250.058 100.251 249.876C99.4968 249.694 99.8296 247 100.703 246.875C101.577 246.751 145.782 247.931 145.782 247.931Z" fill="#455A64"/>
<path d="M107.303 239.086C104.385 237.562 102.014 242.097 104.937 243.62C107.859 245.144 110.22 240.615 107.303 239.086Z" fill="white"/>
<path d="M115.149 93.3297C115.181 93.2621 116.709 105.482 116.933 107.947C117.822 116.584 127.744 149.547 128.893 164.539C129.621 174.122 128.196 228.363 128.196 228.363H100.116C100.116 228.363 101.463 179.598 102.108 164.149C102.357 158.158 89.711 128.326 89.4718 109.751C89.399 103.896 89.3574 93.1997 89.3574 93.1997C89.3574 93.1997 115.16 93.3089 115.149 93.3297Z" fill="#37474F"/>
<path d="M126.151 222.815C124.519 222.602 112.08 222.17 101.67 222.618C101.602 222.618 101.607 222.716 101.67 222.722C105.06 223.023 124.222 223.153 126.11 222.935C126.198 222.93 126.224 222.826 126.151 222.815Z" fill="#263238"/>
<path d="M97.5775 95.6333C97.9103 103.433 97.7595 111.342 98.7943 119.085C102.569 133.619 107.837 147.763 112.013 162.193C112.193 162.859 112.258 163.55 112.205 164.237C112.143 166.863 112.033 169.473 111.935 172.089C111.607 181.22 110.936 194.194 110.489 203.434C110.198 208.634 109.938 213.881 109.621 219.107L110.104 203.419C110.473 191.979 111.144 175.615 111.461 164.227V163.28C111.279 162.346 111.036 161.426 110.733 160.524L109.579 156.78C105.762 143.936 101.056 131.3 98.1391 118.201C97.5047 110.703 97.6191 103.152 97.5723 95.6385L97.5775 95.6333Z" fill="#263238"/>
<path opacity="0.2" d="M102.097 164.149C102.346 158.158 89.7052 128.326 89.466 109.751C89.3932 103.901 89.3516 93.1997 89.3516 93.1997C89.3516 93.1997 115.149 93.3141 115.149 93.3245C115.149 93.3349 116.709 105.487 116.938 107.947C117.536 113.802 122.294 130.827 125.648 145.907L100.859 201.609C101.291 187.595 101.785 171.793 102.097 164.149Z" fill="black"/>
<path d="M58.5312 200.356L80.5376 214.183C80.5376 214.183 111.53 177.84 112.726 165.615C113.766 154.856 109.268 132.335 105.846 114.899C105.846 114.899 108.529 114.145 108.893 113.584C114.275 105.305 115.133 93.3037 115.133 93.3037L81.1357 93.179C81.1357 93.179 77.8388 104.271 77.1108 112.471C76.778 116.199 80.1788 123.297 80.4908 124.275C81.2344 126.599 85.6492 152.974 84.9888 158.231C84.3908 163.166 58.5312 200.356 58.5312 200.356Z" fill="#37474F"/>
<path d="M109.367 113.704C106.334 114.304 103.357 115.161 100.47 116.267C100.45 116.277 100.435 116.293 100.426 116.314C100.417 116.334 100.416 116.356 100.422 116.377C100.428 116.398 100.441 116.417 100.46 116.429C100.478 116.441 100.5 116.446 100.522 116.444C103.507 115.68 106.538 114.972 109.471 114.052C109.515 114.036 109.552 114.005 109.573 113.963C109.594 113.921 109.599 113.873 109.585 113.828C109.572 113.783 109.542 113.745 109.501 113.722C109.46 113.699 109.412 113.692 109.367 113.704Z" fill="#263238"/>
<path d="M113.021 95.1604C113.021 95.0616 112.86 95.02 112.845 95.1188C112.389 98.1613 111.774 101.178 111.004 104.156C110.666 105.545 108.331 113.132 105.913 112.206C105.507 112.05 105.351 111.618 105.393 110.994C105.517 110.198 105.741 109.421 106.059 108.68C106.579 107.094 107.052 105.498 107.442 103.876C108.192 100.867 108.62 97.7866 108.721 94.6872C108.721 94.6651 108.712 94.644 108.697 94.6284C108.681 94.6128 108.66 94.604 108.638 94.604C108.616 94.604 108.595 94.6128 108.579 94.6284C108.563 94.644 108.555 94.6651 108.555 94.6872C107.992 98.9359 107.1 103.134 105.887 107.245C105.268 109.216 103.765 112.102 105.887 112.731C108.009 113.36 110.25 108.483 110.733 107.131C112.026 103.26 112.795 99.2346 113.021 95.1604Z" fill="#263238"/>
<path d="M105.945 112.424C105.645 112.916 105.376 113.424 105.139 113.948C104.915 114.347 104.769 114.784 104.707 115.238C104.709 115.256 104.716 115.274 104.727 115.288C104.738 115.303 104.753 115.314 104.771 115.321C104.788 115.327 104.807 115.329 104.825 115.325C104.843 115.322 104.86 115.313 104.873 115.3C105.193 114.942 105.456 114.537 105.653 114.099C105.919 113.626 106.173 113.163 106.444 112.684C106.61 112.367 106.137 112.123 105.945 112.424Z" fill="#263238"/>
<path d="M96.5129 96.4185C96.5129 96.3561 96.4141 96.3665 96.4089 96.4185C95.9669 98.8313 95.6705 101.343 94.3965 103.496C93.2317 105.466 91.3025 106.688 89.1965 107.51C87.984 107.968 86.7481 108.362 85.4941 108.69C85.4057 108.69 85.4161 108.857 85.4941 108.841C87.8341 108.462 90.2209 108.025 92.2905 106.808C94.5109 105.508 95.7225 103.329 96.1853 100.844C96.4477 99.384 96.5575 97.9009 96.5129 96.4185Z" fill="#263238"/>
<path d="M84.3545 94.9366C83.3717 99.6166 82.4149 104.333 81.7545 109.081C81.5673 110.828 81.2345 112.637 81.4737 114.379C82.0717 117.317 83.3249 120.099 84.5677 122.809C86.5749 133.209 88.5717 143.609 90.0433 154.133C90.2519 155.473 90.3511 156.828 90.3397 158.184C89.7417 160.41 88.3949 162.251 87.3029 164.211C79.8825 176.259 71.7029 187.767 63.4141 199.233C71.2817 187.512 79.3261 175.89 86.6841 163.842C87.7241 161.985 89.0137 160.113 89.5961 158.096C89.5856 156.802 89.4796 155.51 89.2789 154.232C87.8437 143.749 85.8521 133.339 83.9905 122.918C82.965 120.76 82.1096 118.526 81.4321 116.236C81.0472 115.063 80.8884 113.828 80.9641 112.596C81.4841 106.605 82.9817 100.755 84.3545 94.9158V94.9366Z" fill="#263238"/>
<path d="M65.0729 189.083L51.0745 211.146C48.5889 215.53 46.4881 219.414 45.5937 221.546C45.5913 221.552 45.59 221.558 45.59 221.564C45.59 221.571 45.5913 221.577 45.5937 221.583C45.326 222.061 45.173 222.595 45.1465 223.143C45.1465 223.143 45.1465 223.143 45.1465 223.184C45.9525 224.807 80.3869 245.679 81.8377 246.007C83.2885 246.335 84.3181 242.232 83.6265 240.355C82.9349 238.477 73.2993 224.547 73.2993 224.547L88.8993 204.615L65.0729 189.083Z" fill="#EBEBEB"/>
<path d="M51.8136 209.779C51.564 209.508 54.554 205.53 54.7048 205.499C54.8556 205.468 60.2272 212.233 64.3976 214.22C68.568 216.206 77.0596 219.451 77.2312 219.56C77.4028 219.669 74.0124 223.954 73.872 224.037C73.7316 224.12 60.5392 219.44 51.8136 209.779Z" fill="#EBEBEB"/>
<path d="M51.8136 209.779C51.7772 209.618 51.8916 209.462 51.9592 209.316C52.7266 208.015 53.596 206.777 54.5592 205.614C54.6268 205.556 54.684 205.411 54.7776 205.52C57.1904 208.151 59.65 210.897 62.5776 212.961C64.7824 214.485 67.3772 215.28 69.8212 216.336C71.0432 216.825 74.236 218.104 75.4268 218.562C76.0144 218.801 76.7684 219.082 77.3664 219.336L77.4236 219.383C77.5952 219.602 77.4652 219.726 77.3924 219.877C77.3196 220.028 77.0544 220.397 76.9556 220.527C76.3732 221.312 75.7284 222.17 75.1148 222.924C74.9016 223.184 74.3608 223.855 74.1476 224.1C74.1174 224.149 74.0756 224.191 74.0258 224.221C73.976 224.251 73.9196 224.268 73.8616 224.271C73.8148 224.271 73.8356 224.271 73.8148 224.271H73.7004C65.4051 221.174 57.9239 216.229 51.824 209.81L51.8136 209.779ZM51.8136 209.779C57.7936 216.232 65.63 220.85 73.8668 223.819C73.826 223.82 73.7863 223.832 73.7524 223.855C73.9812 223.595 74.5064 222.924 74.73 222.649C75.4736 221.687 76.29 220.668 76.94 219.638L76.9816 219.555C76.9816 219.555 76.9816 219.518 76.9816 219.602C76.9837 219.663 77.0076 219.722 77.0492 219.768C77.1324 219.83 77.0492 219.768 77.0804 219.794C73.6172 218.385 69.3532 216.705 65.9732 215.15C61.3868 213.304 58.1732 209.332 54.9388 205.764L54.7672 205.582C54.7204 205.546 54.7672 205.541 54.6996 205.582L54.6112 205.671C53.6415 206.816 52.7619 208.035 51.98 209.316C51.9176 209.462 51.798 209.618 51.8344 209.779H51.8136Z" fill="#C7C7C7"/>
<path d="M78.4468 231.686C78.8108 231.686 81.312 235.804 81.2236 235.934C81.1352 236.064 80.0848 235.446 75.5972 236.527C70.5376 237.744 69.118 239.086 68.9204 239.127C68.7228 239.169 64.1364 236.101 64.178 235.945C64.2196 235.789 67.5788 231.228 78.4468 231.686Z" fill="#EBEBEB"/>
<path d="M78.4467 231.686C78.6186 231.795 78.7657 231.938 78.8783 232.107C79.7294 233.253 80.4958 234.459 81.1716 235.716C81.2132 235.805 81.3276 235.992 81.1404 235.976C78.0204 235.706 74.9004 236.839 71.978 237.848C70.9887 238.22 70.0435 238.699 69.1595 239.278C69.0889 239.329 69.0067 239.361 68.9204 239.372C68.7694 239.348 68.6256 239.291 68.4992 239.205C67.0887 238.366 65.7244 237.451 64.412 236.465C64.2508 236.309 63.892 236.143 63.9596 235.857C67.1316 231.972 73.7667 231.509 78.4467 231.697V231.686ZM78.4467 231.686C73.5795 231.551 67.7556 232.263 64.4068 236.013C64.4205 235.984 64.4277 235.953 64.4277 235.922C64.4277 235.89 64.4205 235.859 64.4068 235.831C64.4342 235.859 64.4637 235.885 64.4952 235.909C65.842 236.949 67.688 238.072 68.936 238.878H68.8839C69.8165 238.285 70.8124 237.798 71.8532 237.427C74.838 236.444 78.0151 235.586 81.1767 235.924H81.2339C81.2138 235.862 81.1894 235.801 81.1611 235.742C80.4968 234.477 79.7426 233.26 78.9044 232.102C78.7937 231.932 78.6484 231.787 78.478 231.676L78.4467 231.686Z" fill="#C7C7C7"/>
<path d="M57.3136 199.872C57.064 199.597 60.0644 195.577 60.2152 195.546C60.366 195.515 67.4952 201.677 71.2548 204.422C74.8948 207.1 83.8492 211.182 84.0156 211.286C84.182 211.39 80.7916 215.727 80.6512 215.81C80.5108 215.894 66.0652 209.659 57.3136 199.872Z" fill="#EBEBEB"/>
<path d="M57.3137 199.873C57.3761 199.259 58.0001 198.573 58.3173 198.027C58.8373 197.231 59.4405 196.425 60.0541 195.676L60.1425 195.577C60.159 195.557 60.1783 195.54 60.1997 195.525C60.5304 195.721 60.8405 195.949 61.1253 196.207C64.9889 199.28 68.7225 202.634 72.8773 205.301C76.4809 207.433 80.3393 209.248 84.1197 211.047H84.1561C84.1561 211.016 84.3121 211.245 84.2809 211.24C84.285 211.273 84.285 211.306 84.2809 211.339C84.1065 211.711 83.8864 212.06 83.6257 212.379C82.8041 213.491 81.8837 214.677 81.0257 215.748C80.9997 215.785 80.9113 215.868 80.8853 215.904L80.8489 215.941C80.8021 215.941 80.8801 215.941 80.7137 216.008C80.5777 216.002 80.4446 215.967 80.3237 215.904L79.8037 215.696C71.4837 211.796 63.5641 206.638 57.3241 199.836L57.3137 199.873ZM57.3137 199.873C63.7409 206.815 72.0505 211.833 80.6773 215.577H80.6045C80.4537 215.634 80.5369 215.613 80.5005 215.629C80.5733 215.571 81.2025 214.75 81.2805 214.661C82.1609 213.576 82.9853 212.446 83.7505 211.276C83.7505 211.245 83.7505 211.276 83.7505 211.276C83.7476 211.299 83.7476 211.321 83.7505 211.344C83.7141 211.344 83.8545 211.547 83.8545 211.51L83.7349 211.453C78.7429 208.999 73.5429 206.659 69.2477 203.065C66.2161 200.647 63.2781 198.016 60.2413 195.603H60.2049C60.1886 195.612 60.1744 195.625 60.1633 195.64L60.0749 195.733C59.4561 196.482 58.8685 197.293 58.3173 198.068C57.9949 198.588 57.3709 199.29 57.2773 199.904L57.3137 199.873Z" fill="#C7C7C7"/>
<path d="M73.4087 224.567C73.7623 224.677 76.8823 228.816 76.7887 228.941C76.6951 229.065 71.3443 228.124 66.7319 227.901C60.8403 227.609 53.2119 229.107 53.0039 229.143C52.7959 229.18 46.3219 224.666 46.3635 224.51C46.4051 224.354 58.5783 220.007 73.4087 224.567Z" fill="#EBEBEB"/>
<path d="M73.4085 224.567C74.5833 225.789 75.6466 227.114 76.5857 228.525L76.7261 228.738L76.7885 228.852C76.7906 228.873 76.7906 228.894 76.7885 228.915C76.7948 228.923 76.7983 228.933 76.7983 228.943C76.7983 228.954 76.7948 228.964 76.7885 228.972C76.6059 228.98 76.423 228.969 76.2425 228.941L74.2249 228.696C71.5313 228.379 68.8325 228.093 66.1285 228.041C61.7363 228.073 57.3571 228.524 53.0505 229.388C52.8633 229.424 52.5981 229.201 52.4265 229.112C50.4193 227.828 48.4797 226.45 46.5765 225.015L46.3737 224.853L46.2697 224.76L46.2073 224.697L46.1813 224.666C46.1584 224.633 46.1424 224.596 46.1345 224.557C46.1255 224.505 46.1333 224.452 46.1567 224.406C46.1801 224.359 46.2179 224.321 46.2645 224.297C46.5917 224.15 46.9288 224.027 47.2733 223.928C50.5541 223.003 53.938 222.492 57.3457 222.409C62.7826 222.234 68.2108 222.963 73.4085 224.567ZM73.4085 224.567C64.7505 221.967 55.1045 221.791 46.5089 224.692C46.5436 224.67 46.5706 224.637 46.5864 224.599C46.6022 224.561 46.606 224.519 46.5973 224.479C46.5661 224.365 46.5973 224.417 46.5661 224.396C48.3393 225.789 50.3829 227.115 52.2497 228.389C52.4681 228.535 52.8061 228.759 53.0297 228.878C52.9973 228.87 52.9634 228.87 52.9309 228.878C57.2713 228.023 61.6897 227.628 66.1129 227.698C68.8377 227.823 71.5261 228.218 74.2093 228.592L76.2217 228.868C76.3937 228.895 76.5677 228.907 76.7417 228.904C76.7409 228.887 76.7409 228.869 76.7417 228.852C76.5077 228.452 76.2217 228.072 75.9617 227.698C75.1974 226.579 74.3417 225.524 73.4033 224.547L73.4085 224.567Z" fill="#C7C7C7"/>
<path d="M52.8111 207.61C52.5667 207.34 55.5567 203.362 55.7075 203.331C55.8583 203.3 62.7171 208.198 66.8875 210.184C71.0579 212.171 80.9587 215.14 81.1251 215.249C81.2915 215.358 77.9115 219.643 77.7711 219.726C77.6307 219.81 61.5419 217.293 52.8111 207.61Z" fill="#EBEBEB"/>
<path d="M52.8118 207.61C52.7806 207.439 52.9002 207.278 52.973 207.122C53.6001 206.066 54.2949 205.051 55.053 204.085C55.1986 203.887 55.469 203.565 55.6302 203.372C55.6302 203.341 55.7134 203.284 55.755 203.326C56.0878 203.502 56.3582 203.7 56.6598 203.887L58.4122 205.047C61.9482 207.304 65.479 209.638 69.4362 211.074C73.0242 212.405 76.7422 213.585 80.3926 214.714C80.6058 214.786 81.0478 214.906 81.2662 215.01C81.2662 215.01 81.313 215.01 81.3598 215.109C81.3804 215.149 81.3911 215.194 81.3911 215.239C81.3911 215.284 81.3804 215.329 81.3598 215.369C80.9702 216.035 80.5286 216.67 80.039 217.267C79.3266 218.156 78.6714 219.082 77.8862 219.908C77.7606 219.929 77.6323 219.929 77.5066 219.908C76.5862 219.773 75.6814 219.576 74.7766 219.388C66.675 217.345 58.5838 213.804 52.8066 207.6L52.8118 207.61ZM52.8118 207.61C59.1038 214.282 68.0998 217.667 76.9346 219.378C77.1582 219.43 77.4234 219.435 77.621 219.487V219.513C78.7659 218.159 79.8403 216.746 80.8398 215.28C80.9178 215.13 80.8398 215.28 80.9074 215.374C80.9254 215.404 80.9504 215.429 80.9802 215.447H80.9438L80.7306 215.374C75.5982 213.637 70.2786 212.166 65.4842 209.597C63.0246 208.224 60.695 206.664 58.3654 205.099L56.6234 203.929C56.3322 203.736 56.0358 203.528 55.7498 203.362C55.7134 203.326 55.6978 203.362 55.6614 203.393C55.4846 203.56 55.235 203.913 55.0738 204.1C54.3186 205.062 53.624 206.069 52.9938 207.116C52.9262 207.267 52.8014 207.428 52.8326 207.6L52.8118 207.61Z" fill="#C7C7C7"/>
<path d="M76.3154 228.686C76.6846 228.686 79.789 232.929 79.6954 233.059C79.6018 233.189 76.5754 232.539 72.0878 233.621C69.309 234.273 66.5995 235.19 63.9966 236.361C63.799 236.398 59.2126 233.34 59.2542 233.179C59.2958 233.018 65.4474 228.228 76.3154 228.686Z" fill="#EBEBEB"/>
<path d="M76.3147 228.686C77.0687 229.237 77.5835 230.095 78.1815 230.813C78.6027 231.359 79.0395 231.972 79.4295 232.544C79.5321 232.691 79.6259 232.844 79.7103 233.002C79.7138 233.019 79.7138 233.037 79.7103 233.054C79.7103 233.095 79.6687 233.09 79.6583 233.095C74.4011 232.653 69.2583 234.359 64.5107 236.408C64.3495 236.46 64.0583 236.663 63.8867 236.595C62.2003 235.669 60.5994 234.595 59.1027 233.387C59.0727 233.356 59.0481 233.321 59.0299 233.283C59.0135 233.23 59.0135 233.174 59.0299 233.121C59.0819 233.013 59.1629 232.921 59.2639 232.856C64.1883 229.44 70.4387 228.478 76.3147 228.696V228.686ZM76.3147 228.686C70.6831 228.478 64.8747 229.726 60.1115 232.809C59.8793 232.967 59.6586 233.141 59.4511 233.329C59.5135 233.277 59.4823 233.111 59.4511 233.09C60.9162 234.199 62.4479 235.216 64.0375 236.137C64.0375 236.137 63.9023 236.137 63.9491 236.137C64.5055 235.903 65.0723 235.654 65.6339 235.43C70.0747 233.693 74.9055 232.565 79.6739 233.075C79.471 232.703 79.2434 232.345 78.9927 232.003C78.1451 230.891 77.3911 229.606 76.3147 228.712V228.686Z" fill="#C7C7C7"/>
<path d="M78.1976 96.2625C78.2548 96.3769 116.75 103.725 117.166 103.439C117.203 103.439 117.931 102.445 118.16 99.5125C118.222 98.7065 117.016 95.3005 116.891 92.7525C116.464 83.8137 116.184 67.1997 113.412 58.3753C112.668 55.9989 107.406 53.4509 104.634 55.3021C92.1752 63.6273 78.1196 96.1169 78.1976 96.2625Z" fill="#EBEBEB"/>
<path d="M106.511 54.5222C106.511 54.5222 105.825 73.6166 105.409 75.8422C105.117 77.4022 101.431 93.101 99.6574 104.416C98.8982 109.263 99.6262 116.813 99.6262 116.813C99.6262 116.813 86.3246 113.048 82.1958 110.459C79.7986 108.961 74.3438 102.321 74.3438 102.321C74.3438 102.321 81.9566 83.5174 86.413 76.4142C90.8694 69.311 99.4442 56.961 103.599 55.0474C105.492 54.1842 106.511 54.5222 106.511 54.5222Z" fill="#FFC300"/>
<path d="M111.905 63.4662C109.721 63.279 107.105 58.0062 106.554 55.0422C106.518 54.8394 107.163 53.7422 108.114 51.5946C108.681 50.2842 109.284 48.8178 109.737 47.4346L117.698 52.3746C116.629 53.9347 115.756 55.6199 115.098 57.3926C115.038 57.5841 114.996 57.7808 114.973 57.9802C114.975 58.0131 114.975 58.0461 114.973 58.079C114.801 59.2178 114.016 63.643 111.905 63.4662Z" fill="#AD6359"/>
<path d="M114.244 59.3843C114.4 59.4415 114.556 59.4883 114.701 59.5299C114.842 58.9163 114.93 58.3859 114.977 58.0843C114.974 58.0515 114.974 58.0184 114.977 57.9855C115.003 57.7866 115.044 57.5901 115.102 57.3979C115.76 55.6253 116.633 53.9401 117.702 52.3799L109.735 47.4399C109.642 47.7259 109.543 48.0171 109.434 48.3135C109.049 51.3815 109.018 57.5487 114.244 59.3843Z" fill="#263238"/>
<path d="M108.95 39.6503C107.629 42.7703 108.342 52.2135 110.406 54.5223C113.396 57.8711 118.789 58.7343 121.758 55.0423C124.633 51.4491 123.489 39.1459 121.139 36.9931C117.676 33.8003 110.9 35.0639 108.95 39.6503Z" fill="#AD6359"/>
<path d="M122.641 40.6694C119.48 43.2954 114.264 40.737 114.264 40.737C113.422 43.4722 111.035 42.8898 111.035 42.8898C111.035 42.8898 110.9 48.667 109.397 48.7918C107.099 48.9894 105.669 41.2674 106.277 39.671C106.885 38.0746 108.768 37.5026 108.768 37.5026C108.894 36.5553 109.378 35.6921 110.12 35.0898C111.576 33.743 117.129 34.8558 117.129 34.8558C117.373 34.1053 117.788 33.4217 118.341 32.859C118.474 32.7167 118.635 32.6033 118.814 32.5257C118.993 32.4481 119.186 32.4081 119.381 32.4081C119.576 32.4081 119.769 32.4481 119.948 32.5257C120.127 32.6033 120.288 32.7167 120.421 32.859C120.174 33.307 120.03 33.8044 120 34.315C119.885 36.0154 121.253 35.875 121.097 34.3722C121.062 33.8026 120.822 33.2649 120.421 32.859C121.003 31.819 122.075 31.3822 122.792 31.8502C124.045 32.6978 125.267 38.4802 122.641 40.6694Z" fill="#263238"/>
<path d="M110.547 41.1165C110.541 41.0979 110.527 41.0825 110.51 41.0737C110.492 41.065 110.472 41.0635 110.453 41.0697C110.435 41.0759 110.419 41.0893 110.411 41.1068C110.402 41.1244 110.4 41.1447 110.407 41.1633C110.761 42.2809 110.983 43.4363 111.067 44.6057C111.098 45.7653 110.76 48.7189 109.07 48.5369C109.054 48.5369 109.038 48.5435 109.026 48.5552C109.014 48.5669 109.008 48.5828 109.008 48.5993C109.008 48.6159 109.014 48.6317 109.026 48.6434C109.038 48.6551 109.054 48.6617 109.07 48.6617C110.209 49.0829 110.833 47.6217 111.103 46.5817C111.561 44.7877 111.155 42.8481 110.547 41.1165Z" fill="#263238"/>
<path d="M122.647 31.7827C124.592 33.6807 125.294 36.5667 123.905 38.9691C122.158 41.9955 117.889 40.5291 115.331 39.5359C115.206 39.4839 115.102 39.6555 115.232 39.7075C117.723 40.7475 122.049 42.1255 123.916 39.3539C125.569 36.9203 124.821 33.7067 122.647 31.7827Z" fill="#263238"/>
<path d="M117.822 35.277C114.853 33.8158 109.133 32.677 108.764 37.4714C108.764 37.5078 108.831 37.513 108.836 37.4714C109.471 32.6666 114.764 34.3046 117.775 35.3914C117.848 35.4278 117.89 35.3134 117.822 35.277Z" fill="#263238"/>
<path d="M117.687 47.0708C117.687 47.0708 117.64 47.102 117.64 47.128C117.64 47.7572 117.588 48.48 117.021 48.688C117.021 48.688 117.021 48.7296 117.021 48.7244C117.723 48.6256 117.812 47.6636 117.687 47.0708Z" fill="#263238"/>
<path d="M117.119 46.4206C116.11 46.353 116.048 48.381 116.984 48.4434C117.92 48.5058 117.972 46.4778 117.119 46.4206Z" fill="#263238"/>
<path d="M121.217 47.0601C121.217 47.0601 121.264 47.0913 121.264 47.1173C121.222 47.7465 121.264 48.4693 121.846 48.6773C121.846 48.6773 121.846 48.7137 121.846 48.7085C121.139 48.6149 121.077 47.6477 121.217 47.0601Z" fill="#263238"/>
<path d="M121.799 46.4207C122.808 46.3739 122.839 48.4071 121.887 48.4487C120.936 48.4903 120.946 46.4571 121.799 46.4207Z" fill="#263238"/>
<path d="M116.08 45.4171C116.308 45.2611 116.544 45.1171 116.787 44.9855C117.015 44.7949 117.301 44.6868 117.598 44.6787C117.692 44.6924 117.778 44.7373 117.843 44.8062C117.909 44.8751 117.949 44.9639 117.957 45.0583C117.95 45.2481 117.891 45.4323 117.786 45.5909C117.682 45.7494 117.536 45.8764 117.364 45.9579C117.047 46.1826 116.658 46.2808 116.272 46.2335C116.184 46.2176 116.103 46.1764 116.039 46.1151C115.974 46.0538 115.929 45.9749 115.909 45.8883C115.888 45.8016 115.894 45.7109 115.924 45.6272C115.954 45.5435 116.008 45.4705 116.08 45.4171Z" fill="#263238"/>
<path d="M122.959 44.944C122.709 44.8206 122.452 44.7129 122.189 44.6216C121.934 44.4714 121.636 44.4093 121.342 44.4448C121.252 44.4751 121.175 44.5335 121.122 44.6113C121.068 44.6891 121.041 44.7821 121.045 44.8764C121.084 45.0619 121.172 45.2338 121.299 45.3745C121.426 45.5151 121.588 45.6196 121.768 45.6772C122.117 45.849 122.518 45.8843 122.891 45.776C122.974 45.7465 123.047 45.6936 123.101 45.6237C123.155 45.5538 123.187 45.4698 123.194 45.3819C123.201 45.294 123.183 45.2059 123.141 45.1282C123.099 45.0505 123.036 44.9866 122.959 44.944Z" fill="#263238"/>
<path d="M116.689 52.484C116.803 52.6608 116.902 52.8948 117.12 52.9624C117.35 53.0118 117.588 53.0118 117.817 52.9624C117.817 52.9624 117.848 52.9624 117.817 52.9988C117.702 53.0992 117.562 53.1666 117.412 53.1941C117.262 53.2216 117.107 53.208 116.964 53.1548C116.847 53.0924 116.751 52.9972 116.687 52.8808C116.623 52.7644 116.595 52.6319 116.606 52.4996C116.621 52.4632 116.673 52.458 116.689 52.484Z" fill="#263238"/>
<path d="M117.536 50.7005C117.687 50.9548 117.889 51.175 118.13 51.3468C118.371 51.5187 118.645 51.6386 118.935 51.6989C119.187 51.7546 119.446 51.7739 119.704 51.7561C119.8 51.761 119.895 51.761 119.99 51.7561C120.023 51.7499 120.054 51.7336 120.077 51.7093C120.1 51.6851 120.115 51.6541 120.12 51.6209V50.2429C120.292 50.3365 121.16 50.7629 121.16 50.5185C121.172 48.3343 120.961 46.1547 120.531 44.0133C120.531 43.9981 120.525 43.9835 120.514 43.9728C120.504 43.9621 120.489 43.9561 120.474 43.9561C120.459 43.9561 120.444 43.9621 120.434 43.9728C120.423 43.9835 120.417 43.9981 120.417 44.0133C120.417 46.0309 120.729 48.0381 120.739 50.0609C120.421 49.9042 120.084 49.7906 119.736 49.7229C119.699 49.7229 119.777 51.3765 119.772 51.3869C119.374 51.4164 118.975 51.3648 118.597 51.2352C118.22 51.1056 117.873 50.9007 117.578 50.6329C117.552 50.6121 117.5 50.6537 117.536 50.7005Z" fill="#263238"/>
<path d="M106.579 44.2001C106.454 44.1689 106.059 41.7301 106.059 40.6329C106.059 40.2533 111.945 42.1929 122.844 40.2637C122.844 40.2637 123.432 43.4773 123.271 43.5865C122.277 44.2729 113.027 45.6561 106.579 44.2001Z" fill="#C7C7C7"/>
<path d="M106.652 45.3596C106.527 45.3284 105.981 42.874 106.007 41.7768C106.007 41.3972 109.933 42.7336 123.052 40.2168C123.052 40.2168 123.141 40.2168 123.193 40.5132C123.245 40.8096 123.713 43.6332 123.567 43.7268C122.548 44.4184 113.079 46.8 106.652 45.3596Z" fill="#EBEBEB"/>
<path d="M110.62 47.6844C110.62 47.6844 108.774 44.502 107.344 45.1312C105.914 45.7604 107.126 50.2584 108.675 50.9916C108.868 51.0994 109.08 51.167 109.299 51.1905C109.519 51.214 109.741 51.1927 109.951 51.1281C110.162 51.0635 110.358 50.9568 110.527 50.8144C110.695 50.6721 110.833 50.4971 110.932 50.3L110.62 47.6844Z" fill="#AD6359"/>
<path d="M107.723 46.4102C107.723 46.4102 107.692 46.4414 107.723 46.4518C108.804 47.003 109.283 48.095 109.626 49.213C109.571 49.0949 109.491 48.9902 109.391 48.9061C109.292 48.822 109.175 48.7605 109.05 48.7258C108.924 48.6912 108.793 48.6843 108.664 48.7056C108.535 48.7268 108.413 48.7758 108.305 48.849C108.3 48.8522 108.295 48.8568 108.292 48.8622C108.289 48.8677 108.288 48.8739 108.288 48.8802C108.288 48.8864 108.289 48.8926 108.292 48.8981C108.295 48.9035 108.3 48.9081 108.305 48.9114C108.508 48.8665 108.72 48.8854 108.912 48.9654C109.103 49.0455 109.266 49.1828 109.376 49.3586C109.56 49.6535 109.712 49.9673 109.829 50.2946C109.87 50.3986 110.058 50.3622 110.026 50.2426C110.026 50.2426 110.026 50.2426 110.026 50.2114C110.188 48.7866 109.246 46.6858 107.723 46.4102Z" fill="#263238"/>
<path d="M106.773 246.038L103.632 246.225L99.1181 171.169L89.6125 157.534L85.0781 82.0822L88.2189 81.895L92.7013 156.463L102.207 170.092L106.773 246.038Z" fill="#A6A6A6"/>
<path d="M106.771 246.038L103.63 246.225L99.0645 170.285L106.87 155.61L102.392 81.0422L105.533 80.855L110.068 156.307L102.257 170.976L106.771 246.038Z" fill="#A6A6A6"/>
<path d="M106.427 119.19L89.1113 120.23L89.3001 123.371L106.616 122.33L106.427 119.19Z" fill="#A6A6A6"/>
<path d="M107.764 74.021L82.0391 75.5674L82.4416 82.2633L108.166 80.7169L107.764 74.021Z" fill="#FFC300"/>
<path opacity="0.3" d="M107.764 74.021L82.0391 75.5674L82.4416 82.2633L108.166 80.7169L107.764 74.021Z" fill="black"/>
<path d="M108.731 250.515L102.361 250.9L102.564 243.298L107.619 242.996L108.731 250.515Z" fill="#FFC300"/>
<path opacity="0.3" d="M108.731 250.515L102.361 250.9L102.564 243.298L107.619 242.996L108.731 250.515Z" fill="black"/>
<path d="M98.4775 61.0273C93.1163 70.8137 87.4483 87.0793 87.2403 90.1733C87.0115 93.5585 86.9595 101.894 88.3167 107.957C88.8367 110.245 104.998 107.931 104.494 105.482C103.735 101.801 101.53 90.1317 101.447 89.3621C101.364 88.5925 104.905 70.6421 105.269 61.8021C105.602 53.7525 100.506 57.3249 98.4775 61.0273Z" fill="#AD6359"/>
<path d="M108.072 126.282C106.579 127.223 105.186 126.043 105.186 126.043C104.801 126.833 104.151 127.464 103.35 127.827C101.905 128.399 100.376 126.386 100.376 126.386C99.8019 127.117 99.0235 127.66 98.1399 127.946C96.7047 128.357 94.8743 126.547 94.8743 126.547C93.9735 126.933 92.9643 126.983 92.0299 126.688C89.5703 125.804 88.7227 121.899 88.1611 119.408C87.5995 116.917 88.3223 109.382 88.3171 107.926L104.177 104.177C104.177 104.177 109.861 114.577 110.11 117.572C110.318 120.12 109.751 125.227 108.072 126.282Z" fill="#AD6359"/>
<path d="M105.414 125.872C105.835 123.126 105.414 120.406 105.17 117.666C105.17 117.654 105.165 117.642 105.156 117.633C105.147 117.624 105.135 117.619 105.123 117.619C105.111 117.619 105.099 117.624 105.09 117.633C105.081 117.642 105.076 117.654 105.076 117.666C105.362 120.386 105.076 123.131 105.279 125.856C105.277 125.874 105.282 125.892 105.293 125.906C105.304 125.92 105.321 125.929 105.339 125.931C105.357 125.933 105.375 125.928 105.389 125.917C105.403 125.906 105.412 125.889 105.414 125.872Z" fill="#263238"/>
<path d="M100.574 126.287C100.611 125.655 100.563 125.02 100.434 124.4C100.335 123.734 100.231 123.074 100.111 122.413C99.8773 121.087 99.5913 119.772 99.3053 118.461C99.3053 118.404 99.2013 118.409 99.2117 118.461C99.4457 119.782 99.6589 121.103 99.8357 122.429C99.9241 123.095 100.002 123.76 100.08 124.426C100.113 125.06 100.218 125.688 100.392 126.298C100.401 126.315 100.414 126.33 100.431 126.34C100.448 126.35 100.467 126.354 100.487 126.353C100.506 126.352 100.525 126.345 100.54 126.334C100.556 126.322 100.568 126.306 100.574 126.287Z" fill="#263238"/>
<path d="M94.8646 126.506C94.8877 125.932 94.8139 125.359 94.6462 124.811C94.5266 124.213 94.4122 123.609 94.2978 123.006C94.069 121.805 93.8454 120.599 93.6634 119.366C93.6634 119.304 93.5594 119.314 93.5646 119.366C93.7466 120.599 93.913 121.831 94.0846 123.063C94.1782 123.667 94.2718 124.27 94.3758 124.873C94.4152 125.43 94.5525 125.976 94.7814 126.485C94.7787 126.496 94.7804 126.508 94.7863 126.517C94.7921 126.527 94.8016 126.534 94.8126 126.537C94.8237 126.54 94.8353 126.538 94.8451 126.532C94.8549 126.526 94.8619 126.517 94.8646 126.506Z" fill="#263238"/>
<path d="M86.502 89.7833C86.502 97.2869 87.1208 106.975 87.1208 106.975L105.357 103.891C105.357 103.891 101.993 87.7709 101.941 87.0429C101.837 85.5245 105.7 68.4789 105.903 59.8677C106.064 52.8789 100.428 56.1653 97.0632 62.6081C93.132 70.1169 86.502 87.5473 86.502 89.7833Z" fill="#FFC300"/>
<path d="M102.94 99.9702C101.754 99.9702 97.0277 100.735 95.8317 100.937C94.6357 101.14 89.9037 102.123 88.7233 102.367C88.6713 102.367 88.7233 102.471 88.7545 102.466C89.9609 102.305 101.822 100.386 102.95 100.027C102.956 100.024 102.96 100.019 102.963 100.014C102.965 100.008 102.966 100.001 102.965 99.9953C102.964 99.9891 102.961 99.9834 102.956 99.9789C102.952 99.9744 102.946 99.9714 102.94 99.9702Z" fill="#263238"/>
<path d="M95.6859 64.3084C93.0235 71.1932 90.2051 78.0364 87.8859 85.0408C87.4442 86.3366 87.0967 87.6626 86.8459 89.0084C86.7721 89.4551 86.7425 89.9079 86.7575 90.3604C86.7575 94.094 87.0799 103.116 87.1631 106.969H87.1319L88.0939 106.829L87.1423 107.021H87.1111V106.99C86.7263 101.452 86.3571 95.9244 86.2791 90.35C86.2608 89.8789 86.2869 89.4071 86.3571 88.9408C86.5984 87.5623 86.9461 86.2045 87.3971 84.8796C89.7683 77.8648 92.6335 71.0424 95.6807 64.3032L95.6859 64.3084Z" fill="#263238"/>
<path d="M94.7026 65.3538C94.4738 66.3938 94.1826 67.4338 93.9018 68.4738C93.8537 67.3774 94.1324 66.2914 94.7026 65.3538Z" fill="#263238"/>
<path d="M104.223 104.151L105.352 103.855L105.32 103.896C104.598 100.912 103.922 97.9164 103.24 94.916C102.923 93.4184 102.117 89.5964 101.842 88.156C101.654 87.3802 101.654 86.571 101.842 85.7952C102.362 82.7636 102.882 79.7372 103.428 76.716C103.974 73.6948 104.566 70.6788 105.201 67.668C104.462 72.9252 103.204 80.5536 102.351 85.868C102.18 86.5894 102.18 87.341 102.351 88.0624C102.611 89.4976 103.391 93.3612 103.672 94.8224C104.254 97.8488 104.847 100.875 105.404 103.912H105.367L104.223 104.136V104.151Z" fill="#263238"/>
<path d="M104.604 71.2975C104.921 70.2575 105.29 69.2539 105.675 68.2607C105.626 69.3568 105.253 70.4137 104.604 71.2975Z" fill="#263238"/>
<path d="M156.261 26.4576C156.262 29.1201 155.524 31.7306 154.128 33.9977C152.732 36.2648 150.733 38.0992 148.355 39.2961C145.977 40.4931 143.313 41.0054 140.66 40.7759C138.008 40.5464 135.471 39.5841 133.334 37.9964L126.293 39.7904L129.226 33.2384C128.107 31.161 127.523 28.8379 127.525 26.4784C127.525 22.6679 129.039 19.0135 131.734 16.319C134.428 13.6246 138.082 12.1108 141.893 12.1108C145.703 12.1108 149.358 13.6246 152.052 16.319C154.747 19.0135 156.261 22.6679 156.261 26.4784V26.4576Z" fill="white"/>
<path d="M156.261 26.4578C156.183 38.5842 142.377 44.9958 133.381 38.1734L126.34 40.0402L125.883 40.1598L126.075 39.723L128.987 33.1606V33.3842C125.685 27.5082 127.287 19.573 132.502 15.3506C141.946 7.55055 156.209 14.2534 156.246 26.4838L156.261 26.4578ZM156.261 26.4578C156.313 17.2746 147.322 10.2546 138.436 12.6726C129.596 14.8826 125.066 25.241 129.502 33.2282L129.455 33.3374L126.502 39.8842L126.236 39.5722L133.288 37.8146C142.887 44.7618 156.043 38.4334 156.261 26.4578Z" fill="#263238"/>
<path d="M139.565 35.0068L133.127 28.4912L135.29 26.354L139.05 30.1604L146.865 17.9092L149.429 19.5472L139.565 35.0068Z" fill="#FFC300"/>
</svg>
