<svg width="175" height="56" viewBox="0 0 175 56" fill="none" xmlns="http://www.w3.org/2000/svg">
<g clip-path="url(#clip0_2157_65400)">
<path d="M7.98936 2.61275C7.82643 2.16471 7.5704 1.75157 7.22128 1.37335C6.87215 0.995132 6.37755 0.698374 5.7433 0.483079C5.10906 0.267783 4.36425 0.157227 3.50307 0.157227C3.20049 0.157227 2.59534 0.163045 1.69343 0.174683C0.791517 0.18632 0.232914 0.192139 0.0234375 0.192139V12.4116H2.17639V7.99513C2.52552 8.03004 3.05502 8.0475 3.76492 8.0475C5.16143 8.0475 6.25536 7.66346 7.04671 6.89538C7.83807 6.1273 8.23374 5.19048 8.23374 4.08491C8.23374 3.54958 8.15228 3.05498 7.98936 2.60694V2.61275ZM5.33599 5.54542C4.91704 5.87709 4.37007 6.04002 3.69509 6.04002C3.24123 6.04002 2.73499 6.01093 2.17639 5.95274V2.19962C2.94447 2.17635 3.45652 2.16471 3.71255 2.16471C5.21379 2.16471 5.96442 2.79896 5.96442 4.06745C5.96442 4.71916 5.75494 5.21375 5.33599 5.54542Z" fill="white"/>
<path d="M13.1964 0.157227L8.0293 12.4116H10.1939L11.4682 9.2869H16.6877L17.962 12.4116H20.2487L15.0817 0.157227H13.1964ZM12.2886 7.27942L14.0867 2.93279L15.8672 7.27942H12.2886Z" fill="white"/>
<path d="M27.3541 6.09223V6.03986C27.8894 5.72565 28.2967 5.32415 28.576 4.83537C28.8553 4.34659 28.995 3.852 28.995 3.35158C28.995 2.29256 28.6633 1.46629 27.9883 0.878596C27.3192 0.290899 26.4289 -0.00585938 25.3233 -0.00585938C24.5087 -0.00585938 23.7464 0.168704 23.0365 0.517831C22.3266 0.866959 21.768 1.32664 21.3607 1.89688L22.6001 3.32831C23.2635 2.44385 24.0897 2.00162 25.0789 2.00162C25.6143 2.00162 26.0448 2.13545 26.3707 2.40312C26.6966 2.67078 26.8595 3.05482 26.8595 3.55524C26.8595 4.05565 26.6849 4.43388 26.3358 4.72481C25.9867 5.01575 25.5735 5.16122 25.0964 5.16122H23.9094V7.1687H25.1662C25.8645 7.1687 26.3998 7.31417 26.7722 7.60511C27.1446 7.89605 27.3308 8.28591 27.3308 8.77469C27.3308 9.36821 27.1155 9.82207 26.6849 10.1305C26.2543 10.4389 25.719 10.596 25.0789 10.596C24.5901 10.596 24.0781 10.4563 23.5428 10.177C23.0074 9.89772 22.5478 9.53695 22.1637 9.09472L20.9941 10.5436C21.3665 11.1138 21.9077 11.5968 22.6234 12.0041C23.3391 12.4056 24.1945 12.6035 25.1837 12.6035C26.3474 12.6035 27.3483 12.2718 28.1978 11.6084C29.0415 10.9451 29.4663 10.0723 29.4663 8.98998C29.4663 8.25682 29.2917 7.63421 28.9426 7.12215C28.5935 6.6101 28.064 6.26679 27.3541 6.09223Z" fill="white"/>
<path d="M37.1588 5.97003V5.93512C38.3225 5.38815 38.9044 4.46297 38.9044 3.15956C38.9044 2.25183 38.5785 1.51866 37.9327 0.965876C37.2868 0.413091 36.2685 0.133789 34.8836 0.133789C33.6733 0.133789 32.4979 0.162883 31.3574 0.221071V12.394C32.1488 12.4522 33.2834 12.4813 34.7614 12.4813C36.123 12.4813 37.2228 12.1729 38.0548 11.5561C38.8869 10.9393 39.3059 10.0257 39.3059 8.81542C39.3059 8.0357 39.108 7.40727 38.7124 6.93013C38.3167 6.45299 37.7988 6.13296 37.1588 5.97003ZM33.5104 2.19946C33.8944 2.16455 34.3425 2.14709 34.8545 2.14709C35.448 2.14709 35.9135 2.28092 36.2568 2.54277C36.6001 2.80461 36.7747 3.18283 36.7747 3.67161C36.7747 4.20694 36.606 4.61425 36.2685 4.88774C35.931 5.16122 35.4946 5.30087 34.9593 5.30087H33.5104V2.19946ZM34.9243 10.4738C34.4705 10.4738 33.9992 10.4447 33.5104 10.3865V7.15706H35.0291C35.7041 7.15706 36.2277 7.2909 36.6001 7.55274C36.9726 7.81459 37.1588 8.20445 37.1588 8.7165C37.1588 9.89189 36.4139 10.4796 34.9243 10.4796V10.4738Z" fill="white"/>
<path d="M43.3503 8.88516V0.191895H41.2031V12.4113H43.0884L49.4949 3.73554V12.4113H51.642V0.191895H49.7567L43.3503 8.88516Z" fill="white"/>
<path d="M53.5098 2.19938H57.4724V12.4113H59.6195V2.19938H63.5821V0.191895H53.5098V2.19938Z" fill="white"/>
<path d="M67.5963 8.88516V0.191895H65.4492V12.4113H67.3345L73.7468 3.73554V12.4113H75.8939V0.191895H74.0087L67.5963 8.88516Z" fill="white"/>
<path d="M80.4909 7.24426H84.8899V5.23678H80.4909V2.19938H85.4194V0.191895H78.3438V12.4113H85.594V10.4039H80.4909V7.24426Z" fill="white"/>
<path d="M91.5 2.19938H95.4626V12.4113H97.6097V2.19938H101.572V0.191895H91.5V2.19938Z" fill="white"/>
<path d="M109.313 7.01733L105.315 0.191895H102.889L108.283 9.12955L108.108 9.5485C107.84 10.1187 107.439 10.4039 106.904 10.4039C106.589 10.4039 106.287 10.3049 105.996 10.1071L105.245 11.9226C105.653 12.2484 106.211 12.4113 106.921 12.4113C107.631 12.4113 108.283 12.1786 108.806 11.7131C109.33 11.2476 109.807 10.5319 110.238 9.56596L114.398 0.191895H112.234L109.318 7.01733H109.313Z" fill="white"/>
<path d="M123.493 1.37335C123.144 0.995132 122.649 0.698374 122.015 0.483079C121.38 0.267783 120.63 0.157227 119.769 0.157227C119.466 0.157227 118.861 0.163045 117.959 0.174683C117.057 0.18632 116.499 0.192139 116.289 0.192139V12.4116H118.436V7.99513C118.785 8.03004 119.315 8.0475 120.025 8.0475C121.421 8.0475 122.515 7.66346 123.307 6.89538C124.098 6.1273 124.494 5.19048 124.494 4.08491C124.494 3.54958 124.412 3.05498 124.249 2.60694C124.086 2.15889 123.83 1.74576 123.481 1.36753L123.493 1.37335ZM121.607 5.54542C121.188 5.87709 120.642 6.04002 119.967 6.04002C119.513 6.04002 119.006 6.01093 118.448 5.95274V2.19962C119.216 2.17635 119.728 2.16471 119.984 2.16471C121.485 2.16471 122.236 2.79896 122.236 4.06745C122.236 4.71916 122.026 5.21375 121.607 5.54542Z" fill="white"/>
<path d="M128.2 8.88516V0.191895H126.053V12.4113H127.938L134.345 3.73554V12.4113H136.492V0.191895H134.606L128.2 8.88516Z" fill="white"/>
<path d="M144.219 6.09223V6.03986C144.755 5.72565 145.162 5.32415 145.441 4.83537C145.721 4.34659 145.86 3.852 145.86 3.35158C145.86 2.29256 145.529 1.46629 144.854 0.878596C144.184 0.290899 143.294 -0.00585938 142.189 -0.00585938C141.374 -0.00585938 140.612 0.168704 139.902 0.517831C139.192 0.866959 138.633 1.32664 138.226 1.89688L139.465 3.32831C140.129 2.44385 140.955 2.00162 141.944 2.00162C142.479 2.00162 142.91 2.13545 143.236 2.40312C143.562 2.67078 143.725 3.05482 143.725 3.55524C143.725 4.05565 143.55 4.43388 143.201 4.72481C142.852 5.01575 142.439 5.16122 141.962 5.16122H140.775V7.1687H142.031C142.73 7.1687 143.265 7.31417 143.637 7.60511C144.01 7.89605 144.196 8.28591 144.196 8.77469C144.196 9.36821 143.981 9.82207 143.55 10.1305C143.12 10.4389 142.584 10.596 141.944 10.596C141.455 10.596 140.943 10.4563 140.408 10.177C139.873 9.89772 139.413 9.53695 139.029 9.09472L137.859 10.5436C138.232 11.1138 138.773 11.5968 139.489 12.0041C140.204 12.4056 141.06 12.6035 142.049 12.6035C143.213 12.6035 144.213 12.2718 145.063 11.6084C145.907 10.9451 146.332 10.0723 146.332 8.98998C146.332 8.25682 146.157 7.63421 145.808 7.12215C145.459 6.6101 144.929 6.26679 144.219 6.09223Z" fill="white"/>
<path d="M154.565 5.90012L150.393 0.191895H148.229V12.4113H150.376V3.6308L154.268 9.00736H154.583L158.44 3.57843V12.4113H160.57V0.191895H158.545L154.565 5.90012Z" fill="white"/>
<path d="M169.437 0.157227H167.552L162.385 12.4116H164.549L165.824 9.2869H171.043L172.317 12.4116H174.604L169.437 0.157227ZM166.644 7.27942L168.442 2.93279L170.223 7.27942H166.644Z" fill="white"/>
<path d="M2.14713 30.3564V21.6631H0V33.8825H1.88529L8.29177 25.2067V33.8825H10.4389V21.6631H8.55362L2.14713 30.3564Z" fill="white"/>
<path d="M16.3281 33.8825H18.4753V23.6706H23.2234V21.6631H16.3281V33.8825Z" fill="white"/>
<path d="M29.7349 21.4712C27.8846 21.4712 26.36 22.0705 25.1672 23.2808C23.9743 24.4853 23.375 25.9866 23.375 27.7788C23.375 29.5709 23.9743 31.1711 25.173 32.3349C26.3717 33.4986 27.8904 34.0805 29.7291 34.0805C31.5679 34.0805 33.0749 33.487 34.2852 32.3C35.4955 31.1129 36.1007 29.6059 36.1007 27.7788C36.1007 25.9517 35.4955 24.3864 34.291 23.2226C33.0866 22.0589 31.562 21.477 29.7233 21.477L29.7349 21.4712ZM32.7316 30.8453C31.9926 31.6599 30.9976 32.0672 29.7349 32.0672C28.5828 32.0672 27.6111 31.6541 26.8255 30.8336C26.04 30.0132 25.6443 28.9949 25.6443 27.7671C25.6443 26.5394 26.0284 25.4803 26.8081 24.6773C27.582 23.8743 28.5595 23.4729 29.7349 23.4729C30.9103 23.4729 31.8762 23.8743 32.6618 24.6773C33.4473 25.4803 33.843 26.5103 33.843 27.7671C33.843 29.024 33.4706 30.0248 32.7316 30.8394V30.8453Z" fill="white"/>
<path d="M43.7399 32.0672C42.4946 32.0672 41.4764 31.6657 40.6908 30.8685C39.9053 30.0713 39.5096 29.0356 39.5096 27.7671C39.5096 26.4986 39.8878 25.4221 40.6384 24.6424C41.3891 23.8627 42.3433 23.4728 43.4955 23.4728C44.5079 23.4728 45.4273 23.7463 46.2536 24.2933L47.2137 22.7047C46.3059 21.8785 45.0665 21.4653 43.4955 21.4653C41.5404 21.4653 40.01 22.0588 38.9044 23.2459C37.7989 24.4329 37.2461 25.94 37.2461 27.7671C37.2461 29.5942 37.828 31.1885 38.9917 32.3406C40.1555 33.4928 41.6742 34.0688 43.5478 34.0688C44.3392 34.0688 45.0898 33.9408 45.8113 33.6848C46.5329 33.4288 47.0798 33.0971 47.4639 32.6898L46.6434 31.0838C45.7939 31.7355 44.828 32.0613 43.7457 32.0613L43.7399 32.0672Z" fill="white"/>
<path d="M48.5645 23.6706H52.527V33.8825H54.6742V23.6706H58.6368V21.6631H48.5645V23.6706Z" fill="white"/>
<path d="M62.5455 28.7155H66.9445V26.708H62.5455V23.6706H67.4682V21.6631H60.3926V33.8825H67.6428V31.8751H62.5455V28.7155Z" fill="white"/>
<path d="M69.4414 33.8825H71.5885V23.6706H77.0349V33.8825H79.1821V21.6631H69.4414V33.8825Z" fill="white"/>
<path d="M88.3931 22.8445C88.044 22.4663 87.5494 22.1696 86.9151 21.9543C86.2809 21.739 85.5303 21.6284 84.6691 21.6284C84.3665 21.6284 83.7614 21.6342 82.8594 21.6459C81.9575 21.6575 81.3989 21.6633 81.1895 21.6633V33.8828H83.3366V29.4663C83.6857 29.5012 84.2152 29.5187 84.9251 29.5187C86.3216 29.5187 87.4156 29.1347 88.2069 28.3666C88.9983 27.5985 89.3939 26.6617 89.3939 25.5561C89.3939 25.0208 89.3125 24.5262 89.1496 24.0781C88.9866 23.6301 88.7306 23.2169 88.3815 22.8387L88.3931 22.8445ZM86.5078 27.0166C86.0889 27.3483 85.5419 27.5112 84.8669 27.5112C84.4131 27.5112 83.9068 27.4821 83.3482 27.4239V23.6708C84.1163 23.6475 84.6284 23.6359 84.8844 23.6359C86.3856 23.6359 87.1363 24.2701 87.1363 25.5386C87.1363 26.1903 86.9268 26.6849 86.5078 27.0166Z" fill="white"/>
<path d="M93.4206 30.3564V21.6631H91.2734V33.8825H93.1587L99.5652 25.2067V33.8825H101.712V21.6631H99.8271L93.4206 30.3564Z" fill="white"/>
<path d="M105.88 30.3564V21.6631H103.732V33.8825H105.618L112.03 25.2067V33.8825H114.177V21.6631H112.292L105.88 30.3564Z" fill="white"/>
<path d="M122.532 27.3713L118.354 21.6631H116.189V33.8825H118.337V25.102L122.235 30.4785H122.549L126.407 25.0496V33.8825H128.537V21.6631H126.512L122.532 27.3713Z" fill="white"/>
<path d="M137.074 32.0672C135.829 32.0672 134.81 31.6657 134.025 30.8685C133.239 30.0713 132.844 29.0356 132.844 27.7671C132.844 26.4986 133.222 25.4221 133.972 24.6424C134.723 23.8627 135.677 23.4728 136.829 23.4728C137.842 23.4728 138.761 23.7463 139.588 24.2933L140.548 22.7047C139.64 21.8785 138.401 21.4653 136.829 21.4653C134.874 21.4653 133.344 22.0588 132.238 23.2459C131.133 24.4329 130.58 25.94 130.58 27.7671C130.58 29.5942 131.162 31.1885 132.326 32.3406C133.489 33.4928 135.008 34.0688 136.882 34.0688C137.673 34.0688 138.424 33.9408 139.145 33.6848C139.867 33.4288 140.414 33.0971 140.798 32.6898L139.977 31.0838C139.128 31.7355 138.162 32.0613 137.08 32.0613L137.074 32.0672Z" fill="white"/>
<path d="M142.443 23.6706H146.406V33.8825H148.553V23.6706H152.516V21.6631H142.443V23.6706Z" fill="white"/>
<path d="M159.743 27.4412V27.4063C160.906 26.8593 161.488 25.9342 161.488 24.6307C161.488 23.723 161.163 22.9899 160.517 22.4371C159.871 21.8843 158.852 21.605 157.468 21.605C156.257 21.605 155.082 21.6341 153.941 21.6923V33.8593C154.733 33.9175 155.867 33.9466 157.345 33.9466C158.707 33.9466 159.807 33.6382 160.639 33.0214C161.471 32.4046 161.89 31.4911 161.89 30.2808C161.89 29.5011 161.692 28.8726 161.296 28.3955C160.901 27.9184 160.383 27.5983 159.743 27.4354V27.4412ZM156.094 23.6706C156.478 23.6357 156.926 23.6183 157.439 23.6183C158.032 23.6183 158.498 23.7521 158.841 24.014C159.184 24.2758 159.359 24.654 159.359 25.1428C159.359 25.6781 159.19 26.0854 158.852 26.3589C158.515 26.6324 158.079 26.7721 157.543 26.7721H156.094V23.6823V23.6706ZM157.508 31.945C157.054 31.945 156.583 31.9159 156.094 31.8577V28.6283H157.613C158.288 28.6283 158.812 28.7621 159.184 29.0239C159.557 29.2858 159.743 29.6756 159.743 30.1877C159.743 31.3631 158.998 31.9508 157.508 31.9508V31.945Z" fill="white"/>
<path d="M169.466 21.6284H167.581L162.414 33.8828H164.579L165.853 30.7581H171.072L172.347 33.8828H174.634L169.466 21.6284ZM166.673 28.7506L168.471 24.404L170.252 28.7506H166.673Z" fill="white"/>
<path d="M6.91283 48.8489L2.74076 43.1406H0.576172V55.3601H2.7233V46.5795L6.61607 51.9561H6.93029L10.7881 46.5272V55.3601H12.9178V43.1406H10.8929L6.91283 48.8489Z" fill="white"/>
<path d="M39.3297 53.5447C38.0845 53.5447 37.0662 53.1432 36.2807 52.346C35.4951 51.5489 35.0994 50.5189 35.0994 49.2446C35.0994 47.9703 35.4777 46.8996 36.2283 46.1199C36.9789 45.3402 37.9332 44.9504 39.0853 44.9504C40.0978 44.9504 41.0172 45.2238 41.8434 45.7708L42.8035 44.1823C41.8958 43.356 40.6564 42.9429 39.0853 42.9429C37.1302 42.9429 35.5999 43.5364 34.4943 44.7234C33.3887 45.9105 32.8359 47.4175 32.8359 49.2446C32.8359 51.0717 33.4178 52.6661 34.5816 53.8182C35.7453 54.9703 37.264 55.5464 39.1377 55.5464C39.929 55.5464 40.6797 55.4183 41.4012 55.1623C42.1169 54.9063 42.6697 54.5746 43.0537 54.1673L42.2333 52.5613C41.3837 53.213 40.4178 53.5389 39.3355 53.5389L39.3297 53.5447Z" fill="white"/>
<path d="M54.7322 43.1406H52.1487L47.3307 48.9361V43.1406H45.1836V55.3601H47.3307V49.0583L52.3232 55.3601H55.0464L49.7048 48.8314L54.7322 43.1406Z" fill="white"/>
<path d="M62.2427 48.9188V48.8839C63.4065 48.3369 63.9884 47.4117 63.9884 46.1083C63.9884 45.2006 63.6625 44.4674 63.0166 43.9146C62.3708 43.3618 61.3525 43.0825 59.9676 43.0825C58.7573 43.0825 57.5819 43.1116 56.4414 43.1698V55.3369C57.2328 55.3951 58.3674 55.4242 59.8454 55.4242C61.207 55.4242 62.3067 55.1158 63.1388 54.499C63.9709 53.8822 64.3899 52.9686 64.3899 51.7583C64.3899 50.9786 64.192 50.3502 63.7964 49.873C63.4007 49.3959 62.8828 49.0759 62.2427 48.9129V48.9188ZM58.5944 45.1482C58.9784 45.1133 59.4264 45.0958 59.9385 45.0958C60.532 45.0958 60.9975 45.2297 61.3408 45.4915C61.6841 45.7533 61.8587 46.1316 61.8587 46.6203C61.8587 47.1557 61.69 47.563 61.3525 47.8365C61.015 48.1099 60.5786 48.2496 60.0432 48.2496H58.5944V45.1598V45.1482ZM60.0083 53.4225C59.5545 53.4225 59.0831 53.3934 58.5944 53.3352V50.1058H60.1131C60.788 50.1058 61.3117 50.2396 61.6841 50.4957C62.0565 50.7575 62.2427 51.1474 62.2427 51.6594C62.2427 52.8348 61.4979 53.4225 60.0083 53.4225Z" fill="white"/>
<path d="M77.9832 43.1406H75.8535V55.3601H77.9832V43.1406Z" fill="white"/>
<path d="M69.7958 47.2429C69.342 47.2429 68.8881 47.272 68.4342 47.3301V43.1406H66.2871V55.3601C66.4849 55.3601 66.933 55.3601 67.6429 55.3775C68.347 55.3892 68.9114 55.395 69.3245 55.395C70.8723 55.395 72.0826 55.0226 72.9554 54.272C73.8283 53.5213 74.2647 52.4914 74.2647 51.188C74.2647 49.9544 73.8864 48.9885 73.1358 48.2903C72.3852 47.592 71.268 47.2429 69.79 47.2429H69.7958ZM69.5864 53.3875C69.4583 53.3875 69.3303 53.3875 69.2023 53.3817C69.0743 53.3817 68.9347 53.3642 68.7834 53.3526C68.6321 53.341 68.5157 53.3351 68.4342 53.3351V49.3376C68.9812 49.2794 69.3769 49.2504 69.6213 49.2504C70.3777 49.2504 70.9654 49.4191 71.3785 49.7566C71.7917 50.0941 72.0012 50.5887 72.0012 51.2404C72.0012 52.6718 71.1982 53.3875 69.5922 53.3875H69.5864Z" fill="white"/>
<path d="M23.2222 39.0732L25.4217 45.3633L32.2471 45.439L26.6087 49.8089L28.6395 56.0001L23.2222 52.2179L17.8107 56.0001L19.824 49.838L14.1973 45.439L21.0227 45.3633L23.2222 39.0732Z" fill="#E50843"/>
</g>
<defs>
<clipPath id="clip0_2157_65400">
<rect width="174.639" height="56" fill="white"/>
</clipPath>
</defs>
</svg>
